<?xml version="1.0" encoding="utf-8"?>
<!-- Generator: Adobe Illustrator 28.0.0, SVG Export Plug-In . SVG Version: 6.00 Build 0)  -->
<svg version="1.1" id="Layer_8" xmlns="http://www.w3.org/2000/svg" xmlns:xlink="http://www.w3.org/1999/xlink" x="0px" y="0px"
	 viewBox="0 0 1820 1214" style="enable-background:new 0 0 1820 1214;" xml:space="preserve">
<style type="text/css">
	.st0{fill:#F5FAEC;}
	.st1{fill:#E5E6EB;}
	.st2{fill:#FFFFFF;}
	.st3{fill:#BD9518;}
	.st4{fill:#FCC620;}
	.st5{fill:#050F64;}
	.st6{fill:#EA8096;}
	.st7{fill:#155BCD;}
	.st8{fill:#F5BDC8;}
	.st9{fill:#84A9FF;}
	.st10{fill:#FFBD00;}
	.st11{fill:#DCA000;}
	.st12{fill:#F4BCC7;}
	.st13{fill:#155BCC;}
	.st14{opacity:0.1;}
</style>
<rect class="st0" width="1820" height="1214"/>
<g>
	<g>
		<g>
			<g>
				<g>
					<g>
						<g>
							<path class="st1" d="M1174.2,278.6l-45.7-28.1l-31.7,39.3c-10.9-3.3-22-5-33.1-5.3l-17.9-47.3l-52.1,12.4l5.4,50.3
								c-9.8,5.3-18.9,11.9-27.2,19.7l-46.1-20.8l-28.1,45.7l39.3,31.7c-3.3,10.9-5,22-5.3,33.1l-47.3,17.9l12.4,52.1l50.3-5.4
								c5.3,9.8,11.9,18.9,19.7,27.2L946,547.3l45.7,28.1l31.7-39.3c10.9,3.3,22,5,33.1,5.3l17.9,47.3l52.1-12.4l-5.4-50.3
								c9.8-5.3,18.9-11.9,27.2-19.7l46.1,20.8l28.1-45.7l-39.3-31.7c3.3-10.9,5-22,5.3-33.1l47.3-17.9l-12.4-52.1l-50.3,5.4
								c-5.3-9.8-11.9-18.9-19.7-27.2L1174.2,278.6z"/>
						</g>
					</g>
				</g>
			</g>
			<g>
				<g>
					<g>
						<g>
							<path class="st2" d="M1081.2,316.1l-1.4,4.6c10.2,2.2,20.3,6.1,29.7,11.9c12.3,7.6,22.3,17.6,29.7,29l0,0l4.7-1.6
								c-7.8-12.4-18.5-23.3-31.9-31.5C1102.3,322.5,1091.8,318.4,1081.2,316.1z M1151.1,388.4c6.5,24.2,3.5,50.9-10.7,73.9
								c-16.4,26.6-44,42.3-73,44.6l-0.9,4.9c31-2,60.6-18.5,78-46.9c14.8-24.1,18.1-52.1,11.3-77.4L1151.1,388.4z M975.7,361
								c-28.6,46.5-14.1,107.7,32.5,136.3c0.6,0.4,1.2,0.7,1.8,1.1l1.6-4.6c-0.3-0.2-0.6-0.4-0.9-0.6
								c-44.3-27.2-58.1-85.4-30.9-129.7c4.6-7.5,10.1-14.1,16.2-19.8l-1.6-5C987.3,345,981,352.5,975.7,361z"/>
						</g>
					</g>
				</g>
			</g>
			<g>
				<g>
					<g>
						<g>
							<path class="st2" d="M1090.4,431.6c-10.3,16.7-32.2,21.9-48.9,11.7c-14.5-8.9-20.4-26.7-14.9-42.2l-4.2-2.6
								c-6.8,17.8-0.3,38.5,16.5,48.8c19,11.7,43.9,5.7,55.6-13.2c0.3-0.5,0.6-1,0.9-1.5l-3.7-3.3
								C1091.3,430,1090.9,430.8,1090.4,431.6z M1037.2,379.7l3.1,3.7c11.2-7.5,26.2-8.3,38.5-0.8c11.4,7,17.5,19.4,16.9,31.9
								l4.8,0.9c0.9-14.4-6-28.8-19.1-36.9C1067.2,369.9,1049.9,370.9,1037.2,379.7z"/>
						</g>
					</g>
				</g>
			</g>
		</g>
		<g>
			<g>
				<g>
					<g>
						<g>
							<path class="st1" d="M935.5,529.2L914,495.7l-34,16.1c-6.2-5.7-13.1-10.5-20.5-14.2l3.3-37.4l-38.9-8.5L811.3,487
								c-8.3,0.4-16.5,1.8-24.6,4.4l-24.1-28.8L729,484.1l16.1,34c-5.7,6.2-10.5,13.1-14.2,20.5l-37.4-3.3l-8.5,38.9l35.4,12.6
								c0.4,8.3,1.8,16.5,4.4,24.6l-28.8,24.1l21.5,33.5l34-16.1c6.2,5.7,13.1,10.5,20.5,14.2l-3.3,37.4l38.9,8.5l12.6-35.4
								c8.3-0.4,16.5-1.8,24.6-4.4l24.1,28.8l33.5-21.5l-16.1-34c5.7-6.2,10.5-13.1,14.2-20.5l37.4,3.3l8.5-38.9l-35.4-12.6
								c-0.4-8.3-1.8-16.5-4.4-24.6L935.5,529.2z"/>
						</g>
					</g>
				</g>
			</g>
			<g>
				<g>
					<g>
						<g>
							<path class="st2" d="M861.1,524.3l-2.4,2.7c6.2,4.8,11.6,10.6,16,17.5c5.8,9.1,9.3,19,10.5,29l0,0l3.7,0.5
								c-1.2-10.9-4.9-21.6-11.2-31.4C873.1,535.4,867.5,529.3,861.1,524.3z M884.5,595.3c-3.4,18.3-14.1,35.2-31,46.1
								c-19.6,12.5-43.1,14.1-63.3,6.3l-2.2,3c21.4,8.6,46.5,7.2,67.4-6.2c17.7-11.3,28.9-29,32.6-48.2L884.5,595.3z M776,520.3
								c-34.2,21.9-44.2,67.6-22.3,101.7c0.3,0.4,0.6,0.9,0.9,1.3l2.6-2.6c-0.1-0.2-0.3-0.4-0.4-0.7c-20.8-32.5-11.3-76,21.2-96.8
								c5.5-3.5,11.3-6.2,17.3-8l0.5-3.9C788.9,513.4,782.2,516.3,776,520.3z"/>
						</g>
					</g>
				</g>
			</g>
			<g>
				<g>
					<g>
						<g>
							<path class="st2" d="M830,604.6c-12.3,7.9-28.7,4.3-36.5-8c-6.8-10.7-5-24.5,3.6-33l-2-3.1c-10.3,9.7-12.6,25.7-4.7,38
								c8.9,13.9,27.5,18,41.5,9.1c0.4-0.2,0.7-0.5,1-0.7l-1.4-3.4C831.1,603.9,830.5,604.2,830,604.6z M811.1,552.7l0.9,3.5
								c9.9-1.4,20.2,2.9,26,11.9c5.4,8.4,5.4,18.7,1,26.8l2.9,2.1c5.2-9.4,5.3-21.3-0.9-30.9C834.4,555.8,822.5,550.9,811.1,552.7z
								"/>
						</g>
					</g>
				</g>
			</g>
		</g>
		<g>
			<g>
				<g>
					<g>
						<g>
							<path class="st1" d="M1092.8,627.7L1077,606l-22.2,12.1c-4.4-3.6-9.2-6.5-14.3-8.8l0.8-25.3l-26.5-4.2l-7.1,24.2
								c-5.5,0.6-11,1.9-16.3,3.9l-17.3-18.4l-21.7,15.7l12.1,22.2c-3.6,4.4-6.5,9.2-8.8,14.3l-25.3-0.8l-4.2,26.5l24.2,7.1
								c0.6,5.5,1.9,11,3.9,16.3l-18.4,17.3l15.7,21.7l22.2-12.1c4.4,3.6,9.2,6.5,14.3,8.8l-0.8,25.3l26.5,4.2l7.1-24.2
								c5.5-0.6,11-1.9,16.3-3.9l17.3,18.4l21.7-15.7l-12.1-22.2c3.6-4.4,6.5-9.2,8.8-14.3l25.3,0.8l4.2-26.5l-24.2-7.1
								c-0.6-5.5-1.9-11-3.9-16.3L1092.8,627.7z"/>
						</g>
					</g>
				</g>
			</g>
			<g>
				<g>
					<g>
						<g>
							<path class="st2" d="M1042.7,627.3l-1.5,1.9c4.3,3,8.2,6.7,11.4,11.1c4.2,5.9,6.9,12.4,8.2,19l0,0l2.5,0.2
								c-1.2-7.2-4.1-14.3-8.7-20.6C1051.1,634.3,1047.1,630.4,1042.7,627.3z M1061.1,674c-1.6,12.4-8.1,24.2-19,32.1
								c-12.7,9.2-28.4,11.1-42.2,6.7l-1.4,2.1c14.7,5,31.5,3,45-6.8c11.4-8.3,18.3-20.6,20-33.6L1061.1,674z M985.4,627.9
								c-22.1,16-27,47.1-11,69.2c0.2,0.3,0.4,0.6,0.6,0.9l1.6-1.8c-0.1-0.1-0.2-0.3-0.3-0.4c-15.3-21-10.6-50.5,10.5-65.8
								c3.6-2.6,7.3-4.6,11.3-6l0.2-2.6C993.7,622.7,989.4,625,985.4,627.9z"/>
						</g>
					</g>
				</g>
			</g>
			<g>
				<g>
					<g>
						<g>
							<path class="st2" d="M1024.9,682.4c-7.9,5.8-19.1,4-24.8-4c-5-6.9-4.3-16.2,1.2-22.3l-1.4-2c-6.5,6.9-7.5,17.7-1.7,25.7
								c6.5,9,19.2,11,28.2,4.5c0.2-0.2,0.5-0.3,0.7-0.5l-1.1-2.2C1025.6,681.8,1025.2,682.1,1024.9,682.4z M1010.2,648.2l0.7,2.3
								c6.6-1.3,13.7,1.2,17.9,7c3.9,5.4,4.4,12.3,1.7,18l2,1.3c3.2-6.5,2.7-14.5-1.8-20.7C1025.9,649.5,1017.7,646.6,1010.2,648.2z
								"/>
						</g>
					</g>
				</g>
			</g>
		</g>
	</g>
	<g>
		<g>
			<g>
				<g>
					<polygon class="st3" points="832.7,740.8 746.1,740.8 851.2,966.8 937.8,966.8 					"/>
				</g>
			</g>
		</g>
		<g>
			<g>
				<g>
					<polygon class="st4" points="1270.8,518.2 1357.4,518.2 1192.5,966.8 1105.9,966.8 					"/>
				</g>
			</g>
		</g>
		<g>
			<g>
				<g>
					<polygon class="st3" points="1068.8,632.9 982.2,632.9 1103.9,966.8 1190.4,966.8 					"/>
				</g>
			</g>
		</g>
		<g>
			<g>
				<g>
					<polygon class="st4" points="1349.7,408.6 1231.6,518.2 1386.8,518.2 					"/>
				</g>
			</g>
		</g>
		<g>
			<g>
				<g>
					<polygon class="st4" points="743.3,740.8 829.9,740.8 748.9,966.8 662.4,966.8 					"/>
				</g>
			</g>
		</g>
		<g>
			<g>
				<g>
					<polygon class="st4" points="975.7,632.9 1062.3,632.9 940.6,966.8 854.1,966.8 					"/>
				</g>
			</g>
		</g>
	</g>
	<g>
		<g>
			<g>
				<path class="st5" d="M1401.4,972.8c0,1.7-0.7,3.2-1.8,4.3c-1.1,1.1-2.6,1.8-4.3,1.8H424.8c-3.4,0-6.1-2.7-6.1-6.1
					c0-1.7,0.7-3.2,1.8-4.3c1.1-1.1,2.6-1.8,4.3-1.8h970.4C1398.6,966.8,1401.4,969.5,1401.4,972.8z"/>
			</g>
		</g>
	</g>
	<g>
		<g>
			<g>
				<g>
					<g>
						<g>
							<path class="st5" d="M884,966.3l-58.5,0.4c0-2,0.4-3.9,1.6-5.5c1.4-1.8,3.6-2.8,5.8-3.2c2.2-0.4,4.5-0.3,6.8-0.4
								c5.5-0.3,11-1.9,15.8-4.7c2.5-1.4,4.9-3.2,7.6-4.2l15.9,0.3c2.2,2.3,3.6,5.4,4.3,8.6C884,960.5,884.1,963.4,884,966.3z"/>
						</g>
					</g>
				</g>
				<g>
					<g>
						<g>
							<path class="st5" d="M1013.7,966.4l-58.5,0.3c0-2,0.4-3.9,1.6-5.5c1.4-1.8,3.6-2.8,5.8-3.2c2.2-0.4,4.5-0.3,6.8-0.4
								c5.5-0.3,11-1.9,15.8-4.7c2.5-1.4,4.9-3.2,7.6-4.2l15.9,0.3c2.2,2.3,3.6,5.4,4.3,8.6C1013.7,960.6,1013.8,963.5,1013.7,966.4
								z"/>
						</g>
					</g>
				</g>
				<g>
					<g>
						<g>
							<path class="st5" d="M1006.6,656.3c0,0-57.2-10.6-57.2-10.6l0,0c-0.1,3-67.4-17-68.5-1.3c0,0-13.6,111.3-13.6,111.3
								c-1.1,8.8-1.7,17.7-2,26.6l-5,167.4l20.4-0.1L940.2,712L990,949l20.4,0.2L1006.6,656.3z"/>
						</g>
					</g>
				</g>
			</g>
			<g>
				<g>
					<g>
						<g>
							<g>
								<path class="st6" d="M720.3,545l12.4-0.2l-1,13l-12.2-1.9c-3.1-0.4-5.4-3-5.2-5.9C714.5,547.1,717.1,544.9,720.3,545z"/>
							</g>
						</g>
					</g>
				</g>
				<g>
					<g>
						<g>
							<path class="st7" d="M731.4,558.6l0.6-15.1c16.9-0.3,33.7-0.9,49.7-3.3c8-1.2,15.7-2.9,23.1-5.3c7.3-2.4,14.3-5.4,20.7-9.2
								c12.9-7.6,24-18.2,33.9-30.3c5-6.1,9.6-12.6,14.1-19.2l3.3-5l3.2-5.2l1.6-2.6l1.6-2.6l3.1-5.3c0.2-0.3,0.3-0.5,0.5-0.8
								c1.4-2.2,3.2-4,5.3-5.3c2.1-1.4,4.4-2.4,6.8-2.9c4.9-1,10.3-0.3,15,2.6l0,0c4.8,3,7.8,7.7,8.8,12.8c1,5.2-0.2,10.8-3.6,15.5
								l-4.1,5.3l-2,2.6l-2.1,2.6c-1.4,1.7-2.8,3.5-4.2,5.2l-4.3,5.1c-5.9,6.8-12,13.5-18.6,19.8c-6.6,6.3-13.7,12.4-21.4,17.9
								c-7.7,5.5-16,10.3-24.7,14.1c-8.7,3.8-17.9,6.5-27,8.3c-9.1,1.8-18.2,2.6-27.2,2.9c-8.9,0.3-17.7,0-26.4-0.5
								C748.5,560.2,739.9,559.4,731.4,558.6z"/>
						</g>
					</g>
				</g>
				<g>
					<g>
						<g>
							<g>
								<path class="st2" d="M880.1,465.9l1.6-2.6l1.6-2.6l3.1-5.3c0.2-0.3,0.3-0.5,0.5-0.8c1.4-2.2,3.2-4,5.3-5.3
									c0.7-0.5,1.5-0.9,2.2-1.3l-0.1-0.8c-0.8,0.4-1.7,0.9-2.5,1.4c-2.2,1.5-4.1,3.3-5.6,5.5c-0.2,0.3-0.3,0.5-0.5,0.8l-4.7,7.9
									l-1.6,2.6l-0.6,1l0.5,0.6L880.1,465.9z M869.9,481.3l-0.6-0.5c-3.4,4.8-6.6,9.2-9.8,13.2l0.5,0.6
									C863.4,490.3,866.7,485.9,869.9,481.3z M919.9,477.9c3.4-4.8,4.8-10.6,3.7-16.1c-0.5-2.8-1.6-5.3-3.2-7.7
									c-1.6-2.3-3.6-4.2-6-5.7l0,0c-3.6-2.3-7.8-3.3-12-3.1l0.1,0.8c3.9-0.2,7.9,0.8,11.5,3l0,0c4.8,3,7.8,7.7,8.8,12.8
									c1,5.2-0.2,10.8-3.6,15.5l-1.8,2.4l0.8,0.2L919.9,477.9z M862.9,536.6c7.2-5.1,14.2-11,21.5-17.9c6-5.8,12.1-12.3,18.7-19.9
									l4.3-5.1c0,0,0,0,0,0l-0.5-0.6c0,0-0.1,0.1-0.1,0.1l-4.3,5.1c-5.9,6.8-12,13.5-18.6,19.8c-6.6,6.3-13.7,12.4-21.4,17.9
									c-2.9,2.1-6,4.1-9,5.9l0.3,0.7C856.8,540.8,859.9,538.8,862.9,536.6z M804.7,559.4c-7.1,1.1-14.2,1.6-21.2,1.8
									c-8.9,0.3-17.7,0-26.4-0.5c-3.5-0.2-7-0.5-10.5-0.8l-0.6,0.7c3.9,0.3,7.5,0.6,11.1,0.8c10,0.6,18.4,0.8,26.5,0.5
									c7.5-0.2,14.5-0.8,21.2-1.8C804.8,559.9,804.8,559.7,804.7,559.4z M781.7,540.1c8-1.2,15.7-2.9,23.1-5.3
									c7.3-2.4,14.3-5.4,20.7-9.2c3.3-1.9,6.5-4.1,9.6-6.4l-0.6-0.5c-3.1,2.3-6.2,4.4-9.4,6.3c-6.1,3.6-13.1,6.7-20.6,9.1
									c-6.9,2.2-14.4,4-23,5.2c-2.2,0.3-4.4,0.6-6.6,0.9l-0.2,0.8C777.1,540.7,779.4,540.4,781.7,540.1z M767.9,541
									c-12.3,1.1-24.7,1.5-35.9,1.7l-0.7,0l-0.3,8.1c0.3-0.1,0.5-0.2,0.8-0.3l0.3-7c12.1-0.2,24.1-0.6,35.9-1.7L767.9,541z"/>
							</g>
						</g>
					</g>
				</g>
			</g>
			<g>
				<g>
					<g>
						<path class="st7" d="M1006.6,656.3c-41.7,13.4-77.4,13.3-124.5-9.9l1.8-126.3l0.3-16.2l0.1-6l0.2-11.5c0-1.6,0.1-3.2,0.3-4.8
							c2-19.1,14.6-34.9,31.5-41.8c1.6-0.7,3.3-1.2,5.1-1.7c5.9-1.7,12.2-2.3,18.7-1.7c1.7,0.2,3.4,0.4,5.1,0.7
							c3.6,0.6,7.1,1.6,10.5,2.8c19,7,33.5,22.9,38.7,42.5c1.2,4.7,1.9,9.6,2,14.7l0,1.6l0.1,6l0.2,7.5L1006.6,656.3z"/>
					</g>
				</g>
			</g>
			<g>
				<g>
					<g>
						<g>
							<g>
								<path class="st8" d="M917.3,409.4l4.4,37.6c8.8,4.3,17,3.4,24.5-2.9l-4.4-37.6L917.3,409.4z"/>
							</g>
						</g>
					</g>
					<g>
						<g>
							<g>
								<path class="st6" d="M917.3,409.4l2,17c1.8,0.5,3.7,0.7,5.6,0.6c0.6,0,1.2-0.1,1.9-0.1c6.7-0.8,12.7-4.7,16.2-10.3
									l-1.2-10.1L917.3,409.4z"/>
							</g>
						</g>
					</g>
					<g>
						<g>
							<g>
								<path class="st8" d="M903.4,387.7l2.4,15.6l1,6.3c1.4,8.8,9.1,15.2,18,14.9c2.9-0.1,5.8-0.8,8.3-2.1c0.6-0.3,1.2-0.6,1.7-1
									c0.3-0.2,0.7-0.4,1-0.7c3.1-2.3,5.6-5.5,6.9-9.3c1.1-3.2,2.1-6.7,3-10.4c0.5-2.1,1-4.3,1.5-6.5c2.1-9.7-1.2-20-8.8-26.3
									c-6.5-5.4-14.1-6.4-22.7-2.8C907,369.2,902,378.4,903.4,387.7z"/>
							</g>
						</g>
					</g>
					<g>
						<g>
							<g>
								<path class="st5" d="M935.2,393.9l-2.8-1.4c0,0,4.8-11.4,2.8-15.1c-2.8-5.3-16.6-5.9-23.4-4c-2.1,0.6-3.8,1.5-4.5,3.6
									c-1.6,4.6-3.4,13.6-2.1,22.3c0,0-10.1-26.4-1.9-40.7c5.4-9.4,10.3-16,22.7-10.6c19.7,8.5,30.5,24.1,27.4,47.2l-12.9-4.7
									L935.2,393.9z"/>
							</g>
						</g>
					</g>
				</g>
				<g>
					<g>
						<g>
							
								<ellipse transform="matrix(0.9931 -0.1169 0.1169 0.9931 -39.6392 113.0787)" class="st8" cx="944.2" cy="394.5" rx="9.2" ry="8.2"/>
						</g>
					</g>
				</g>
			</g>
			<g>
				<g>
					<g>
						<g>
							<path class="st9" d="M881.7,604.2h1l1.2-84.2l0-0.8l-1,0.2l0,0.6L881.7,604.2z M966.4,445.2c13.6,8.3,23.8,21.6,27.9,37.3
								c0.1,0.5,0.2,0.9,0.4,1.4l1-0.2c-0.1-0.5-0.2-1-0.4-1.5c-4.2-16-14.5-29.5-28.4-37.9L966.4,445.2z M998.2,520.1l-1,0.2
								l7.7,111.3h1L998.2,520.1z M883.2,499.6h1l0-1.8l0.2-11.5c0-1.6,0.1-3.2,0.3-4.8c1.8-17.4,12.3-32,26.9-39.6l-0.3-1
								c-15.4,8-25.8,23.1-27.6,40.5c-0.2,1.6-0.3,3.2-0.3,4.9L883.2,499.6z M881.1,647l0.6,0.3c13.2,6.5,25.6,11.3,37.6,14.4
								c12,3.1,23.7,4.7,35.5,4.7c15.2,0,30.6-2.5,48.2-7.8l-0.3-1c-40,12.1-74.9,11.3-120.5-11.2l0.3-20.9h-1L881.1,647z"/>
						</g>
					</g>
				</g>
			</g>
			<g>
				<g>
					<g>
						<g>
							<path class="st10" d="M934.7,456.1c-2.3-0.5-4.6-1.1-6.9-1.6c-11.7,47.8-16.6,98.3-13.9,150c3.6,5,7.4,9.8,11.1,14.6
								c2.8-5.3,5.7-10.5,8.6-15.6C926.8,553.9,927.3,504.2,934.7,456.1z"/>
						</g>
					</g>
				</g>
			</g>
			<g>
				<g>
					<g>
						<g>
							<path class="st9" d="M955.6,440l-17.9,29.3l-6.5-13.9l-13.8,12l-1.1-27.4c1.6-0.7,2.6-1,4.4-1.5l10.9,10.7l13.8-11.8
								C949,437.8,952.3,438.8,955.6,440z"/>
						</g>
					</g>
				</g>
			</g>
			<g>
				<g>
					<g>
						<g>
							<g>
								<path class="st7" d="M1021.6,725.3h-46.4c-3.7,0-6.7-3-6.7-6.7v-24.4c0-16.5,13.4-30,30-30c16.5,0,29.9,13.4,29.9,30v24.4
									C1028.4,722.3,1025.3,725.3,1021.6,725.3z M976.8,717h43.2v-22.8c0-11.9-9.7-21.6-21.6-21.6c-11.9,0-21.6,9.7-21.6,21.6V717
									z"/>
							</g>
						</g>
					</g>
				</g>
				<g>
					<g>
						<g>
							<path class="st7" d="M1054.1,695.7H942.7c-6,0-10.8,4.8-10.8,10.8v69.7c0,6,4.8,10.8,10.8,10.8h111.4c6,0,10.8-4.8,10.8-10.8
								v-69.7C1064.9,700.5,1060.1,695.7,1054.1,695.7z"/>
						</g>
					</g>
				</g>
				<g>
					<g>
						<g>
							<g>
								<path class="st5" d="M1055,745.8l-56.5-10.6l-56.5,10.6c-5.4,0.5-10-3.7-10-9.1v-33.2h133v33.2
									C1064.9,742.1,1060.3,746.3,1055,745.8z"/>
							</g>
						</g>
					</g>
				</g>
				<g>
					<g>
						<g>
							<path class="st7" d="M931.9,695.7v33.2c0,5.4,4.6,9.6,10,9.1l56.5-5.3l56.5,5.3c5.4,0.5,10-3.7,10-9.1v-33.2H931.9z"/>
						</g>
					</g>
				</g>
				<g>
					<g>
						<g>
							<path class="st11" d="M987.7,721.1v19.1c0,3.1,2.5,5.6,5.6,5.6h10.1c3.1,0,5.6-2.5,5.6-5.6v-19.1H987.7z"/>
						</g>
					</g>
				</g>
				<g>
					<g>
						<g>
							<path class="st10" d="M998.4,733.8c-2.4,0-4.4,1.9-4.4,4.4V750c0,2.4,1.9,4.4,4.4,4.4c2.4,0,4.4-1.9,4.4-4.4v-11.8
								C1002.8,735.8,1000.8,733.8,998.4,733.8z"/>
						</g>
					</g>
				</g>
				<g>
					<g>
						<g>
							<g>
								<rect x="961.8" y="689.5" class="st9" width="20.9" height="6.2"/>
							</g>
						</g>
					</g>
				</g>
				<g>
					<g>
						<g>
							<g>
								<rect x="1013.7" y="689.5" class="st9" width="20.9" height="6.2"/>
							</g>
						</g>
					</g>
				</g>
			</g>
			<g>
				<g>
					<g>
						<g>
							<g>
								<path class="st12" d="M991.9,670.2l3.7-11.8l12,5l-5.6,11c-1.4,2.8-4.5,4.2-7.2,3.1C992.1,676.3,990.9,673.1,991.9,670.2z"
									/>
							</g>
						</g>
					</g>
				</g>
				<g>
					<g>
						<g>
							<path class="st7" d="M1008.3,663.8l-14.2-5.3c4.9-16.2,9.6-32.3,12.3-48.3c1.3-8,2.1-15.9,2.2-23.6c0-7.7-0.7-15.2-2.3-22.6
								c-3.2-14.6-9.8-28.4-18.2-41.6c-4.2-6.6-8.9-13-13.9-19.4l-3.8-4.7l-3.9-4.7l-1.9-2.3l-2-2.3l-4-4.6
								c-0.2-0.2-0.4-0.5-0.6-0.7c-1.6-2-2.8-4.3-3.4-6.7c-0.6-2.4-0.9-4.9-0.6-7.4c0.5-5,2.9-9.9,7.1-13.4l0,0
								c4.3-3.6,9.7-5.1,14.9-4.4c5.2,0.6,10.2,3.5,13.6,8.2l3.7,5.5l1.9,2.8l1.8,2.8c1.2,1.9,2.4,3.7,3.6,5.6l3.5,5.7
								c4.6,7.7,9.1,15.6,13.1,23.9c4,8.3,7.5,16.9,10.3,25.9c2.8,9,4.8,18.4,5.7,27.9c0.9,9.5,0.6,19-0.5,28.3
								c-1.2,9.2-3.2,18.1-5.7,26.7c-2.5,8.6-5.5,16.8-8.7,24.9C1015.2,648.1,1011.8,656,1008.3,663.8z"/>
						</g>
					</g>
				</g>
				<g>
					<g>
						<g>
							<g>
								<path class="st9" d="M966.5,493.7l-1.9-2.3l-2-2.3l-4-4.6c-0.2-0.2-0.4-0.5-0.6-0.7c-1.6-2-2.8-4.3-3.4-6.7
									c-0.2-0.8-0.4-1.7-0.5-2.5l-0.8-0.1c0.1,0.9,0.3,1.9,0.5,2.8c0.7,2.6,1.9,4.9,3.5,7c0.2,0.2,0.4,0.5,0.6,0.7l6,6.9l1.9,2.3
									l0.7,0.9l0.7-0.3L966.5,493.7z M978,508.1l-0.7,0.4c3.5,4.7,6.7,9.2,9.5,13.5l0.7-0.3C984.6,517.1,981.4,512.6,978,508.1z
									 M990.4,459.6c-3.4-4.8-8.6-7.9-14.2-8.5c-2.8-0.4-5.6-0.1-8.3,0.7c-2.7,0.8-5.1,2.1-7.3,3.9l0,0c-3.3,2.8-5.6,6.4-6.7,10.5
									l0.8,0.1c1.1-3.7,3.2-7.3,6.4-10l0,0c4.3-3.6,9.7-5.1,14.9-4.4c5.2,0.6,10.2,3.5,13.6,8.2l1.7,2.5l0.4-0.7L990.4,459.6z
									 M1028.4,532c-2.6-8.4-6-16.9-10.3-26c-3.6-7.5-7.9-15.3-13.1-24l-3.5-5.7c0,0,0,0,0,0l-0.7,0.3c0,0,0.1,0.1,0.1,0.1
									l3.5,5.7c4.6,7.7,9.1,15.6,13.1,23.9c4,8.3,7.5,16.9,10.3,25.9c1.1,3.4,2,6.9,2.8,10.4l0.8-0.1
									C1030.5,539.1,1029.5,535.6,1028.4,532z M1032,594.4c-1.2,7.1-2.9,14-4.8,20.7c-2.5,8.6-5.5,16.8-8.7,24.9
									c-1.3,3.3-2.6,6.5-4,9.7l0.5,0.8c1.5-3.6,2.9-7,4.2-10.3c3.7-9.3,6.5-17.3,8.8-25c2.1-7.2,3.7-14.1,4.9-20.7
									C1032.4,594.5,1032.2,594.5,1032,594.4z M1006.4,610.3c1.3-8,2.1-15.9,2.2-23.6c0-7.7-0.7-15.2-2.3-22.6
									c-0.8-3.8-1.9-7.5-3.1-11.1l-0.7,0.4c1.2,3.6,2.2,7.3,3,10.8c1.5,7,2.3,14.5,2.3,22.4c0,7.3-0.7,15-2.2,23.4
									c-0.4,2.2-0.8,4.4-1.2,6.6l0.7,0.4C1005.6,614.8,1006,612.5,1006.4,610.3z M1002.9,623.7c-2.8,12-6.3,23.9-9.5,34.6
									l-0.2,0.7l7.6,2.8c0-0.3-0.1-0.6-0.1-0.8l-6.6-2.5c3.5-11.6,6.9-23.1,9.6-34.6L1002.9,623.7z"/>
							</g>
						</g>
					</g>
				</g>
			</g>
		</g>
		<g>
			<g>
				<g>
					<g>
						<g>
							<path class="st5" d="M608,966.3l58.5,0.4c0-2-0.4-3.9-1.6-5.5c-1.4-1.8-3.6-2.8-5.8-3.2c-2.2-0.4-4.5-0.3-6.8-0.4
								c-5.5-0.3-11-1.9-15.8-4.7c-2.5-1.4-4.9-3.2-7.6-4.2l-15.9,0.3c-2.2,2.3-3.6,5.4-4.3,8.6C607.9,960.5,607.8,963.4,608,966.3z
								"/>
						</g>
					</g>
				</g>
				<g>
					<g>
						<g>
							<path class="st5" d="M478.3,966.4l58.5,0.3c0-2-0.4-3.9-1.6-5.5c-1.4-1.8-3.6-2.8-5.8-3.2c-2.2-0.4-4.5-0.3-6.8-0.4
								c-5.5-0.3-11-1.9-15.8-4.7c-2.5-1.4-4.9-3.2-7.6-4.2l-15.9,0.3c-2.2,2.3-3.6,5.4-4.3,8.6
								C478.2,960.6,478.1,963.5,478.3,966.4z"/>
						</g>
					</g>
				</g>
				<g>
					<g>
						<g>
							<path class="st5" d="M485.3,656.3c0,0,57.2-10.6,57.2-10.6l0,0c0.1,3,67.4-17,68.5-1.3c0,0,13.6,111.3,13.6,111.3
								c1.1,8.8,1.7,17.7,2,26.6l5,167.4l-20.4-0.1L551.7,712l-49.8,237l-20.4,0.2L485.3,656.3z"/>
						</g>
					</g>
				</g>
			</g>
			<g>
				<g>
					<g>
						<g>
							<g>
								<path class="st6" d="M693.7,633.6l-10.1-7.1l-6.5,11.3l11.2,5.3c2.8,1.4,6.1,0.6,7.6-1.9
									C697.3,638.6,696.4,635.3,693.7,633.6z"/>
							</g>
						</g>
					</g>
				</g>
				<g>
					<g>
						<g>
							<path class="st2" d="M676.9,638.6l8-12.9c-13.8-9.8-27.3-19.7-39.2-30.7c-5.9-5.5-11.4-11.3-16.1-17.3
								c-4.7-6.1-8.8-12.5-11.9-19.3c-6.4-13.5-9.6-28.5-11-44.1c-0.7-7.8-0.9-15.8-0.8-23.8l0.1-6l0.2-6.1l0.1-3l0.2-3.1l0.4-6.1
								c0-0.3,0-0.6,0-0.9c0-2.6-0.5-5.1-1.4-7.4c-1-2.3-2.3-4.4-4-6.2c-3.5-3.6-8.3-6-13.8-6.3l-0.1,0c-5.6-0.2-10.8,1.9-14.5,5.6
								c-3.8,3.7-6,9-5.8,14.8l0.4,6.6l0.2,3.3l0.3,3.3c0.2,2.2,0.3,4.4,0.6,6.7l0.7,6.7c1,8.9,2.4,17.9,4.2,26.9
								c1.9,9,4.4,18,7.7,26.8c3.3,8.8,7.4,17.5,12.5,25.6c5.1,8.1,11.1,15.5,17.7,22.1c6.6,6.6,13.6,12.4,20.8,17.7
								c7.2,5.3,14.7,10,22.1,14.4C661.8,630.3,669.4,634.5,676.9,638.6z"/>
						</g>
					</g>
				</g>
				<g>
					<g>
						<g>
							<g>
								<path class="st9" d="M606.1,479.7l0.8-0.2l0-1.2l0.1-3l0.6-9.1c0-0.3,0-0.6,0-0.9c0.1-2.6-0.4-5.2-1.5-7.7
									c-0.4-0.9-0.8-1.7-1.3-2.6l-0.6,0.6c0.4,0.7,0.8,1.5,1.1,2.3c1,2.3,1.5,4.8,1.4,7.4c0,0.3,0,0.6,0,0.9l-0.4,6.1l-0.2,3.1
									l-0.1,3L606.1,479.7z M606.6,513.3l0.7-0.2c-0.4-5.1-0.6-10.5-0.7-16.4l-0.8,0.1C606,502.3,606.2,507.8,606.6,513.3z
									 M566.6,468.4l0.8,0.3l-0.2-3c-0.2-5.8,2-11.1,5.8-14.8c3.7-3.7,8.9-5.9,14.5-5.6l0.1,0c4.2,0.2,8.1,1.7,11.2,4l0.5-0.5
									c-3.4-2.5-7.4-4-11.7-4.2l-0.1,0c-2.8-0.1-5.6,0.3-8.1,1.3c-2.6,1-5,2.5-6.9,4.5c-4,3.9-6.2,9.5-6,15.4L566.6,468.4z
									 M584.7,556.5l0.6-0.4c-1.5-3.3-2.9-6.6-4.1-10c-3.3-8.8-5.7-17.8-7.7-26.8c-1.9-9-3.2-18-4.2-26.9l-0.7-6.7
									c0,0,0-0.1,0-0.1l-0.7,0.2c0,0,0,0,0,0l0.7,6.7c1.2,10,2.5,18.8,4.2,27c2.1,9.9,4.6,18.7,7.7,26.9
									C581.8,549.9,583.2,553.3,584.7,556.5z M615.3,598.6c4.9,4.6,10.4,9,16.5,13.4c6.5,4.7,13.5,9.3,22.2,14.5
									c3.1,1.8,6.2,3.6,9.6,5.6l-0.1-0.9c-3-1.7-6.1-3.5-9.1-5.3c-7.5-4.5-14.9-9.2-22.1-14.4c-5.6-4.1-11.2-8.5-16.5-13.4
									C615.6,598.2,615.5,598.4,615.3,598.6z M650.9,599.6l0.3-0.7c-1.7-1.5-3.4-3-5-4.5c-6.3-5.9-11.6-11.5-16-17.3
									c-4.8-6.2-8.8-12.7-11.8-19.1c-1.6-3.3-3-6.8-4.2-10.4l-0.8,0.1c1.2,3.7,2.7,7.2,4.3,10.7c3.2,6.8,7.2,13.2,11.9,19.3
									c4.7,6.1,10.2,11.8,16.1,17.3C647.4,596.5,649.1,598.1,650.9,599.6z M656.2,604.1c9.1,7.5,18.8,14.6,28.7,21.6l-3.7,6
									c0.1,0.2,0.3,0.5,0.4,0.7l4.3-6.9l-0.6-0.4c-9.1-6.5-19.1-13.7-28.7-21.6L656.2,604.1z"/>
							</g>
						</g>
					</g>
				</g>
			</g>
			<g>
				<g>
					<g>
						<path class="st2" d="M485.3,656.3c41.7,13.4,77.4,13.3,124.5-9.9L608,520.1l-0.3-16.2l-0.1-6l-0.2-11.5c0-1.6-0.1-3.2-0.3-4.8
							c-2-19.1-14.6-34.9-31.5-41.8c-1.6-0.7-3.3-1.2-5.1-1.7c-5.9-1.7-12.2-2.3-18.7-1.7c-1.7,0.2-3.4,0.4-5.1,0.7
							c-3.6,0.6-7.1,1.6-10.5,2.8c-19,7-33.5,22.9-38.7,42.5c-1.2,4.7-1.9,9.6-2,14.7l0,1.6l-0.1,6l-0.2,7.5L485.3,656.3z"/>
					</g>
				</g>
			</g>
			<g>
				<g>
					<g>
						<g>
							<g>
								<path class="st8" d="M571.2,407.8l-0.4,37.9c-8.3,5.3-16.5,5.2-24.7-0.3l0.4-37.9L571.2,407.8z"/>
							</g>
						</g>
					</g>
					<g>
						<g>
							<g>
								<path class="st6" d="M571.2,407.8l-0.2,17.1c-1.7,0.7-3.6,1.1-5.5,1.2c-0.6,0-1.2,0.1-1.9,0.1c-6.8-0.1-13.1-3.3-17.2-8.5
									l0.1-10.2L571.2,407.8z"/>
							</g>
						</g>
					</g>
					<g>
						<g>
							<g>
								<path class="st8" d="M582.7,384.7l-0.8,15.8l-0.3,6.4c-0.4,8.9-7.4,16-16.3,16.7c-2.9,0.2-5.8-0.2-8.5-1.2
									c-0.6-0.2-1.2-0.5-1.8-0.8c-0.4-0.2-0.7-0.4-1.1-0.6c-3.4-1.9-6.1-4.9-7.8-8.5c-1.4-3.1-2.8-6.5-4.1-10.1
									c-0.7-2-1.5-4.2-2.2-6.3c-3.1-9.4-1-20,6-27.1c5.9-6.1,13.3-7.9,22.3-5.2C577.2,366.7,583.2,375.3,582.7,384.7z"/>
							</g>
						</g>
					</g>
				</g>
				<g>
					<g>
						<g>
							<g>
								<path class="st5" d="M538.6,391c-6.2-19.3,3.7-22.6,3.7-22.6c-0.2,0.1-0.3-2.5-0.3-2.7c0.1-1,0.4-1.9,0.8-2.8
									c2.9-6.2,9.5-5.3,15.2-5.2c3.2,0,5.8-0.9,8.1-3.1c2.4-2.3,3.9-5.4,6.7-7.4c4.2-3,10.4-1,13.3,3c0.7,0.9,1.2,2,1.5,3.1
									c1.7,5.9,0.9,13.2-3,18c-3.6,4.4-9.9,5.7-15.2,6.3c-1.8,0.2-3.5,0.4-5.3,0.5c-9.1,0.7-13.2-6.8-13.2-6.8
									c2.1,2.1,3,8.8,1.2,12.9c-1.8,4.2-0.1,11.7-0.1,11.7l-0.6-0.1C547.3,389.6,542.7,387.4,538.6,391z"/>
							</g>
						</g>
					</g>
					<g>
						<g>
							<g>
								<path class="st5" d="M579.2,375.3c0,0,2.6,7.8,3,19.5c0,0,3.1-13,0.3-22L579.2,375.3z"/>
							</g>
						</g>
					</g>
				</g>
				<g>
					<g>
						<g>
							
								<ellipse transform="matrix(1.098050e-02 -0.9999 0.9999 1.098050e-02 141.06 934.2647)" class="st8" cx="542.8" cy="395.8" rx="8.2" ry="9.3"/>
						</g>
					</g>
				</g>
			</g>
			<g>
				<g>
					<g>
						<g>
							<path class="st9" d="M609,520.1l0-0.6l-1-0.2l0,0.8l1.2,84.2h1L609,520.1z M525,444.3c-13.9,8.4-24.2,22-28.4,37.9
								c-0.1,0.5-0.2,1-0.4,1.5l1,0.2c0.1-0.5,0.2-1,0.4-1.4c4.1-15.7,14.3-29.1,27.9-37.3L525,444.3z M486,631.6h1l7.7-111.3
								l-1-0.2L486,631.6z M608.5,486.4c0-1.6-0.1-3.3-0.3-4.9c-1.8-17.4-12.2-32.5-27.6-40.5l-0.3,1c14.6,7.7,25.1,22.3,26.9,39.6
								c0.2,1.6,0.3,3.2,0.3,4.8l0.2,11.5l0,1.8h1L608.5,486.4z M610.5,625.4h-1l0.3,20.9c-45.6,22.5-80.5,23.3-120.5,11.2l-0.3,1
								c17.6,5.3,33,7.8,48.2,7.8c11.7,0,23.4-1.5,35.5-4.7c12-3.1,24.4-7.9,37.6-14.4l0.6-0.3L610.5,625.4z"/>
						</g>
					</g>
				</g>
			</g>
			<g>
				<g>
					<g>
						<g>
							<path class="st9" d="M557.2,456.1c2.3-0.5,4.6-1.1,6.9-1.6c11.7,47.8,16.6,98.3,13.9,150c-3.6,5-7.4,9.8-11.1,14.6
								c-2.8-5.3-5.7-10.5-8.6-15.6C565.1,553.9,564.6,504.2,557.2,456.1z"/>
						</g>
					</g>
				</g>
			</g>
			<g>
				<g>
					<g>
						<g>
							<path class="st13" d="M536.3,440l17.9,29.3l6.5-13.9l13.8,12l1.1-27.4c-1.6-0.7-3-1.2-4.8-1.7L560.4,449l-14.1-11.8
								C542.6,437.9,539.7,438.8,536.3,440z"/>
						</g>
					</g>
				</g>
			</g>
			<g>
				<g>
					<g>
						<g>
							<g>
								<path class="st12" d="M721.3,544.2L709,545l2.1,12.8l12-2.9c3.1-0.7,5.1-3.4,4.7-6.3C727.3,545.8,724.5,543.8,721.3,544.2z"
									/>
							</g>
						</g>
					</g>
				</g>
				<g>
					<g>
						<g>
							<path class="st2" d="M711.4,558.6l-1.9-15c-16.9,1.1-33.7,1.9-49.8,0.8c-8.1-0.5-15.9-1.6-23.4-3.3
								c-7.5-1.8-14.7-4.2-21.4-7.5c-13.5-6.5-25.4-16.1-36.3-27.4c-5.4-5.7-10.6-11.7-15.7-18l-3.7-4.8l-3.6-4.9l-1.8-2.4l-1.8-2.5
								l-3.6-5c-0.2-0.2-0.4-0.5-0.5-0.7c-1.6-2.1-3.6-3.7-5.8-4.9c-2.2-1.2-4.6-2-7.1-2.3c-5-0.6-10.3,0.6-14.7,3.8l0,0
								c-4.5,3.4-7.2,8.3-7.7,13.5c-0.6,5.2,1.1,10.8,4.9,15.2l4.5,4.9l2.2,2.5l2.3,2.4c1.5,1.6,3.1,3.2,4.6,4.8l4.8,4.8
								c6.4,6.3,13.1,12.4,20.2,18.2c7.1,5.8,14.7,11.2,22.8,16c8.1,4.8,16.8,8.9,25.8,12c9,3.1,18.4,5,27.6,6
								c9.2,1,18.4,1.1,27.3,0.6c8.9-0.5,17.7-1.5,26.3-2.7C694.5,561.7,702.9,560.2,711.4,558.6z"/>
						</g>
					</g>
				</g>
				<g>
					<g>
						<g>
							<g>
								<path class="st9" d="M556.4,479.8l0.5-0.7l-0.7-0.9l-1.8-2.4l-5.3-7.5c-0.2-0.2-0.4-0.5-0.6-0.7c-1.6-2.1-3.6-3.8-6-5.1
									c-0.9-0.5-1.7-0.9-2.6-1.2l-0.1,0.8c0.8,0.3,1.6,0.7,2.3,1.1c2.2,1.2,4.2,2.8,5.8,4.9c0.2,0.2,0.4,0.5,0.5,0.7l3.6,5
									l1.8,2.5l1.8,2.4L556.4,479.8z M577.9,505.5l0.5-0.6c-3.5-3.7-7.1-7.8-10.9-12.3l-0.5,0.5
									C570.5,497.4,574.1,501.6,577.9,505.5z M518.6,495.9l0.8-0.2l-2-2.2c-3.8-4.4-5.4-9.9-4.9-15.2c0.6-5.2,3.2-10.2,7.7-13.5
									l0,0c3.4-2.5,7.3-3.8,11.2-4l0.1-0.8c-4.2,0.2-8.3,1.6-11.7,4.1l0,0c-2.3,1.7-4.1,3.8-5.5,6.2c-1.4,2.4-2.3,5.1-2.5,7.9
									c-0.6,5.6,1.2,11.3,5,15.8L518.6,495.9z M588.1,552.9l0.3-0.7c-3.2-1.6-6.4-3.3-9.5-5.2c-8.1-4.8-15.7-10.2-22.8-16
									c-7.1-5.8-13.8-11.9-20.2-18.2l-4.8-4.8c0,0-0.1-0.1-0.1-0.1l-0.4,0.6c0,0,0,0,0,0l4.8,4.8c7.2,7,13.8,13,20.3,18.3
									c7.9,6.3,15.4,11.6,22.9,16.1C581.7,549.6,584.9,551.3,588.1,552.9z M638.4,566.3c6.7,0.4,13.7,0.5,21.3,0.1
									c8-0.4,16.4-1.3,26.3-2.7c3.5-0.5,7.1-1.1,11-1.7l-0.7-0.7c-3.5,0.6-6.9,1.1-10.4,1.6c-8.6,1.2-17.3,2.3-26.3,2.7
									c-7,0.4-14.1,0.4-21.2-0.1C638.4,565.8,638.4,566.1,638.4,566.3z M666.6,544.7l-0.2-0.8c-2.2-0.1-4.5-0.2-6.7-0.3
									c-8.6-0.6-16.2-1.7-23.3-3.3c-7.7-1.8-14.8-4.3-21.2-7.4c-3.3-1.6-6.6-3.4-9.8-5.5l-0.6,0.5c3.3,2.1,6.6,3.9,10.1,5.6
									c6.7,3.3,13.9,5.7,21.4,7.5c7.5,1.7,15.4,2.8,23.4,3.3C662,544.5,664.3,544.7,666.6,544.7z M673.6,544.9
									c11.8,0.1,23.8-0.5,35.9-1.3l0.9,7c0.3,0.1,0.5,0.2,0.8,0.3l-1-8l-0.7,0c-11.1,0.7-23.5,1.4-35.9,1.3L673.6,544.9z"/>
							</g>
						</g>
					</g>
				</g>
			</g>
		</g>
	</g>
	<g>
		<g>
			<g>
				<g>
					<path class="st1" d="M800.4,368.9c4.2,6.6,11.1,14.9,20.9,19.7c0,0-28.9,6.6-43.7-15.4c-1.2,0.1-2.4,0.1-3.6,0.1
						c-24,0-45-10.2-56.5-25.5c-5.9-7.9-9.3-17.1-9.3-26.9c0-28.9,29.5-52.4,65.8-52.4c1.4,0,2.7,0,4,0.1
						c34.5,1.7,61.8,24.4,61.8,52.3C839.8,342.3,823.6,360.8,800.4,368.9z"/>
				</g>
			</g>
		</g>
		<g class="st14">
			<g>
				<g>
					<path class="st5" d="M787.2,295.1c0,28.9-29.5,52.4-65.8,52.4c-1.2,0-2.4,0-3.6-0.1c-0.1,0.1-0.1,0.2-0.2,0.3
						c-5.9-7.9-9.3-17.1-9.3-26.9c0-28.9,29.5-52.4,65.8-52.4c1.4,0,2.7,0,4,0.1C783.8,276.4,787.2,285.4,787.2,295.1z"/>
				</g>
			</g>
		</g>
		<g>
			<g>
				<g>
					<path class="st10" d="M716.7,235.1c-36.3,0-65.8,23.5-65.8,52.4c0,21.5,16.2,39.9,39.4,48c-4.2,6.6-11.1,14.9-20.9,19.7
						c0,0,28.8,6.6,43.7-15.4c1.2,0.1,2.4,0.1,3.6,0.1c36.3,0,65.8-23.5,65.8-52.4C782.5,258.6,753,235.1,716.7,235.1z"/>
				</g>
			</g>
		</g>
		<g>
			<g>
				<g>
					<g>
						
							<ellipse transform="matrix(0.2298 -0.9732 0.9732 0.2298 252.1753 893.5694)" class="st2" cx="690.6" cy="287.5" rx="10.6" ry="10.6"/>
					</g>
				</g>
			</g>
			<g>
				<g>
					<g>
						
							<ellipse transform="matrix(0.1602 -0.9871 0.9871 0.1602 318.1483 948.8706)" class="st2" cx="716.7" cy="287.5" rx="10.6" ry="10.6"/>
					</g>
				</g>
			</g>
			<g>
				<g>
					<g>
						
							<ellipse transform="matrix(0.7071 -0.7071 0.7071 0.7071 14.2883 609.4269)" class="st2" cx="742.8" cy="287.5" rx="10.6" ry="10.6"/>
					</g>
				</g>
			</g>
		</g>
	</g>
</g>
</svg>
