<?xml version="1.0" encoding="utf-8"?>
<!-- Generator: Adobe Illustrator 28.0.0, SVG Export Plug-In . SVG Version: 6.00 Build 0)  -->
<svg version="1.1" id="Layer_1" xmlns="http://www.w3.org/2000/svg" xmlns:xlink="http://www.w3.org/1999/xlink" x="0px" y="0px"
	 viewBox="0 0 1820 1214" style="enable-background:new 0 0 1820 1214;" xml:space="preserve">
<style type="text/css">
	.st0{fill:#FEF0DA;}
	.st1{fill:#5CC6D9;}
	.st2{fill:#1A4175;}
	.st3{fill:#FAB347;}
	.st4{fill:#003A48;}
	.st5{fill:#E02A2A;}
	.st6{fill:#EB3F39;}
	.st7{fill:#F2734B;}
	.st8{fill:#F37D53;}
	.st9{fill:#E73233;}
	.st10{fill:#FAB448;}
	.st11{fill:#F48054;}
	.st12{fill:url(#SVGID_1_);}
	.st13{fill:url(#SVGID_00000060032672423386566030000002755629905239339433_);}
	.st14{fill:url(#SVGID_00000021101657757234367640000017297763080558308244_);}
	.st15{fill:#BFD7E3;}
	.st16{fill:#A5C1E0;}
	.st17{fill:#EE5758;}
	.st18{fill:#FFFFFF;}
	.st19{fill:#AC9A9B;}
	.st20{fill:url(#SVGID_00000069379526869073468670000016217341752770117793_);}
	.st21{fill:url(#SVGID_00000122712901971357979830000000780667418152019640_);}
	.st22{fill:#BDBDB9;}
	.st23{fill:#E3E3E0;}
	.st24{fill:url(#SVGID_00000146469094502199054820000016747421923865966765_);}
	.st25{fill:#EB5958;}
	.st26{fill:#1D80C3;}
	.st27{fill:#005679;}
	.st28{fill:#F89F5B;}
	.st29{fill:#F05D5D;}
	.st30{fill:#FAB236;}
	.st31{fill:#E5E5E2;}
	.st32{fill:url(#SVGID_00000015317031274934845520000017250511089276533393_);}
	.st33{fill:#00ABC9;}
	.st34{fill:#00B1CD;}
	.st35{fill:#0A87B1;}
	.st36{fill:url(#SVGID_00000179634283141699895540000000953347652927428510_);}
	.st37{fill:#00B5A3;}
	.st38{fill:url(#SVGID_00000158710224635881540050000014269690450842033563_);}
	.st39{fill:#0F86B0;}
	.st40{fill:url(#SVGID_00000149365149785283126920000012859528338411020465_);}
	.st41{fill:#00B0CC;}
	.st42{fill:#EE3F3A;}
	.st43{fill:#F48154;}
	.st44{fill:url(#SVGID_00000046305520211819583710000003815603037638037648_);}
	.st45{fill:url(#SVGID_00000168093176450638876150000011017745201434468519_);}
	.st46{fill:url(#SVGID_00000016034348237475655090000009841579528653120669_);}
	.st47{fill:#F7ADA4;}
	.st48{fill:#00B3A1;}
	.st49{fill:url(#SVGID_00000097474746772602263080000000504214296038526390_);}
	.st50{fill:#EC5958;}
	.st51{fill:#6FBBE7;}
	.st52{fill:#EFA22F;}
	.st53{fill:#E5E5E4;}
	.st54{fill:#00AAC8;}
	.st55{fill:#E4E4E1;}
	.st56{fill:#EF5658;}
	.st57{fill:#08626C;}
	.st58{fill:#08525E;}
	.st59{fill:#00414F;}
	.st60{fill:#F2F2F2;}
	.st61{fill:url(#SVGID_00000027594046378597563060000006323398132549660093_);}
	.st62{fill:#023444;}
	.st63{fill:#221F1F;}
	.st64{fill:url(#SVGID_00000080186776413273125630000003230939827169201833_);}
	.st65{fill:#0488B2;}
	.st66{fill:#023149;}
	.st67{fill:#F3A7A8;}
	.st68{fill:#DB9195;}
	.st69{fill:#D02729;}
	.st70{fill:url(#SVGID_00000139985274383246018290000009105359900530777224_);}
	.st71{fill:#03ADD0;}
	.st72{fill:#C8C8C8;}
	.st73{fill:#B3A4A1;}
	.st74{fill:#2CC0D9;}
	.st75{fill:url(#SVGID_00000143610406311035835930000005597823753136181381_);}
	.st76{fill:#808080;}
	.st77{fill:#E6E6E6;}
	.st78{fill:url(#SVGID_00000166660945570131318160000005545808817082679944_);}
</style>
<rect y="0.5" class="st0" width="1820" height="1214"/>
<g>
	<path class="st1" d="M992.6,337.4h43.3c5.1,0.9,8.9,5.3,8.9,10.7c0,6-4.9,10.9-10.9,10.9h-12.1c-8.5,0-15.4,6.9-15.4,15.4
		c0,8.5,6.9,15.4,15.4,15.4h54h2.6H1228c8.5,0,15.4-6.9,15.4-15.4c0-8.5-6.9-15.4-15.4-15.4h-31.9c-6,0-10.9-4.9-10.9-10.9
		c0-5.3,3.8-9.8,8.9-10.7h14.2c8.5,0,15.4-6.9,15.4-15.4c0-8.5-6.9-15.4-15.4-15.4h-4.8c-5.1-0.9-9-5.3-9-10.7
		c0-6,4.9-10.9,10.9-10.9h-11h-140.2h-11c6,0,10.9,4.9,10.9,10.9c0,5.4-3.9,9.8-9,10.7h-1.2h-51.4c-8.5,0-15.4,6.9-15.4,15.4
		C977.2,330.5,984.1,337.4,992.6,337.4z"/>
	<path class="st1" d="M1040.8,285h149.4h2.6h54c8.5,0,15.4-6.9,15.4-15.4l0,0c0-8.5-6.9-15.4-15.4-15.4h-34.8
		c2.1-0.8,3.5-2.7,3.5-5.1c0-3-2.4-5.4-5.4-5.4h-19h-0.9h-114.4c-3,0-5.4,2.4-5.4,5.4c0,2.3,1.5,4.3,3.5,5.1h-33.2
		c-8.5,0-15.4,6.9-15.4,15.4l0,0C1025.4,278.1,1032.3,285,1040.8,285z"/>
</g>
<g>
	<path class="st2" d="M1063.5,269h14.7c2.8,0,5,2.2,5,5c0,2.5-1.8,4.5-4.1,4.9h-6.6c-3.9,0-7.1,3.2-7.1,7.1c0,3.9,3.2,7.1,7.1,7.1
		h2.2c2.4,0.4,4.1,2.5,4.1,4.9v0c0,2.8-2.2,5-5,5h5.1h64.7h5.1c-2.8,0-5-2.2-5-5v0c0-2.5,1.8-4.5,4.1-4.9h0.5h23.7
		c3.9,0,7.1-3.2,7.1-7.1c0-3.9-3.2-7.1-7.1-7.1h-20c-2.3-0.4-4.1-2.5-4.1-4.9c0-2.8,2.2-5,5-5h5.6c3.9,0,7.1-3.2,7.1-7.1l0,0
		c0-3.9-3.2-7.1-7.1-7.1h-24.9h-1.2h-68.9c-3.9,0-7.1,3.2-7.1,7.1l0,0C1056.4,265.8,1059.5,269,1063.5,269z"/>
	<path class="st2" d="M1054.7,317.3h16c-0.9,0.4-1.6,1.3-1.6,2.3c0,1.4,1.1,2.5,2.5,2.5h8.8h0.4h52.8c1.4,0,2.5-1.1,2.5-2.5
		c0-1.1-0.7-2-1.6-2.3h15.3c3.9,0,7.1-3.2,7.1-7.1s-3.2-7.1-7.1-7.1h-68.9h-1.2h-24.9c-3.9,0-7.1,3.2-7.1,7.1
		S1050.8,317.3,1054.7,317.3z"/>
</g>
<g>
	<g>
		<path class="st3" d="M1017.1,270.4h-59.8c-9,0-16.3,7.3-16.3,16.3v0c0,9,7.3,16.3,16.3,16.3h59.8V270.4z"/>
		<path class="st3" d="M1011.6,270.4h72.8c9,0,16.3,7.3,16.3,16.3v0c0,9-7.3,16.3-16.3,16.3h-72.8V270.4z"/>
		<path class="st3" d="M1012.5,302.8h58.9c-6.3,0-11.5,5.1-11.5,11.5l0,0c0,6.3,5.1,11.5,11.5,11.5h-58.9V302.8z"/>
		<path class="st3" d="M1059.9,302.8H1001c6.3,0,11.5,5.1,11.5,11.5l0,0c0,6.3-5.1,11.5-11.5,11.5h58.9V302.8z"/>
		<path class="st3" d="M1022.5,247.7h58.9c-6.3,0-11.5,5.1-11.5,11.5v0c0,6.3,5.1,11.5,11.5,11.5h-58.9V247.7z"/>
		<path class="st3" d="M1069.8,247.7h-58.9c6.3,0,11.5,5.1,11.5,11.5v0c0,6.3-5.1,11.5-11.5,11.5h58.9V247.7z"/>
		<path class="st3" d="M1048,325.7h-59.8c-9,0-16.3,7.3-16.3,16.3l0,0c0,9,7.3,16.3,16.3,16.3h59.8V325.7z"/>
		<path class="st3" d="M1045.3,325.7h59.8c9,0,16.3,7.3,16.3,16.3l0,0c0,9-7.3,16.3-16.3,16.3h-59.8V325.7z"/>
		<path class="st3" d="M1068.1,215.1h-59.8c-9,0-16.3,7.3-16.3,16.3l0,0c0,9,7.3,16.3,16.3,16.3h59.8V215.1z"/>
		<path class="st3" d="M1065.3,215.1h59.8c9,0,16.3,7.3,16.3,16.3l0,0c0,9-7.3,16.3-16.3,16.3h-59.8V215.1z"/>
		<path class="st3" d="M1086.4,215.5h-20.1h-1h-20.1c-3.2,0-5.7-2.6-5.7-5.7l0,0c0-3.2,2.6-5.7,5.7-5.7h20.1h1h20.1
			c3.2,0,5.7,2.6,5.7,5.7l0,0C1092.1,212.9,1089.6,215.5,1086.4,215.5z"/>
	</g>
</g>
<g>
	<path class="st4" d="M755,930.7h40.4c4.7,0.9,8.3,5,8.3,10c0,5.6-4.5,10.1-10.1,10.1h-11.3c-7.9,0-14.4,6.4-14.4,14.4
		c0,7.9,6.4,14.4,14.4,14.4h50.5h2.4h139.6c7.9,0,14.4-6.4,14.4-14.4c0-7.9-6.4-14.4-14.4-14.4h-29.8c-5.6,0-10.1-4.5-10.1-10.1
		c0-5,3.6-9.1,8.3-10h13.3c7.9,0,14.4-6.4,14.4-14.4c0-7.9-6.4-14.4-14.4-14.4h-4.4c-4.8-0.8-8.4-5-8.4-10c0-5.6,4.5-10.1,10.1-10.1
		h-10.2h-131h-10.2c5.6,0,10.1,4.5,10.1,10.1c0,5-3.6,9.2-8.4,10H803h-48c-7.9,0-14.4,6.4-14.4,14.4
		C740.6,924.2,747,930.7,755,930.7z"/>
</g>
<g>
	<path class="st5" d="M789,888.3h19.6c3.7,0,6.7,3,6.7,6.7c0,3.3-2.4,6-5.5,6.6H801c-5.2,0-9.5,4.2-9.5,9.5c0,5.2,4.2,9.5,9.5,9.5
		h2.9c3.1,0.5,5.5,3.3,5.5,6.6v0c0,3.7-3,6.7-6.7,6.7h6.7h86.1h6.7c-3.7,0-6.7-3-6.7-6.7v0c0-3.3,2.4-6,5.5-6.6h0.7h31.6
		c5.2,0,9.5-4.2,9.5-9.5c0-5.2-4.2-9.5-9.5-9.5H907c-3.1-0.6-5.5-3.3-5.5-6.6c0-3.7,3-6.7,6.7-6.7h7.4c5.2,0,9.5-4.2,9.5-9.5l0,0
		c0-5.2-4.2-9.5-9.5-9.5h-33.2h-1.6H789c-5.2,0-9.5,4.2-9.5,9.5l0,0C779.5,884.1,783.8,888.3,789,888.3z"/>
	<path class="st5" d="M777.4,952.6h21.4c-1.3,0.5-2.2,1.7-2.2,3.1c0,1.8,1.5,3.3,3.3,3.3h11.7h0.6h70.3c1.8,0,3.3-1.5,3.3-3.3
		c0-1.4-0.9-2.6-2.2-3.1H904c5.2,0,9.5-4.2,9.5-9.5c0-5.2-4.2-9.5-9.5-9.5h-91.8h-1.6h-33.2c-5.2,0-9.5,4.2-9.5,9.5
		C767.9,948.4,772.1,952.6,777.4,952.6z"/>
</g>
<g>
	
		<ellipse transform="matrix(0.996 -8.956084e-02 8.956084e-02 0.996 -71.9729 102.0734)" class="st6" cx="1101.4" cy="853" rx="76.7" ry="76.7"/>
	<path class="st7" d="M1157.6,762.5c-5.6,5.3-11.2,10.4-16.7,15.8c-1.7,1.7-2.9,1.9-5.6,0.6c-5.6-2.6-11.5-4.8-17.6-6.2
		c-3.7-0.9-5-1.4-5.4-4.4c-1-7.5-2.3-14.9-3.4-22.3c-0.4-2.8-1.8-3.5-6.1-2.1c-6.9,2.2-14.1,2.7-21.2,1.6c-5-0.7-6.5-0.3-6.5,2.9
		c-0.2,7.8-0.7,15.6-0.9,23.3c0,2.3-0.8,3.2-2.8,4.1c-6.2,2.9-12.3,6.2-18.5,9.2c-0.9,0.4-2.6,0.2-3.5-0.4c-7-4.9-13.9-9.9-21-15.1
		c-8.5,6.5-15.4,14.4-21.2,23.3c-0.5,0.7,0.2,2.8,1,3.7c4.9,5.6,9.9,11,15,16.4c2,2.1,2.2,3.7,0.8,6.8c-2.6,5.7-4.4,11.7-5.9,17.8
		c-0.6,2.3-1.4,3.1-3.4,3.4c-8.4,1.3-16.8,2.8-25.7,4.2c-0.1,4.3-0.6,8.6-0.3,12.8c0.4,5.9,1.3,11.7,1.9,17.6
		c0.3,2.4,1.3,3.3,3.9,3.4c7.8,0.1,15.6,0.3,23.3,0.7c1.1,0.1,2.6,1.1,3.1,2.1c3,5.9,5.6,12,8.7,17.9c1,2,1,3.2-0.3,5
		c-5,6.7-9.9,13.6-14.9,20.7c6.8,9.2,15.3,16.2,24.9,22.6c6-5.7,12.2-11.2,18-17.1c2.3-2.3,4-2.3,6.8-1.1c6,2.5,12.2,4.5,18.4,6.4
		c2,0.6,3.1,1.2,3.4,3.5c1.1,8.4,2.8,18,4.2,26.9l4.1-0.4c8.4-0.7,17-1.5,25.6-2.2c2.7-0.2,3.7-1.2,3.8-4.2c0-7.4,0.6-14.8,0.8-22.2
		c0.1-2.3,0.8-3.3,3.2-4.3c6-2.4,11.9-5.2,17.5-8.4c2.1-1.2,3.3-1.3,5.1,0c6.1,4.6,12.4,9,18.5,13.5c2,1.5,3.4,1.9,5.5-1.5
		c4.3-7,10-13.1,16.3-18.3c2.7-2.2,2.6-3.7,0.9-5.5c-5.3-5.5-10.4-11.2-15.7-16.7c-1.4-1.5-1.6-2.5-0.8-4.5c2.6-6.6,4.9-13.4,7-20.2
		c0.7-2.2,1.3-3.3,3.7-3.7c8.3-1.3,16.6-2.8,24.8-4.3l0.7-3.7c0-3.7,0.1-7.5-0.1-11.2c-0.4-5.4-1.2-10.7-1.8-16
		c-0.2-2.1-1.2-2.6-3.2-2.7c-8.6-0.1-17.3-0.4-25.1-0.7c-4-7.6-7.8-14.7-11.4-21.8c-0.5-1-0.5-2.9,0.2-3.8
		c4.3-6.3,8.8-12.5,13.4-18.6c2.2-2.8,1.7-4.6-4.4-7.3c-6.1-2.7-11.1-7.4-14.5-13.1C1160.8,759.5,1159.3,760.8,1157.6,762.5z
		 M1160.2,873.9c-11.3,33.5-47.8,51.5-81.2,40.1c-33.5-11.3-51.5-47.8-40.1-81.2c11.3-33.5,47.8-51.5,81.2-40.1
		C1153.5,804,1171.5,840.4,1160.2,873.9z"/>
	<path class="st8" d="M1043.8,834.3c-10.5,31.1,6.2,64.9,37.3,75.5c31.1,10.5,64.9-6.2,75.5-37.3c10.5-31.1-6.2-64.9-37.3-75.5
		C1088.2,786.5,1054.4,803.2,1043.8,834.3z M1140.1,862c-4.1,21.9-25.8,36.4-48,32.2c-22-4.1-36.5-25.7-32.3-48
		c4.2-22.2,25.4-36.5,47.8-32.3C1130,818.2,1144.3,839.3,1140.1,862z"/>
	<path class="st9" d="M1078.7,902.4c15.8,6.8,34.1,5.6,48.9-3.2l-0.5-0.9c-14.5,8.6-32.5,9.8-48,3.1c-26.8-11.5-39.1-42.7-27.6-69.5
		l-1-0.4C1038.8,858.8,1051.4,890.6,1078.7,902.4z"/>
	<path class="st9" d="M1078.7,804.5c10.7-4.7,22.9-5.8,34.2-2.9l0.3-1c-11.5-2.9-23.9-1.8-34.9,3L1078.7,804.5z"/>
	<path class="st9" d="M1148.6,873.8l1,0.4c7.9-18.3,5.1-39.4-7.4-55l-0.8,0.7C1153.6,835.2,1156.3,855.9,1148.6,873.8z"/>
	<path class="st9" d="M1047.8,801.3c-16.7,16.8-24.5,40.8-20.7,64.2l1.4-0.2c-3.7-23,3.9-46.5,20.3-63
		c28.3-28.4,74.4-28.5,102.8-0.2l1-1C1123.6,772.3,1076.6,772.3,1047.8,801.3z"/>
	<path class="st9" d="M1172.9,850.7c0.6,16.1-4.2,32.2-13.5,45.2l1.2,0.8c9.5-13.3,14.4-29.7,13.8-46.1L1172.9,850.7z"/>
</g>
<g>
	<g>
		<path class="st10" d="M750.9,869.4h-90.3c-13.6,0-24.5,11-24.5,24.5v0c0,13.6,11,24.5,24.5,24.5h90.3V869.4z"/>
		<path class="st10" d="M742.6,869.4h109.8c13.6,0,24.5,11,24.5,24.5v0c0,13.6-11,24.5-24.5,24.5H742.6V869.4z"/>
		<path class="st10" d="M744,918.1h88.9c-9.6,0-17.3,7.7-17.3,17.3l0,0c0,9.6,7.7,17.3,17.3,17.3H744V918.1z"/>
		<path class="st10" d="M815.4,918.1h-88.9c9.6,0,17.3,7.7,17.3,17.3l0,0c0,9.6-7.7,17.3-17.3,17.3h88.9V918.1z"/>
		<path class="st10" d="M758.9,835h88.9c-9.6,0-17.3,7.7-17.3,17.3v0c0,9.6,7.7,17.3,17.3,17.3h-88.9V835z"/>
		<path class="st10" d="M830.3,835h-88.9c9.6,0,17.3,7.7,17.3,17.3v0c0,9.6-7.7,17.3-17.3,17.3h88.9V835z"/>
		<path class="st10" d="M807.2,952.8h-75.9c-11.4,0-20.6,9.2-20.6,20.6l0,0c0,11.4,9.2,20.6,20.6,20.6h75.9V952.8z"/>
		<path class="st10" d="M803.7,952.8h75.9c11.4,0,20.6,9.2,20.6,20.6l0,0c0,11.4-9.2,20.6-20.6,20.6h-75.9V952.8z"/>
		<path class="st10" d="M827.7,785.9h-90.3c-13.6,0-24.5,11-24.5,24.5l0,0c0,13.6,11,24.5,24.5,24.5h90.3V785.9z"/>
		<path class="st10" d="M823.6,785.9h90.3c13.6,0,24.5,11,24.5,24.5l0,0c0,13.6-11,24.5-24.5,24.5h-90.3V785.9z"/>
		<path class="st10" d="M855.4,786.4h-30.3h-1.5h-30.3c-4.8,0-8.6-3.9-8.6-8.6l0,0c0-4.8,3.9-8.6,8.6-8.6h30.3h1.5h30.3
			c4.8,0,8.6,3.9,8.6,8.6l0,0C864,782.6,860.2,786.4,855.4,786.4z"/>
	</g>
</g>
<g>
	<g>
		<path class="st3" d="M1145.2,492.3h-49.3c-7.4,0-13.4,6-13.4,13.4v0c0,7.4,6,13.4,13.4,13.4h49.3V492.3z"/>
		<path class="st3" d="M1140.6,492.3h60c7.4,0,13.4,6,13.4,13.4v0c0,7.4-6,13.4-13.4,13.4h-60V492.3z"/>
		<path class="st3" d="M1141.4,519h48.6c-5.2,0-9.5,4.2-9.5,9.5l0,0c0,5.2,4.2,9.5,9.5,9.5h-48.6V519z"/>
		<path class="st3" d="M1174.3,519h-48.6c5.2,0,9.5,4.2,9.5,9.5l0,0c0,5.2-4.2,9.5-9.5,9.5h48.6V519z"/>
		<path class="st3" d="M1149.6,473.5h48.6c-5.2,0-9.5,4.2-9.5,9.5v0c0,5.2,4.2,9.5,9.5,9.5h-48.6V473.5z"/>
		<path class="st3" d="M1188.6,473.5H1140c5.2,0,9.5,4.2,9.5,9.5v0c0,5.2-4.2,9.5-9.5,9.5h48.6V473.5z"/>
		<path class="st3" d="M1170.6,537.9h-49.3c-7.4,0-13.4,6-13.4,13.4l0,0c0,7.4,6,13.4,13.4,13.4h49.3V537.9z"/>
		<path class="st3" d="M1168.4,537.9h49.3c7.4,0,13.4,6,13.4,13.4l0,0c0,7.4-6,13.4-13.4,13.4h-49.3V537.9z"/>
		<path class="st3" d="M1187.1,446.7h-49.3c-7.4,0-13.4,6-13.4,13.4l0,0c0,7.4,6,13.4,13.4,13.4h49.3V446.7z"/>
		<path class="st3" d="M1184.9,446.7h49.3c7.4,0,13.4,6,13.4,13.4l0,0c0,7.4-6,13.4-13.4,13.4h-49.3V446.7z"/>
		<path class="st3" d="M1202.3,447h-16.6h-0.8h-16.6c-2.6,0-4.7-2.1-4.7-4.7l0,0c0-2.6,2.1-4.7,4.7-4.7h16.6h0.8h16.6
			c2.6,0,4.7,2.1,4.7,4.7l0,0C1207,444.9,1204.9,447,1202.3,447z"/>
	</g>
</g>
<g>
	<path class="st1" d="M553.7,440.4l29.7,31.5c2.8,4.3,2.2,10.1-1.7,13.8c-4.4,4.1-11.2,3.9-15.4-0.5l-8.3-8.8
		c-5.8-6.2-15.6-6.5-21.8-0.7c-6.2,5.8-6.5,15.6-0.7,21.8l37,39.4l1.8,1.9l102.4,108.9c5.8,6.2,15.6,6.5,21.8,0.7
		c6.2-5.8,6.5-15.6,0.7-21.8l-21.8-23.2c-4.1-4.4-3.9-11.2,0.5-15.4c3.9-3.7,9.7-3.9,13.9-0.8l9.7,10.4c5.8,6.2,15.6,6.5,21.8,0.7
		c6.2-5.8,6.5-15.6,0.7-21.8l-3.3-3.5c-2.8-4.3-2.3-10.2,1.6-13.9c4.4-4.1,11.2-3.9,15.4,0.5l-7.5-8l-96.1-102.1l-7.5-8
		c4.1,4.4,3.9,11.2-0.5,15.4c-3.9,3.7-9.8,3.9-13.9,0.8l-0.8-0.9l-35.2-37.5c-5.8-6.2-15.6-6.5-21.8-0.7
		C548.1,424.4,547.8,434.2,553.7,440.4z"/>
	<path class="st1" d="M624.9,439.6l102.4,108.9l1.8,1.9l37,39.4c5.8,6.2,15.6,6.5,21.8,0.7l0,0c6.2-5.8,6.5-15.6,0.7-21.8
		l-23.8-25.3c2,1,4.4,0.7,6.1-0.9c2.2-2.1,2.3-5.5,0.2-7.7l-13-13.8l-0.6-0.7L679,436.9c-2.1-2.2-5.5-2.3-7.7-0.2
		c-1.7,1.6-2.1,4-1.3,6l-22.7-24.2c-5.8-6.2-15.6-6.5-21.8-0.7l0,0C619.3,423.7,619,433.4,624.9,439.6z"/>
</g>
<g>
	<path class="st1" d="M946.4,866.9l27-0.1c3.2,0.5,5.6,3.2,5.6,6.4c0,3.6-3,6.5-6.8,6.5l-7.6,0c-5.3,0-9.6,4.1-9.6,9.2
		c0,5.1,4.3,9.2,9.6,9.2l33.7-0.1l1.6,0l93.3-0.3c5.3,0,9.6-4.1,9.6-9.2c0-5.1-4.3-9.2-9.6-9.2l-19.9,0.1c-3.7,0-6.8-2.9-6.8-6.5
		c0-3.2,2.4-5.8,5.5-6.4l8.9,0c5.3,0,9.6-4.1,9.6-9.2c0-5.1-4.3-9.2-9.6-9.2l-3,0c-3.2-0.5-5.6-3.2-5.6-6.4c0-3.6,3-6.5,6.8-6.5
		l-6.8,0l-87.6,0.3l-18.8,0c3.7,0,6.8,2.9,6.8,6.5c0,3.2-2.4,5.8-5.6,6.4l11.3,0l-32.1,0.1c-5.3,0-9.6,4.1-9.6,9.2
		C936.8,862.8,941.1,866.9,946.4,866.9z"/>
	<path class="st1" d="M976.4,835.6l93.3-0.3l1.6,0l33.7-0.1c5.3,0,9.6-4.1,9.6-9.2l0,0c0-5.1-4.3-9.2-9.6-9.2l-21.7,0.1
		c1.3-0.5,2.2-1.6,2.2-3c0-1.8-1.5-3.2-3.4-3.2l-11.9,0l-0.6,0l-71.4,0.2c-1.9,0-3.4,1.5-3.4,3.2c0,1.4,0.9,2.6,2.2,3l-20.7,0.1
		c-5.3,0-9.6,4.1-9.6,9.2l0,0C966.8,831.5,971.1,835.6,976.4,835.6z"/>
</g>
<g>
	<g>
		<path class="st11" d="M654.7,652.8l-33.8-35.9c-5.1-5.4-13.6-5.7-19-0.6l0,0c-5.4,5.1-5.7,13.6-0.6,19l33.8,35.9L654.7,652.8z"/>
		<path class="st11" d="M651.6,649.5l41.1,43.7c5.1,5.4,4.8,13.9-0.6,19l0,0c-5.4,5.1-13.9,4.8-19-0.6L632,667.8L651.6,649.5z"/>
		<path class="st11" d="M632.7,668.3l33.3,35.4c-3.6-3.8-9.6-4-13.4-0.4l0,0c-3.8,3.6-4,9.6-0.4,13.4l-33.3-35.4L632.7,668.3z"/>
		<path class="st11" d="M659.4,696.7l-33.3-35.4c3.6,3.8,3.4,9.8-0.4,13.4l0,0c-3.8,3.6-9.8,3.4-13.4-0.4l33.3,35.4L659.4,696.7z"/>
		<path class="st11" d="M671.4,643.1l33.3,35.4c-3.6-3.8-9.6-4-13.4-0.4l0,0c-3.8,3.6-4,9.6-0.4,13.4l-33.3-35.4L671.4,643.1z"/>
		<path class="st11" d="M698.1,671.5l-33.3-35.4c3.6,3.8,3.4,9.8-0.4,13.4l0,0c-3.8,3.6-9.8,3.4-13.4-0.4l33.3,35.4L698.1,671.5z"/>
		<path class="st11" d="M638.9,702.5l-33.8-35.9c-5.1-5.4-13.6-5.7-19-0.6l0,0c-5.4,5.1-5.7,13.6-0.6,19l33.8,35.9L638.9,702.5z"/>
		<path class="st11" d="M637.4,700.9l33.8,35.9c5.1,5.4,4.8,13.9-0.6,19l0,0c-5.4,5.1-13.9,4.8-19-0.6l-33.8-35.9L637.4,700.9z"/>
		<path class="st11" d="M716.7,652.1l-33.8-35.9c-5.1-5.4-13.6-5.7-19-0.6l0,0c-5.4,5.1-5.7,13.6-0.6,19l33.8,35.9L716.7,652.1z"/>
		<path class="st11" d="M699,666.5l33.8,35.9c5.1,5.4,4.8,13.9-0.6,19l0,0c-5.4,5.1-13.9,4.8-19-0.6l-33.8-35.9L699,666.5z"/>
		<path class="st11" d="M726.8,663.3l-11.3-12.1l-0.5-0.6l-11.3-12.1c-1.8-1.9-1.7-4.9,0.2-6.7l0,0c1.9-1.8,4.9-1.7,6.7,0.2
			l11.3,12.1l0.5,0.6l11.3,12.1c1.8,1.9,1.7,4.9-0.2,6.7l0,0C731.6,665.3,728.6,665.2,726.8,663.3z"/>
	</g>
</g>
<g>
	<linearGradient id="SVGID_1_" gradientUnits="userSpaceOnUse" x1="1199.3257" y1="596.4993" x2="1199.3257" y2="483.7328">
		<stop  offset="0" style="stop-color:#005679"/>
		<stop  offset="4.784250e-02" style="stop-color:#006184"/>
		<stop  offset="0.1828" style="stop-color:#007C9D"/>
		<stop  offset="0.3306" style="stop-color:#0091B1"/>
		<stop  offset="0.4957" style="stop-color:#00A0BE"/>
		<stop  offset="0.692" style="stop-color:#00A8C7"/>
		<stop  offset="1" style="stop-color:#00ABC9"/>
	</linearGradient>
	<path class="st12" d="M1167.7,596.5c0,0-15.7,0-25.9,0c-10.2,0-28.3-6.6-27.9-31.5c0.3-21.3,20.3-26.9,25.9-23.4
		c0,0,5.2-30.1,32-29c0,0,5.9-29,36.9-29s40.3,22.9,40.3,41.7c0,0,29.1-7.8,35.2,26.1c4.3,24.1-12.9,45-29.6,45
		C1237.8,596.5,1167.2,596.5,1167.7,596.5z"/>
	
		<linearGradient id="SVGID_00000015322221197612939280000007841738876553726598_" gradientUnits="userSpaceOnUse" x1="1211.4449" y1="611.5639" x2="1211.4449" y2="523.4942">
		<stop  offset="3.072630e-02" style="stop-color:#EB2027"/>
		<stop  offset="0.3631" style="stop-color:#EE3F3A"/>
		<stop  offset="0.5233" style="stop-color:#F15B45"/>
		<stop  offset="0.6843" style="stop-color:#F2704D"/>
		<stop  offset="0.8442" style="stop-color:#F47C52"/>
		<stop  offset="1" style="stop-color:#F48054"/>
	</linearGradient>
	<path style="fill:url(#SVGID_00000015322221197612939280000007841738876553726598_);" d="M1247.7,562.3l-37.1-38.8
		c0,0-35.9,38.2-35.3,38.8h18.2v49.2h35.9v-49.2H1247.7z"/>
</g>
<linearGradient id="SVGID_00000170240263387377661820000005503159725054611073_" gradientUnits="userSpaceOnUse" x1="1216.1068" y1="608.3811" x2="972.764" y2="608.3811">
	<stop  offset="0.1341" style="stop-color:#00B5A3"/>
	<stop  offset="0.3308" style="stop-color:#00B2A1"/>
	<stop  offset="0.4837" style="stop-color:#00A899"/>
	<stop  offset="0.6212" style="stop-color:#00988D"/>
	<stop  offset="0.743" style="stop-color:#00827D"/>
</linearGradient>
<path style="fill:url(#SVGID_00000170240263387377661820000005503159725054611073_);" d="M1213.3,638.3c-6-4.1-10.3-9.6-10-16.7
	c0.3-7.9,5.1-36.9-18.6-36.9c-12.6,0-14.5,7.6-14.5,7.6s4.2-23.6-16.1-23.6c-17,0-17.1,18.9-17.1,20.1c0-2.4-1.5-75.4-45.8-75.4
	c-30.5,0-41,42.4-44.7,69.7c-0.6,4.6-5.8,7-9.8,4.4c-1.9-1.2-4.2-1.8-7.1-1.5c-14.2,1.6-17.4,43.4-22.1,52.1
	c-0.2,0.4-0.4,0.7-0.7,1.1c-2.6,4-0.4,9.2,4.1,9.9c-0.2,3.3,0.2,5.9,0.2,5.9s-1.6-6.4-12.2-6.4c-19.8,0-15.8,24.2-15.5,30.8
	c0.2,5.9-3.3,10.5-8.4,13.9c-4.3,3-2.3,9.7,2.9,9.7l165.2-0.5c4.3,0,6.7-4.8,4.3-8.4c-0.2-0.3-0.4-0.6-0.5-0.9
	c-4-7.3-6.6-42.2-18.5-43.5c-2.4-0.3-4.4,0.3-6,1.3c-2.6,1.7-5.9,0.8-7.4-1.6l94.5,0.3C1216,649.9,1218.5,641.9,1213.3,638.3z
	 M1038.9,652.2c0-0.2,0-1.3-0.2-2.8l0.3,0C1038.9,651,1038.9,652,1038.9,652.2z"/>
<g>
	<path class="st15" d="M960,329.2l31.8-77.2L925,269.9c-9.7,2.6-12.9,14.1-6.1,20.5L960,329.2z"/>
	<path class="st15" d="M826.5,294l8.5-79.8l47.7,45c7.2,6.8,4.6,18.3-4.3,20.7L826.5,294z"/>
	<path class="st16" d="M826.5,294L960,329.2l-46.7-50.9c-6.2-6.7-15.9-9.2-24.4-6.2L826.5,294z"/>
	<path class="st17" d="M835,214.2l156.8,37.7l-80.6,34.3c-8.8,3.7-18.1,1.3-24-6.1L835,214.2z"/>
</g>
<g>
	<path class="st18" d="M780.5,299.6H598.5c-8.1,0-14.8,6.6-14.8,14.8v126.9c0,8.1,6.6,14.8,14.8,14.8h68.9h2.2v-2.2h-71.1
		c-6.9,0-12.5-5.6-12.5-12.5V314.3c0-6.9,5.6-12.5,12.5-12.5h181.9c6.9,0,12.5,5.6,12.5,12.5v126.9c0,6.9-5.6,12.5-12.5,12.5h-71.1
		v2.2h2.2h68.9c8.1,0,14.8-6.6,14.8-14.8V314.3C795.2,306.2,788.6,299.6,780.5,299.6z"/>
	<path class="st19" d="M780.3,453.8H598.4c-6.9,0-12.5-5.6-12.5-12.5V314.3c0-6.9,5.6-12.5,12.5-12.5h181.9
		c6.9,0,12.5,5.6,12.5,12.5v126.9C792.9,448.1,787.3,453.8,780.3,453.8z"/>
	
		<linearGradient id="SVGID_00000003820546554729240080000001911685126567913901_" gradientUnits="userSpaceOnUse" x1="689.3804" y1="431.9828" x2="689.3804" y2="315.3911">
		<stop  offset="0" style="stop-color:#229EC0"/>
		<stop  offset="4.431149e-02" style="stop-color:#2BA5C4"/>
		<stop  offset="0.1718" style="stop-color:#41B4CE"/>
		<stop  offset="0.3128" style="stop-color:#50BFD6"/>
		<stop  offset="0.4763" style="stop-color:#59C5DA"/>
		<stop  offset="0.7151" style="stop-color:#5CC7DB"/>
	</linearGradient>
	
		<rect x="598.4" y="315.4" style="fill:url(#SVGID_00000003820546554729240080000001911685126567913901_);" width="181.9" height="116.6"/>
	
		<linearGradient id="SVGID_00000101061546906740840500000007123558230623916718_" gradientUnits="userSpaceOnUse" x1="557.343" y1="479.9663" x2="821.61" y2="479.9663">
		<stop  offset="0" style="stop-color:#F2F2F2"/>
		<stop  offset="0.3966" style="stop-color:#B3B1B3"/>
	</linearGradient>
	<polygon style="fill:url(#SVGID_00000101061546906740840500000007123558230623916718_);" points="821.6,516.7 557.3,516.7 
		586.2,443.2 792.8,443.2 	"/>
	<polygon class="st22" points="801.9,487.9 578.3,487.9 593.9,447.6 786.3,447.6 	"/>
	<path class="st23" d="M732.7,509.4h-87.6c-1.5,0-2.5-1.4-2.1-2.9l4.2-13.2c0.3-0.9,1.1-1.5,2.1-1.5h79.2c1,0,1.8,0.6,2.1,1.5
		l4.2,13.2C735.3,508,734.2,509.4,732.7,509.4z"/>
	<g>
		<g>
			<g>
				<polygon class="st23" points="742.2,483.9 637,483.9 638.5,477.2 740.7,477.2 				"/>
			</g>
			<g>
				<polygon class="st23" points="602.5,483.9 586.7,483.9 589.2,477.2 605,477.2 				"/>
			</g>
			<g>
				<polygon class="st23" points="626.6,474.8 590.1,474.8 592.8,468.1 628.4,468.1 				"/>
			</g>
			<g>
				<polygon class="st23" points="619.8,465.4 593.7,465.4 596.5,458.6 621.5,458.6 				"/>
			</g>
			<g>
				<polygon class="st23" points="787.3,465.4 760.7,465.4 759,458.6 784.8,458.6 				"/>
			</g>
			<g>
				<polygon class="st23" points="643.9,465.4 628.5,465.4 630,458.6 645,458.6 				"/>
			</g>
			<g>
				<polygon class="st23" points="612.9,455.9 597.5,455.9 600,449.2 615.2,449.2 				"/>
			</g>
			<g>
				<polygon class="st23" points="635.2,455.9 619.8,455.9 621.9,449.2 636.8,449.2 				"/>
			</g>
			<g>
				<polygon class="st23" points="655.5,455.9 640.1,455.9 641.6,449.2 656.6,449.2 				"/>
			</g>
			<g>
				<polygon class="st23" points="676.3,455.9 660.9,455.9 661.7,449.2 676.7,449.2 				"/>
			</g>
			<g>
				<polygon class="st23" points="696.8,455.9 681.4,455.9 681.6,449.2 696.6,449.2 				"/>
			</g>
			<g>
				<polygon class="st23" points="717.5,455.9 702.1,455.9 701.7,449.2 716.7,449.2 				"/>
			</g>
			<g>
				<polygon class="st23" points="737.9,455.9 722.5,455.9 721.4,449.2 736.4,449.2 				"/>
			</g>
			<g>
				<polygon class="st23" points="758.6,455.9 743.2,455.9 741.5,449.2 756.5,449.2 				"/>
			</g>
			<g>
				<polygon class="st23" points="783.7,455.9 768.4,455.9 766.1,449.2 781,449.2 				"/>
			</g>
			<g>
				<polygon class="st23" points="665,465.4 649.6,465.4 650.6,458.6 665.6,458.6 				"/>
			</g>
			<g>
				<polygon class="st23" points="686.5,465.4 671.1,465.4 671.6,458.6 686.6,458.6 				"/>
			</g>
			<g>
				<polygon class="st23" points="707.7,465.4 692.3,465.4 692.2,458.6 707.2,458.6 				"/>
			</g>
			<g>
				<polygon class="st23" points="729,465.4 713.6,465.4 713,458.6 728,458.6 				"/>
			</g>
			<g>
				<polygon class="st23" points="750.1,465.4 734.7,465.4 733.6,458.6 748.6,458.6 				"/>
			</g>
			<g>
				<polygon class="st23" points="654.7,474.8 637.5,474.8 639.1,468.1 655.8,468.1 				"/>
			</g>
			<g>
				<polygon class="st23" points="676.1,474.8 659.9,474.8 660.8,468.1 676.5,468.1 				"/>
			</g>
			<g>
				<polygon class="st23" points="791.1,474.8 754.5,474.8 752.8,468.1 788.5,468.1 				"/>
			</g>
			<g>
				<polygon class="st23" points="719.9,474.8 702.7,474.8 702.4,468.1 719,468.1 				"/>
			</g>
			<g>
				<polygon class="st23" points="698.2,474.8 681,474.8 681.3,468.1 697.9,468.1 				"/>
			</g>
			<g>
				<polygon class="st23" points="741.2,474.8 725,474.8 724,468.1 739.7,468.1 				"/>
			</g>
			<g>
				<polygon class="st23" points="629.6,483.9 613.8,483.9 616.1,477.2 631.4,477.2 				"/>
			</g>
			<g>
				<polygon class="st23" points="765.9,483.9 750.1,483.9 748.3,477.2 763.7,477.2 				"/>
			</g>
			<g>
				<polygon class="st23" points="794.6,483.9 779,483.9 776.5,477.2 791.9,477.2 				"/>
			</g>
		</g>
	</g>
	
		<linearGradient id="SVGID_00000181768262960803478120000017255284166725395378_" gradientUnits="userSpaceOnUse" x1="557.3594" y1="519.7644" x2="821.6266" y2="519.7644">
		<stop  offset="0" style="stop-color:#F48054"/>
		<stop  offset="1" style="stop-color:#FAB347"/>
	</linearGradient>
	<path style="fill:url(#SVGID_00000181768262960803478120000017255284166725395378_);" d="M817,523H562.3c-2.7,0-4.9-2.2-4.9-4.9
		v-1.6h264.3v1.9C821.6,521,819.6,523,817,523z"/>
	<path class="st25" d="M656.5,516.5h62.6l0,0c0,1.5-1.2,2.8-2.8,2.8h-57.1C657.7,519.3,656.5,518,656.5,516.5L656.5,516.5z"/>
</g>
<g>
	<circle class="st26" cx="797.1" cy="316.9" r="67.2"/>
	
		<ellipse transform="matrix(0.7071 -0.7071 0.7071 0.7071 9.372 656.4187)" class="st27" cx="797.1" cy="316.9" rx="48.3" ry="48.3"/>
	
		<ellipse transform="matrix(0.7071 -0.7071 0.7071 0.7071 9.372 656.4187)" class="st28" cx="797.1" cy="316.9" rx="24.3" ry="24.3"/>
	
		<ellipse transform="matrix(0.9872 -0.1594 0.1594 0.9872 -40.3293 131.1341)" class="st29" cx="797.1" cy="316.9" rx="15" ry="15"/>
	<g>
		<g>
			<polygon class="st30" points="852,262.6 849,247.1 871,225.1 874,240.6 			"/>
			<polygon class="st30" points="852.4,263 867.9,266 889.9,244 874.4,241 			"/>
		</g>
		
			<rect x="835.2" y="223.9" transform="matrix(0.7071 0.7071 -0.7071 0.7071 442.1523 -509.4404)" class="st31" width="1.7" height="110.2"/>
	</g>
</g>
<g>
	<path class="st7" d="M648.9,349.1l4.1,4.5c0.2,0.2,0.5,0.4,0.8,0.3l6-0.8c0.8-0.1,1.4,0.7,1,1.4l-3,5.2c-0.2,0.3-0.2,0.6,0,0.9
		l2.6,5.5c0.3,0.7-0.3,1.5-1.1,1.4l-5.9-1.3c-0.3-0.1-0.6,0-0.9,0.2l-4.4,4.2c-0.6,0.5-1.5,0.2-1.6-0.6l-0.6-6
		c0-0.3-0.2-0.6-0.5-0.7l-5.3-2.9c-0.7-0.4-0.7-1.4,0.1-1.7l5.5-2.5c0.3-0.1,0.5-0.4,0.6-0.7l1.1-6
		C647.4,348.8,648.4,348.5,648.9,349.1z"/>
	<path class="st7" d="M625.6,361.6l4.4,3.2c0.2,0.2,0.5,0.2,0.8,0.1l5.1-1.9c0.7-0.2,1.3,0.4,1.1,1.1l-1.6,5.2
		c-0.1,0.3,0,0.6,0.1,0.8l3.4,4.3c0.4,0.6,0,1.4-0.7,1.4l-5.5,0.1c-0.3,0-0.5,0.1-0.7,0.4l-3,4.5c-0.4,0.6-1.3,0.5-1.5-0.2l-1.7-5.2
		c-0.1-0.3-0.3-0.5-0.6-0.6l-5.2-1.5c-0.7-0.2-0.9-1.1-0.3-1.5l4.4-3.3c0.2-0.2,0.4-0.4,0.3-0.7l-0.2-5.5
		C624.2,361.6,625,361.2,625.6,361.6z"/>
	<path class="st7" d="M711.4,349.1l-4.1,4.5c-0.2,0.2-0.5,0.4-0.8,0.3l-6-0.8c-0.8-0.1-1.4,0.7-1,1.4l3,5.2c0.2,0.3,0.2,0.6,0,0.9
		l-2.6,5.5c-0.3,0.7,0.3,1.5,1.1,1.4l5.9-1.3c0.3-0.1,0.6,0,0.9,0.2l4.4,4.2c0.6,0.5,1.5,0.2,1.6-0.6l0.6-6c0-0.3,0.2-0.6,0.5-0.7
		l5.3-2.9c0.7-0.4,0.7-1.4-0.1-1.7l-5.5-2.5c-0.3-0.1-0.5-0.4-0.6-0.7l-1.1-6C712.9,348.8,712,348.5,711.4,349.1z"/>
	<path class="st7" d="M734.8,361.6l-4.4,3.2c-0.2,0.2-0.5,0.2-0.8,0.1l-5.1-1.9c-0.7-0.2-1.3,0.4-1.1,1.1l1.6,5.2
		c0.1,0.3,0,0.6-0.1,0.8l-3.4,4.3c-0.4,0.6,0,1.4,0.7,1.4l5.5,0.1c0.3,0,0.5,0.1,0.7,0.4l3,4.5c0.4,0.6,1.3,0.5,1.5-0.2l1.7-5.2
		c0.1-0.3,0.3-0.5,0.6-0.6l5.2-1.5c0.7-0.2,0.9-1.1,0.3-1.5l-4.4-3.3c-0.2-0.2-0.4-0.4-0.3-0.7l0.2-5.5
		C736.2,361.6,735.3,361.2,734.8,361.6z"/>
	<path class="st7" d="M681.1,340.3l3.5,7.3c0.2,0.4,0.5,0.7,1,0.7l8.1,1.2c1.1,0.2,1.5,1.5,0.7,2.2l-5.9,5.6
		c-0.3,0.3-0.4,0.7-0.4,1.1l1.3,8c0.2,1.1-0.9,1.9-1.9,1.3l-7.2-3.9c-0.4-0.2-0.8-0.2-1.2,0l-7.2,3.7c-1,0.5-2.1-0.3-1.9-1.4l1.4-8
		c0.1-0.4-0.1-0.8-0.4-1.1l-5.8-5.7c-0.8-0.8-0.3-2.1,0.7-2.2l8.1-1.1c0.4-0.1,0.8-0.3,1-0.7l3.7-7.3
		C679.3,339.3,680.6,339.3,681.1,340.3z"/>
</g>
<g>
	<g>
		<g>
			<g>
				<g>
					
						<linearGradient id="SVGID_00000061437637361360437710000009350864388195562391_" gradientUnits="userSpaceOnUse" x1="693.9534" y1="689.0998" x2="693.9534" y2="499.21">
						<stop  offset="0" style="stop-color:#005679"/>
						<stop  offset="1" style="stop-color:#0B1B23"/>
					</linearGradient>
					<path style="fill:url(#SVGID_00000061437637361360437710000009350864388195562391_);" d="M657.4,689.1l73.1,0
						c5.6,0,10.2-5,10.2-11.1l0-167.6c0-6.1-4.6-11.1-10.2-11.1l-73.1,0c-5.6,0-10.2,5-10.2,11.1l0,167.6
						C647.2,684.1,651.8,689.1,657.4,689.1z"/>
					
						<rect x="652.2" y="522.4" transform="matrix(-1 -2.996528e-05 2.996528e-05 -1 1387.8892 1188.3304)" class="st33" width="83.4" height="143.4"/>
				</g>
				
					<rect x="686.8" y="509.1" transform="matrix(-1 -2.604454e-05 2.604454e-05 -1 1389.0199 1020.4214)" class="st34" width="15.4" height="2.2"/>
			</g>
		</g>
		<path class="st35" d="M676,604.6c15.6,16.9,31.3,33.7,46.9,50.6c4.4,4.7,8.8,9.5,13.2,14.2l-0.2-32.5l-4.8-5.2
			c-12.6-13.6-25.2-27.1-37.7-40.7l-41.3-44.5l0.2,32.5L676,604.6z"/>
		<path class="st35" d="M735.5,537l-13.6-14.7l-24.2,0.2l13.9,15c8,8.7,16.1,17.4,24.1,26L735.5,537z"/>
		<path class="st35" d="M652.6,630.7l32.7,35.3l10.4-0.1c-4.9-5.3-9.8-10.5-14.6-15.8c-9.7-10.4-19.3-20.8-29-31.2l0.1,11.4
			C652.3,630.5,652.5,630.6,652.6,630.7z"/>
		<path class="st27" d="M696,680.2l-14,0.1c-1.5,0-2.7-1.3-2.7-3l0-0.8c0-1.6,1.2-3,2.7-3l14-0.1c1.5,0,2.7,1.3,2.7,3l0,0.8
			C698.8,678.8,697.5,680.2,696,680.2z"/>
		<path class="st33" d="M696,673.4c1.5,0,2.7,1.3,2.7,3l0,0.8c0,1.6-1.2,3-2.7,3l-14,0.1c-1.5,0-2.7-1.3-2.7-3l0-0.8
			c0-1.6,1.2-3,2.7-3L696,673.4 M696,672.8l-14,0.1c-1.8,0-3.2,1.6-3.2,3.6l0,0.8c0,1.9,1.5,3.5,3.3,3.5l14-0.1
			c1.8,0,3.2-1.6,3.2-3.6l0-0.8C699.2,674.4,697.8,672.8,696,672.8L696,672.8z"/>
	</g>
</g>
<g>
	
		<linearGradient id="SVGID_00000137097053776072107210000017827567159409893567_" gradientUnits="userSpaceOnUse" x1="543.9838" y1="782.6274" x2="745.4789" y2="782.6274">
		<stop  offset="0" style="stop-color:#005679"/>
		<stop  offset="1" style="stop-color:#0B1B23"/>
	</linearGradient>
	<circle style="fill:url(#SVGID_00000137097053776072107210000017827567159409893567_);" cx="644.7" cy="782.6" r="100.7"/>
	<g>
		<path class="st37" d="M578,712.9c-0.2,4-8.1,15.1-8.1,15.1s-1.7,6.2-1.7,10c0,3.8,2.6,15.9,2.6,15.9l0.4,8.9
			c0,0,12.8,15.3,14.7,15.9c1.9,0.6,4.9-5.1,4.9-6.2s-1.9-1.9-4.9-5.1c-3-3.2-3.6-9.1-3-10c0.6-0.9,4.9-3.6,4.9-3.6s5.3,3.6,6.6,2.3
			c1.3-1.3,0.9-7.9,1.1-8.9c0.2-1.1,6-7.9,8.7-9.1c2.8-1.3,8.9-3.6,9.6-5.5c0.6-1.9,4.9-3,5.7-3.8c0.9-0.9-0.6-5.5,1.1-9.4
			c1.7-3.8,1.5-11.9-4.5-8.7c-6,3.2-10.4,2.3-10.6-1.3c-0.2-3.6,0.4-8.5,3.2-8.5c2.8,0,10,1.7,11.1,0.4c1.1-1.3,4.5-3.4,1.7-4.9
			c-2.8-1.5-6.4-3.2-8.9-2.3c-2.5,0.8-15.7,4.9-24,4.9c-3.8,2.6-7.4,5.4-10.8,8.4C577.9,709.3,578.1,711.3,578,712.9z"/>
		<path class="st37" d="M647.9,685.9c-3.6-1.1-18.1-3.6-24.7,1.5l3.2,3.6c0,0,3.2-1.1,5.1,0.2c1.9,1.3-0.4,11.5-0.4,14.7
			c0,3.2,3.2,6.8,3.2,6.8s2.3,1.7,2.8,0c0.4-1.7-0.2-7.4,2.6-9.1c2.8-1.7,8.1-4.9,9.8-7.2C651.1,694,651.5,687,647.9,685.9z"/>
		
			<linearGradient id="SVGID_00000142175374312310319730000012236726241570717622_" gradientUnits="userSpaceOnUse" x1="661.7096" y1="766.5579" x2="741.9204" y2="766.5579">
			<stop  offset="0" style="stop-color:#00B5A3"/>
			<stop  offset="0.1541" style="stop-color:#00B1A0"/>
			<stop  offset="0.3142" style="stop-color:#00A497"/>
			<stop  offset="0.477" style="stop-color:#009088"/>
			<stop  offset="0.6418" style="stop-color:#007273"/>
			<stop  offset="0.8065" style="stop-color:#004D58"/>
			<stop  offset="0.8547" style="stop-color:#00414F"/>
		</linearGradient>
		<path style="fill:url(#SVGID_00000142175374312310319730000012236726241570717622_);" d="M690.4,697.2c-0.9,1.5-2.8,3.6-4.5,4
			c-1.7,0.4-5.1-0.6-7.9-1.9c-2.8-1.3-5.3-0.2-6,1.9c-0.6,2.1-0.6,11.5,1.1,13c1.7,1.5,3,3.6,5.7-0.2c2.8-3.8,3.9-3.6,5-2.2
			c1.1,1.4,1.5,4.8,1.2,5.8c-0.3,1.1-1.5,3.2-3.4,2.7c-1.9-0.5-6.8,0.1-8.2,1.8c-1.4,1.7-0.9,5-2.3,7.5c-1.5,2.6-2.3,5.5-3.5,5.6
			c-1.2,0.1-1,3.1,0.7,6c1.7,2.9,6-2.9,7.8-5.2c1.8-2.3,3.8-6.1,5.2-5.5c1.4,0.5,11.5,4.9,12.6,4.9s3.5-1.3,3.5-3.5
			c0-2.2,0.2-3.7,2-4.3c1.8-0.5,6.9,6,6.3,7.5c-0.6,1.6-4.1,2.6-5.1,3.5c-1,1-1.5,3.4-0.1,5c1.4,1.6,5.1,3.1,5.1,3.1
			s-2.7,3.9-8.2,1.8c-5.5-2.1-7.1-0.9-8.8-0.6c-1.7,0.2-5-2.6-5.3-3.2c-0.3-0.6-2.8-1.3-8.1,1.8c-1.9,1.2-3.1,3.3-5.4,3.7
			c-2.3,0.4-5,2.3-5.8,6.4c-0.9,4-3.5,14.3-1.8,19.2c1.7,4.9,4.1,9.2,10.5,7.7s8.9-3.1,11.3-2.6c2.3,0.5,5.7,2,5,5.8
			c-0.7,3.8-2.1,8.4-0.4,11.1c1.7,2.7,3.1,5,3.7,8.4c0.6,3.4-0.4,6.6-2.1,9.1c-1.7,2.6-5,5.8-4.7,9.2c0.3,3.4,3.5,8.7,3.5,11.1
			c0,2.3,0.4,4.8,2.1,4.5c1.7-0.3,5.6-2.7,7.1-6.7c1.5-4,6.8-10.2,9.1-12.1c2.3-1.9,5.6-9.8,6.9-13c1.3-3.2,2-4.3,1.4-8
			c-0.6-3.7-2.3-5.1-0.7-8.8c1.6-3.7,6.3-9.4,6.7-13.8c0.4-4.5-2.2-6.9-1.6-9.6c0.6-2.7,2.1-6.9,2.4-8.1c0.3-1.2,0.7-3.1-1.7-5.1
			c-2.4-2-5.4-4.8-1.8-4.1c3.6,0.6,10.2,3.5,9.7,5.7c-0.5,2.2-1,4.7,1.2,7.9c2.1,3.2,2.6,4.5,2.4,7.9c-0.1,3.4,0.7,6.8,1.9,6.8
			c1.2,0,4.3-1.3,3.7-4.8c-0.5-3.5,2.1-13,3.7-17.5c0.1-0.3,0.2-0.5,0.3-0.8c-7.5-27.5-26.4-50.3-51.2-63.1
			C690.9,694.5,690.9,696.4,690.4,697.2z"/>
		<path class="st39" d="M717.3,825c0.9-1.3,1.2-2.4,2.2-3.8c1.1-1.4,1.2-4,0.9-5.4c-0.3-1.4,0.1-6.1,0.1-6.1c-1.1-1.3-2,1-2.7,4
			c-0.6,3.1-2,4.3-3.3,5.1c-1.3,0.9-1.3,2.8-1.4,5c-0.1,2.2-2.2,2.8-1.7,3.9C712,829,716.5,826.3,717.3,825z"/>
		<path class="st39" d="M742.6,796.7c-2.9-3.1-3.2,2.9-4.7,4.6c-1.5,1.7-1.8,7.7-1.9,12.1s-2.1,4.1-4.5,7.5c-2.3,3.4-2.6,4-5,5.7
			c-2.4,1.7-2,5.6-4.1,8.9c-2.1,3.3-3.6,2.6-5.5,3.8c-1.9,1.3-1.6,8.1,0.4,10.3c0.4,0.5,1,0.8,1.6,1.1
			c12.5-13.6,21.4-30.8,24.9-49.7L742.6,796.7z"/>
		<path class="st37" d="M634.1,796.1c-3.9-0.6-11.2-2.4-10.9-4.4c0.2-1.9,1.6-2.9,0.7-5c-0.9-2.1-3.1-3.3-4.9-3.5
			c-1.8-0.2-5.1-1.6-6.7-4c-1.6-2.4-11.3-8.3-15.3-3.3c0,0,0.9,6.7,0.7,8.6c-0.1,1.9-0.6,4.6-2.8,7.3c-2.1,2.8-1.9,2.4-2.9,7.3
			c-1,4.9-0.9,10.5,0.5,13.3c1.4,2.8,3,4.4,6.3,4.4s5.6,5.2,5.6,7.9c0,2.7,2.1,12.4,1.8,15.4c-0.3,3-1.5,7.8-0.1,10.6
			c1.4,2.9,5.1,9.8,7.5,11.9c2.4,2.1,3.5,1.8,3.8,0.7c0.3-1.1,1-2.3-0.4-4.1c-1.4-1.8-4.1-4.7-3.3-7.5c0.9-2.9,2.3-1.8,3.9-5.7
			c1.6-3.9,2.4-8.7,4-10.9c1.6-2.2,3.1-3.8,3.5-6.2c0.4-2.3-0.4-3.1,2.9-4.7c3.3-1.6,6.4-2.4,5.7-5.3c-0.6-2.9-3.1-7.2-0.3-9.7
			c2.8-2.4,5.3-5,5.2-8.5C638.8,797.2,638,796.8,634.1,796.1z"/>
	</g>
</g>
<g>
	
		<linearGradient id="SVGID_00000022540368318606580760000017330042746872139159_" gradientUnits="userSpaceOnUse" x1="681.3556" y1="669.9079" x2="791.2321" y2="669.9079">
		<stop  offset="0" style="stop-color:#0B1B23"/>
		<stop  offset="1" style="stop-color:#005679"/>
	</linearGradient>
	<polygon style="fill:url(#SVGID_00000022540368318606580760000017330042746872139159_);" points="791.2,716.4 776.9,729.3 
		681.4,623.4 695.7,610.5 	"/>
	<polygon class="st3" points="695.7,610.5 681.4,623.4 662,595.2 669.6,588.3 	"/>
	
		<rect x="682" y="619.2" transform="matrix(0.7426 -0.6698 0.6698 0.7426 -237.4813 622.9579)" class="st41" width="19.3" height="2.3"/>
	<path class="st11" d="M662,595.2l2.7,3.9c1.8-1.2,3.5-2.5,5.1-4c1.3-1.1,2.4-2.3,3.6-3.6l-3.8-3.2L662,595.2z"/>
	<path class="st42" d="M667.2,592.3c-24.8,22.4-63.2,20.4-85.6-4.4c-22.4-24.8-20.4-63.2,4.4-85.6c24.8-22.4,63.2-20.4,85.6,4.4
		C694,531.5,692,569.9,667.2,592.3z M592.2,509.1c-21,19-22.7,51.5-3.7,72.6c19,21,51.5,22.7,72.6,3.7c21-19,22.7-51.5,3.7-72.6
		C645.8,491.8,613.3,490.1,592.2,509.1z"/>
	<path class="st43" d="M663.1,587.7c-22.3,20.1-56.7,18.3-76.8-4c-20.1-22.3-18.3-56.7,4-76.8c22.3-20.1,56.7-18.3,76.8,4
		C687.1,533.1,685.3,567.6,663.1,587.7z M593.3,510.3c-20.4,18.4-22,49.9-3.6,70.3c18.4,20.4,49.9,22,70.3,3.6
		c20.4-18.4,22-49.9,3.6-70.3C645.2,493.5,613.7,491.9,593.3,510.3z"/>
</g>
<linearGradient id="SVGID_00000072261960946200387360000016794794009180580498_" gradientUnits="userSpaceOnUse" x1="1125.7478" y1="498.396" x2="1125.7478" y2="300.3996">
	<stop  offset="0" style="stop-color:#005679"/>
	<stop  offset="1" style="stop-color:#0B1B23"/>
</linearGradient>
<path style="fill:url(#SVGID_00000072261960946200387360000016794794009180580498_);" d="M1162.4,300.4c0,0,44.4-1.9,8.1,103.9
	c-14.7,42.8,0.2,74.2,20,94.1L1061,498l67.3-194.5L1162.4,300.4z"/>
<linearGradient id="SVGID_00000014592624850697492660000018180822585414718627_" gradientUnits="userSpaceOnUse" x1="991.628" y1="565.7183" x2="991.628" y2="300.4013">
	<stop  offset="0" style="stop-color:#B3B1B3"/>
	<stop  offset="0.2977" style="stop-color:#C7C8C9"/>
	<stop  offset="0.5" style="stop-color:#D0D2D3"/>
	<stop  offset="0.5346" style="stop-color:#D6D7D8"/>
	<stop  offset="0.7025" style="stop-color:#ECEDEE"/>
	<stop  offset="0.8612" style="stop-color:#FAFAFB"/>
	<stop  offset="1" style="stop-color:#FFFFFF"/>
</linearGradient>
<path style="fill:url(#SVGID_00000014592624850697492660000018180822585414718627_);" d="M1141,339.7c4.2-29.4,9.5-39.3,21.2-39.3
	h-42.5h-0.4H849.9c-11.7,0-33,23.3-28.3,49.7l23.4,194.4c0,11.7,9.5,21.2,21.2,21.2l227.4-2c5.8,0,11.1-0.9,15.8-2.4
	c2.9,1.5,2.9,2.4,6.5,2.4h3.8c11.7,0,23.7-7.6,21.2-21.2C1141,542.5,1125.3,450.2,1141,339.7z"/>
<linearGradient id="SVGID_00000128475352189418354750000016532432131880770725_" gradientUnits="userSpaceOnUse" x1="1072.0211" y1="563.7317" x2="1072.0211" y2="377.1386">
	<stop  offset="0" style="stop-color:#005679"/>
	<stop  offset="1" style="stop-color:#0B1B23"/>
</linearGradient>
<path style="fill:url(#SVGID_00000128475352189418354750000016532432131880770725_);" d="M1098.1,542.5c1.2,4.4,8.5,21.2,20.2,21.2
	h-20.2h-72.4l21-165.2c4.7-14.9,17-21.2,28.7-21.2h1.5c13.4-1.1,29.1,4.4,25.2,32C1102.1,409.3,1084.9,487.4,1098.1,542.5z"/>
<path class="st18" d="M1055.5,635.7c17.5,198.8-32.1,208.6-43,208.6H693.4c-12.8,1-30.5-8.5-26.4-27.4
	c40.4,28.4,55.5-131.8,50.1-190.3c-17.2-186.9-11.5-218.4-11.5-218.4c2.4-25.4,15.5-31.1,27-31.1l344.8,0.1
	C1070.3,377.3,1034.5,397.1,1055.5,635.7z"/>
<g>
	<path class="st47" d="M906.6,276.5c-1.2,0.4-3.1,0.5-5.7-0.1c-5-1.2-8-5.3-6.7-10.6c1.4-5.8,6.9-9.2,12.9-7.7
		c4.3,1.1,7.8,4.4,6.6,9.4c-1,4-3.9,6.3-7.4,5.4c-1.3-0.3-2.1-1-2.1-2c-1,0.7-2,0.9-3.4,0.6c-1.9-0.5-2.7-2-2.2-4.3
		c0.8-3.4,3.8-5.6,6.3-5c1.3,0.3,2,1,2,1.8l0.6-0.9l2.7,0.7l-2.9,5.5c-0.6,1.1-0.5,1.5,0.2,1.6c1.4,0.4,3.2-1.3,3.8-3.9
		c0.9-3.5-1.2-6-5-6.9c-4.7-1.2-8.5,1.5-9.7,6.3c-0.9,3.7,0.8,6.8,4.8,7.8c1.9,0.5,3.5,0.6,5,0.3L906.6,276.5z M901.6,267.7
		c-0.3,1.1,0,1.7,0.8,1.9c1.1,0.3,2.1-0.6,2.8-2.1c1-1.9,0.9-2.7-0.3-3C903.6,264.1,902,265.8,901.6,267.7z"/>
</g>
<ellipse transform="matrix(0.1655 -0.9862 0.9862 0.1655 -16.6706 1074.7144)" class="st48" cx="626.7" cy="547.2" rx="50.4" ry="50.4"/>
<g>
	<g>
		
			<linearGradient id="SVGID_00000026124633252648722490000002778060152689919366_" gradientUnits="userSpaceOnUse" x1="766.877" y1="445.1729" x2="930.0624" y2="445.1729">
			<stop  offset="0" style="stop-color:#005679"/>
			<stop  offset="4.784250e-02" style="stop-color:#006184"/>
			<stop  offset="0.1828" style="stop-color:#007C9D"/>
			<stop  offset="0.3306" style="stop-color:#0091B1"/>
			<stop  offset="0.4957" style="stop-color:#00A0BE"/>
			<stop  offset="0.692" style="stop-color:#00A8C7"/>
			<stop  offset="1" style="stop-color:#00ABC9"/>
		</linearGradient>
		
			<rect x="766.9" y="438.7" style="fill:url(#SVGID_00000026124633252648722490000002778060152689919366_);" width="163.2" height="12.9"/>
		<path class="st50" d="M778.1,445.2c0,1.5-1.2,2.8-2.8,2.8s-2.8-1.2-2.8-2.8c0-1.5,1.2-2.8,2.8-2.8S778.1,443.7,778.1,445.2z"/>
		<path class="st51" d="M786.9,445.2c0,1.5-1.2,2.8-2.8,2.8s-2.8-1.2-2.8-2.8c0-1.5,1.2-2.8,2.8-2.8S786.9,443.7,786.9,445.2z"/>
		<path class="st52" d="M796,445.2c0,1.5-1.2,2.8-2.8,2.8s-2.8-1.2-2.8-2.8c0-1.5,1.2-2.8,2.8-2.8S796,443.7,796,445.2z"/>
	</g>
	<g>
		<path class="st53" d="M926.9,466H840c-0.8,0-1.5-0.7-1.5-1.5v-2.7c0-0.8,0.7-1.5,1.5-1.5h86.9c0.8,0,1.5,0.7,1.5,1.5v2.7
			C928.4,465.4,927.7,466,926.9,466z"/>
		<path class="st53" d="M926.9,480.1H840c-0.8,0-1.5-0.7-1.5-1.5V476c0-0.8,0.7-1.5,1.5-1.5h86.9c0.8,0,1.5,0.7,1.5,1.5v2.7
			C928.4,479.5,927.7,480.1,926.9,480.1z"/>
		<path class="st53" d="M926.9,494.2H840c-0.8,0-1.5-0.7-1.5-1.5v-2.7c0-0.8,0.7-1.5,1.5-1.5h86.9c0.8,0,1.5,0.7,1.5,1.5v2.7
			C928.4,493.6,927.7,494.2,926.9,494.2z"/>
		<path class="st53" d="M926.9,508.3H840c-0.8,0-1.5-0.7-1.5-1.5v-2.7c0-0.8,0.7-1.5,1.5-1.5h86.9c0.8,0,1.5,0.7,1.5,1.5v2.7
			C928.4,507.7,927.7,508.3,926.9,508.3z"/>
		<path class="st53" d="M926.9,522.5H840c-0.8,0-1.5-0.7-1.5-1.5v-2.7c0-0.8,0.7-1.5,1.5-1.5h86.9c0.8,0,1.5,0.7,1.5,1.5v2.7
			C928.4,521.8,927.7,522.5,926.9,522.5z"/>
		<path class="st53" d="M926.9,536.6H775.8c-0.8,0-1.5-0.7-1.5-1.5v-2.7c0-0.8,0.7-1.5,1.5-1.5h151.1c0.8,0,1.5,0.7,1.5,1.5v2.7
			C928.4,535.9,927.7,536.6,926.9,536.6z"/>
		<path class="st53" d="M926.9,550.7H775.8c-0.8,0-1.5-0.7-1.5-1.5v-2.7c0-0.8,0.7-1.5,1.5-1.5h151.1c0.8,0,1.5,0.7,1.5,1.5v2.7
			C928.4,550,927.7,550.7,926.9,550.7z"/>
		<path class="st53" d="M926.9,564.8H775.8c-0.8,0-1.5-0.7-1.5-1.5v-2.7c0-0.8,0.7-1.5,1.5-1.5h151.1c0.8,0,1.5,0.7,1.5,1.5v2.7
			C928.4,564.1,927.7,564.8,926.9,564.8z"/>
	</g>
	<g>
		<g>
			<path class="st27" d="M800.5,512v-3.4l4.9-0.6l-2.9-9.8h-16.3l-2.9,9.8l4.8,0.6v3.4h-14.4v-3.4l2.5-0.7c0.7-0.2,1.2-0.4,1.5-1.2
				l13.2-39.9h8.1l13.2,40c0.3,0.7,0.7,0.9,1.4,1.1l2.7,0.7v3.4H800.5z M794.5,472.2h-0.2l-6.7,21.5h13.4L794.5,472.2z"/>
		</g>
	</g>
	<g>
		<g>
			<path class="st54" d="M822.1,503.3v-2.1l3-0.3l-1.8-6.1h-10.2l-1.8,6.1l3,0.3v2.1h-9v-2.1l1.5-0.4c0.4-0.1,0.8-0.3,0.9-0.7
				l8.2-24.8h5l8.2,24.9c0.2,0.5,0.4,0.5,0.9,0.7l1.7,0.4v2.1H822.1z M818.4,478.6h-0.1l-4.2,13.4h8.3L818.4,478.6z"/>
		</g>
	</g>
</g>
<g>
	<rect x="837" y="551.4" class="st39" width="103.8" height="64.4"/>
	<rect x="837" y="542.4" class="st54" width="103.8" height="61.7"/>
	<g>
		<g>
			<g>
				<path class="st55" d="M896.7,593.1h-16c-8.4,0-15.3-6.8-15.3-15.3V573c0-8.4,6.8-15.3,15.3-15.3h16c8.4,0,15.3,6.8,15.3,15.3
					v4.9C912,586.3,905.1,593.1,896.7,593.1z M880.7,559.7c-7.3,0-13.2,5.9-13.2,13.2v4.9c0,7.3,5.9,13.2,13.2,13.2h16
					c7.3,0,13.2-5.9,13.2-13.2V573c0-7.3-5.9-13.2-13.2-13.2H880.7z"/>
			</g>
		</g>
		<path class="st42" d="M884.2,568.4c-0.9,3.4-1.8,8.9-0.1,14.4c0.5,1.7,2.5,2.6,4.1,1.7c2.3-1.2,5.3-3.1,8.1-6
			c1.8-1.8,1.7-4.8-0.3-6.4c-2-1.7-4.8-3.9-7.7-5.5C886.7,565.8,884.7,566.7,884.2,568.4z"/>
	</g>
</g>
<g>
	<polygon class="st55" points="665,840.7 627.9,861.2 664.9,881.9 	"/>
	<polygon class="st42" points="638.5,855.4 627.9,861.2 638.4,867.1 	"/>
	<path class="st56" d="M913.9,873.7l0-24.4c0-4.6,3.8-8.4,8.5-8.4l50.6,0.1c4.6,0,8.4,3.8,8.4,8.5l0,24.4c0,4.6-3.8,8.4-8.5,8.4
		l-50.6-0.1C917.7,882.1,913.9,878.3,913.9,873.7z"/>
	
		<rect x="786.8" y="718.4" transform="matrix(1.007151e-03 -1 1 1.007151e-03 -54.7543 1640.4436)" class="st57" width="13.8" height="258.5"/>
	
		<rect x="786.8" y="732.2" transform="matrix(1.007538e-03 -1 1 1.007538e-03 -68.5305 1654.1586)" class="st58" width="13.8" height="258.5"/>
	
		<rect x="786.7" y="745.9" transform="matrix(1.007150e-03 -1 1 1.007150e-03 -82.3061 1667.8743)" class="st59" width="13.8" height="258.5"/>
	
		<rect x="902.9" y="857.3" transform="matrix(-1.691799e-03 1 -1 -1.691799e-03 1786.5802 -60.5715)" class="st60" width="41.3" height="8.3"/>
</g>
<g>
	<rect x="918.7" y="482.6" class="st60" width="108.9" height="83.6"/>
	
		<linearGradient id="SVGID_00000031920653630719453670000015096540554477876655_" gradientUnits="userSpaceOnUse" x1="973.1065" y1="558.059" x2="973.1065" y2="490.6381">
		<stop  offset="0" style="stop-color:#209CBF"/>
		<stop  offset="0.933" style="stop-color:#92DAE7"/>
	</linearGradient>
	
		<rect x="927.4" y="490.6" style="fill:url(#SVGID_00000031920653630719453670000015096540554477876655_);" width="91.5" height="67.4"/>
	<path class="st55" d="M1011.2,550.8C1011.2,550.8,1011.2,550.8,1011.2,550.8c-1.5-3-14.2-23-15.8-25.5c-1.6-2.5-3.2-5.2-4.3-3.1
		c-1.1,2.1-1.3,2.8-3.3,0.5c-7.8-13.5-10.9-8.3-18.6,3.9c-7.8,12.1-10.9,11.2-12.4,9.2c-9.2-17.8-20.9,9.6-23.1,15.1H1011.2z"/>
	
		<ellipse transform="matrix(0.1449 -0.9894 0.9894 0.1449 304.752 1382.2889)" class="st55" cx="952.1" cy="514.8" rx="8.4" ry="8.4"/>
</g>
<g>
	<g>
		<path class="st62" d="M1045.9,725.7c-3.7-1.1-20.5-7.5-19.2-11.6c2.2-7.5,26-36.6,26-36.6c15-36.1,35-35.7,35-35.7
			c6.4,5,5.4,20.4-5.8,38.1L1045.9,725.7z"/>
		<g>
			<g>
				<path class="st63" d="M1013.6,868.3l0.5,16.5c0,0-4.6,3.2-8.9,0.7l0.7-14.9C1005.9,870.7,1013.9,868,1013.6,868.3z"/>
				<path class="st63" d="M1006.6,877.4c0,0,0.7,4.5-1.8,5.6c-2.5,1.1-4.8,0.4-8.5-0.8c-4.8-1.5-13.5,3.9-3.9,5
					c1.4,0.2,9.3,0.9,13.5-1.4c2-1.1,2.4-4.7,2-5.7L1006.6,877.4z"/>
			</g>
			<g>
				<path class="st63" d="M1050.1,870.3l-0.4,16.5c0,0-4.7,3-9,0.2l1.6-14.8C1042.3,872.2,1050.3,870,1050.1,870.3z"/>
				<path class="st63" d="M1042.6,878.9c0,0,0.5,4.5-2.1,5.5c-2.5,1-4.8,0.1-8.4-1.3c-4.7-1.8-13.7,3.1-4.2,4.8
					c1.4,0.2,9.3,1.5,13.6-0.6c2.1-1,2.7-4.5,2.4-5.6L1042.6,878.9z"/>
			</g>
			<path class="st55" d="M1087.6,639.9c-19.4,14.7-21.7,62.8-27.2,97.6c-0.1,0.7-0.2,5.5,0.1,6.7c1.6,5.5,14.5,10.6,36.2,10.2
				c19.4-0.3,35.8-5.1,39.8-11.5c0,0,0,0,0-0.1c0.1-0.1,0.2-0.3,0.2-0.4c0.9-1.6,1.2-3.6,1.1-5.7c-1-13.4-1-26.2-3.9-37.3
				c-9.7-51.3-18.3-57.7-19-57.5c-3.2-1.8-10.2-4.9-16-4C1092.4,639.1,1088.3,639.4,1087.6,639.9z"/>
			<path class="st62" d="M1088.8,639.6c-0.8,0.7-3.7,2.1-5.9,5.4c-4.6,6.4-12.6,24.9-8.3,53.2c4.7,30.9-3.2,48.3-2.2,65
				c0.2,3.2-0.6,14.8-8.3,10.8c-4.6-2.4-10.2-5.5-11.1-10.8c0.4-2.5,8.2-26.7,5.2-46.1c-3.4-22.4,0.9-46.3,9.6-60.9
				c4.2-7.1,12.9-13.1,15.1-14.6c2.6-1.8,6.6-3.4,6.6-3.4S1089,638.9,1088.8,639.6z"/>
			
				<linearGradient id="SVGID_00000000213416743952822040000017131037627730740152_" gradientUnits="userSpaceOnUse" x1="989.7371" y1="806.7011" x2="1118.7765" y2="806.7011">
				<stop  offset="0.1453" style="stop-color:#0488B2"/>
				<stop  offset="0.1987" style="stop-color:#037EA4"/>
				<stop  offset="0.3585" style="stop-color:#02647F"/>
				<stop  offset="0.5075" style="stop-color:#015165"/>
				<stop  offset="0.6402" style="stop-color:#004555"/>
				<stop  offset="0.743" style="stop-color:#00414F"/>
			</linearGradient>
			<path style="fill:url(#SVGID_00000000213416743952822040000017131037627730740152_);" d="M1118.5,747.7c-5-10.9-105.9-9-119-3.5
				c-3.9,1.6-8.1,8-8.7,13.7c-1.1,5.2-1.5,11.7-0.8,18.8l1.2,13.8c0,0.1,0,0.2,0,0.2c2.5,29.6,7.1,65.5,11.3,82.2
				c2.1,1.5,8.1,0.4,12.2-0.5c2.4-0.6,4.2-3.2,4.5-6.4c1.2-16.5,3.2-46,0.4-89.2c20.1,1.6,48.2,1.7,57.5,2.2
				c18.2,0.9,40.9-12,41.7-21.2C1118.8,757.6,1118.5,747.7,1118.5,747.7z"/>
			<path class="st65" d="M1148.5,747.7c-4.6-10.9-97.5-8.8-109.5-3.4c-3.2,1.4-7.7,5.7-9.5,12.9c-1.7,5.4-2.6,13-2.1,21.3l0.9,13.8
				c0,0.1,0,0.2,0,0.2c1.7,29.6,5.3,65.6,9.1,82.5c2,1.6,8.1,0.7,12.2-0.2c2.4-0.5,4.3-3.1,4.6-6.3c1.6-16.7,4.6-45.5,2.7-89.6
				c13,0,61.1,0,70.9,0c16.9,0,21.1-12,20.9-21.4C1148.8,757.6,1148.5,747.7,1148.5,747.7z"/>
			<path class="st62" d="M1108.2,723.9c-2.5,8.5-11.6,41.7,0.3,46.5c14.3,5.7,49.7-0.6,44.1-15.6c-3.8-10.2-1.6-25.2-1.6-25.2
				s1.5-28.6-2.2-51.5c-2.9-18.3-20.2-35.3-42.3-40.2c-2.4,0.7-1,2,0.4,2.9c1,0.7,1.6,1.7,1.8,2.8c2,8.4-3.7,16-1,26.4
				C1113,690.8,1112.2,703.6,1108.2,723.9z"/>
			<path class="st27" d="M1151.2,725.9c-0.1,2.7-1.4,5.3-3.8,7.2c-1.8,1.4-3.9,3-5.1,3.7c-7,4.5-13.6,6.3-22.1,8.1
				c-5.3,1.1-9.9,0.3-15.3,0.9c1.4-6.5,2.8-14.8,3.5-19.5c11.5-7.5,24.8-7.8,25.7-9.4c3-5.6-7.8-24.6-12.2-33.9
				c-11.9-25,1.7-32,6-35.6c11.1,7.8,18.9,19,20.8,30.7C1151.7,695.8,1151.4,717.1,1151.2,725.9z"/>
			<path class="st66" d="M1080.5,619.9c0,0-3.2-2.2-4.4-4.8c-1.2-2.6-0.1-5.2-0.1-5.2s-3.9-2.3-1.7-5.3c2.2-3,15.4-2.7,15.4-2.7
				L1080.5,619.9z"/>
			<path class="st67" d="M1106.8,617c0,0-1.1,19.7-1.3,25.4c0,0.6,0,3.2-2.6,4.7c-1.6,0.9-3.7,1.9-8.3,2c-2.5,0.1-5.5,0.2-8.8-2.2
				c-0.4-0.3-0.5-0.9-0.3-1.4c4.6-9.3,3.2-20.7,3.2-20.7l18.1-7.6"/>
			<path class="st68" d="M1085.5,645.5c3.3-9,3.3-16.5,3.3-16.5s16-2.3,15.9-2C1104.3,634.1,1100.3,640.9,1085.5,645.5z"/>
			<path class="st67" d="M1079.9,608.7c-2.7,22.2,3.4,30.3,8.7,30.8c14.5,1.4,20.4-9.1,22-18.7c1.6-9.6-5.9-19.5-13-20.7
				C1090.4,598.9,1081,599.1,1079.9,608.7z"/>
			<path class="st66" d="M1073.3,596.6c1.9-2.4,4.4-5.8,12-0.6c1.8,1.3,3.8-1.9,9.4-2.3c8.5-0.7,8.8,4.2,14,5.3
				c3.6,0.7,3.4,3.7,7.3,8.5c2.5,3.1-1.1,6.2,0.8,9.2c2.3,3.6-4.6,5.2-4.4,7.9c0.5,6.4-4.8,9.4-6.3,12c-0.4,0.8-1.1-2.5-1.3-3.3
				c-1-3.9,1.1-7.9,1.1-8c1.7-0.5,5.7-2.4,3.6-8.6c-2.2-6.7-5.7,1.4-5.7,1.4s-1.4-3.2-1-5.4c0.7-4.5-4.1-5.7-10.2-4.3
				c-2.6,0.6-3.8-2.7-5.9-2c-3.5,1.2-6.9-0.5-9,1.3c-1.1,1-3-0.9-4.3-1.3C1068.7,604.8,1070.2,600.7,1073.3,596.6z"/>
			<path class="st66" d="M1080.1,627.9c0,0,2.2-2.2,4.2-2.4c2-0.2,7.3-1.8,10.4,1.1c3.1,2.9,4.2,1.8,5.1,0s2.4-11.9,3.7-13
				s0.4,8.4,0.4,8.4s-1,2.2-1.2,4c-0.2,1.8-0.8,3.2-0.6,5.1c0.2,1.9-0.2,4.7-1.2,5.7c-1,1-3.9,3.2-8.7,3c-4.8-0.2-6.4-0.2-8.4-2.8
				C1081.9,634.4,1080.1,631.6,1080.1,627.9z"/>
			<path class="st67" d="M1086.2,733.9c0,0-9-0.7-11.2-0.7c-2.2,0-5.8-0.3-7.1,0.1c-1.2,0.4-6.7,3.4-7.9,4.7
				c-1.2,1.3-1.5,1.8-1.2,2.4c0,0-0.4,0.5-0.2,1c0.2,0.5,0.8,0.6,1.2,0.5c0,0-0.1,0.6,0.9,0.6c0.2,0,0.8,0.2,1.8-0.6
				c0,0-0.1,0.2,0.2,0.5c0.6,0.4,2.5,0,3.6-0.3c1.1-0.3,3.7-0.4,4.2-0.5c0.6-0.1,1.9,0.7,3.8,0.8c1.9,0.1,6.1-0.4,9.1-1.7
				c2.9-1.2,9.3-1.3,9.3-1.3s0.4-4.8-0.2-5.5C1092,733.2,1089.5,733.7,1086.2,733.9z"/>
			<path class="st62" d="M1131.5,646.7c-3.4-1.7-7.5-3.6-11.7-2.9c-11.9,2-11,14.3-4.2,24.5c18.3,27.6,25.1,49.9,24.3,53.4
				c-1,4.3,10.2,6.1,12.4,5.4c2.2-0.8,10.9-3.1,10.9-7.7c0-9.1-2.8-24.3-4.9-32c-2.9-10.9-7.9-20.8-15.5-29.9
				C1139.7,653.7,1136.2,648.9,1131.5,646.7z"/>
			<path class="st62" d="M1085.6,743.4c-1.7-0.5-2.9-1.7-2.8-3.1c0.2-3,2.6-9.6,4.7-10c7.4-1.4,39-9.5,59.6-9.5
				c0.2,1.9,15.8-3.8,15.8-3.8c3.5,24.7-8.5,25.2-25.6,28.2C1137.2,745.1,1102.9,748.4,1085.6,743.4z"/>
			<g>
				<path class="st6" d="M1076.5,747.1h-79.9c-0.4,0-0.7-0.2-0.8-0.6L976.1,686c-0.2-0.6,0.2-1.1,0.8-1.1h78.5
					c1.2,0,2.3,0.8,2.6,1.9l19.3,59.3C1077.5,746.6,1077.1,747.1,1076.5,747.1z"/>
				<path class="st6" d="M1127.5,745.8h-75.9c-0.6,0-1-0.5-1-1v-0.8c0-0.6,0.5-1,1-1h75.9c0.6,0,1,0.5,1,1v0.8
					C1128.5,745.3,1128.1,745.8,1127.5,745.8z"/>
				<path class="st10" d="M1076,747.1h-78.8c-1.7,0-3.2-1.1-3.7-2.7l-18.6-57.1c-0.4-1.2,0.5-2.5,1.8-2.5h76.3
					c1.6,0,3.1,1.1,3.6,2.6L1076,747.1z"/>
				<path class="st10" d="M1127.3,747.1h-76.8v-2.9h78v1.6C1128.5,746.6,1128,747.1,1127.3,747.1z"/>
			</g>
		</g>
	</g>
	<path class="st55" d="M1033.5,715.9c0,2.9-3.5,5.3-7.7,5.3c-4.3,0-7.7-2.4-7.7-5.3c0-2.9,3.5-5.3,7.7-5.3
		C1030.1,710.6,1033.5,713,1033.5,715.9z"/>
</g>
<g>
	<path class="st66" d="M774.5,773.6c0,0-25.6,12.7-40.8-1.3c-15.2-14-14.5-21.7-12.4-27.4c-3.5-8.9,6.9-26.1,22.1-26.1
		c0,0,7.3-6.4,6.9-12.7c-0.3-6.4,1.8-19.4,16.7-17.8c14.9,1.6,14.4,6.1,14.1,9.6c-0.4,4.9-0.3,7.6,2.4,11.1
		c2.8,3.5,7.9,9.6,8.3,22.3C792.2,744,801.5,759.3,774.5,773.6z"/>
	<path class="st66" d="M790.9,692c0,0,5.5-5.8,1.8-11.6c-3.7-5.8-11-11-25.2,0c-5.8,2.9-10.5,3.4-13.4,3.7s-8.1,1.8-6.6,13.9
		c1.6,12.1,2.6,15.2-5.3,21.3c-7.9,6-14.7,12.9,0.3,30.7c15,17.9,28.4,14.2,39.1,10.8c10.8-3.4,23.1-15.5,20.2-23.1
		c-2.9-7.6-7.6-10-5.3-16.8C799.1,714,801.9,700.9,790.9,692z"/>
	<path class="st67" d="M836.5,725.6c-0.6,6.7-1.5,19.3-2.1,27.8c0,0-1.3,8.9-1.3,8.9c-1.9,13.1-5,23-11.7,25.4c0,0-4.5,1.7-9.8-3.1
		c-7.8-5.9-17.7-14.9-26.8-29.9c0,0-13.5-31-9.7-33.3c0,0,3.7,1.5,10.1,6.5c0,0,18.9,21.2,27.9,37.4c6,10,15.3-31.6,17.1-39.2
		C830.2,726.1,835.9,723.4,836.5,725.6z"/>
	<path class="st67" d="M878.3,947.9l-6.2-11.1c0.5-3.1,1.2-8.1,1.9-14.1h-10.7c0.8,5.7,1.6,10.7,2.2,14.1l-0.3,5.8L878.3,947.9z"/>
	<path class="st67" d="M843.9,947.9l-6.2-11.1c0.5-3.1,1.2-8.1,1.9-14.1h-10.7c0.8,5.7,1.6,10.7,2.2,14.1l-0.3,5.8L843.9,947.9z"/>
	<path class="st42" d="M739.3,820.8c0,0,39.6,12.6,63.1,1.7c0,0-6.3-40.8-5.3-47c1-6.2,8.2-7.3,8-14c-0.2-9.8-14.1-25.3-21.4-35.2
		c-0.5-0.7-0.9-1-1.2-1.4c-5.4-1.5-12.3-4.3-16.1-4c-10.6,1.4-19.7,6.8-24.2,11.3c-4.4,11.7,5.1,40,2.9,62.8
		C744.4,802.5,739.3,820.8,739.3,820.8z"/>
	<path class="st67" d="M784.5,694.1c0,0-5.8,2.4-15.9,0.3c0,0,0,3.7-4.7,5.3c0,0-0.3-1.1-2.1-0.1s-1.8,6.6,3,7.9
		c0,0,1.2,2.9,1.4,4.6c0.3,1.7-0.6,6.4-1,9.2c0,0,7.9,9.7,11.1,11.2c3.3,1.4,12.5,5.3,3.9-10c-1.4-2.9-1.3-5.4-1.3-5.4
		s5.6,0.4,4.7-7.4C782.8,701.8,784.5,694.1,784.5,694.1z"/>
	<path class="st68" d="M769.3,713.2c0,0,6.1,6.2,11,9.1c0,0-1.3-2.3-1.3-5.4C779,716.9,774.7,716.6,769.3,713.2z"/>
	<path class="st69" d="M743.4,735.7c-5.7,10.6-1.5,40.1-0.4,50.3c-2,14.1-7.2,31.3-7.2,31.3s12.2-1,19.6,3.4
		c1.9-4.9,34.4-15.4,37.8-19.5c-17-7.1-33.3-8.2-37.5-19.2c-1.7-6.1,3.3-22.4-0.9-40.3C752.7,732.1,744.9,732.9,743.4,735.7z"/>
	<path class="st67" d="M836.1,727l0.6-2c0.5-1.4,1.4-2.3,2.6-2.7c0,0,0,0,0,0c0.6-0.2,2-0.8,3-1.7c1.1-0.9,1.5-1.2,1.7-1.6
		c0,0,0,0,0,0c1.6-1.4,3-3.5,3.2-3.8c0.1-0.2,0.5-1,0.3-1.2c-0.2-0.2-0.6,0-0.9,0.2c0.5-0.6,0.8-1,0.9-1.2c0.2-0.2,0.7-1.1,0.4-1.4
		c-0.3-0.3-1,0.1-1.3,0.3c0,0-0.1,0-0.1,0.1c0.4-0.5,0.8-0.9,0.9-1.1c0.2-0.2,0.6-1,0.2-1.5c-0.4-0.4-1-0.1-1.5,0.1
		c-0.2,0.1-0.5,0.4-0.9,0.7c0.3-0.4,0.5-0.8,0.3-1.2c-0.4-0.4-1.3,0-1.8,0.3c-0.5,0.2-2.4,1.6-3.2,2.2c-0.5,0.5-2.5,2.1-3.6,3
		c0.3-0.6,0.4-1.1,0.4-1.1l0.2-1.2c0.3-0.8-0.1-2.1-0.5-1.6l-2.1,2.3c-0.3,0.4-0.6,0.8-0.8,1.2l-2.1,4.1c-0.6,1.1-0.8,1.7-1.1,3.7
		c-0.3,1.8-0.6,3.1-0.6,3.1l-0.8,3.7C829.6,728.7,831.4,728.9,836.1,727z"/>
	
		<linearGradient id="SVGID_00000140725490801056616850000017699916388436663973_" gradientUnits="userSpaceOnUse" x1="886.7418" y1="869.4301" x2="763.8393" y2="869.4301">
		<stop  offset="0.1453" style="stop-color:#03ADD0"/>
		<stop  offset="0.2484" style="stop-color:#029AB9"/>
		<stop  offset="0.3903" style="stop-color:#0185A0"/>
		<stop  offset="0.5385" style="stop-color:#01768E"/>
		<stop  offset="0.6958" style="stop-color:#006D83"/>
		<stop  offset="0.8771" style="stop-color:#006A80"/>
	</linearGradient>
	<path style="fill:url(#SVGID_00000140725490801056616850000017699916388436663973_);" d="M764.1,813.2
		c4.8-10.4,100.9-8.5,113.3-3.4c3.7,1.5,7.8,7.6,8.3,13c1,4.9,1.4,11.2,0.8,17.9l-1.2,13.1c0,0.1,0,0.1,0,0.2
		c-2.4,28.2-6.7,62.4-10.7,78.3c-2,1.4-7.7,0.4-11.6-0.5c-2.3-0.6-4-3-4.2-6.1c-1.1-15.8-3-42-0.3-83.2c-10.8,0-45.9-0.1-54.8,0.3
		c-17.3,0.8-38.9-11.4-39.7-20.2C763.8,822.7,764.1,813.2,764.1,813.2z"/>
	<path class="st71" d="M734,830c1.5,8.7,8.2,14,21.8,14c9.2,0,53.2-0.6,67-0.6c-1.7,42,0.9,69.1,2.5,85c0.3,3.1,2.1,5.5,4.4,6
		c3.9,0.8,9.7,1.7,11.6,0.2c3.6-16,7-50.3,8.7-78.5c0-0.1,0-0.1,0-0.2l0.8-13.1c0.5-7.9-0.3-15.2-2-20.3c-1.7-6.9-6-11-9.1-12.3
		c-11.5-5.2-100.2-3.2-101.9,0.4C737.9,810.4,732.5,821.6,734,830z"/>
	<path class="st67" d="M802.2,802.8c0,0,8.6-0.6,10.7-0.6c2.1,0,5.6-0.3,6.7,0.1s6.4,3.3,7.6,4.5c1.2,1.3,1.5,1.7,1.1,2.3
		c0,0,0.3,0.5,0.2,0.9c-0.2,0.5-0.8,0.6-1.2,0.5c0,0,0.1,0.5-0.8,0.5c-0.2,0-0.8,0.2-1.8-0.6c0,0,0.1,0.2-0.2,0.5
		c-0.5,0.4-2.4,0-3.4-0.3c-1-0.3-3.5-0.4-4-0.5c-0.5-0.1-1.8,0.7-3.6,0.8c-1.8,0.1-5.9-0.4-8.7-1.6c-2.8-1.2-9.3-1.1-9.3-1.1
		s0-4.7,0.6-5.4C796.6,802.2,799,802.7,802.2,802.8z"/>
	<path class="st67" d="M754.8,737.5c1.6,7.3-4.3,43-1.6,49.1s46.3,16,46.3,16l-1.2,5.7c0,0-38.6,1.8-51.9-1.9
		c-14.2-4-14.3-9.5-15.1-19.5c-0.9-11.5,3.2-45.6,5.1-50.8C741,723.7,752.4,726.9,754.8,737.5z"/>
	<g>
		<g>
			<path class="st66" d="M804.9,811.6h79.9c0.4,0,0.7-0.2,0.8-0.6l19.7-60.6c0.2-0.6-0.2-1.1-0.8-1.1h-78.5c-1.2,0-2.3,0.8-2.6,1.9
				L804,810.5C803.9,811,804.3,811.6,804.9,811.6z"/>
			<path class="st66" d="M753.9,810.2h75.9c0.6,0,1-0.5,1-1v-0.8c0-0.6-0.5-1-1-1h-75.9c-0.6,0-1,0.5-1,1v0.8
				C752.8,809.8,753.3,810.2,753.9,810.2z"/>
			<path class="st72" d="M805.3,811.6h78.8c1.7,0,3.2-1.1,3.7-2.7l18.6-57.1c0.4-1.2-0.5-2.5-1.8-2.5h-76.3c-1.6,0-3.1,1.1-3.6,2.6
				L805.3,811.6z"/>
			<path class="st72" d="M754.1,811.6h76.8v-2.9h-78v1.6C752.8,811,753.4,811.6,754.1,811.6z"/>
		</g>
		<ellipse class="st73" cx="855.5" cy="780.4" rx="7.7" ry="5.3"/>
	</g>
	<path class="st66" d="M851.9,952.5l-12.2-0.3c-1.1,0-2.1-0.5-2.8-1.3l-4.8-5l-0.2,6.1l-1.8-0.1l-1.5-6.9c-0.3-1.5,0-3.1,0.8-4.4
		l1-1.5c0.2-0.4,0.7-0.4,1.1-0.2l6.9,5.8c1.3,1.1,2.9,1.9,4.7,2.1l1.4,0.2c1,0.2,2.1,0.4,3,0.8l1.8,0.7c0.2,0.1,0.5,0.3,0.8,0.6
		c0.5,0.4,1,1,1.4,1.6l0.7,1.1C852.4,952.2,852.2,952.5,851.9,952.5z"/>
	<path class="st66" d="M886.3,952.5l-12.2-0.3c-1.1,0-2.1-0.5-2.8-1.3l-4.8-5l-0.2,6.1l-1.8-0.1L863,945c-0.3-1.5,0-3.1,0.8-4.4
		l1-1.5c0.2-0.4,0.7-0.4,1.1-0.2l6.9,5.8c1.3,1.1,2.9,1.9,4.7,2.1l1.4,0.2c1,0.2,2.1,0.4,3,0.8l1.8,0.7c0.2,0.1,0.5,0.3,0.8,0.6
		c0.5,0.4,1,1,1.4,1.6l0.7,1.1C886.8,952.2,886.6,952.5,886.3,952.5z"/>
</g>
<g>
	<path class="st74" d="M964.4,650.3H814.3c-2.3,0-3.8-2.4-2.8-4.5l10.5-22.1c0.5-1.1,1.6-1.8,2.8-1.8h128.1c1.2,0,2.2,0.6,2.8,1.7
		l11.5,22.1C968.3,647.8,966.8,650.3,964.4,650.3z"/>
	
		<linearGradient id="SVGID_00000078749833167052112690000009774343364611546505_" gradientUnits="userSpaceOnUse" x1="889.2325" y1="645.8702" x2="889.2325" y2="624.2601">
		<stop  offset="0" style="stop-color:#005679"/>
		<stop  offset="0.6379" style="stop-color:#008FAF"/>
		<stop  offset="1" style="stop-color:#00ABC9"/>
	</linearGradient>
	<polygon style="fill:url(#SVGID_00000078749833167052112690000009774343364611546505_);" points="960.6,645.9 817.8,645.9 
		827.8,624.3 950.7,624.3 	"/>
	<g>
		<g>
			<g>
				<polygon class="st23" points="922.5,643.8 855.3,643.8 856.3,640.1 921.5,640.1 				"/>
			</g>
			<g>
				<polygon class="st23" points="833.3,643.8 823.2,643.8 824.8,640.1 834.9,640.1 				"/>
			</g>
			<g>
				<polygon class="st23" points="848.7,638.9 825.4,638.9 827.1,635.3 849.8,635.3 				"/>
			</g>
			<g>
				<polygon class="st23" points="844.4,633.8 827.7,633.8 829.5,630.2 845.4,630.2 				"/>
			</g>
			<g>
				<polygon class="st23" points="951.3,633.8 934.3,633.8 933.2,630.2 949.7,630.2 				"/>
			</g>
			<g>
				<polygon class="st23" points="859.7,633.8 849.9,633.8 850.9,630.2 860.5,630.2 				"/>
			</g>
			<g>
				<polygon class="st23" points="840,628.7 830.1,628.7 831.7,625.1 841.4,625.1 				"/>
			</g>
			<g>
				<polygon class="st23" points="854.2,628.7 844.3,628.7 845.7,625.1 855.2,625.1 				"/>
			</g>
			<g>
				<polygon class="st23" points="867.2,628.7 857.3,628.7 858.3,625.1 867.8,625.1 				"/>
			</g>
			<g>
				<polygon class="st23" points="880.4,628.7 870.6,628.7 871.1,625.1 880.7,625.1 				"/>
			</g>
			<g>
				<polygon class="st23" points="893.5,628.7 883.7,628.7 883.8,625.1 893.4,625.1 				"/>
			</g>
			<g>
				<polygon class="st23" points="906.8,628.7 896.9,628.7 896.7,625.1 906.2,625.1 				"/>
			</g>
			<g>
				<polygon class="st23" points="919.8,628.7 909.9,628.7 909.3,625.1 918.8,625.1 				"/>
			</g>
			<g>
				<polygon class="st23" points="933,628.7 923.2,628.7 922.1,625.1 931.6,625.1 				"/>
			</g>
			<g>
				<polygon class="st23" points="949,628.7 939.2,628.7 937.8,625.1 947.3,625.1 				"/>
			</g>
			<g>
				<polygon class="st23" points="873.2,633.8 863.4,633.8 864,630.2 873.6,630.2 				"/>
			</g>
			<g>
				<polygon class="st23" points="887,633.8 877.1,633.8 877.4,630.2 887,630.2 				"/>
			</g>
			<g>
				<polygon class="st23" points="900.5,633.8 890.6,633.8 890.6,630.2 900.2,630.2 				"/>
			</g>
			<g>
				<polygon class="st23" points="914.1,633.8 904.2,633.8 903.8,630.2 913.4,630.2 				"/>
			</g>
			<g>
				<polygon class="st23" points="927.6,633.8 917.7,633.8 917,630.2 926.6,630.2 				"/>
			</g>
			<g>
				<polygon class="st23" points="866.7,638.9 855.7,638.9 856.7,635.3 867.3,635.3 				"/>
			</g>
			<g>
				<polygon class="st23" points="880.3,638.9 869.9,638.9 870.5,635.3 880.5,635.3 				"/>
			</g>
			<g>
				<polygon class="st23" points="953.7,638.9 930.4,638.9 929.3,635.3 952.1,635.3 				"/>
			</g>
			<g>
				<polygon class="st23" points="908.3,638.9 897.3,638.9 897.1,635.3 907.7,635.3 				"/>
			</g>
			<g>
				<polygon class="st23" points="894.4,638.9 883.4,638.9 883.6,635.3 894.3,635.3 				"/>
			</g>
			<g>
				<polygon class="st23" points="921.9,638.9 911.6,638.9 910.9,635.3 920.9,635.3 				"/>
			</g>
			<g>
				<polygon class="st23" points="850.6,643.8 840.5,643.8 842,640.1 851.8,640.1 				"/>
			</g>
			<g>
				<polygon class="st23" points="937.7,643.8 927.6,643.8 926.4,640.1 936.2,640.1 				"/>
			</g>
			<g>
				<polygon class="st23" points="956,643.8 946,643.8 944.4,640.1 954.2,640.1 				"/>
			</g>
		</g>
	</g>
</g>
<g>
	<polygon class="st76" points="906.5,714 947.1,690.4 914.2,705.4 	"/>
	<path class="st77" d="M900.7,692c0,0,37.2-0.5,46.4-1.6c0,0-21.7,22.9-27.1,31l-5.8-16.1l-2.8-4.4L900.7,692z"/>
	
		<linearGradient id="SVGID_00000098183743268676768300000002658387188223458706_" gradientUnits="userSpaceOnUse" x1="906.5243" y1="702.2283" x2="947.0909" y2="702.2283">
		<stop  offset="0" style="stop-color:#E6E6E6"/>
		<stop  offset="0.1329" style="stop-color:#E0E0E0"/>
		<stop  offset="0.3019" style="stop-color:#D1D1D1"/>
		<stop  offset="0.4903" style="stop-color:#B7B7B7"/>
		<stop  offset="0.693" style="stop-color:#929292"/>
		<stop  offset="0.9048" style="stop-color:#646464"/>
		<stop  offset="1" style="stop-color:#4D4D4D"/>
	</linearGradient>
	<polygon style="fill:url(#SVGID_00000098183743268676768300000002658387188223458706_);" points="906.5,714 914.2,705.4 
		947.1,690.4 911.4,701 	"/>
</g>
</svg>
