<?xml version="1.0" encoding="utf-8"?>
<!-- Generator: Adobe Illustrator 28.0.0, SVG Export Plug-In . SVG Version: 6.00 Build 0)  -->
<svg version="1.1" id="Layer_4" xmlns="http://www.w3.org/2000/svg" xmlns:xlink="http://www.w3.org/1999/xlink" x="0px" y="0px"
	 viewBox="0 0 120 30" style="enable-background:new 0 0 120 30;" xml:space="preserve">
<style type="text/css">
	.st0{fill:#EA5520;}
	.st1{fill:#3B5866;}
	.st2{fill:#73BEE3;}
	.st3{fill:#FF7A7A;}
	.st4{fill:#FFFFFF;}
	.st5{clip-path:url(#SVGID_00000084496196141080941260000000690314036674606771_);}
	.st6{fill-rule:evenodd;clip-rule:evenodd;fill:#FFFFFF;}
	.st7{fill-rule:evenodd;clip-rule:evenodd;fill:#442E1F;}
	.st8{fill-rule:evenodd;clip-rule:evenodd;fill:#60C4BD;}
	.st9{fill:#B01117;}
	.st10{fill-rule:evenodd;clip-rule:evenodd;fill:#992E19;}
	.st11{fill-rule:evenodd;clip-rule:evenodd;fill:#361C04;}
	.st12{clip-path:url(#SVGID_00000056414507041702454850000017870508025565373369_);}
	.st13{fill-rule:evenodd;clip-rule:evenodd;fill:#863811;}
	.st14{fill-rule:evenodd;clip-rule:evenodd;fill:#2C1908;}
	.st15{fill-rule:evenodd;clip-rule:evenodd;fill:#5C4035;}
	.st16{fill:none;stroke:#442E1F;stroke-width:9.870887e-02;stroke-linecap:round;stroke-linejoin:round;}
	.st17{fill-rule:evenodd;clip-rule:evenodd;fill:#B01117;}
	.st18{fill:none;stroke:#000000;stroke-width:0.1624;stroke-linecap:round;stroke-linejoin:round;}
	.st19{fill-rule:evenodd;clip-rule:evenodd;}
	.st20{fill:none;stroke:#000000;stroke-width:0.1016;stroke-linecap:round;stroke-linejoin:round;}
	.st21{fill:none;stroke:#442E1F;stroke-width:9.818158e-02;stroke-linecap:round;stroke-linejoin:round;}
	.st22{fill:url(#SVGID_00000031890896407442535030000006980288400022094518_);}
	.st23{fill-rule:evenodd;clip-rule:evenodd;fill:#004F2A;}
	.st24{enable-background:new    ;}
	.st25{fill:none;stroke:#FFFFFF;stroke-width:0.8902;stroke-linecap:round;stroke-linejoin:round;}
	.st26{fill:none;stroke:#006837;stroke-width:0.6022;stroke-linecap:round;stroke-linejoin:round;}
	.st27{fill:#29ABE2;}
</style>
<g>
	<circle class="st0" cx="14.9" cy="15" r="14.2"/>
	<path class="st1" d="M8.6,4l-6,3.8H2.5V7.7L8.6,4C8.6,3.9,8.6,3.9,8.6,4C8.7,4,8.7,4,8.6,4L8.6,4z"/>
	<path class="st2" d="M6,6.9L5.8,7.1l0,0H5.7L5.5,7.3c0.6,1.6,0.8,3.5,0.4,5l1.9,0.8l1.3-0.8h0.1l1.3-0.8l0.1-2.1
		C8.8,9.1,7.2,8.2,6,6.9L6,6.9z M8.4,11.3c-0.3,0.2-0.8,0.1-1-0.2c-0.2-0.3-0.1-0.8,0.2-1c0.3-0.2,0.8-0.1,1,0.2S8.7,11.1,8.4,11.3z
		"/>
	<rect x="6.5" y="6.9" transform="matrix(0.8477 -0.5305 0.5305 0.8477 -3.4354 4.7737)" class="st1" width="0.2" height="3"/>
	<rect x="7.7" y="12.2" transform="matrix(0.8477 -0.5305 0.5305 0.8477 -5.2772 6.8148)" class="st1" width="3.1" height="0.7"/>
	<path class="st1" d="M10.5,7.1L10.5,7.1c-1.2-1.5-3.2-2-5-1.1H5.4V5.9c0.9-0.4,1.9-0.5,2.8-0.3C9.2,5.7,10,6.3,10.5,7.1
		C10.6,7,10.6,7.1,10.5,7.1L10.5,7.1L10.5,7.1z"/>
	<path class="st1" d="M3.7,11.4L3.7,11.4C3.6,11.5,3.6,11.4,3.7,11.4c-0.5-0.8-0.6-1.8-0.4-2.7C3.4,7.8,4,6.9,4.7,6.3h0.1v0.1
		C3.3,7.6,2.8,9.7,3.7,11.4L3.7,11.4L3.7,11.4z"/>
	<polygon class="st3" points="5,6.8 5.8,6.3 5.5,5.9 5.3,5.6 4.6,6 4.8,6.4 	"/>
	<polygon class="st3" points="8.5,4.6 9.2,4.1 9,3.7 8.8,3.4 8,3.9 8.2,4.2 	"/>
	<rect x="10.3" y="7" transform="matrix(0.8477 -0.5305 0.5305 0.8477 -2.3118 6.819)" class="st3" width="0.9" height="0.9"/>
	<rect x="3.4" y="11.3" transform="matrix(0.8477 -0.5305 0.5305 0.8477 -5.6286 3.8217)" class="st3" width="0.9" height="0.9"/>
	<path class="st3" d="M25.5,10.8c0,0,0.2-0.2,0.4-0.5c1-1.5,0.6-3.5-0.9-4.5s-3.5-0.6-4.5,0.9c-0.2,0.3-0.3,0.6-0.3,0.6
		c-0.2,0.6-0.1,1-0.2,1.9c0,0.2,0,0.6-0.1,1.1c1,0.6,2,1.3,3,1.9c0.3-0.2,0.6-0.4,0.8-0.5C24.4,11.3,24.9,11.3,25.5,10.8L25.5,10.8z
		"/>
	<path class="st4" d="M21.8,11.4c-0.1,0-0.1-0.1,0-0.2l1.3-2l-0.4-0.3l-1.3,2c0,0.1-0.1,0.1-0.2,0c-0.1,0-0.1-0.1,0-0.2l1.3-2l0,0
		c-0.1,0-0.1-0.1-0.1-0.1l0,0c-0.1-0.1-0.2-0.2-0.2-0.3c0-0.2,0-0.3,0.1-0.4s0.2-0.2,0.3-0.3c0.1,0,0.2,0,0.4,0.1l0,0
		c0.3,0.2,0.3,0.5,0.2,0.6l-0.4,0.4L23.2,9l0.2-0.3c0.1-0.1,0.2-0.2,0.3-0.2s0.2,0,0.3,0.1c0,0,0.1,0,0.1,0.1
		c0.1,0.1,0.3,0.4,0.1,0.7c-0.2,0.3-0.5,0.3-0.7,0.2l0,0l-0.2-0.1l-1.3,2C21.9,11.5,21.8,11.5,21.8,11.4L21.8,11.4z M22.6,8.1
		c-0.1,0-0.1-0.1-0.2,0l-0.1,0.1c0,0-0.1,0.1,0,0.2c0,0,0,0.1,0.1,0.1l0,0l0.1,0.1l0,0l0.3-0.3l0,0C22.8,8.2,22.7,8.2,22.6,8.1
		L22.6,8.1L22.6,8.1z M23.8,8.9C23.8,8.9,23.7,8.8,23.8,8.9c-0.1,0-0.1,0-0.2,0l-0.2,0.3l0.2,0.1l0,0c0.1,0,0.2,0,0.3-0.1
		C24,9.1,24,9,23.8,8.9L23.8,8.9L23.8,8.9z"/>
	<path class="st1" d="M22.2,12.9l-2.7-1.8c-0.2-0.1-0.3-0.5-0.1-0.7l0,0c0.1-0.2,0.5-0.3,0.7-0.1l2.7,1.8c0.2,0.1,0.3,0.5,0.1,0.7
		l0,0C22.8,13,22.5,13.1,22.2,12.9z"/>
	<path class="st1" d="M21.4,13.6l-2.1-1.4c-0.2-0.1-0.3-0.5-0.1-0.7l0,0c0.1-0.2,0.5-0.3,0.7-0.1l2.1,1.4c0.2,0.1,0.3,0.5,0.1,0.7
		l0,0C21.9,13.7,21.6,13.8,21.4,13.6z"/>
	<path class="st1" d="M19.2,12.3c0,0.4,0.2,0.8,0.7,1.1c0.5,0.3,1,0.4,1.3,0.2L19.2,12.3z"/>
	<path class="st1" d="M4.3,20.2c-1.3,2-0.8,4.5,1.1,5.7s4.7,1,5.1-0.8c0.1-0.7-0.9-1.8-0.8-2.4c0.3-1.3,1.8,0.2,2-0.4
		c0.4-1-0.5-2.7-1.8-3.5C8.1,17.6,5.6,18.2,4.3,20.2L4.3,20.2z M11.1,21.1c0,0.3-0.3,0.5-0.6,0.5S10,21.3,10,21
		c0-0.3,0.3-0.5,0.6-0.5C10.9,20.6,11.2,20.8,11.1,21.1z"/>
	<ellipse class="st3" cx="8.1" cy="25.4" rx="0.7" ry="0.7"/>
	<ellipse class="st2" cx="5.8" cy="24.7" rx="0.7" ry="0.7"/>
	<ellipse class="st3" cx="4.8" cy="22.2" rx="0.7" ry="0.7"/>
	<ellipse class="st2" cx="6.1" cy="20" rx="0.7" ry="0.7"/>
	<ellipse class="st3" cx="8.7" cy="19.5" rx="0.7" ry="0.7"/>
	<g>
		<g>
			<g>
				<g>
					<g>
						<defs>
							<circle id="SVGID_1_" cx="15" cy="16.4" r="13.2"/>
						</defs>
						<clipPath id="SVGID_00000139272102099225858230000007661481075250181794_">
							<use xlink:href="#SVGID_1_"  style="overflow:visible;"/>
						</clipPath>
						<g style="clip-path:url(#SVGID_00000139272102099225858230000007661481075250181794_);">
							<path class="st6" d="M14.9,30c1.6,0,4.1-0.2,5.1-0.9c1.6-1.2,0.4-2.3-0.4-2.4c-1.9-0.2-2.8-1-3-1.8c-0.4-1.6,0-2.8,0-2.8
								h-1.7 M14.9,30c-1.6,0-4.1-0.2-5.1-0.9c-1.5-1.1-0.3-2.3,0.5-2.3c1.9-0.2,2.8-1,3-1.8c0.4-1.6,0-2.8,0-2.8h1.6"/>
							<path class="st7" d="M14.9,22.3l-1.5,0.1c0,0.2,0.1,0.4,0.1,0.8c0,0.1,0,0.3,0,0.4c0,0.4-0.1,0.9-0.2,1.4
								c-0.1,0.4-0.4,0.9-1,1.2c-0.2,0.1-0.5,0.3-0.8,0.4c-0.4,0.1-0.8,0.2-1.3,0.3c-0.4,0-1,0.4-1,0.9c-0.1,0.4,0.1,0.8,0.7,1.2
								c0.2,0.1,0.4,0.2,0.7,0.3c0.3,0.1,0.8,0.2,1.2,0.3c1.1,0.2,2.3,0.2,3.1,0.2l0,0l0,0l0,0l0,0l0,0c0.9,0,2.1,0,3.1-0.2
								c0.4-0.1,0.8-0.2,1.2-0.3c0.3-0.1,0.5-0.2,0.7-0.3c0.6-0.4,0.8-0.8,0.7-1.2c-0.1-0.5-0.6-0.9-1-0.9c-0.5-0.1-0.9-0.2-1.3-0.3
								c-0.3-0.1-0.6-0.2-0.8-0.4c-0.5-0.3-0.8-0.7-1-1.2c-0.1-0.5-0.2-1-0.2-1.4c0-0.2,0-0.3,0-0.4c0-0.3,0.1-0.6,0.1-0.8
								L14.9,22.3L14.9,22.3z M14.9,22.1L13.2,22L13,22.2c0,0,0.1,0.4,0.1,0.9c0,0.1,0,0.3,0,0.4c0,0.4,0,0.9-0.1,1.4
								c-0.1,0.4-0.3,0.8-0.8,1.1c-0.2,0.1-0.5,0.3-0.8,0.4c-0.4,0.1-0.8,0.2-1.3,0.2c-0.5,0-1.2,0.5-1.3,1.1c-0.1,0.4,0,1,0.8,1.6
								c0.2,0.1,0.5,0.3,0.8,0.4c0.4,0.1,0.8,0.2,1.2,0.3c1.1,0.2,2.3,0.3,3.2,0.2c0.9,0,2.1,0,3.2-0.2c0.5-0.1,0.9-0.2,1.2-0.3
								c0.3-0.1,0.6-0.3,0.8-0.4c0.7-0.6,0.9-1.1,0.8-1.6c-0.1-0.6-0.8-1-1.3-1.1c-0.5,0-0.9-0.1-1.3-0.2c-0.3-0.1-0.6-0.2-0.8-0.4
								c-0.5-0.3-0.7-0.7-0.8-1.1c-0.1-0.5-0.1-1-0.1-1.4c0-0.1,0-0.3,0-0.4c0-0.6,0.1-0.9,0.1-0.9L16.3,22L14.9,22.1L14.9,22.1z"/>
							<path class="st8" d="M16.5,25c0.2,0.8,1.1,1.6,3,1.8c0.8,0.1,2,1.2,0.4,2.4c-1,0.7-3.5,1-5.1,0.9l0,0c-1.6,0-4.1-0.2-5.1-0.9
								c-1.5-1.2-0.3-2.4,0.5-2.4c1.9-0.2,2.8-1,3-1.8H16.5L16.5,25z"/>
							<path class="st7" d="M15,30v0.3l0,0V30c-1.6,0-4.2-0.2-5.1-0.9c-1.6-1.1-0.4-2.3,0.4-2.3c1.9-0.2,2.8-1,3-1.8h3.4
								c0.2,0.8,1.1,1.6,3,1.8c0.8,0.1,2,1.2,0.4,2.4C19,29.8,16.4,30.1,15,30L15,30z M14.9,30.3L14.9,30.3c0.9,0.1,2.1,0,3.2-0.1
								c0.9-0.1,1.7-0.4,2.2-0.7c0.9-0.6,1-1.3,0.9-1.8c-0.2-0.8-1-1.3-1.6-1.4c-0.7-0.1-1.2-0.2-1.6-0.4c-0.5-0.3-0.8-0.6-0.9-1
								l-0.4-0.1l-3.4-0.1l-0.4,0.2c-0.1,0.3-0.2,0.5-0.5,0.7c-0.1,0.1-0.3,0.2-0.5,0.3c-0.4,0.2-0.9,0.4-1.6,0.5
								C9.8,26.5,9,27,8.9,27.7c-0.1,0.5,0.1,1,0.9,1.5c0.4,0.3,1.2,0.5,2,0.7C12.8,30.2,14,30.3,14.9,30.3L14.9,30.3z"/>
							<path class="st9" d="M22.5,24.3c-0.2,0.1-1.5-0.6-1.7-0.4c-0.1,0.1-0.1,0.3,0,0.6c-0.2-0.1-0.4-0.2-0.6-0.1s0.2,1.5,0.1,1.8
								l0,0l0,0l0,0c0.3,0.1,1,0.4,1.4,0.5c0.3,0.1,0.6,0,0.6-0.3c0.3,0,0.5-0.3,0.4-0.6C22.7,25.3,22.6,24.7,22.5,24.3L22.5,24.3
								L22.5,24.3L22.5,24.3z M21.8,25.1c0,0.1-0.1,0.1-0.1,0.2l-0.1,0.3l-0.3,0.1c-0.1,0-0.1,0-0.2,0.1c0.1-0.1,0.1-0.1,0.1-0.2
								l0.1-0.2h0.2C21.7,25.1,21.8,25.1,21.8,25.1L21.8,25.1L21.8,25.1z"/>
							<path class="st7" d="M22.4,24.2L22.4,24.2L22.4,24.2L22.4,24.2L22.4,24.2z M22.4,24.3L22.4,24.3c0,0.1,0,0.2,0.1,0.2l0,0l0,0
								l0,0l0,0l0,0l0,0l0,0l0,0l0,0L22.4,24.3L22.4,24.3z M22.5,24.5L22.5,24.5L22.5,24.5L22.5,24.5z M21.7,25.2l-0.1,0.2
								c0,0,0,0-0.1,0c-0.1,0-0.2,0-0.2,0l0,0c0,0,0,0,0-0.1l0.1-0.2L21.7,25.2C21.6,25.2,21.6,25.2,21.7,25.2L21.7,25.2z M21.8,25
								l0.1,0.2l0,0l0,0l0,0l0,0l-0.1,0.1l-0.1,0.2l0,0c0,0,0,0-0.1,0c-0.1,0-0.2,0.1-0.2,0.1l-0.2,0.1h-0.1v-0.1c0,0,0-0.1,0.1-0.1
								c0,0,0-0.1,0.1-0.1l0.1-0.2l0,0l0.2-0.1C21.6,25,21.7,25,21.8,25C21.7,25,21.7,25,21.8,25L21.8,25L21.8,25L21.8,25L21.8,25
								L21.8,25L21.8,25L21.8,25L21.8,25C21.7,25,21.7,25,21.8,25L21.8,25L21.8,25L21.8,25L21.8,25L21.8,25L21.8,25z M20.3,26.3
								L20.3,26.3L20.3,26.3L20.3,26.3L20.3,26.3L20.3,26.3z M20.3,26.3L20.3,26.3L20.3,26.3L20.3,26.3L20.3,26.3z M22.4,24.4
								l0.3,1.4c0,0.1,0,0.2-0.1,0.3c-0.1,0.1-0.2,0.2-0.3,0.2l0,0c0,0.1-0.1,0.2-0.2,0.3c-0.1,0-0.2,0-0.3,0l-1.3-0.5
								c0,0,0-0.1,0-0.2c0-0.3-0.2-0.9-0.2-1.3c0-0.1,0-0.2,0-0.2s0,0,0-0.1c0,0,0.1,0,0.2,0c0.1,0,0.2,0.1,0.3,0.1c0,0,0,0,0.1,0
								c0,0,0,0,0-0.1s-0.1-0.2-0.1-0.3s0-0.1,0.1-0.2l0,0c0,0,0.1,0,0.2,0c0.4,0.1,0.9,0.4,1.2,0.4C22.3,24.4,22.4,24.4,22.4,24.4
								L22.4,24.4z M20.3,26.2L20.3,26.2L20.3,26.2L20.3,26.2L20.3,26.2L20.3,26.2L20.3,26.2L20.3,26.2L20.3,26.2l1.4,0.5
								c0.1,0.1,0.3,0,0.4,0c0.1-0.1,0.2-0.2,0.3-0.3c0.1,0,0.3-0.1,0.3-0.2c0.1-0.1,0.1-0.3,0.1-0.4l-0.2-1.5l-0.1,0.1l-0.1-0.2
								l0,0l0,0l0,0c0,0,0,0,0.1,0h-0.1l0,0l0,0l0,0c0,0-0.1,0-0.2,0c-0.3-0.1-0.8-0.3-1.1-0.3c-0.2,0-0.3-0.1-0.4,0
								c-0.1,0.1-0.1,0.1-0.1,0.3c0,0.1,0,0.1,0,0.2c-0.1,0-0.2-0.1-0.2-0.1c-0.1,0-0.2,0-0.3,0c0,0-0.1,0.2-0.1,0.4
								c0,0.3,0.1,0.7,0.1,1c0,0.2,0,0.3,0,0.4L20.3,26.2L20.3,26.2L20.3,26.2z"/>
						</g>
					</g>
				</g>
			</g>
		</g>
	</g>
	<path class="st10" d="M14.9,5c0.5-0.8,1.4-0.8,1.8-0.4c0.5,0.4,0.5,1.2,0,1.9c-0.3,0.6-1.1,1.2-1.8,1.6c-0.7-0.4-1.5-1-1.8-1.6
		c-0.5-0.8-0.5-1.6,0-1.9C13.5,4.2,14.4,4.2,14.9,5L14.9,5z"/>
	<path class="st11" d="M14.9,5c0.5-0.8,1.4-0.8,1.8-0.4c0.5,0.4,0.5,1.2,0,1.9c-0.3,0.6-1.1,1.2-1.8,1.6c-0.7-0.4-1.5-1-1.8-1.6
		c-0.5-0.8-0.5-1.6,0-1.9C13.5,4.2,14.4,4.2,14.9,5L14.9,5z M15.1,4.3c-0.3-0.3-0.7-0.5-1-0.6c-0.6-0.1-1.1,0.1-1.5,0.4
		c-0.3,0.3-0.5,0.7-0.5,1.1s0.1,1,0.5,1.5c0.2,0.3,0.4,0.6,0.8,0.8c0.4,0.3,0.9,0.6,1.3,0.8H15c0.4-0.2,0.8-0.6,1.2-0.9
		c0.3-0.2,0.5-0.5,0.6-0.8c0.3-0.5,0.4-0.9,0.3-1.3c0-0.4-0.2-0.7-0.4-0.9C16.4,4.2,16,4,15.5,4.1C15.4,4.2,15.3,4.3,15.1,4.3
		L15.1,4.3z"/>
	<path class="st6" d="M14.9,7.6c4.8,0,6,3.2,6,7.2c0.1,5-3.1,8-6,8.1c-3.1,0-6.6-3.6-6.1-8.1C9.2,10.7,10,7.6,14.9,7.6L14.9,7.6z"/>
	<g>
		<g>
			<g>
				<g>
					<g>
						<defs>
							<path id="SVGID_00000150079671031879451660000007992546183999596467_" d="M14.9,7.6c4.8-0.1,5.9,2.9,6,7.2
								c0.1,3.9-3,7.9-6,8.1c-3,0.1-6.5-4-6.1-8.1C9.1,10.7,10,7.6,14.9,7.6L14.9,7.6z"/>
						</defs>
						<clipPath id="SVGID_00000013188591903458584420000015423083569138644917_">
							<use xlink:href="#SVGID_00000150079671031879451660000007992546183999596467_"  style="overflow:visible;"/>
						</clipPath>
						<g style="clip-path:url(#SVGID_00000013188591903458584420000015423083569138644917_);">
							<path class="st13" d="M14.6,7.5c-3.2,0.3-4.3,0.9-5.1,2c-0.7,0.9,0.3,1.7,0.9,1.7c0.2,0,9.1,0.2,10.2-0.1
								C20.6,10,17.9,7.1,14.6,7.5L14.6,7.5z"/>
							<path class="st11" d="M14.5,7.5c-3.2,0.3-4.3,0.9-5,2c-0.7,0.9,0.3,1.7,0.9,1.7c0.2,0,9.1,0.2,10.1-0.1
								C20.6,10,17.9,7.1,14.5,7.5L14.5,7.5z M14.5,7.4C13,7.5,12,7.8,11.2,8c-0.8,0.4-1.3,0.9-1.7,1.4c-0.3,0.4-0.3,0.8-0.1,1.2
								c0.2,0.4,0.7,0.6,1,0.6c0.1,0,4.1,0.1,7.1,0.1c1.5,0,2.7-0.1,3-0.2l0,0c0-0.2,0-0.4-0.2-0.7c-0.3-0.6-1.1-1.4-2.2-2
								C17.1,7.7,15.8,7.3,14.5,7.4L14.5,7.4z"/>
						</g>
					</g>
				</g>
			</g>
		</g>
	</g>
	<path class="st14" d="M14.9,7.6c4.6,0,5.9,3,6,7.2s-3.2,8-6,8.1c-2.9,0-6.3-3.7-6.1-8.1C9,10.7,10,7.6,14.9,7.6L14.9,7.6z
		 M14.9,7.5c-2.5,0-4.1,0.7-5,2c-1,1.3-1.3,3.2-1.4,5.3c-0.1,1.8,0.5,4,1.6,5.5c1.3,1.8,3.2,2.9,4.8,2.9s3.5-1.2,4.8-3
		c1.1-1.6,1.6-3.6,1.7-5.4c0.1-1.9-0.2-3.8-1.3-5.4C19,8,17.3,7.2,15,7.2L14.9,7.5C15,7.5,14.9,7.5,14.9,7.5z"/>
	<path class="st15" d="M9.8,15.2c0.3-0.9,0.9-1.3,1.7-1.4c0.3,0,0.6,0,0.9,0.1c0.5,0.2,0.9,0.5,1,0.9l0,0l0,0c-0.2-0.4-0.6-0.8-1-1
		c-0.3-0.1-0.6-0.2-1-0.2c-0.8,0-1.5,0.4-1.8,1.4C9.7,15.2,9.7,15.3,9.8,15.2C9.8,15.3,9.8,15.3,9.8,15.2L9.8,15.2z"/>
	<path class="st16" d="M13.4,15L13.4,15c-0.1,0.7-0.9,1.2-1.8,1.2c-0.9,0-1.6-0.4-1.8-0.9"/>
	<path class="st17" d="M10.7,15c0.2,0,0.5-0.1,0.8-0.1c0.4,0,0.9,0,1.3,0V15c0,0.6-0.5,1.1-1.1,1.1C11.2,16.1,10.7,15.6,10.7,15
		L10.7,15L10.7,15z"/>
	<path class="st18" d="M10.7,15c0.2,0,0.5-0.1,0.8-0.1c0.4,0,0.9,0,1.3,0V15c0,0.6-0.5,1.1-1.1,1.1C11.2,16.1,10.7,15.6,10.7,15
		L10.7,15L10.7,15z"/>
	<path class="st17" d="M11,15c0.1,0,0.3,0,0.4,0c0.3,0,0.7,0,1,0v0.1c0,0.4-0.3,0.8-0.7,0.8C11.3,15.8,11,15.5,11,15L11,15L11,15z"
		/>
	<path class="st18" d="M11,15c0.1,0,0.3,0,0.4,0c0.3,0,0.7,0,1,0v0.1c0,0.4-0.3,0.8-0.7,0.8C11.3,15.8,11,15.5,11,15L11,15L11,15z"
		/>
	<path class="st17" d="M11.3,15L11.3,15c0.3,0,0.6,0,0.8,0V15c0,0.2-0.2,0.4-0.4,0.4C11.5,15.4,11.3,15.2,11.3,15
		C11.3,15,11.3,15,11.3,15L11.3,15z"/>
	<path class="st18" d="M11.3,15L11.3,15c0.3,0,0.6,0,0.8,0V15c0,0.2-0.2,0.4-0.4,0.4C11.5,15.4,11.3,15.2,11.3,15
		C11.3,15,11.3,15,11.3,15L11.3,15z"/>
	<path class="st19" d="M11.7,15C11.6,15,11.6,15,11.7,15c-0.1,0.2,0,0.2,0,0.2l0,0V15C11.8,15,11.8,15,11.7,15L11.7,15L11.7,15z"/>
	<path class="st18" d="M11.7,15C11.6,15,11.6,15,11.7,15c-0.1,0.2,0,0.2,0,0.2l0,0V15C11.8,15,11.8,15,11.7,15L11.7,15L11.7,15z"/>
	<path class="st19" d="M11.8,15L11.8,15c0.1,0.2,0.1,0.2,0,0.2l0,0C11.7,15.1,11.7,15,11.8,15C11.6,15,11.7,15,11.8,15L11.8,15
		L11.8,15z"/>
	<path class="st20" d="M11.8,15L11.8,15c0.1,0.2,0.1,0.2,0,0.2l0,0C11.7,15.1,11.7,15,11.8,15C11.6,15,11.7,15,11.8,15L11.8,15
		L11.8,15z"/>
	<path class="st14" d="M9.5,15.6c0.5-0.4,1.2-0.6,1.9-0.6c0.7-0.1,1.4,0,2.1,0.1V15c-0.7-0.2-1.4-0.3-2.1-0.3
		c-0.8,0-1.6,0.2-2.1,0.6L9.5,15.6L9.5,15.6z"/>
	<path class="st17" d="M14.7,19.2c-0.2-0.5-0.5-1.4-0.5-1.8c0-0.4,0.3-0.7,0.7-0.7c0.4,0,0.7,0.3,0.7,0.7c0,0.4-0.3,1.3-0.5,1.8
		c0.2,0.5,0.5,1.4,0.5,1.8s-0.3,0.7-0.7,0.7c-0.4,0-0.7-0.3-0.7-0.7C14.2,20.6,14.4,19.8,14.7,19.2z"/>
	<path class="st7" d="M14.7,19.2c-0.2-0.5-0.5-1.4-0.5-1.8c0-0.4,0.3-0.7,0.7-0.7c0.4,0,0.7,0.3,0.7,0.7c0,0.4-0.3,1.3-0.5,1.8
		c0.2,0.5,0.5,1.4,0.5,1.8s-0.3,0.7-0.7,0.7c-0.4,0-0.7-0.3-0.7-0.7C14.2,20.6,14.4,19.8,14.7,19.2z M14.5,19.3L14.5,19.3
		c-0.1,0.2-0.2,0.6-0.3,1c-0.1,0.3-0.1,0.6-0.1,0.8s0.1,0.4,0.2,0.6c0.1,0.1,0.4,0.2,0.6,0.2s0.4-0.1,0.6-0.2
		c0.1-0.1,0.2-0.4,0.2-0.6c0-0.2-0.1-0.5-0.1-0.8c-0.1-0.4-0.2-0.7-0.4-1c0.1-0.3,0.3-0.7,0.4-1c0.1-0.3,0.1-0.6,0.1-0.8
		s-0.1-0.4-0.2-0.6c-0.1-0.1-0.4-0.2-0.6-0.2s-0.4,0.1-0.6,0.2c-0.2,0.1-0.2,0.4-0.3,0.6c0,0.2,0,0.5,0.1,0.8
		C14.3,18.6,14.4,19,14.5,19.3L14.5,19.3z"/>
	<path class="st11" d="M8.7,13.7c0,0,0.2-0.4,0.6-0.8c0.2-0.2,0.4-0.4,0.7-0.5c0.4-0.2,0.8-0.2,1.2-0.1c0.6,0.1,1.1,0.4,1.7,0.8
		l0.4-0.8c-0.7-0.2-1.4-0.4-2.1-0.4c-0.5,0-1,0.1-1.4,0.3c-0.3,0.2-0.5,0.4-0.7,0.7C8.8,13.3,8.7,13.7,8.7,13.7L8.7,13.7z"/>
	<path class="st11" d="M20.7,13.7c0,0-0.1-0.4-0.4-0.9c-0.2-0.3-0.4-0.5-0.7-0.7c-0.5-0.2-0.9-0.2-1.5-0.2s-1.3,0.2-2.1,0.5l0.4,0.8
		c0.6-0.3,1.2-0.6,1.7-0.8c0.4-0.1,0.8-0.1,1.2,0.1c0.3,0.1,0.5,0.3,0.7,0.5C20.5,13.3,20.7,13.7,20.7,13.7L20.7,13.7z"/>
	<path class="st11" d="M18.6,8.7c-0.2,0.2-0.3,0.5-0.4,0.8c0,0.2,0,0.5,0.1,0.9c0.1,0.3,0.3,0.7,0.7,0.9c0.3,0.2,0.7,0.3,1.1,0.2
		c0.1,0,0.2-0.1,0.1-0.2c0-0.1-0.1-0.2-0.2-0.1c-0.3,0.1-0.6,0.1-0.9,0c-0.3-0.1-0.5-0.4-0.6-0.7s-0.1-0.6-0.1-0.8
		C18.3,9.2,18.5,9,18.6,8.7C18.7,8.7,18.7,8.7,18.6,8.7C18.7,8.7,18.6,8.7,18.6,8.7L18.6,8.7z"/>
	<path class="st11" d="M17.8,8c-0.3,0.3-0.6,0.6-0.7,1C17,9.4,16.9,9.8,17,10.3c0.1,0.4,0.3,0.7,0.7,0.9c0.3,0.2,0.7,0.2,1.1,0.1
		c0.1,0,0.2-0.1,0.1-0.2c0-0.1-0.1-0.2-0.2-0.1c-0.3,0.1-0.6,0.1-0.9,0c-0.3-0.1-0.5-0.4-0.6-0.7c-0.1-0.5-0.1-0.9,0.1-1.2
		C17.3,8.7,17.5,8.4,17.8,8C17.8,8.1,17.8,8,17.8,8L17.8,8L17.8,8z"/>
	<path class="st11" d="M16.9,7.7c-0.4,0.2-0.8,0.6-1.1,1.1s-0.4,1-0.3,1.6c0.1,0.4,0.3,0.7,0.7,0.9c0.3,0.2,0.7,0.2,1.1,0.1
		c0.1,0,0.2-0.1,0.1-0.2c0-0.1-0.1-0.2-0.2-0.1c-0.3,0.1-0.6,0.1-0.9,0c-0.3-0.1-0.5-0.4-0.6-0.7c-0.1-0.5,0-1,0.2-1.5
		C16.2,8.4,16.5,8,16.9,7.7C17,7.7,17,7.7,16.9,7.7C17,7.7,17,7.7,16.9,7.7L16.9,7.7z"/>
	<path class="st11" d="M15.8,7.7c-0.6,0.2-1.1,0.5-1.4,1c-0.3,0.5-0.4,1.1-0.3,1.7c0.1,0.4,0.3,0.7,0.7,0.9c0.3,0.2,0.7,0.2,1.1,0.1
		c0.1,0,0.2-0.1,0.1-0.2c0-0.1-0.1-0.2-0.2-0.1c-0.3,0.1-0.6,0.1-0.9,0c-0.3-0.1-0.5-0.4-0.6-0.7c-0.1-0.5-0.1-1.1,0.2-1.6
		S15.2,7.9,15.8,7.7L15.8,7.7L15.8,7.7L15.8,7.7z"/>
	<path class="st11" d="M14.6,7.7c-0.6,0.2-1,0.6-1.3,1c-0.4,0.5-0.6,1.1-0.4,1.6c0.1,0.4,0.3,0.7,0.7,0.9c0.3,0.2,0.7,0.2,1.1,0.1
		c0.1,0,0.2-0.1,0.1-0.2c-0.1-0.1-0.1-0.2-0.2-0.1c-0.3,0.1-0.6,0.1-0.9,0c-0.3-0.1-0.5-0.4-0.6-0.7c-0.1-0.5,0-1.1,0.3-1.6
		C13.6,8.3,14.1,7.9,14.6,7.7L14.6,7.7L14.6,7.7L14.6,7.7z"/>
	<path class="st13" d="M11.6,8.4c-1.1,0.4-2.3,1-2.3,1.9c0,0.6,0.6,1.1,1.4,0.9"/>
	<path class="st11" d="M11.5,8.4c-0.6,0.2-1.2,0.5-1.6,0.8c-0.4,0.3-0.7,0.7-0.7,1.1c0,0.4,0.2,0.7,0.5,0.9c0.3,0.2,0.7,0.2,1.1,0.1
		c0.1,0,0.2-0.1,0.1-0.2c0-0.1-0.1-0.2-0.2-0.1c-0.3,0.1-0.6,0.1-0.8,0c-0.3-0.1-0.4-0.4-0.5-0.7c0-0.4,0.2-0.7,0.5-1
		C10.3,9,10.9,8.7,11.5,8.4C11.6,8.5,11.6,8.5,11.5,8.4C11.6,8.4,11.6,8.4,11.5,8.4L11.5,8.4z"/>
	<path class="st13" d="M12.9,8c-2.2,0.3-2.7,1.3-2.4,2.4c0.1,0.6,0.8,1.1,1.6,0.9"/>
	<path class="st11" d="M12.9,7.9c-1.1,0.1-1.8,0.5-2.2,0.9c-0.4,0.4-0.5,1-0.4,1.5c0.1,0.4,0.3,0.7,0.7,0.9c0.3,0.2,0.7,0.2,1.1,0.1
		c0.1,0,0.2-0.1,0.1-0.2C12.1,11,12.1,10.9,12,11c-0.3,0.1-0.6,0.1-0.9,0c-0.3-0.1-0.5-0.4-0.6-0.7c-0.1-0.5-0.1-1,0.3-1.4
		C11.2,8.5,11.8,8.2,12.9,7.9C12.9,8,13,8,12.9,7.9C13,7.9,12.9,7.9,12.9,7.9L12.9,7.9z"/>
	<path class="st11" d="M13.7,7.7c-0.8,0.1-1.4,0.4-1.8,0.8c-0.5,0.5-0.7,1.2-0.5,1.9c0.1,0.4,0.3,0.7,0.7,0.9
		c0.3,0.2,0.7,0.2,1.1,0.1c0.1,0,0.2-0.1,0.1-0.2c0-0.1-0.1-0.2-0.2-0.1c-0.3,0.1-0.6,0.1-0.9,0c-0.3-0.1-0.5-0.4-0.6-0.7
		c-0.1-0.6,0-1.2,0.4-1.7C12.4,8.2,13,7.9,13.7,7.7C13.8,7.7,13.8,7.7,13.7,7.7C13.8,7.7,13.8,7.7,13.7,7.7L13.7,7.7z"/>
	<path class="st15" d="M19.8,15.2c-0.3-0.9-0.9-1.3-1.7-1.4c-0.3,0-0.6,0-0.9,0.1c-0.5,0.2-0.9,0.5-1,0.9l0,0l0,0
		c0.2-0.4,0.6-0.8,1-1c0.3-0.1,0.6-0.2,1-0.2c0.8,0,1.5,0.4,1.8,1.4C20,15.2,20,15.3,19.8,15.2C19.9,15.3,19.8,15.3,19.8,15.2
		L19.8,15.2z"/>
	<path class="st21" d="M16.2,15L16.2,15c0.1,0.7,0.8,1.2,1.8,1.2c0.9,0,1.6-0.4,1.8-0.9"/>
	<path class="st17" d="M19,15c-0.2,0-0.5-0.1-0.8-0.1c-0.4,0-0.9,0-1.3,0V15c0,0.6,0.5,1.1,1.1,1.1C18.5,16.1,19,15.6,19,15L19,15
		L19,15z"/>
	<path class="st18" d="M19,15c-0.2,0-0.5-0.1-0.8-0.1c-0.4,0-0.9,0-1.3,0V15c0,0.6,0.5,1.1,1.1,1.1C18.5,16.1,19,15.6,19,15L19,15
		L19,15z"/>
	<path class="st17" d="M18.7,15c-0.1,0-0.3,0-0.4,0c-0.3,0-0.7,0-1,0v0.1c0,0.4,0.3,0.8,0.7,0.8S18.7,15.5,18.7,15L18.7,15L18.7,15z
		"/>
	<path class="st18" d="M18.7,15c-0.1,0-0.3,0-0.4,0c-0.3,0-0.7,0-1,0v0.1c0,0.4,0.3,0.8,0.7,0.8S18.7,15.5,18.7,15L18.7,15L18.7,15z
		"/>
	<path class="st17" d="M18.3,15L18.3,15c-0.3,0-0.6,0-0.8,0V15c0,0.2,0.2,0.4,0.4,0.4C18.1,15.4,18.3,15.2,18.3,15
		C18.3,15,18.3,15,18.3,15L18.3,15z"/>
	<path class="st18" d="M18.3,15L18.3,15c-0.3,0-0.6,0-0.8,0V15c0,0.2,0.2,0.4,0.4,0.4C18.1,15.4,18.3,15.2,18.3,15
		C18.3,15,18.3,15,18.3,15L18.3,15z"/>
	<path class="st19" d="M17.9,15C18,15,18,15,17.9,15c0.1,0.2,0,0.2,0,0.2l0,0V15C17.8,15,17.8,15,17.9,15L17.9,15L17.9,15z"/>
	<path class="st18" d="M17.9,15C18,15,18,15,17.9,15c0.1,0.2,0,0.2,0,0.2l0,0V15C17.8,15,17.8,15,17.9,15L17.9,15L17.9,15z"/>
	<path class="st19" d="M17.9,15L17.9,15c-0.1,0.2-0.1,0.2,0,0.2l0,0C18,15.1,18,15,17.9,15C18,15,18,15,17.9,15L17.9,15L17.9,15z"/>
	<path class="st20" d="M17.9,15L17.9,15c-0.1,0.2-0.1,0.2,0,0.2l0,0C18,15.1,18,15,17.9,15C18,15,18,15,17.9,15L17.9,15L17.9,15z"/>
	<path class="st14" d="M20.1,15.6c-0.5-0.4-1.2-0.6-1.9-0.6c-0.7-0.1-1.4,0-2.1,0.1V15c0.7-0.2,1.4-0.3,2.1-0.3
		c0.8,0,1.6,0.2,2.1,0.6L20.1,15.6L20.1,15.6z"/>
	<ellipse class="st4" cx="18.2" cy="15" rx="2.5" ry="1.6"/>
	<path class="st15" d="M20,15.2c-0.3-1-1-1.4-1.8-1.4c-0.3,0-0.7,0.1-1,0.2c-0.5,0.2-0.9,0.5-1,1l0,0l0,0c0.2-0.4,0.6-0.7,1-0.9
		c0.3-0.1,0.6-0.2,0.9-0.1c0.7,0,1.4,0.4,1.7,1.4l0.1,0.1C20,15.3,20,15.2,20,15.2L20,15.2z"/>
	<path class="st14" d="M20.3,15.6c-0.6,0.3-1.4,0.4-2.2,0.3c-0.7-0.1-1.4-0.4-2-0.7l0.1-0.2c0.6,0.3,1.3,0.4,2,0.5
		c0.8,0,1.5,0,2-0.3L20.3,15.6L20.3,15.6z"/>
	
		<radialGradient id="SVGID_00000023255858602478723630000002106439144215153035_" cx="20.7186" cy="279.497" r="0.8972" gradientTransform="matrix(1 0 0 -1 0 296.4286)" gradientUnits="userSpaceOnUse">
		<stop  offset="0" style="stop-color:#FFFFFF"/>
		<stop  offset="9.000000e-02" style="stop-color:#FFECD8"/>
		<stop  offset="0.21" style="stop-color:#FFD4A7"/>
		<stop  offset="0.33" style="stop-color:#FFC07D"/>
		<stop  offset="0.46" style="stop-color:#FFB05A"/>
		<stop  offset="0.59" style="stop-color:#FFA340"/>
		<stop  offset="0.72" style="stop-color:#FF9A2D"/>
		<stop  offset="0.86" style="stop-color:#FF9421"/>
		<stop  offset="1" style="stop-color:#FF931E"/>
	</radialGradient>
	<polygon style="fill:url(#SVGID_00000023255858602478723630000002106439144215153035_);" points="20.8,17.8 20.4,17.3 19.8,17.3 
		20.2,16.8 19.9,16.2 20.6,16.4 21.1,16 21.1,16.6 21.6,17 21,17.2 	"/>
	<path class="st23" d="M14.9,0.9C22.7,0.9,29,7.3,29,15s-6.3,14.3-14.2,14.3S0.7,22.9,0.7,15S7.1,0.9,14.9,0.9z M14.9,0.6
		c-4-0.1-7.7,1.5-10.4,4.1S0.1,11,0,15c0,4.1,1.6,7.9,4.3,10.6S10.7,30,14.9,30c4.1,0,7.9-1.7,10.7-4.4c2.7-2.7,4.4-6.5,4.5-10.7
		c0-4.2-1.7-8-4.4-10.7C22.8,1.7,19,0,14.9,0V0.6z"/>
	<g class="st24">
		<path class="st25" d="M5.9,12.1c-0.1,0.2-0.2,0.4-0.3,0.5c-0.2,0.2-0.5,0.3-0.9,0.3c-1.6,0-2.5,0.1-2.9,0.1s-0.6,0.1-0.7,0.3
			L1,13.4H0.8l0.3-1.2h0.2v0.2c0,0.1,0.1,0.2,0.2,0.2s0.1,0,0.3,0h0.9l0.2-1.3c-0.6-0.3-1-0.5-1-0.5c-0.1,0-0.2,0-0.3,0.2l-0.1,0.2
			H1.3l0.3-1.1h0.2v0.2c0,0.2,0.2,0.3,0.6,0.5L4.6,12c0.4,0.2,0.6,0.3,0.7,0.4c0.1,0,0.1,0,0.1,0c0-0.1,0-0.1,0-0.2
			c0-0.1,0-0.1,0-0.1c0-0.1,0.1-0.1,0.2-0.2h0.1C5.9,11.9,5.9,12,5.9,12.1z M5,12.5l-1.9-1.1l-0.3,1.1H5z"/>
	</g>
	<g class="st24">
		<path class="st25" d="M6.1,15.1l-4.4,0.1c-0.2,0-0.4,0-0.4,0c-0.1,0-0.2,0.1-0.2,0.2s0,0.1-0.1,0.2H0.8v-1.2h0.1v0.1
			c0,0.2,0.2,0.3,0.5,0.2l3.9,0.1c0.2,0,0.3,0,0.3,0c0.1,0,0.1-0.1,0.1-0.3h0.1L6.1,15.1z"/>
	</g>
	<g class="st24">
		<path class="st25" d="M4.2,17l-2.3,0.4c-0.2,0-0.4,0.1-0.4,0.1c-0.1,0-0.1,0.1-0.1,0.2v0.2H1.2l-0.3-1.1h0.2L1.2,17
			c0,0.1,0.1,0.1,0.1,0.1s0.1,0,0.3,0l1.7-0.3c0.2,0,0.3,0,0.3-0.1c0.1,0,0.1-0.2,0.1-0.4h0.1L4.2,17z M5.6,16.2c0.1,0,0.2,0,0.2,0
			c0.1,0.1,0.1,0.2,0.1,0.2c0,0.1,0,0.1-0.1,0.2c0,0.1-0.1,0.1-0.2,0.1s-0.2,0-0.2,0c-0.1,0-0.1-0.1-0.1-0.2s0-0.1,0.1-0.2
			C5.4,16.3,5.5,16.3,5.6,16.2z"/>
	</g>
	<g class="st24">
		<path class="st25" d="M5,19.8l-0.2,0.1l-2.9-0.3l0.4,1c0.1,0.1,0.2,0.2,0.5,0.1H3l-0.1,0.1l-0.8,0.3l-0.7-1.9l0.2-0.1l2.9,0.4
			c-0.1-0.3-0.2-0.5-0.3-0.8c-0.1-0.1-0.2-0.2-0.5-0.2c0,0,0,0-0.1,0v-0.1l0.6-0.2L5,19.8z"/>
	</g>
	<g class="st24">
		<path class="st25" d="M6.4,22.1l-0.2,0.1l-2.9,0.3l0.6,0.9c0.1,0.1,0.2,0.1,0.5,0l0.1-0.1l0.1,0.1l-0.7,0.5l-1.2-1.6l0.2-0.1
			l3-0.3c-0.2-0.2-0.3-0.5-0.5-0.7c-0.1-0.1-0.3-0.2-0.5-0.1c0,0,0,0-0.1,0L4.7,21l0.6-0.4L6.4,22.1z"/>
	</g>
	<g class="st24">
		<path class="st25" d="M6.9,26.3L6.9,26.3c-0.1,0.1-0.2,0.1-0.3,0.1s-0.1,0-0.2,0s-0.1,0-0.2-0.1c-0.1,0-0.1-0.1-0.1-0.2
			c0-0.1,0-0.1,0-0.2s0.1-0.1,0.1-0.2c0-0.1,0.1-0.1,0.1-0.2H6.2c-0.1,0-0.2,0-0.3,0.1c-0.1,0-0.2,0-0.3,0c-0.1,0-0.2-0.1-0.3-0.1
			l-0.1-0.1c0-0.1-0.1-0.1-0.1-0.2s0-0.2,0-0.2c0-0.1,0.1-0.2,0.2-0.3c0.1-0.1,0.3-0.2,0.4-0.2s0.3,0,0.5,0c0.2,0,0.3,0.1,0.4,0.1
			c0.2,0.1,0.3,0.1,0.4,0.2l0.4-0.5c0,0,0.1-0.1,0.1-0.2C7.6,24,7.6,24,7.6,23.9c0-0.1,0.1-0.1,0.1-0.2s0-0.1-0.1-0.2
			c-0.1-0.1-0.2-0.1-0.3-0.1c-0.1,0-0.2,0-0.2,0s-0.1,0-0.2,0.1c0-0.1,0-0.1,0-0.2v-0.1v-0.1C6.9,23,7,23,7.1,23s0.2,0,0.4,0.1
			c0.1,0.1,0.3,0.1,0.4,0.2C8,23.4,8,23.5,8.1,23.5c0.1,0,0,0.2,0,0.3c0,0.1,0,0.2-0.1,0.3c0,0.1-0.1,0.2-0.2,0.3
			c-0.1,0.1-0.1,0.2-0.2,0.3c-0.1,0.1-0.1,0.2-0.2,0.2C7.3,25,7.1,25.2,7,25.3c-0.1,0.1-0.2,0.3-0.3,0.4c-0.1,0.1-0.2,0.2-0.2,0.3
			c0,0.1,0,0.1,0,0.2C6.6,26.2,6.7,26.2,6.9,26.3L6.9,26.3z M6.9,25c-0.1-0.1-0.3-0.1-0.4-0.2c-0.1,0-0.2-0.1-0.3-0.1
			c-0.1,0-0.2,0-0.2,0c-0.1,0-0.1,0.1-0.2,0.2c-0.2,0.2-0.2,0.3,0,0.5c0,0,0.1,0.1,0.2,0.1s0.2,0,0.3,0c0.1,0,0.2-0.1,0.3-0.1
			c0.1,0,0.2-0.1,0.2-0.1L6.9,25z"/>
	</g>
	<g class="st24">
		<path class="st25" d="M22.3,21.6c-0.1,0.2-0.3,0.2-0.4,0.1s-0.1-0.2-0.1-0.3v-0.1c0.1-0.1,0.2-0.1,0.3-0.1c0.1,0,0.2,0,0.2,0
			s0.1,0,0.1-0.1l0.7-0.9l0.1,0.1l-0.1,0.2c0,0.1,0,0.1,0,0.2c0,0,0.1,0.1,0.2,0.2L26,23c0.1,0.1,0.2,0.2,0.2,0.2h0.1l0.2-0.1
			l0.1,0.1l-0.7,0.9L25.8,24l0.1-0.2c0-0.1,0-0.2,0-0.3s-0.2-0.2-0.3-0.3l-2.4-1.9c-0.2-0.2-0.4-0.2-0.5-0.2c0,0-0.1,0-0.1,0.1
			L22.3,21.6z"/>
	</g>
	<g class="st24">
		<path class="st25" d="M26.3,21.3c-0.7-0.3-1.1-0.7-1.2-1.2c-0.1-0.3,0-0.5,0.1-0.7c0.1-0.1,0.2-0.3,0.3-0.4h0.1l-1.3-0.6
			c-0.2-0.1-0.3-0.1-0.3-0.1c-0.1,0-0.2,0.1-0.3,0.3h-0.1l0.1-0.8l4.4,1.9c0.2,0.1,0.3,0,0.3-0.1c0,0,0,0,0-0.1s0-0.1,0-0.1l0.1,0.1
			l-0.1,0.7H28l0,0c0.1,0.3,0.1,0.6,0.1,0.8c-0.2,0.4-0.5,0.6-1.1,0.6C26.8,21.5,26.5,21.4,26.3,21.3z M26.2,20.8
			c0.5,0.2,0.9,0.3,1.2,0.2c0.2-0.1,0.3-0.2,0.4-0.4c0.1-0.2,0.1-0.3,0-0.5c0-0.1-0.1-0.2-0.2-0.3l-1.8-0.7c-0.1,0-0.2,0-0.4,0.2
			c0,0.1-0.1,0.1-0.1,0.2c-0.1,0.3,0,0.6,0.2,0.9C25.8,20.6,26,20.7,26.2,20.8z"/>
	</g>
	<g class="st24">
		<path class="st25" d="M25.9,16.4c0.1-0.4,0.3-0.6,0.7-0.7c0.2,0,0.3,0,0.5,0l-0.2,1.5c0.2,0,0.3,0.1,0.5,0.1
			c0.5,0.1,0.9,0,1.1-0.2c0.1-0.1,0.2-0.3,0.2-0.5s0-0.4-0.2-0.6l0.1-0.1l0.1,0.1c0.3,0.3,0.4,0.6,0.3,0.9c0,0.2-0.1,0.4-0.3,0.5
			c-0.3,0.3-0.8,0.4-1.4,0.3s-1.1-0.3-1.3-0.6C26,16.9,25.9,16.6,25.9,16.4z M26.7,17.2l0.1-1c-0.2,0-0.4,0-0.5,0
			c-0.1,0.1-0.2,0.1-0.2,0.3c0,0.2,0,0.3,0.1,0.5C26.4,17,26.5,17.1,26.7,17.2z"/>
	</g>
	<g class="st24">
		<path class="st25" d="M28.7,12.4L28.7,12.4c0.1,0,0.2,0.1,0.3,0.1c0.1,0,0.1,0.1,0.2,0.1l0.1,0.1c0,0.1,0,0.1,0,0.2
			c0,0.1-0.1,0.1-0.2,0.1c-0.1,0-0.1,0.1-0.2,0.1s-0.1,0-0.2,0c0,0,0.1,0,0.1,0.1c0.1,0,0.2,0.1,0.2,0.1c0.1,0.1,0.2,0.1,0.2,0.2
			c0.1,0.1,0.1,0.2,0.1,0.3c0,0.1,0,0.1,0,0.2c0,0.1,0,0.1-0.1,0.2c0,0.1-0.1,0.1-0.2,0.2c-0.1,0-0.2,0.1-0.3,0.1
			c-0.2,0-0.3,0-0.5-0.1c-0.1-0.1-0.2-0.2-0.3-0.3c-0.1-0.1-0.1-0.2-0.2-0.3c0-0.1-0.1-0.3-0.2-0.4l-0.6,0.1c-0.1,0-0.1,0-0.2,0
			s-0.2,0-0.2,0.1c-0.1,0-0.1,0.1-0.2,0.1c0,0.1-0.1,0.1-0.1,0.2c0,0.1,0,0.2,0.1,0.3c0.1,0.1,0.1,0.1,0.2,0.1c0,0,0.1,0.1,0.2,0.1
			c0,0.1,0,0.1,0,0.2c0,0,0,0.1-0.1,0.1h-0.1c-0.1,0-0.1,0-0.2-0.1c-0.1-0.1-0.1-0.2-0.2-0.3S26,14,26,13.9s0-0.2,0-0.3
			c0-0.1,0.1-0.2,0.1-0.2c0.1-0.1,0.1-0.1,0.2-0.1s0.2-0.1,0.3-0.1c0.1,0,0.2,0,0.3,0c0.1,0,0.2,0,0.3,0c0.2,0,0.4,0,0.6-0.1
			c0.2,0,0.3,0,0.5-0.1c0.1,0,0.3,0,0.3-0.1c0.1,0,0.1-0.1,0.1-0.1c0-0.1-0.1-0.1-0.3-0.2L28.7,12.4z M27.8,13.3
			c0,0.2,0.1,0.3,0.1,0.4c0,0.1,0.1,0.2,0.2,0.3c0.1,0.1,0.1,0.1,0.2,0.1s0.2,0,0.3,0c0.3,0,0.4-0.1,0.4-0.3c0-0.1,0-0.1-0.1-0.2
			c-0.1-0.1-0.1-0.1-0.2-0.2c-0.1,0-0.2-0.1-0.3-0.1c-0.1,0-0.2-0.1-0.2-0.1L27.8,13.3z"/>
	</g>
	<g class="st24">
		<path class="st25" d="M23.4,12.1l4.2-1.4c0.2-0.1,0.4-0.1,0.4-0.1c0.1,0,0.1-0.1,0.2-0.2c0-0.1,0-0.1,0-0.2h0.1l0.4,1.1h-0.1
			c0,0,0,0-0.1-0.1c-0.1-0.1-0.3-0.2-0.5-0.1l-3.7,1.2c-0.1,0-0.2,0.1-0.3,0.1c-0.1,0.1-0.1,0.2,0,0.4h-0.1L23.4,12.1z"/>
	</g>
	<g class="st24">
		<path class="st26" d="M5.9,12.1c-0.1,0.2-0.2,0.4-0.3,0.5c-0.2,0.2-0.5,0.3-0.9,0.3c-1.6,0-2.5,0.1-2.9,0.1s-0.6,0.1-0.7,0.3
			L1,13.4H0.8l0.3-1.2h0.2v0.2c0,0.1,0.1,0.2,0.2,0.2s0.1,0,0.3,0h0.9l0.2-1.3c-0.6-0.3-1-0.5-1-0.5c-0.1,0-0.2,0-0.3,0.2l-0.1,0.2
			H1.3l0.3-1.1h0.2v0.2c0,0.2,0.2,0.3,0.6,0.5L4.6,12c0.4,0.2,0.6,0.3,0.7,0.4c0.1,0,0.1,0,0.1,0c0-0.1,0-0.1,0-0.2
			c0-0.1,0-0.1,0-0.1c0-0.1,0.1-0.1,0.2-0.2h0.1C5.9,11.9,5.9,12,5.9,12.1z M5,12.5l-1.9-1.1l-0.3,1.1H5z"/>
	</g>
	<g class="st24">
		<path class="st26" d="M6.1,15.1l-4.4,0.1c-0.2,0-0.4,0-0.4,0c-0.1,0-0.2,0.1-0.2,0.2s0,0.1-0.1,0.2H0.8v-1.2h0.1v0.1
			c0,0.2,0.2,0.3,0.5,0.2l3.9,0.1c0.2,0,0.3,0,0.3,0c0.1,0,0.1-0.1,0.1-0.3h0.1L6.1,15.1z"/>
	</g>
	<g class="st24">
		<path class="st26" d="M4.2,17l-2.3,0.4c-0.2,0-0.4,0.1-0.4,0.1c-0.1,0-0.1,0.1-0.1,0.2v0.2H1.2l-0.3-1.1h0.2L1.2,17
			c0,0.1,0.1,0.1,0.1,0.1s0.1,0,0.3,0l1.7-0.3c0.2,0,0.3,0,0.3-0.1c0.1,0,0.1-0.2,0.1-0.4h0.1L4.2,17z M5.6,16.2c0.1,0,0.2,0,0.2,0
			c0.1,0.1,0.1,0.2,0.1,0.2c0,0.1,0,0.1-0.1,0.2c0,0.1-0.1,0.1-0.2,0.1s-0.2,0-0.2,0c-0.1,0-0.1-0.1-0.1-0.2s0-0.1,0.1-0.2
			C5.4,16.3,5.5,16.3,5.6,16.2z"/>
	</g>
	<g class="st24">
		<path class="st26" d="M5,19.8l-0.2,0.1l-2.9-0.3l0.4,1c0.1,0.1,0.2,0.2,0.5,0.1H3l-0.1,0.1l-0.8,0.3l-0.7-1.9l0.2-0.1l2.9,0.4
			c-0.1-0.3-0.2-0.5-0.3-0.8c-0.1-0.1-0.2-0.2-0.5-0.2c0,0,0,0-0.1,0v-0.1l0.6-0.2L5,19.8z"/>
	</g>
	<g class="st24">
		<path class="st26" d="M6.4,22.1l-0.2,0.1l-2.9,0.3l0.6,0.9c0.1,0.1,0.2,0.1,0.5,0l0.1-0.1l0.1,0.1l-0.7,0.5l-1.2-1.6l0.2-0.1
			l3-0.3c-0.2-0.2-0.3-0.5-0.5-0.7c-0.1-0.1-0.3-0.2-0.5-0.1c0,0,0,0-0.1,0L4.7,21l0.6-0.4L6.4,22.1z"/>
	</g>
	<g class="st24">
		<path class="st26" d="M6.9,26.3L6.9,26.3c-0.1,0.1-0.2,0.1-0.3,0.1s-0.1,0-0.2,0s-0.1,0-0.2-0.1c-0.1,0-0.1-0.1-0.1-0.2
			c0-0.1,0-0.1,0-0.2s0.1-0.1,0.1-0.2c0-0.1,0.1-0.1,0.1-0.2H6.2c-0.1,0-0.2,0-0.3,0.1c-0.1,0-0.2,0-0.3,0c-0.1,0-0.2-0.1-0.3-0.1
			l-0.1-0.1c0-0.1-0.1-0.1-0.1-0.2s0-0.2,0-0.2c0-0.1,0.1-0.2,0.2-0.3c0.1-0.1,0.3-0.2,0.4-0.2s0.3,0,0.5,0c0.2,0,0.3,0.1,0.4,0.1
			c0.2,0.1,0.3,0.1,0.4,0.2l0.4-0.5c0,0,0.1-0.1,0.1-0.2C7.6,24,7.6,24,7.6,23.9c0-0.1,0.1-0.1,0.1-0.2s0-0.1-0.1-0.2
			c-0.1-0.1-0.2-0.1-0.3-0.1c-0.1,0-0.2,0-0.2,0s-0.1,0-0.2,0.1c0-0.1,0-0.1,0-0.2v-0.1v-0.1C6.9,23,7,23,7.1,23s0.2,0,0.4,0.1
			c0.1,0.1,0.3,0.1,0.4,0.2C8,23.4,8,23.5,8.1,23.5c0.1,0,0,0.2,0,0.3c0,0.1,0,0.2-0.1,0.3c0,0.1-0.1,0.2-0.2,0.3
			c-0.1,0.1-0.1,0.2-0.2,0.3c-0.1,0.1-0.1,0.2-0.2,0.2C7.3,25,7.1,25.2,7,25.3c-0.1,0.1-0.2,0.3-0.3,0.4c-0.1,0.1-0.2,0.2-0.2,0.3
			c0,0.1,0,0.1,0,0.2C6.6,26.2,6.7,26.2,6.9,26.3L6.9,26.3z M6.9,25c-0.1-0.1-0.3-0.1-0.4-0.2c-0.1,0-0.2-0.1-0.3-0.1
			c-0.1,0-0.2,0-0.2,0c-0.1,0-0.1,0.1-0.2,0.2c-0.2,0.2-0.2,0.3,0,0.5c0,0,0.1,0.1,0.2,0.1s0.2,0,0.3,0c0.1,0,0.2-0.1,0.3-0.1
			c0.1,0,0.2-0.1,0.2-0.1L6.9,25z"/>
	</g>
	<g class="st24">
		<path class="st26" d="M22.3,21.6c-0.1,0.2-0.3,0.2-0.4,0.1s-0.1-0.2-0.1-0.3v-0.1c0.1-0.1,0.2-0.1,0.3-0.1c0.1,0,0.2,0,0.2,0
			s0.1,0,0.1-0.1l0.7-0.9l0.1,0.1l-0.1,0.2c0,0.1,0,0.1,0,0.2c0,0,0.1,0.1,0.2,0.2L26,23c0.1,0.1,0.2,0.2,0.2,0.2h0.1l0.2-0.1
			l0.1,0.1l-0.7,0.9L25.8,24l0.1-0.2c0-0.1,0-0.2,0-0.3s-0.2-0.2-0.3-0.3l-2.4-1.9c-0.2-0.2-0.4-0.2-0.5-0.2c0,0-0.1,0-0.1,0.1
			L22.3,21.6z"/>
	</g>
	<g class="st24">
		<path class="st26" d="M26.3,21.3c-0.7-0.3-1.1-0.7-1.2-1.2c-0.1-0.3,0-0.5,0.1-0.7c0.1-0.1,0.2-0.3,0.3-0.4h0.1l-1.3-0.6
			c-0.2-0.1-0.3-0.1-0.3-0.1c-0.1,0-0.2,0.1-0.3,0.3h-0.1l0.1-0.8l4.4,1.9c0.2,0.1,0.3,0,0.3-0.1c0,0,0,0,0-0.1s0-0.1,0-0.1l0.1,0.1
			l-0.1,0.7H28l0,0c0.1,0.3,0.1,0.6,0.1,0.8c-0.2,0.4-0.5,0.6-1.1,0.6C26.8,21.5,26.5,21.4,26.3,21.3z M26.2,20.8
			c0.5,0.2,0.9,0.3,1.2,0.2c0.2-0.1,0.3-0.2,0.4-0.4c0.1-0.2,0.1-0.3,0-0.5c0-0.1-0.1-0.2-0.2-0.3l-1.8-0.7c-0.1,0-0.2,0-0.4,0.2
			c0,0.1-0.1,0.1-0.1,0.2c-0.1,0.3,0,0.6,0.2,0.9C25.8,20.6,26,20.7,26.2,20.8z"/>
	</g>
	<g class="st24">
		<path class="st26" d="M25.9,16.4c0.1-0.4,0.3-0.6,0.7-0.7c0.2,0,0.3,0,0.5,0l-0.2,1.5c0.2,0,0.3,0.1,0.5,0.1
			c0.5,0.1,0.9,0,1.1-0.2c0.1-0.1,0.2-0.3,0.2-0.5s0-0.4-0.2-0.6l0.1-0.1l0.1,0.1c0.3,0.3,0.4,0.6,0.3,0.9c0,0.2-0.1,0.4-0.3,0.5
			c-0.3,0.3-0.8,0.4-1.4,0.3s-1.1-0.3-1.3-0.6C26,16.9,25.9,16.6,25.9,16.4z M26.7,17.2l0.1-1c-0.2,0-0.4,0-0.5,0
			c-0.1,0.1-0.2,0.1-0.2,0.3c0,0.2,0,0.3,0.1,0.5C26.4,17,26.5,17.1,26.7,17.2z"/>
	</g>
	<g class="st24">
		<path class="st26" d="M28.7,12.4L28.7,12.4c0.1,0,0.2,0.1,0.3,0.1c0.1,0,0.1,0.1,0.2,0.1l0.1,0.1c0,0.1,0,0.1,0,0.2
			c0,0.1-0.1,0.1-0.2,0.1c-0.1,0-0.1,0.1-0.2,0.1s-0.1,0-0.2,0c0,0,0.1,0,0.1,0.1c0.1,0,0.2,0.1,0.2,0.1c0.1,0.1,0.2,0.1,0.2,0.2
			c0.1,0.1,0.1,0.2,0.1,0.3c0,0.1,0,0.1,0,0.2c0,0.1,0,0.1-0.1,0.2c0,0.1-0.1,0.1-0.2,0.2c-0.1,0-0.2,0.1-0.3,0.1
			c-0.2,0-0.3,0-0.5-0.1c-0.1-0.1-0.2-0.2-0.3-0.3c-0.1-0.1-0.1-0.2-0.2-0.3c0-0.1-0.1-0.3-0.2-0.4l-0.6,0.1c-0.1,0-0.1,0-0.2,0
			s-0.2,0-0.2,0.1c-0.1,0-0.1,0.1-0.2,0.1c0,0.1-0.1,0.1-0.1,0.2c0,0.1,0,0.2,0.1,0.3c0.1,0.1,0.1,0.1,0.2,0.1c0,0,0.1,0.1,0.2,0.1
			c0,0.1,0,0.1,0,0.2c0,0,0,0.1-0.1,0.1h-0.1c-0.1,0-0.1,0-0.2-0.1c-0.1-0.1-0.1-0.2-0.2-0.3S26,14,26,13.9s0-0.2,0-0.3
			c0-0.1,0.1-0.2,0.1-0.2c0.1-0.1,0.1-0.1,0.2-0.1s0.2-0.1,0.3-0.1c0.1,0,0.2,0,0.3,0c0.1,0,0.2,0,0.3,0c0.2,0,0.4,0,0.6-0.1
			c0.2,0,0.3,0,0.5-0.1c0.1,0,0.3,0,0.3-0.1c0.1,0,0.1-0.1,0.1-0.1c0-0.1-0.1-0.1-0.3-0.2L28.7,12.4z M27.8,13.3
			c0,0.2,0.1,0.3,0.1,0.4c0,0.1,0.1,0.2,0.2,0.3c0.1,0.1,0.1,0.1,0.2,0.1s0.2,0,0.3,0c0.3,0,0.4-0.1,0.4-0.3c0-0.1,0-0.1-0.1-0.2
			c-0.1-0.1-0.1-0.1-0.2-0.2c-0.1,0-0.2-0.1-0.3-0.1c-0.1,0-0.2-0.1-0.2-0.1L27.8,13.3z"/>
	</g>
	<g class="st24">
		<path class="st26" d="M23.4,12.1l4.2-1.4c0.2-0.1,0.4-0.1,0.4-0.1c0.1,0,0.1-0.1,0.2-0.2c0-0.1,0-0.1,0-0.2h0.1l0.4,1.1h-0.1
			c0,0,0,0-0.1-0.1c-0.1-0.1-0.3-0.2-0.5-0.1l-3.7,1.2c-0.1,0-0.2,0.1-0.3,0.1c-0.1,0.1-0.1,0.2,0,0.4h-0.1L23.4,12.1z"/>
	</g>
	<g class="st24">
		<path class="st4" d="M5.9,12.1c-0.1,0.2-0.2,0.4-0.3,0.5c-0.2,0.2-0.5,0.3-0.9,0.3c-1.6,0-2.5,0.1-2.9,0.1s-0.6,0.1-0.7,0.3
			L1,13.4H0.8l0.3-1.2h0.2v0.2c0,0.1,0.1,0.2,0.2,0.2s0.1,0,0.3,0h0.9l0.2-1.3c-0.6-0.3-1-0.5-1-0.5c-0.1,0-0.2,0-0.3,0.2l-0.1,0.2
			H1.3l0.3-1.1h0.2v0.2c0,0.2,0.2,0.3,0.6,0.5L4.6,12c0.4,0.2,0.6,0.3,0.7,0.4c0.1,0,0.1,0,0.1,0c0-0.1,0-0.1,0-0.2
			c0-0.1,0-0.1,0-0.1c0-0.1,0.1-0.1,0.2-0.2h0.1C5.9,11.9,5.9,12,5.9,12.1z M5,12.5l-1.9-1.1l-0.3,1.1H5z"/>
	</g>
	<g class="st24">
		<path class="st4" d="M6.1,15.1l-4.4,0.1c-0.2,0-0.4,0-0.4,0c-0.1,0-0.2,0.1-0.2,0.2s0,0.1-0.1,0.2H0.8v-1.2h0.1v0.1
			c0,0.2,0.2,0.3,0.5,0.2l3.9,0.1c0.2,0,0.3,0,0.3,0c0.1,0,0.1-0.1,0.1-0.3h0.1L6.1,15.1z"/>
	</g>
	<g class="st24">
		<path class="st4" d="M4.2,17l-2.3,0.4c-0.2,0-0.4,0.1-0.4,0.1c-0.1,0-0.1,0.1-0.1,0.2v0.2H1.2l-0.3-1.1h0.2L1.2,17
			c0,0.1,0.1,0.1,0.1,0.1s0.1,0,0.3,0l1.7-0.3c0.2,0,0.3,0,0.3-0.1c0.1,0,0.1-0.2,0.1-0.4h0.1L4.2,17z M5.6,16.2c0.1,0,0.2,0,0.2,0
			c0.1,0.1,0.1,0.2,0.1,0.2c0,0.1,0,0.1-0.1,0.2c0,0.1-0.1,0.1-0.2,0.1s-0.2,0-0.2,0c-0.1,0-0.1-0.1-0.1-0.2s0-0.1,0.1-0.2
			C5.4,16.3,5.5,16.3,5.6,16.2z"/>
	</g>
	<g class="st24">
		<path class="st4" d="M5,19.8l-0.2,0.1l-2.9-0.3l0.4,1c0.1,0.1,0.2,0.2,0.5,0.1H3l-0.1,0.1l-0.8,0.3l-0.7-1.9l0.2-0.1l2.9,0.4
			c-0.1-0.3-0.2-0.5-0.3-0.8c-0.1-0.1-0.2-0.2-0.5-0.2c0,0,0,0-0.1,0v-0.1l0.6-0.2L5,19.8z"/>
	</g>
	<g class="st24">
		<path class="st4" d="M6.4,22.1l-0.2,0.1l-2.9,0.3l0.6,0.9c0.1,0.1,0.2,0.1,0.5,0l0.1-0.1l0.1,0.1l-0.7,0.5l-1.2-1.6l0.2-0.1l3-0.3
			c-0.2-0.2-0.3-0.5-0.5-0.7c-0.1-0.1-0.3-0.2-0.5-0.1c0,0,0,0-0.1,0L4.7,21l0.6-0.4L6.4,22.1z"/>
	</g>
	<g class="st24">
		<path class="st4" d="M6.9,26.3L6.9,26.3c-0.1,0.1-0.2,0.1-0.3,0.1s-0.1,0-0.2,0s-0.1,0-0.2-0.1c-0.1,0-0.1-0.1-0.1-0.2
			c0-0.1,0-0.1,0-0.2s0.1-0.1,0.1-0.2c0-0.1,0.1-0.1,0.1-0.2H6.2c-0.1,0-0.2,0-0.3,0.1c-0.1,0-0.2,0-0.3,0c-0.1,0-0.2-0.1-0.3-0.1
			l-0.1-0.1c0-0.1-0.1-0.1-0.1-0.2s0-0.2,0-0.2c0-0.1,0.1-0.2,0.2-0.3c0.1-0.1,0.3-0.2,0.4-0.2s0.3,0,0.5,0c0.2,0,0.3,0.1,0.4,0.1
			c0.2,0.1,0.3,0.1,0.4,0.2l0.4-0.5c0,0,0.1-0.1,0.1-0.2C7.6,24,7.6,24,7.6,23.9c0-0.1,0.1-0.1,0.1-0.2s0-0.1-0.1-0.2
			c-0.1-0.1-0.2-0.1-0.3-0.1c-0.1,0-0.2,0-0.2,0s-0.1,0-0.2,0.1c0-0.1,0-0.1,0-0.2v-0.1v-0.1C6.9,23,7,23,7.1,23s0.2,0,0.4,0.1
			c0.1,0.1,0.3,0.1,0.4,0.2C8,23.4,8,23.5,8.1,23.5c0.1,0,0,0.2,0,0.3c0,0.1,0,0.2-0.1,0.3c0,0.1-0.1,0.2-0.2,0.3
			c-0.1,0.1-0.1,0.2-0.2,0.3c-0.1,0.1-0.1,0.2-0.2,0.2C7.3,25,7.1,25.2,7,25.3c-0.1,0.1-0.2,0.3-0.3,0.4c-0.1,0.1-0.2,0.2-0.2,0.3
			c0,0.1,0,0.1,0,0.2C6.6,26.2,6.7,26.2,6.9,26.3L6.9,26.3z M6.9,25c-0.1-0.1-0.3-0.1-0.4-0.2c-0.1,0-0.2-0.1-0.3-0.1
			c-0.1,0-0.2,0-0.2,0c-0.1,0-0.1,0.1-0.2,0.2c-0.2,0.2-0.2,0.3,0,0.5c0,0,0.1,0.1,0.2,0.1s0.2,0,0.3,0c0.1,0,0.2-0.1,0.3-0.1
			c0.1,0,0.2-0.1,0.2-0.1L6.9,25z"/>
	</g>
	<g class="st24">
		<path class="st4" d="M22.3,21.6c-0.1,0.2-0.3,0.2-0.4,0.1s-0.1-0.2-0.1-0.3v-0.1c0.1-0.1,0.2-0.1,0.3-0.1c0.1,0,0.2,0,0.2,0
			s0.1,0,0.1-0.1l0.7-0.9l0.1,0.1l-0.1,0.2c0,0.1,0,0.1,0,0.2c0,0,0.1,0.1,0.2,0.2L26,23c0.1,0.1,0.2,0.2,0.2,0.2h0.1l0.2-0.1
			l0.1,0.1l-0.7,0.9L25.8,24l0.1-0.2c0-0.1,0-0.2,0-0.3s-0.2-0.2-0.3-0.3l-2.4-1.9c-0.2-0.2-0.4-0.2-0.5-0.2c0,0-0.1,0-0.1,0.1
			L22.3,21.6z"/>
	</g>
	<g class="st24">
		<path class="st4" d="M26.3,21.3c-0.7-0.3-1.1-0.7-1.2-1.2c-0.1-0.3,0-0.5,0.1-0.7c0.1-0.1,0.2-0.3,0.3-0.4h0.1l-1.3-0.6
			c-0.2-0.1-0.3-0.1-0.3-0.1c-0.1,0-0.2,0.1-0.3,0.3h-0.1l0.1-0.8l4.4,1.9c0.2,0.1,0.3,0,0.3-0.1c0,0,0,0,0-0.1s0-0.1,0-0.1l0.1,0.1
			l-0.1,0.7H28l0,0c0.1,0.3,0.1,0.6,0.1,0.8c-0.2,0.4-0.5,0.6-1.1,0.6C26.8,21.5,26.5,21.4,26.3,21.3z M26.2,20.8
			c0.5,0.2,0.9,0.3,1.2,0.2c0.2-0.1,0.3-0.2,0.4-0.4c0.1-0.2,0.1-0.3,0-0.5c0-0.1-0.1-0.2-0.2-0.3l-1.8-0.7c-0.1,0-0.2,0-0.4,0.2
			c0,0.1-0.1,0.1-0.1,0.2c-0.1,0.3,0,0.6,0.2,0.9C25.8,20.6,26,20.7,26.2,20.8z"/>
	</g>
	<g class="st24">
		<path class="st4" d="M25.9,16.4c0.1-0.4,0.3-0.6,0.7-0.7c0.2,0,0.3,0,0.5,0l-0.2,1.5c0.2,0,0.3,0.1,0.5,0.1c0.5,0.1,0.9,0,1.1-0.2
			c0.1-0.1,0.2-0.3,0.2-0.5s0-0.4-0.2-0.6l0.1-0.1l0.1,0.1c0.3,0.3,0.4,0.6,0.3,0.9c0,0.2-0.1,0.4-0.3,0.5c-0.3,0.3-0.8,0.4-1.4,0.3
			s-1.1-0.3-1.3-0.6C26,16.9,25.9,16.6,25.9,16.4z M26.7,17.2l0.1-1c-0.2,0-0.4,0-0.5,0c-0.1,0.1-0.2,0.1-0.2,0.3
			c0,0.2,0,0.3,0.1,0.5C26.4,17,26.5,17.1,26.7,17.2z"/>
	</g>
	<g class="st24">
		<path class="st4" d="M28.7,12.4L28.7,12.4c0.1,0,0.2,0.1,0.3,0.1c0.1,0,0.1,0.1,0.2,0.1l0.1,0.1c0,0.1,0,0.1,0,0.2
			c0,0.1-0.1,0.1-0.2,0.1c-0.1,0-0.1,0.1-0.2,0.1s-0.1,0-0.2,0c0,0,0.1,0,0.1,0.1c0.1,0,0.2,0.1,0.2,0.1c0.1,0.1,0.2,0.1,0.2,0.2
			c0.1,0.1,0.1,0.2,0.1,0.3c0,0.1,0,0.1,0,0.2c0,0.1,0,0.1-0.1,0.2c0,0.1-0.1,0.1-0.2,0.2c-0.1,0-0.2,0.1-0.3,0.1
			c-0.2,0-0.3,0-0.5-0.1c-0.1-0.1-0.2-0.2-0.3-0.3c-0.1-0.1-0.1-0.2-0.2-0.3c0-0.1-0.1-0.3-0.2-0.4l-0.6,0.1c-0.1,0-0.1,0-0.2,0
			s-0.2,0-0.2,0.1c-0.1,0-0.1,0.1-0.2,0.1c0,0.1-0.1,0.1-0.1,0.2c0,0.1,0,0.2,0.1,0.3c0.1,0.1,0.1,0.1,0.2,0.1c0,0,0.1,0.1,0.2,0.1
			c0,0.1,0,0.1,0,0.2c0,0,0,0.1-0.1,0.1h-0.1c-0.1,0-0.1,0-0.2-0.1c-0.1-0.1-0.1-0.2-0.2-0.3S26,14,26,13.9s0-0.2,0-0.3
			c0-0.1,0.1-0.2,0.1-0.2c0.1-0.1,0.1-0.1,0.2-0.1s0.2-0.1,0.3-0.1c0.1,0,0.2,0,0.3,0c0.1,0,0.2,0,0.3,0c0.2,0,0.4,0,0.6-0.1
			c0.2,0,0.3,0,0.5-0.1c0.1,0,0.3,0,0.3-0.1c0.1,0,0.1-0.1,0.1-0.1c0-0.1-0.1-0.1-0.3-0.2L28.7,12.4z M27.8,13.3
			c0,0.2,0.1,0.3,0.1,0.4c0,0.1,0.1,0.2,0.2,0.3c0.1,0.1,0.1,0.1,0.2,0.1s0.2,0,0.3,0c0.3,0,0.4-0.1,0.4-0.3c0-0.1,0-0.1-0.1-0.2
			c-0.1-0.1-0.1-0.1-0.2-0.2c-0.1,0-0.2-0.1-0.3-0.1c-0.1,0-0.2-0.1-0.2-0.1L27.8,13.3z"/>
	</g>
	<g class="st24">
		<path class="st4" d="M23.4,12.1l4.2-1.4c0.2-0.1,0.4-0.1,0.4-0.1c0.1,0,0.1-0.1,0.2-0.2c0-0.1,0-0.1,0-0.2h0.1l0.4,1.1h-0.1
			c0,0,0,0-0.1-0.1c-0.1-0.1-0.3-0.2-0.5-0.1l-3.7,1.2c-0.1,0-0.2,0.1-0.3,0.1c-0.1,0.1-0.1,0.2,0,0.4h-0.1L23.4,12.1z"/>
	</g>
	<g class="st24">
		<path class="st27" d="M5.9,12.1c-0.1,0.2-0.2,0.4-0.3,0.5c-0.2,0.2-0.5,0.3-0.9,0.3c-1.6,0-2.5,0.1-2.9,0.1s-0.6,0.1-0.7,0.3
			L1,13.4H0.8l0.3-1.2h0.2v0.2c0,0.1,0.1,0.2,0.2,0.2s0.1,0,0.3,0h0.9l0.2-1.3c-0.6-0.3-1-0.5-1-0.5c-0.1,0-0.2,0-0.3,0.2l-0.1,0.2
			H1.3l0.3-1.1h0.2v0.2c0,0.2,0.2,0.3,0.6,0.5L4.6,12c0.4,0.2,0.6,0.3,0.7,0.4c0.1,0,0.1,0,0.1,0c0-0.1,0-0.1,0-0.2
			c0-0.1,0-0.1,0-0.1c0-0.1,0.1-0.1,0.2-0.2h0.1C5.9,11.9,5.9,12,5.9,12.1z M5,12.5l-1.9-1.1l-0.3,1.1H5z"/>
	</g>
	<g class="st24">
		<path class="st27" d="M6.1,15.1l-4.4,0.1c-0.2,0-0.4,0-0.4,0c-0.1,0-0.2,0.1-0.2,0.2s0,0.1-0.1,0.2H0.8v-1.2h0.1v0.1
			c0,0.2,0.2,0.3,0.5,0.2l3.9,0.1c0.2,0,0.3,0,0.3,0c0.1,0,0.1-0.1,0.1-0.3h0.1L6.1,15.1z"/>
	</g>
	<g class="st24">
		<path class="st27" d="M4.2,17l-2.3,0.4c-0.2,0-0.4,0.1-0.4,0.1c-0.1,0-0.1,0.1-0.1,0.2v0.2H1.2l-0.3-1.1h0.2L1.2,17
			c0,0.1,0.1,0.1,0.1,0.1s0.1,0,0.3,0l1.7-0.3c0.2,0,0.3,0,0.3-0.1c0.1,0,0.1-0.2,0.1-0.4h0.1L4.2,17z M5.6,16.2c0.1,0,0.2,0,0.2,0
			c0.1,0.1,0.1,0.2,0.1,0.2c0,0.1,0,0.1-0.1,0.2c0,0.1-0.1,0.1-0.2,0.1s-0.2,0-0.2,0c-0.1,0-0.1-0.1-0.1-0.2s0-0.1,0.1-0.2
			C5.4,16.3,5.5,16.3,5.6,16.2z"/>
	</g>
	<g class="st24">
		<path class="st27" d="M5,19.8l-0.2,0.1l-2.9-0.3l0.4,1c0.1,0.1,0.2,0.2,0.5,0.1H3l-0.1,0.1l-0.8,0.3l-0.7-1.9l0.2-0.1l2.9,0.4
			c-0.1-0.3-0.2-0.5-0.3-0.8c-0.1-0.1-0.2-0.2-0.5-0.2c0,0,0,0-0.1,0v-0.1l0.6-0.2L5,19.8z"/>
	</g>
	<g class="st24">
		<path class="st27" d="M6.4,22.1l-0.2,0.1l-2.9,0.3l0.6,0.9c0.1,0.1,0.2,0.1,0.5,0l0.1-0.1l0.1,0.1l-0.7,0.5l-1.2-1.6l0.2-0.1
			l3-0.3c-0.2-0.2-0.3-0.5-0.5-0.7c-0.1-0.1-0.3-0.2-0.5-0.1c0,0,0,0-0.1,0L4.7,21l0.6-0.4L6.4,22.1z"/>
	</g>
	<g class="st24">
		<path class="st27" d="M6.9,26.3L6.9,26.3c-0.1,0.1-0.2,0.1-0.3,0.1s-0.1,0-0.2,0s-0.1,0-0.2-0.1c-0.1,0-0.1-0.1-0.1-0.2
			c0-0.1,0-0.1,0-0.2s0.1-0.1,0.1-0.2c0-0.1,0.1-0.1,0.1-0.2H6.2c-0.1,0-0.2,0-0.3,0.1c-0.1,0-0.2,0-0.3,0c-0.1,0-0.2-0.1-0.3-0.1
			l-0.1-0.1c0-0.1-0.1-0.1-0.1-0.2s0-0.2,0-0.2c0-0.1,0.1-0.2,0.2-0.3c0.1-0.1,0.3-0.2,0.4-0.2s0.3,0,0.5,0c0.2,0,0.3,0.1,0.4,0.1
			c0.2,0.1,0.3,0.1,0.4,0.2l0.4-0.5c0,0,0.1-0.1,0.1-0.2C7.6,24,7.6,24,7.6,23.9c0-0.1,0.1-0.1,0.1-0.2s0-0.1-0.1-0.2
			c-0.1-0.1-0.2-0.1-0.3-0.1c-0.1,0-0.2,0-0.2,0s-0.1,0-0.2,0.1c0-0.1,0-0.1,0-0.2v-0.1v-0.1C6.9,23,7,23,7.1,23s0.2,0,0.4,0.1
			c0.1,0.1,0.3,0.1,0.4,0.2C8,23.4,8,23.5,8.1,23.5c0.1,0,0,0.2,0,0.3c0,0.1,0,0.2-0.1,0.3c0,0.1-0.1,0.2-0.2,0.3
			c-0.1,0.1-0.1,0.2-0.2,0.3c-0.1,0.1-0.1,0.2-0.2,0.2C7.3,25,7.1,25.2,7,25.3c-0.1,0.1-0.2,0.3-0.3,0.4c-0.1,0.1-0.2,0.2-0.2,0.3
			c0,0.1,0,0.1,0,0.2C6.6,26.2,6.7,26.2,6.9,26.3L6.9,26.3z M6.9,25c-0.1-0.1-0.3-0.1-0.4-0.2c-0.1,0-0.2-0.1-0.3-0.1
			c-0.1,0-0.2,0-0.2,0c-0.1,0-0.1,0.1-0.2,0.2c-0.2,0.2-0.2,0.3,0,0.5c0,0,0.1,0.1,0.2,0.1s0.2,0,0.3,0c0.1,0,0.2-0.1,0.3-0.1
			c0.1,0,0.2-0.1,0.2-0.1L6.9,25z"/>
	</g>
	<g class="st24">
		<path class="st27" d="M22.3,21.6c-0.1,0.2-0.3,0.2-0.4,0.1s-0.1-0.2-0.1-0.3v-0.1c0.1-0.1,0.2-0.1,0.3-0.1c0.1,0,0.2,0,0.2,0
			s0.1,0,0.1-0.1l0.7-0.9l0.1,0.1l-0.1,0.2c0,0.1,0,0.1,0,0.2c0,0,0.1,0.1,0.2,0.2L26,23c0.1,0.1,0.2,0.2,0.2,0.2h0.1l0.2-0.1
			l0.1,0.1l-0.7,0.9L25.8,24l0.1-0.2c0-0.1,0-0.2,0-0.3s-0.2-0.2-0.3-0.3l-2.4-1.9c-0.2-0.2-0.4-0.2-0.5-0.2c0,0-0.1,0-0.1,0.1
			L22.3,21.6z"/>
	</g>
	<g class="st24">
		<path class="st27" d="M26.3,21.3c-0.7-0.3-1.1-0.7-1.2-1.2c-0.1-0.3,0-0.5,0.1-0.7c0.1-0.1,0.2-0.3,0.3-0.4h0.1l-1.3-0.6
			c-0.2-0.1-0.3-0.1-0.3-0.1c-0.1,0-0.2,0.1-0.3,0.3h-0.1l0.1-0.8l4.4,1.9c0.2,0.1,0.3,0,0.3-0.1c0,0,0,0,0-0.1s0-0.1,0-0.1l0.1,0.1
			l-0.1,0.7H28l0,0c0.1,0.3,0.1,0.6,0.1,0.8c-0.2,0.4-0.5,0.6-1.1,0.6C26.8,21.5,26.5,21.4,26.3,21.3z M26.2,20.8
			c0.5,0.2,0.9,0.3,1.2,0.2c0.2-0.1,0.3-0.2,0.4-0.4c0.1-0.2,0.1-0.3,0-0.5c0-0.1-0.1-0.2-0.2-0.3l-1.8-0.7c-0.1,0-0.2,0-0.4,0.2
			c0,0.1-0.1,0.1-0.1,0.2c-0.1,0.3,0,0.6,0.2,0.9C25.8,20.6,26,20.7,26.2,20.8z"/>
	</g>
	<g class="st24">
		<path class="st27" d="M25.9,16.4c0.1-0.4,0.3-0.6,0.7-0.7c0.2,0,0.3,0,0.5,0l-0.2,1.5c0.2,0,0.3,0.1,0.5,0.1
			c0.5,0.1,0.9,0,1.1-0.2c0.1-0.1,0.2-0.3,0.2-0.5s0-0.4-0.2-0.6l0.1-0.1l0.1,0.1c0.3,0.3,0.4,0.6,0.3,0.9c0,0.2-0.1,0.4-0.3,0.5
			c-0.3,0.3-0.8,0.4-1.4,0.3s-1.1-0.3-1.3-0.6C26,16.9,25.9,16.6,25.9,16.4z M26.7,17.2l0.1-1c-0.2,0-0.4,0-0.5,0
			c-0.1,0.1-0.2,0.1-0.2,0.3c0,0.2,0,0.3,0.1,0.5C26.4,17,26.5,17.1,26.7,17.2z"/>
	</g>
	<g class="st24">
		<path class="st27" d="M28.7,12.4L28.7,12.4c0.1,0,0.2,0.1,0.3,0.1c0.1,0,0.1,0.1,0.2,0.1l0.1,0.1c0,0.1,0,0.1,0,0.2
			c0,0.1-0.1,0.1-0.2,0.1c-0.1,0-0.1,0.1-0.2,0.1s-0.1,0-0.2,0c0,0,0.1,0,0.1,0.1c0.1,0,0.2,0.1,0.2,0.1c0.1,0.1,0.2,0.1,0.2,0.2
			c0.1,0.1,0.1,0.2,0.1,0.3c0,0.1,0,0.1,0,0.2c0,0.1,0,0.1-0.1,0.2c0,0.1-0.1,0.1-0.2,0.2c-0.1,0-0.2,0.1-0.3,0.1
			c-0.2,0-0.3,0-0.5-0.1c-0.1-0.1-0.2-0.2-0.3-0.3c-0.1-0.1-0.1-0.2-0.2-0.3c0-0.1-0.1-0.3-0.2-0.4l-0.6,0.1c-0.1,0-0.1,0-0.2,0
			s-0.2,0-0.2,0.1c-0.1,0-0.1,0.1-0.2,0.1c0,0.1-0.1,0.1-0.1,0.2c0,0.1,0,0.2,0.1,0.3c0.1,0.1,0.1,0.1,0.2,0.1c0,0,0.1,0.1,0.2,0.1
			c0,0.1,0,0.1,0,0.2c0,0,0,0.1-0.1,0.1h-0.1c-0.1,0-0.1,0-0.2-0.1c-0.1-0.1-0.1-0.2-0.2-0.3S26,14,26,13.9s0-0.2,0-0.3
			c0-0.1,0.1-0.2,0.1-0.2c0.1-0.1,0.1-0.1,0.2-0.1s0.2-0.1,0.3-0.1c0.1,0,0.2,0,0.3,0c0.1,0,0.2,0,0.3,0c0.2,0,0.4,0,0.6-0.1
			c0.2,0,0.3,0,0.5-0.1c0.1,0,0.3,0,0.3-0.1c0.1,0,0.1-0.1,0.1-0.1c0-0.1-0.1-0.1-0.3-0.2L28.7,12.4z M27.8,13.3
			c0,0.2,0.1,0.3,0.1,0.4c0,0.1,0.1,0.2,0.2,0.3c0.1,0.1,0.1,0.1,0.2,0.1s0.2,0,0.3,0c0.3,0,0.4-0.1,0.4-0.3c0-0.1,0-0.1-0.1-0.2
			c-0.1-0.1-0.1-0.1-0.2-0.2c-0.1,0-0.2-0.1-0.3-0.1c-0.1,0-0.2-0.1-0.2-0.1L27.8,13.3z"/>
	</g>
	<g class="st24">
		<path class="st27" d="M23.4,12.1l4.2-1.4c0.2-0.1,0.4-0.1,0.4-0.1c0.1,0,0.1-0.1,0.2-0.2c0-0.1,0-0.1,0-0.2h0.1l0.4,1.1h-0.1
			c0,0,0,0-0.1-0.1c-0.1-0.1-0.3-0.2-0.5-0.1l-3.7,1.2c-0.1,0-0.2,0.1-0.3,0.1c-0.1,0.1-0.1,0.2,0,0.4h-0.1L23.4,12.1z"/>
	</g>
</g>
<g>
	<path d="M49,3.7c0,2.5-2.2,4.4-4.4,5.2l1.8-4.1H35.8l1-2.9l0.6,0.8h9.9l0.3-0.6L49,3.5V3.7z M42.9,11c0,3.5-2.5,4.5-5.7,4.5
		c1.3-0.9,3.5-2.8,3.5-4.6V6.2l2.2,2V11z"/>
	<path d="M56.9,10.7h-2.4V2l2.4,1.1V10.7z M63.7,9.8c0,0.6-0.2,1.4-0.5,2c-1.2,2.8-4.1,3.7-7,3.7c1.3-0.8,4.9-3.5,4.9-5.3V2.1
		l2.5,0.7L63.7,9.8L63.7,9.8z"/>
	<path d="M82.6,7.6h-2.7v3c0,4.3-3.5,4.6-6.8,5.3c1.6-1.2,4.6-3.1,4.6-5.4V7.6h-4v4.2h-2.2V7.6H68l1-2.8l0.6,0.9h1.9V2.4l2.2,1.3v2
		h4V1.9L80,2.8v2.8h2.7L82.6,7.6L82.6,7.6z M82.7,4.2l-2.4-1.8c0.4-0.1,0.8-0.2,1.2-0.2c0.7,0,1.7,0.2,1.7,1.1
		C83.2,3.6,83,3.9,82.7,4.2z M84,2.3l-2.5-1.9c0.5-0.2,0.9-0.2,1.3-0.2c0.8,0,1.7,0.3,1.7,1.2C84.6,1.7,84.3,2,84,2.3z"/>
	<path d="M49,17.7c0,2.5-2.2,4.4-4.4,5.2l1.8-4.1H35.8l1-2.9l0.6,0.8h9.9l0.3-0.6l1.4,1.4C49,17.5,49,17.7,49,17.7z M42.9,25
		c0,3.5-2.5,4.5-5.7,4.5c1.3-0.9,3.5-2.8,3.5-4.6v-4.7l2.2,2V25z"/>
	<path d="M64.1,16.5c-0.7,2.3-2.3,4.8-4.2,6.3l1.5,0.8v5.6H59v-5.8c-1.2,0.7-2.5,1.1-3.9,1.1c-1,0-1.9-0.2-2.9-0.5
		c1.1-0.5,5.5-2.3,6.4-3.1c1.4-1.2,2.7-3.8,3.4-5.5L64.1,16.5z"/>
	<path d="M82,22.6h-6.9l2.3,0.8c0.1,0.4,0.1,0.9,0.1,1.3c0,3.6-2.8,5.2-6.1,5.2c-0.1,0-0.2,0-0.3,0c1-0.6,3.5-2.4,3.8-3.6
		c0.3-1,0.2-2.7,0.2-3.8h-6.4l1-2.7l0.6,0.8H82V22.6z M80.3,18.3h-9.8l0.9-2.7l0.6,0.8h8.2v1.9H80.3z M83.2,19.1l-2.4-1.9
		c0.4-0.1,0.8-0.2,1.2-0.2c0.7,0,1.7,0.2,1.7,1.1C83.7,18.6,83.5,18.9,83.2,19.1z M84,16.8l-2.5-1.9c0.4-0.1,0.8-0.2,1.3-0.2
		c0.7,0,1.7,0.3,1.7,1.2C84.5,16.2,84.3,16.6,84,16.8z"/>
	<path d="M99.8,17.7c0,2.5-2.2,4.4-4.4,5.2l1.8-4.1H86.6l1-2.9l0.6,0.8h9.9l0.3-0.6l1.4,1.4C99.8,17.5,99.8,17.7,99.8,17.7z
		 M93.6,25c0,3.5-2.5,4.5-5.7,4.5c1.3-0.9,3.5-2.8,3.5-4.6v-4.7l2.2,2V25z"/>
	<path d="M107.7,25.3c-1,2-3.8,3.4-5.9,3.8c1.5-1.2,4-3.9,4-6.1c0-2,0-4,0-6l2.1,0.5c0.2,1.3,0.4,2.7,0.4,4
		C108.4,22.5,108.2,24.3,107.7,25.3z M117.2,24.8c-1.2,2.5-3.7,3.6-6.3,4l-1-1.7l0.8-0.3V15.3l2.4,1v9.5c1.6-0.7,3.1-1.6,4.6-2.5
		C117.6,23.7,117.4,24.3,117.2,24.8z"/>
</g>
</svg>
