<?xml version="1.0" encoding="utf-8"?>
<!-- Generator: Adobe Illustrator 28.0.0, SVG Export Plug-In . SVG Version: 6.00 Build 0)  -->
<svg version="1.1" id="Layer_4" xmlns="http://www.w3.org/2000/svg" xmlns:xlink="http://www.w3.org/1999/xlink" x="0px" y="0px"
	 viewBox="0 0 120 30" style="enable-background:new 0 0 120 30;" xml:space="preserve">
<style type="text/css">
	.st0{fill:#FFFFFF;}
	.st1{fill:#3B5866;}
	.st2{fill:#73BEE3;}
	.st3{fill:#FF7A7A;}
	.st4{clip-path:url(#SVGID_00000129896210028385423340000017330338408151373201_);}
	.st5{fill-rule:evenodd;clip-rule:evenodd;fill:#FFFFFF;}
	.st6{fill-rule:evenodd;clip-rule:evenodd;fill:#442E1F;}
	.st7{fill-rule:evenodd;clip-rule:evenodd;fill:#60C4BD;}
	.st8{fill:#B01117;}
	.st9{fill-rule:evenodd;clip-rule:evenodd;fill:#992E19;}
	.st10{fill-rule:evenodd;clip-rule:evenodd;fill:#361C04;}
	.st11{clip-path:url(#SVGID_00000130637688870304250580000006507492153313441153_);}
	.st12{fill-rule:evenodd;clip-rule:evenodd;fill:#863811;}
	.st13{fill-rule:evenodd;clip-rule:evenodd;fill:#2C1908;}
	.st14{fill-rule:evenodd;clip-rule:evenodd;fill:#5C4035;}
	.st15{fill:none;stroke:#442E1F;stroke-width:9.903790e-02;stroke-linecap:round;stroke-linejoin:round;}
	.st16{fill-rule:evenodd;clip-rule:evenodd;fill:#B01117;}
	.st17{fill:none;stroke:#000000;stroke-width:0.1629;stroke-linecap:round;stroke-linejoin:round;}
	.st18{fill-rule:evenodd;clip-rule:evenodd;}
	.st19{fill:none;stroke:#000000;stroke-width:0.1019;stroke-linecap:round;stroke-linejoin:round;}
	.st20{fill:none;stroke:#442E1F;stroke-width:9.850886e-02;stroke-linecap:round;stroke-linejoin:round;}
	.st21{fill:url(#SVGID_00000041978881278175751070000006272430074769807018_);}
	.st22{fill-rule:evenodd;clip-rule:evenodd;fill:#004F2A;}
	.st23{enable-background:new    ;}
	.st24{fill:none;stroke:#FFFFFF;stroke-width:0.8932;stroke-linecap:round;stroke-linejoin:round;}
	.st25{fill:none;stroke:#006837;stroke-width:0.6042;stroke-linecap:round;stroke-linejoin:round;}
	.st26{fill:#29ABE2;}
	.st27{fill:#F4FBFA;}
</style>
<g>
	<circle class="st0" cx="14.9" cy="15.1" r="14.2"/>
	<path class="st1" d="M8.6,4l-6,3.8H2.5V7.7L8.6,4C8.6,3.9,8.6,3.9,8.6,4C8.7,4,8.7,4,8.6,4L8.6,4z"/>
	<path class="st2" d="M6,6.9L5.8,7.1l0,0H5.7L5.5,7.3c0.6,1.6,0.8,3.5,0.4,5l1.9,0.8l1.3-0.8h0.1l1.3-0.8l0.1-2.1
		C8.8,9.1,7.2,8.2,6,6.9L6,6.9z M8.4,11.2c-0.3,0.2-0.8,0.1-1-0.2s-0.1-0.8,0.2-1c0.3-0.2,0.8-0.1,1,0.2C8.8,10.6,8.7,11.1,8.4,11.2
		z"/>
	<rect x="6.5" y="6.8" transform="matrix(0.8477 -0.5305 0.5305 0.8477 -3.4203 4.782)" class="st1" width="0.2" height="3"/>
	<rect x="7.7" y="12.2" transform="matrix(0.8477 -0.5305 0.5305 0.8477 -5.2683 6.8299)" class="st1" width="3.1" height="0.7"/>
	<path class="st1" d="M10.5,7.1L10.5,7.1c-1.2-1.5-3.2-2-5-1.1H5.4V5.9c0.9-0.4,1.9-0.5,2.8-0.3C9.2,5.7,10,6.3,10.5,7.1
		C10.6,7,10.6,7.1,10.5,7.1L10.5,7.1L10.5,7.1z"/>
	<path class="st1" d="M3.7,11.4L3.7,11.4C3.6,11.5,3.6,11.4,3.7,11.4c-0.5-0.8-0.6-1.8-0.4-2.7C3.4,7.8,4,6.9,4.7,6.3h0.1v0.1
		C3.3,7.6,2.8,9.7,3.7,11.4L3.7,11.4L3.7,11.4z"/>
	<polygon class="st3" points="5,6.8 5.8,6.3 5.5,5.9 5.3,5.6 4.6,6 4.8,6.4 	"/>
	<polygon class="st3" points="8.5,4.6 9.2,4.1 9,3.7 8.8,3.4 8,3.9 8.2,4.2 	"/>
	<rect x="10.3" y="7" transform="matrix(0.8477 -0.5305 0.5305 0.8477 -2.293 6.8341)" class="st3" width="0.9" height="0.9"/>
	<rect x="3.4" y="11.3" transform="matrix(0.8477 -0.5305 0.5305 0.8477 -5.6208 3.8268)" class="st3" width="0.9" height="0.9"/>
	<path class="st3" d="M25.6,10.8c0,0,0.2-0.2,0.4-0.5c1-1.5,0.6-3.5-0.9-4.5s-3.5-0.6-4.5,0.9c-0.2,0.3-0.3,0.6-0.3,0.6
		c-0.2,0.6-0.1,1-0.2,1.9c0,0.2,0,0.6-0.1,1.1c1,0.6,2,1.3,3,1.9c0.3-0.2,0.6-0.4,0.8-0.5C24.5,11.2,25,11.2,25.6,10.8L25.6,10.8z"
		/>
	<path class="st0" d="M21.9,11.4c-0.1,0-0.1-0.1,0-0.2l1.3-2l-0.4-0.3l-1.3,2c0,0.1-0.1,0.1-0.2,0c-0.1,0-0.1-0.1,0-0.2l1.3-2l0,0
		c-0.1,0-0.1-0.1-0.1-0.1l0,0c-0.1-0.1-0.2-0.2-0.2-0.3c0-0.2,0-0.3,0.1-0.4s0.2-0.2,0.3-0.3c0.1,0,0.2,0,0.4,0.1l0,0
		c0.3,0.2,0.3,0.5,0.2,0.6l-0.4,0.4L23.3,9l0.2-0.3c0.1-0.1,0.2-0.2,0.3-0.2c0.1,0,0.2,0,0.3,0.1c0,0,0.1,0,0.1,0.1
		c0.1,0.1,0.3,0.4,0.1,0.7c-0.2,0.3-0.5,0.3-0.7,0.2l0,0l-0.2-0.1l-1.3,2C22,11.5,21.9,11.5,21.9,11.4L21.9,11.4z M22.7,8.1
		c-0.1,0-0.1-0.1-0.2,0l-0.1,0.1c0,0-0.1,0.1,0,0.2c0,0,0,0.1,0.1,0.1l0,0l0.1,0.1l0,0l0.3-0.3l0,0C22.9,8.2,22.8,8.2,22.7,8.1
		L22.7,8.1L22.7,8.1z M23.9,8.9c0,0-0.1-0.1-0.1,0c0,0,0,0-0.1,0l-0.2,0.3l0.2,0.1l0,0c0.1,0,0.2,0,0.3-0.1
		C24.1,9.1,24.1,9,23.9,8.9L23.9,8.9L23.9,8.9z"/>
	<path class="st1" d="M22.3,12.9l-2.7-1.8c-0.2-0.1-0.3-0.5-0.1-0.7l0,0c0.1-0.2,0.5-0.3,0.7-0.1l2.7,1.8c0.2,0.1,0.3,0.5,0.1,0.7
		l0,0C22.9,13,22.6,13.1,22.3,12.9z"/>
	<path class="st1" d="M21.5,13.6l-2.1-1.4c-0.2-0.1-0.3-0.5-0.1-0.7l0,0c0.1-0.2,0.5-0.3,0.7-0.1l2.1,1.4c0.2,0.1,0.3,0.5,0.1,0.7
		l0,0C22,13.7,21.7,13.8,21.5,13.6z"/>
	<path class="st1" d="M19.3,12.2c0,0.4,0.2,0.8,0.7,1.1s1,0.4,1.3,0.2L19.3,12.2z"/>
	<path class="st1" d="M4.3,20.2c-1.3,2-0.8,4.5,1.1,5.7s4.7,1,5.1-0.8c0.1-0.7-0.9-1.8-0.8-2.4c0.3-1.3,1.8,0.2,2-0.4
		c0.4-1-0.5-2.7-1.8-3.5C8.1,17.6,5.6,18.2,4.3,20.2L4.3,20.2z M11.1,21.1c0,0.3-0.3,0.5-0.6,0.5c-0.3,0-0.5-0.3-0.5-0.6
		c0-0.3,0.3-0.5,0.6-0.5C10.9,20.6,11.2,20.9,11.1,21.1z"/>
	<ellipse class="st3" cx="8.1" cy="25.5" rx="0.7" ry="0.7"/>
	<ellipse class="st2" cx="5.8" cy="24.8" rx="0.7" ry="0.7"/>
	<ellipse class="st3" cx="4.8" cy="22.2" rx="0.7" ry="0.7"/>
	<ellipse class="st2" cx="6.1" cy="20.1" rx="0.7" ry="0.7"/>
	<ellipse class="st3" cx="8.7" cy="19.6" rx="0.7" ry="0.7"/>
	<g>
		<g>
			<g>
				<g>
					<g>
						<defs>
							<circle id="SVGID_1_" cx="15.1" cy="16.5" r="13.2"/>
						</defs>
						<clipPath id="SVGID_00000143575043466961451860000009796490278588992915_">
							<use xlink:href="#SVGID_1_"  style="overflow:visible;"/>
						</clipPath>
						<g style="clip-path:url(#SVGID_00000143575043466961451860000009796490278588992915_);">
							<path class="st5" d="M14.9,30.1c1.6,0,4.1-0.2,5.1-0.9c1.6-1.2,0.4-2.3-0.4-2.4c-1.9-0.2-2.8-1-3-1.8c-0.4-1.6,0-2.8,0-2.8
								h-1.7 M14.9,30.1c-1.6,0-4.1-0.2-5.1-0.9c-1.5-1.1-0.3-2.3,0.5-2.3c1.9-0.2,2.8-1,3-1.8c0.4-1.6,0-2.8,0-2.8h1.6"/>
							<path class="st6" d="M14.9,22.4l-1.5,0.1c0,0.2,0.1,0.4,0.1,0.8c0,0.1,0,0.3,0,0.4c0,0.4-0.1,0.9-0.2,1.4
								c-0.1,0.4-0.4,0.9-1,1.2c-0.2,0.1-0.5,0.3-0.8,0.4c-0.4,0.1-0.8,0.2-1.3,0.3c-0.4,0-1,0.4-1,0.9c-0.1,0.4,0.1,0.8,0.7,1.2
								c0.2,0.1,0.4,0.2,0.7,0.3c0.3,0.1,0.8,0.2,1.2,0.3c1.1,0.2,2.3,0.2,3.1,0.2l0,0l0,0l0,0l0,0l0,0c0.9,0,2.1,0,3.1-0.2
								c0.4-0.1,0.8-0.2,1.2-0.3c0.3-0.1,0.5-0.2,0.7-0.3c0.6-0.4,0.8-0.8,0.7-1.2c-0.1-0.5-0.6-0.9-1-0.9c-0.5-0.1-0.9-0.2-1.3-0.3
								c-0.3-0.1-0.6-0.2-0.8-0.4c-0.5-0.3-0.8-0.7-1-1.2c-0.1-0.5-0.2-1-0.2-1.4c0-0.2,0-0.3,0-0.4c0-0.3,0.1-0.6,0.1-0.8
								L14.9,22.4L14.9,22.4z M14.9,22.1L13.2,22L13,22.2c0,0,0.1,0.4,0.1,0.9c0,0.1,0,0.3,0,0.4c0,0.4,0,0.9-0.1,1.4
								c-0.1,0.4-0.3,0.8-0.8,1.1c-0.2,0.1-0.5,0.3-0.8,0.4c-0.4,0.1-0.8,0.2-1.3,0.2s-1.2,0.5-1.3,1.1c-0.1,0.4,0,1,0.8,1.6
								c0.2,0.1,0.5,0.3,0.8,0.4c0.4,0.1,0.8,0.2,1.2,0.3c1.1,0.2,2.3,0.3,3.2,0.2c0.9,0,2.1,0,3.2-0.2c0.5-0.1,0.9-0.2,1.2-0.3
								c0.3-0.1,0.6-0.3,0.8-0.4c0.7-0.6,0.9-1.1,0.8-1.6c-0.1-0.6-0.8-1-1.3-1.1c-0.5,0-0.9-0.1-1.3-0.2c-0.3-0.1-0.6-0.2-0.8-0.4
								c-0.5-0.3-0.7-0.7-0.8-1.1c-0.1-0.5-0.1-1-0.1-1.4c0-0.1,0-0.3,0-0.4c0-0.6,0.1-0.9,0.1-0.9L16.4,22L14.9,22.1L14.9,22.1z"/>
							<path class="st7" d="M16.6,25.1c0.2,0.8,1.1,1.6,3,1.8c0.8,0.1,2,1.2,0.4,2.4c-1,0.7-3.5,1-5.1,0.9l0,0
								c-1.6,0-4.1-0.2-5.1-0.9c-1.5-1.2-0.3-2.4,0.5-2.4c1.9-0.2,2.8-1,3-1.8H16.6L16.6,25.1z"/>
							<path class="st6" d="M15,30.1v0.3l0,0V30.1c-1.6,0-4.2-0.2-5.1-0.9c-1.6-1.1-0.4-2.3,0.4-2.3c1.9-0.2,2.8-1,3-1.8h3.4
								c0.2,0.8,1.1,1.6,3,1.8c0.8,0.1,2,1.2,0.4,2.4C19.1,29.9,16.5,30.1,15,30.1L15,30.1z M14.9,30.4L14.9,30.4
								c0.9,0.1,2.1,0,3.2-0.1c0.9-0.1,1.7-0.4,2.2-0.7c0.9-0.6,1-1.3,0.9-1.8c-0.2-0.8-1-1.3-1.6-1.4c-0.7-0.1-1.2-0.2-1.6-0.4
								c-0.5-0.3-0.8-0.6-0.9-1l-0.4-0.1l-3.4-0.1L12.9,25c-0.1,0.3-0.2,0.5-0.5,0.7c-0.1,0.1-0.3,0.2-0.5,0.3
								c-0.4,0.2-0.9,0.4-1.6,0.5c-0.5,0.1-1.3,0.6-1.4,1.3c-0.1,0.5,0.1,1,0.9,1.5c0.4,0.3,1.2,0.5,2,0.7
								C12.8,30.2,14,30.4,14.9,30.4L14.9,30.4z"/>
							<path class="st8" d="M22.6,24.4c-0.2,0.1-1.5-0.6-1.7-0.4c-0.1,0.1-0.1,0.3,0,0.6c-0.2-0.1-0.4-0.2-0.6-0.1s0.2,1.5,0.1,1.8
								l0,0l0,0l0,0c0.3,0.1,1,0.4,1.4,0.5c0.3,0.1,0.6,0,0.6-0.3c0.3,0,0.5-0.3,0.4-0.6C22.8,25.4,22.7,24.8,22.6,24.4L22.6,24.4
								L22.6,24.4L22.6,24.4z M21.9,25.1c0,0.1-0.1,0.1-0.1,0.2l-0.1,0.3l-0.3,0.1c-0.1,0-0.1,0-0.2,0.1c0.1-0.1,0.1-0.1,0.1-0.2
								l0.1-0.2h0.2C21.8,25.1,21.9,25.1,21.9,25.1L21.9,25.1L21.9,25.1z"/>
							<path class="st6" d="M22.5,24.2L22.5,24.2L22.5,24.2L22.5,24.2L22.5,24.2z M22.5,24.4L22.5,24.4c0,0.1,0,0.2,0.1,0.2l0,0l0,0
								l0,0l0,0l0,0l0,0l0,0l0,0l0,0L22.5,24.4L22.5,24.4z M22.6,24.6L22.6,24.6L22.6,24.6L22.6,24.6z M21.8,25.2l-0.1,0.2
								c0,0,0,0-0.1,0s-0.2,0-0.2,0l0,0c0,0,0,0,0-0.1l0.1-0.2L21.8,25.2C21.7,25.2,21.7,25.2,21.8,25.2L21.8,25.2z M21.9,25.1
								l0.1,0.2l0,0l0,0l0,0l0,0l-0.1,0.1l-0.1,0.2l0,0c0,0,0,0-0.1,0s-0.2,0.1-0.2,0.1l-0.2,0.1h-0.1v-0.1c0,0,0-0.1,0.1-0.1
								c0,0,0-0.1,0.1-0.1l0.1-0.2l0,0l0.2-0.1C21.7,25.1,21.8,25.1,21.9,25.1C21.8,25.1,21.8,25.1,21.9,25.1L21.9,25.1L21.9,25.1
								L21.9,25.1L21.9,25.1L21.9,25.1L21.9,25.1L21.9,25.1v0.1C21.8,25.1,21.8,25.1,21.9,25.1L21.9,25.1L21.9,25.1L21.9,25.1
								L21.9,25.1L21.9,25.1L21.9,25.1z M20.4,26.4L20.4,26.4L20.4,26.4L20.4,26.4L20.4,26.4L20.4,26.4z M20.4,26.4L20.4,26.4
								L20.4,26.4L20.4,26.4L20.4,26.4z M22.5,24.5l0.3,1.4c0,0.1,0,0.2-0.1,0.3c-0.1,0.1-0.2,0.2-0.3,0.2l0,0
								c0,0.1-0.1,0.2-0.2,0.3c-0.1,0-0.2,0-0.3,0l-1.3-0.5c0,0,0-0.1,0-0.2c0-0.3-0.2-0.9-0.2-1.3c0-0.1,0-0.2,0-0.2s0,0,0-0.1
								c0,0,0.1,0,0.2,0s0.2,0.1,0.3,0.1c0,0,0,0,0.1,0c0,0,0,0,0-0.1s-0.1-0.2-0.1-0.3c0-0.1,0-0.1,0.1-0.2l0,0c0,0,0.1,0,0.2,0
								c0.4,0.1,0.9,0.4,1.2,0.4C22.4,24.5,22.5,24.5,22.5,24.5L22.5,24.5z M20.4,26.2L20.4,26.2L20.4,26.2L20.4,26.2L20.4,26.2
								L20.4,26.2L20.4,26.2L20.4,26.2L20.4,26.2l1.4,0.5c0.1,0.1,0.3,0,0.4,0c0.1-0.1,0.2-0.2,0.3-0.3c0.1,0,0.3-0.1,0.3-0.2
								c0.1-0.1,0.1-0.3,0.1-0.4l-0.2-1.5l-0.1,0.1l-0.1-0.2l0,0l0,0l0,0c0,0,0,0,0.1,0h-0.1l0,0l0,0l0,0c0,0-0.1,0-0.2,0
								C22,24.1,21.5,24,21.2,24c-0.2,0-0.3-0.1-0.4,0s-0.1,0.1-0.1,0.3c0,0.1,0,0.1,0,0.2c-0.1,0-0.2-0.1-0.2-0.1
								c-0.1,0-0.2,0-0.3,0c0,0-0.1,0.2-0.1,0.4c0,0.3,0.1,0.7,0.1,1c0,0.2,0,0.3,0,0.4L20.4,26.2L20.4,26.2L20.4,26.2z"/>
						</g>
					</g>
				</g>
			</g>
		</g>
	</g>
	<path class="st9" d="M14.9,5c0.5-0.8,1.4-0.8,1.8-0.4c0.5,0.4,0.5,1.2,0,1.9c-0.3,0.6-1.1,1.2-1.8,1.6c-0.7-0.4-1.5-1-1.8-1.6
		c-0.5-0.8-0.5-1.6,0-1.9C13.5,4.2,14.4,4.2,14.9,5L14.9,5z"/>
	<path class="st10" d="M14.9,5c0.5-0.8,1.4-0.8,1.8-0.4c0.5,0.4,0.5,1.2,0,1.9c-0.3,0.6-1.1,1.2-1.8,1.6c-0.7-0.4-1.5-1-1.8-1.6
		c-0.5-0.8-0.5-1.6,0-1.9C13.5,4.2,14.4,4.2,14.9,5L14.9,5z M15.2,4.3c-0.3-0.3-0.7-0.5-1-0.6c-0.6-0.1-1.1,0.1-1.5,0.4
		c-0.3,0.3-0.5,0.7-0.5,1.1s0.1,1,0.5,1.5c0.2,0.3,0.4,0.6,0.8,0.8c0.4,0.3,0.9,0.6,1.3,0.8h0.3c0.4-0.2,0.8-0.6,1.2-0.9
		c0.3-0.2,0.5-0.5,0.6-0.8c0.3-0.5,0.4-0.9,0.3-1.3c0-0.4-0.2-0.7-0.4-0.9C16.5,4.2,16.1,4,15.6,4C15.5,4.2,15.4,4.3,15.2,4.3
		L15.2,4.3z"/>
	<path class="st5" d="M14.9,7.6c4.8,0,6,3.2,6,7.2c0.1,5-3.1,8-6,8.1c-3.1,0-6.6-3.6-6.1-8.1C9.2,10.7,10,7.6,14.9,7.6L14.9,7.6z"/>
	<g>
		<g>
			<g>
				<g>
					<g>
						<defs>
							<path id="SVGID_00000105412930598950293000000005269194615867164840_" d="M14.9,7.6c4.8-0.1,5.9,2.9,6,7.2
								c0.1,3.9-3,7.9-6,8.1c-3,0.1-6.5-4-6.1-8.1C9.1,10.7,10,7.6,14.9,7.6L14.9,7.6z"/>
						</defs>
						<clipPath id="SVGID_00000065073100027448096270000001261965234997408947_">
							<use xlink:href="#SVGID_00000105412930598950293000000005269194615867164840_"  style="overflow:visible;"/>
						</clipPath>
						<g style="clip-path:url(#SVGID_00000065073100027448096270000001261965234997408947_);">
							<path class="st12" d="M14.6,7.5c-3.2,0.3-4.3,0.9-5.1,2c-0.7,0.9,0.3,1.7,0.9,1.7c0.2,0,9.1,0.2,10.2-0.1
								C20.7,10,18,7.1,14.6,7.5L14.6,7.5z"/>
							<path class="st10" d="M14.5,7.5c-3.2,0.3-4.3,0.9-5,2c-0.7,0.9,0.3,1.7,0.9,1.7c0.2,0,9.1,0.2,10.1-0.1
								C20.7,10,18,7.1,14.5,7.5L14.5,7.5z M14.5,7.4C13,7.5,12,7.8,11.2,8c-0.8,0.4-1.3,0.9-1.7,1.4c-0.3,0.4-0.3,0.8-0.1,1.2
								c0.2,0.4,0.7,0.6,1,0.6c0.1,0,4.1,0.1,7.1,0.1c1.5,0,2.7-0.1,3-0.2l0,0c0-0.2,0-0.4-0.2-0.7c-0.3-0.6-1.1-1.4-2.2-2
								C17.2,7.7,15.9,7.3,14.5,7.4L14.5,7.4z"/>
						</g>
					</g>
				</g>
			</g>
		</g>
	</g>
	<path class="st13" d="M14.9,7.6c4.6,0,5.9,3,6,7.2s-3.2,8-6,8.1c-2.9,0-6.3-3.7-6.1-8.1C9,10.7,10,7.6,14.9,7.6L14.9,7.6z
		 M14.9,7.5c-2.5,0-4.1,0.7-5,2c-1,1.3-1.3,3.2-1.4,5.3c-0.1,1.8,0.5,4,1.6,5.5c1.3,1.8,3.2,2.9,4.8,2.9s3.5-1.2,4.8-3
		c1.1-1.6,1.6-3.6,1.7-5.4c0.1-1.9-0.2-3.8-1.3-5.4c-1-1.4-2.7-2.2-5.1-2.2v0.3C15,7.5,14.9,7.5,14.9,7.5z"/>
	<path class="st14" d="M9.8,15.2c0.3-0.9,0.9-1.3,1.7-1.4c0.3,0,0.6,0,0.9,0.1c0.5,0.2,0.9,0.5,1,0.9l0,0l0,0c-0.2-0.4-0.6-0.8-1-1
		c-0.3-0.1-0.6-0.2-1-0.2c-0.8,0-1.5,0.4-1.8,1.4C9.7,15.2,9.7,15.4,9.8,15.2C9.8,15.4,9.8,15.4,9.8,15.2L9.8,15.2z"/>
	<path class="st15" d="M13.4,15.1v0.1c-0.1,0.6-0.9,1.1-1.8,1.1s-1.6-0.4-1.8-0.9"/>
	<path class="st16" d="M10.7,15.1c0.2,0,0.5-0.1,0.8-0.1c0.4,0,0.9,0,1.3,0v0.1c0,0.6-0.5,1.1-1.1,1.1
		C11.2,16.1,10.7,15.7,10.7,15.1L10.7,15.1L10.7,15.1z"/>
	<path class="st17" d="M10.7,15.1c0.2,0,0.5-0.1,0.8-0.1c0.4,0,0.9,0,1.3,0v0.1c0,0.6-0.5,1.1-1.1,1.1
		C11.2,16.1,10.7,15.7,10.7,15.1L10.7,15.1L10.7,15.1z"/>
	<path class="st16" d="M11,15.1c0.1,0,0.3,0,0.4,0c0.3,0,0.7,0,1,0v0.1c0,0.4-0.3,0.8-0.7,0.8C11.3,15.9,11,15.6,11,15.1L11,15.1
		L11,15.1z"/>
	<path class="st17" d="M11,15.1c0.1,0,0.3,0,0.4,0c0.3,0,0.7,0,1,0v0.1c0,0.4-0.3,0.8-0.7,0.8C11.3,15.9,11,15.6,11,15.1L11,15.1
		L11,15.1z"/>
	<path class="st16" d="M11.3,15h0.1c0.2,0,0.5,0,0.7,0v0.1c0,0.2-0.2,0.4-0.4,0.4c-0.2,0-0.4-0.2-0.4-0.4
		C11.3,15.1,11.3,15.1,11.3,15L11.3,15z"/>
	<path class="st17" d="M11.3,15h0.1c0.2,0,0.5,0,0.7,0v0.1c0,0.2-0.2,0.4-0.4,0.4c-0.2,0-0.4-0.2-0.4-0.4
		C11.3,15.1,11.3,15.1,11.3,15L11.3,15z"/>
	<path class="st18" d="M11.7,15c-0.1,0-0.1,0.1-0.1,0.1c0,0.1,0.1,0.1,0.1,0.1l0,0l0.1-0.1C11.8,15.1,11.8,15,11.7,15L11.7,15
		L11.7,15z"/>
	<path class="st17" d="M11.7,15c-0.1,0-0.1,0.1-0.1,0.1c0,0.1,0.1,0.1,0.1,0.1l0,0l0.1-0.1C11.8,15.1,11.8,15,11.7,15L11.7,15
		L11.7,15z"/>
	<path class="st18" d="M11.8,15l0.1,0.1c0,0.1,0,0.1-0.1,0.1l0,0c-0.1,0-0.1-0.1-0.1-0.1C11.6,15.1,11.7,15,11.8,15L11.8,15L11.8,15
		z"/>
	<path class="st19" d="M11.8,15l0.1,0.1c0,0.1,0,0.1-0.1,0.1l0,0c-0.1,0-0.1-0.1-0.1-0.1C11.6,15.1,11.7,15,11.8,15L11.8,15L11.8,15
		z"/>
	<path class="st13" d="M9.5,15.7c0.5-0.4,1.2-0.6,1.9-0.6c0.7-0.1,1.4,0,2.1,0.1V15c-0.7-0.2-1.4-0.3-2.1-0.3
		c-0.8,0-1.6,0.2-2.1,0.6L9.5,15.7L9.5,15.7z"/>
	<path class="st16" d="M14.7,19.2c-0.2-0.5-0.5-1.4-0.5-1.8s0.3-0.7,0.7-0.7s0.7,0.3,0.7,0.7c0,0.4-0.3,1.3-0.5,1.8
		c0.2,0.5,0.5,1.4,0.5,1.8s-0.3,0.7-0.7,0.7s-0.7-0.3-0.7-0.7C14.2,20.6,14.4,19.9,14.7,19.2z"/>
	<path class="st6" d="M14.7,19.2c-0.2-0.5-0.5-1.4-0.5-1.8s0.3-0.7,0.7-0.7s0.7,0.3,0.7,0.7c0,0.4-0.3,1.3-0.5,1.8
		c0.2,0.5,0.5,1.4,0.5,1.8s-0.3,0.7-0.7,0.7s-0.7-0.3-0.7-0.7C14.2,20.6,14.4,19.9,14.7,19.2z M14.5,19.4L14.5,19.4
		c-0.1,0.2-0.2,0.6-0.3,1c-0.1,0.3-0.1,0.6-0.1,0.8c0,0.2,0.1,0.4,0.2,0.6c0.1,0.1,0.4,0.2,0.6,0.2s0.4-0.1,0.6-0.2
		c0.1-0.1,0.2-0.4,0.2-0.6s-0.1-0.5-0.1-0.8c-0.1-0.4-0.2-0.7-0.4-1c0.1-0.3,0.3-0.7,0.4-1s0.1-0.6,0.1-0.8c0-0.2-0.1-0.4-0.2-0.6
		c-0.1-0.1-0.4-0.2-0.6-0.2s-0.4,0.1-0.6,0.2c-0.2,0.1-0.2,0.4-0.3,0.6c0,0.2,0,0.5,0.1,0.8C14.3,18.6,14.4,19.1,14.5,19.4
		L14.5,19.4z"/>
	<path class="st10" d="M8.7,13.7c0,0,0.2-0.4,0.6-0.8c0.2-0.2,0.4-0.4,0.7-0.5c0.4-0.2,0.8-0.2,1.2-0.1c0.6,0.1,1.1,0.4,1.7,0.8
		l0.4-0.8c-0.7-0.2-1.4-0.4-2.1-0.4c-0.5,0-1,0.1-1.4,0.3c-0.3,0.2-0.5,0.4-0.7,0.7C8.8,13.2,8.7,13.7,8.7,13.7L8.7,13.7z"/>
	<path class="st10" d="M20.8,13.7c0,0-0.1-0.4-0.4-0.9c-0.2-0.3-0.4-0.5-0.7-0.7c-0.5-0.2-0.9-0.2-1.5-0.2s-1.3,0.2-2.1,0.5l0.4,0.8
		c0.6-0.3,1.2-0.6,1.7-0.8c0.4-0.1,0.8-0.1,1.2,0.1c0.3,0.1,0.5,0.3,0.7,0.5C20.6,13.2,20.8,13.7,20.8,13.7L20.8,13.7z"/>
	<path class="st10" d="M18.7,8.7c-0.2,0.2-0.3,0.5-0.4,0.8c0,0.2,0,0.5,0.1,0.9c0.1,0.3,0.3,0.7,0.7,0.9c0.3,0.2,0.7,0.3,1.1,0.2
		c0.1,0,0.2-0.1,0.1-0.2c0-0.1-0.1-0.2-0.2-0.1c-0.3,0.1-0.6,0.1-0.9,0s-0.5-0.4-0.6-0.7s-0.1-0.6-0.1-0.8C18.4,9.2,18.6,9,18.7,8.7
		C18.8,8.7,18.8,8.7,18.7,8.7C18.8,8.7,18.7,8.7,18.7,8.7L18.7,8.7z"/>
	<path class="st10" d="M17.9,8c-0.3,0.3-0.6,0.6-0.7,1s-0.2,0.8-0.1,1.3c0.1,0.4,0.3,0.7,0.7,0.9c0.3,0.2,0.7,0.2,1.1,0.1
		c0.1,0,0.2-0.1,0.1-0.2c0-0.1-0.1-0.2-0.2-0.1c-0.3,0.1-0.6,0.1-0.9,0s-0.5-0.4-0.6-0.7c-0.1-0.5-0.1-0.9,0.1-1.2
		C17.4,8.7,17.6,8.4,17.9,8C17.9,8.1,17.9,8,17.9,8L17.9,8L17.9,8z"/>
	<path class="st10" d="M17,7.7c-0.4,0.2-0.8,0.6-1.1,1.1s-0.4,1-0.3,1.6c0.1,0.4,0.3,0.7,0.7,0.9c0.3,0.2,0.7,0.2,1.1,0.1
		c0.1,0,0.2-0.1,0.1-0.2c0-0.1-0.1-0.2-0.2-0.1c-0.3,0.1-0.6,0.1-0.9,0s-0.5-0.4-0.6-0.7c-0.1-0.5,0-1,0.2-1.5
		C16.3,8.4,16.6,8,17,7.7C17.1,7.7,17.1,7.7,17,7.7C17.1,7.7,17.1,7.7,17,7.7L17,7.7z"/>
	<path class="st10" d="M15.9,7.7c-0.6,0.2-1.1,0.5-1.4,1s-0.4,1.1-0.3,1.7c0.1,0.4,0.3,0.7,0.7,0.9c0.3,0.2,0.7,0.2,1.1,0.1
		c0.1,0,0.2-0.1,0.1-0.2c0-0.1-0.1-0.2-0.2-0.1c-0.3,0.1-0.6,0.1-0.9,0s-0.5-0.4-0.6-0.7c-0.1-0.5-0.1-1.1,0.2-1.6
		C14.9,8.2,15.3,7.9,15.9,7.7L15.9,7.7L15.9,7.7L15.9,7.7z"/>
	<path class="st10" d="M14.6,7.7c-0.6,0.2-1,0.6-1.3,1c-0.4,0.5-0.6,1.1-0.4,1.6c0.1,0.4,0.3,0.7,0.7,0.9c0.3,0.2,0.7,0.2,1.1,0.1
		c0.1,0,0.2-0.1,0.1-0.2c-0.1-0.1-0.1-0.2-0.2-0.1c-0.3,0.1-0.6,0.1-0.9,0s-0.5-0.4-0.6-0.7c-0.1-0.5,0-1.1,0.3-1.6
		C13.6,8.2,14.1,7.9,14.6,7.7L14.6,7.7L14.6,7.7L14.6,7.7z"/>
	<path class="st12" d="M11.6,8.4c-1.1,0.4-2.3,1-2.3,1.9c0,0.6,0.6,1.1,1.4,0.9"/>
	<path class="st10" d="M11.5,8.4c-0.6,0.2-1.2,0.5-1.6,0.8s-0.7,0.7-0.7,1.1s0.2,0.7,0.5,0.9c0.3,0.2,0.7,0.2,1.1,0.1
		c0.1,0,0.2-0.1,0.1-0.2c0-0.1-0.1-0.2-0.2-0.1c-0.3,0.1-0.6,0.1-0.8,0c-0.3-0.1-0.4-0.4-0.5-0.7c0-0.4,0.2-0.7,0.5-1
		C10.3,9,10.9,8.7,11.5,8.4C11.6,8.5,11.6,8.5,11.5,8.4C11.6,8.4,11.6,8.4,11.5,8.4L11.5,8.4z"/>
	<path class="st12" d="M12.9,8c-2.2,0.3-2.7,1.3-2.4,2.4c0.1,0.6,0.8,1.1,1.6,0.9"/>
	<path class="st10" d="M12.9,7.9c-1.1,0.1-1.8,0.5-2.2,0.9s-0.5,1-0.4,1.5c0.1,0.4,0.3,0.7,0.7,0.9c0.3,0.2,0.7,0.2,1.1,0.1
		c0.1,0,0.2-0.1,0.1-0.2c-0.1-0.1-0.1-0.2-0.2-0.1c-0.3,0.1-0.6,0.1-0.9,0c-0.3-0.1-0.5-0.4-0.6-0.7c-0.1-0.5-0.1-1,0.3-1.4
		s1-0.7,2.1-0.9C12.9,8,13,8,12.9,7.9C13,7.9,12.9,7.9,12.9,7.9L12.9,7.9z"/>
	<path class="st10" d="M13.7,7.7c-0.8,0.1-1.4,0.4-1.8,0.8c-0.5,0.5-0.7,1.2-0.5,1.9c0.1,0.4,0.3,0.7,0.7,0.9
		c0.3,0.2,0.7,0.2,1.1,0.1c0.1,0,0.2-0.1,0.1-0.2c0-0.1-0.1-0.2-0.2-0.1c-0.3,0.1-0.6,0.1-0.9,0s-0.5-0.4-0.6-0.7
		c-0.1-0.6,0-1.2,0.4-1.7S13,7.9,13.7,7.7C13.8,7.7,13.8,7.7,13.7,7.7C13.8,7.7,13.8,7.7,13.7,7.7L13.7,7.7z"/>
	<path class="st14" d="M19.9,15.2c-0.3-0.9-0.9-1.3-1.7-1.4c-0.3,0-0.6,0-0.9,0.1c-0.5,0.2-0.9,0.5-1,0.9l0,0l0,0
		c0.2-0.4,0.6-0.8,1-1c0.3-0.1,0.6-0.2,1-0.2c0.8,0,1.5,0.4,1.8,1.4C20.1,15.2,20.1,15.4,19.9,15.2C20,15.4,19.9,15.4,19.9,15.2
		L19.9,15.2z"/>
	<path class="st20" d="M16.3,15.1v0.1c0.1,0.6,0.8,1.1,1.8,1.1c0.9,0,1.6-0.4,1.8-0.9"/>
	<path class="st16" d="M19.1,15.1c-0.2,0-0.5-0.1-0.8-0.1c-0.4,0-0.9,0-1.3,0v0.1c0,0.6,0.5,1.1,1.1,1.1
		C18.6,16.1,19.1,15.7,19.1,15.1L19.1,15.1L19.1,15.1z"/>
	<path class="st17" d="M19.1,15.1c-0.2,0-0.5-0.1-0.8-0.1c-0.4,0-0.9,0-1.3,0v0.1c0,0.6,0.5,1.1,1.1,1.1
		C18.6,16.1,19.1,15.7,19.1,15.1L19.1,15.1L19.1,15.1z"/>
	<path class="st16" d="M18.8,15.1c-0.1,0-0.3,0-0.4,0c-0.3,0-0.7,0-1,0v0.1c0,0.4,0.3,0.8,0.7,0.8S18.8,15.6,18.8,15.1L18.8,15.1
		L18.8,15.1z"/>
	<path class="st17" d="M18.8,15.1c-0.1,0-0.3,0-0.4,0c-0.3,0-0.7,0-1,0v0.1c0,0.4,0.3,0.8,0.7,0.8S18.8,15.6,18.8,15.1L18.8,15.1
		L18.8,15.1z"/>
	<path class="st16" d="M18.4,15h-0.1c-0.2,0-0.5,0-0.7,0v0.1c0,0.2,0.2,0.4,0.4,0.4c0.2,0,0.4-0.2,0.4-0.4
		C18.4,15.1,18.4,15.1,18.4,15L18.4,15z"/>
	<path class="st17" d="M18.4,15h-0.1c-0.2,0-0.5,0-0.7,0v0.1c0,0.2,0.2,0.4,0.4,0.4c0.2,0,0.4-0.2,0.4-0.4
		C18.4,15.1,18.4,15.1,18.4,15L18.4,15z"/>
	<path class="st18" d="M18,15c0.1,0,0.1,0.1,0.1,0.1c0,0.1-0.1,0.1-0.1,0.1l0,0l-0.1-0.1C17.9,15.1,17.9,15,18,15L18,15L18,15z"/>
	<path class="st17" d="M18,15c0.1,0,0.1,0.1,0.1,0.1c0,0.1-0.1,0.1-0.1,0.1l0,0l-0.1-0.1C17.9,15.1,17.9,15,18,15L18,15L18,15z"/>
	<path class="st18" d="M18,15l-0.1,0.1c0,0.1,0,0.1,0.1,0.1l0,0c0.1,0,0.1-0.1,0.1-0.1S18.1,15,18,15L18,15L18,15z"/>
	<path class="st19" d="M18,15l-0.1,0.1c0,0.1,0,0.1,0.1,0.1l0,0c0.1,0,0.1-0.1,0.1-0.1S18.1,15,18,15L18,15L18,15z"/>
	<path class="st13" d="M20.2,15.7c-0.5-0.4-1.2-0.6-1.9-0.6c-0.7-0.1-1.4,0-2.1,0.1V15c0.7-0.2,1.4-0.3,2.1-0.3
		c0.8,0,1.6,0.2,2.1,0.6L20.2,15.7L20.2,15.7z"/>
	<ellipse class="st0" cx="18.3" cy="15.1" rx="2.5" ry="1.6"/>
	<path class="st14" d="M20.1,15.2c-0.3-1-1-1.4-1.8-1.4c-0.3,0-0.7,0.1-1,0.2c-0.5,0.2-0.9,0.5-1,1l0,0l0,0c0.2-0.4,0.6-0.7,1-0.9
		c0.3-0.1,0.6-0.2,0.9-0.1c0.7,0,1.4,0.4,1.7,1.4l0.1,0.1C20.1,15.4,20.1,15.2,20.1,15.2L20.1,15.2z"/>
	<path class="st13" d="M20.4,15.7C19.8,16,19,16.1,18.2,16c-0.7-0.1-1.4-0.4-2-0.7l0.1-0.2c0.6,0.3,1.3,0.4,2,0.5c0.8,0,1.5,0,2-0.3
		L20.4,15.7L20.4,15.7z"/>
	
		<radialGradient id="SVGID_00000134962995215851643010000000609634791795091113_" cx="20.7877" cy="279.4905" r="0.9002" gradientTransform="matrix(1 0 0 -1 0 296.4286)" gradientUnits="userSpaceOnUse">
		<stop  offset="0" style="stop-color:#FFFFFF"/>
		<stop  offset="9.000000e-02" style="stop-color:#FFECD8"/>
		<stop  offset="0.21" style="stop-color:#FFD4A7"/>
		<stop  offset="0.33" style="stop-color:#FFC07D"/>
		<stop  offset="0.46" style="stop-color:#FFB05A"/>
		<stop  offset="0.59" style="stop-color:#FFA340"/>
		<stop  offset="0.72" style="stop-color:#FF9A2D"/>
		<stop  offset="0.86" style="stop-color:#FF9421"/>
		<stop  offset="1" style="stop-color:#FF931E"/>
	</radialGradient>
	<polygon style="fill:url(#SVGID_00000134962995215851643010000000609634791795091113_);" points="20.9,17.9 20.5,17.4 19.9,17.4 
		20.3,16.9 20,16.2 20.7,16.5 21.2,16.1 21.2,16.6 21.7,17.1 21.1,17.2 	"/>
	<path class="st22" d="M14.9,0.9c7.9,0,14.2,6.4,14.2,14.2s-6.3,14.3-14.2,14.3S0.7,23,0.7,15.1S7.1,0.9,14.9,0.9z M14.9,0.6
		c-4-0.1-7.7,1.5-10.4,4.1S0.1,11,0,15.1c0,4.1,1.6,7.9,4.3,10.6S10.7,30,14.9,30c4.1,0,7.9-1.7,10.7-4.4c2.7-2.7,4.4-6.5,4.5-10.7
		c0-4.2-1.7-8-4.4-10.7C22.9,1.7,19.1,0,14.9,0V0.6z"/>
	<g class="st23">
		<path class="st24" d="M5.9,12.1c-0.1,0.2-0.2,0.4-0.3,0.5c-0.2,0.2-0.5,0.3-0.9,0.3c-1.6,0-2.5,0.1-2.9,0.1s-0.6,0.1-0.7,0.3
			L1,13.4H0.8l0.3-1.2h0.2v0.2c0,0.1,0.1,0.2,0.2,0.2s0.1,0,0.3,0h0.9l0.2-1.3c-0.6-0.3-1-0.5-1-0.5c-0.1,0-0.2,0-0.3,0.2l-0.1,0.2
			H1.3L1.6,10h0.2v0.2c0,0.2,0.2,0.3,0.6,0.5l2.2,1.2c0.4,0.2,0.6,0.3,0.7,0.4c0.1,0,0.1,0,0.1,0c0-0.1,0-0.1,0-0.2
			c0-0.1,0-0.1,0-0.1c0-0.1,0.1-0.1,0.2-0.2h0.1C5.9,11.9,5.9,12,5.9,12.1z M5,12.5l-1.9-1.1l-0.3,1.1H5z"/>
	</g>
	<g class="st23">
		<path class="st24" d="M6.1,15.2l-4.4,0.1c-0.2,0-0.4,0-0.4,0c-0.1,0-0.2,0.1-0.2,0.2c0,0.1,0,0.1-0.1,0.2H0.8v-1.2h0.1v0.1
			c0,0.2,0.2,0.3,0.5,0.2l3.9,0.1c0.2,0,0.3,0,0.3,0c0.1,0,0.1-0.1,0.1-0.3h0.1L6.1,15.2z"/>
	</g>
	<g class="st23">
		<path class="st24" d="M4.2,17.1l-2.3,0.4c-0.2,0-0.4,0.1-0.4,0.1c-0.1,0-0.1,0.1-0.1,0.2V18H1.2l-0.3-1.1h0.2l0.1,0.2
			c0,0.1,0.1,0.1,0.1,0.1s0.1,0,0.3,0l1.7-0.3c0.2,0,0.3,0,0.3-0.1c0.1,0,0.1-0.2,0.1-0.4h0.1L4.2,17.1z M5.6,16.2
			c0.1,0,0.2,0,0.2,0c0.1,0.1,0.1,0.2,0.1,0.2c0,0.1,0,0.1-0.1,0.2c0,0.1-0.1,0.1-0.2,0.1s-0.2,0-0.2,0c-0.1,0-0.1-0.1-0.1-0.2
			s0-0.1,0.1-0.2C5.4,16.4,5.5,16.4,5.6,16.2z"/>
	</g>
	<g class="st23">
		<path class="st24" d="M5,19.9L4.8,20l-2.9-0.3l0.4,1c0.1,0.1,0.2,0.2,0.5,0.1H3l-0.1,0.1l-0.8,0.3l-0.7-1.9l0.2-0.1l2.9,0.4
			c-0.1-0.3-0.2-0.5-0.3-0.8c-0.1-0.1-0.2-0.2-0.5-0.2c0,0,0,0-0.1,0v-0.1l0.6-0.2L5,19.9z"/>
	</g>
	<g class="st23">
		<path class="st24" d="M6.4,22.1l-0.2,0.1l-2.9,0.3l0.6,0.9c0.1,0.1,0.2,0.1,0.5,0l0.1-0.1l0.1,0.1L3.9,24l-1.2-1.6l0.2-0.1l3-0.3
			c-0.2-0.2-0.3-0.5-0.5-0.7c-0.1-0.1-0.3-0.2-0.5-0.1c0,0,0,0-0.1,0L4.7,21l0.6-0.4L6.4,22.1z"/>
	</g>
	<g class="st23">
		<path class="st24" d="M6.9,26.4L6.9,26.4c-0.1,0.1-0.2,0.1-0.3,0.1c-0.1,0-0.1,0-0.2,0s-0.1,0-0.2-0.1c-0.1,0-0.1-0.1-0.1-0.2
			s0-0.1,0-0.2s0.1-0.1,0.1-0.2s0.1-0.1,0.1-0.2H6.2c-0.1,0-0.2,0-0.3,0.1c-0.1,0-0.2,0-0.3,0c-0.1,0-0.2-0.1-0.3-0.1l-0.1-0.1
			c0-0.1-0.1-0.1-0.1-0.2s0-0.2,0-0.2c0-0.1,0.1-0.2,0.2-0.3c0.1-0.1,0.3-0.2,0.4-0.2s0.3,0,0.5,0s0.3,0.1,0.4,0.1
			c0.2,0.1,0.3,0.1,0.4,0.2l0.4-0.5c0,0,0.1-0.1,0.1-0.2C7.6,24,7.6,24,7.6,23.9s0.1-0.1,0.1-0.2s0-0.1-0.1-0.2s-0.2-0.1-0.3-0.1
			c-0.1,0-0.2,0-0.2,0s-0.1,0-0.2,0.1c0-0.1,0-0.1,0-0.2v-0.1v-0.1C6.9,23,7,23,7.1,23s0.2,0,0.4,0.1c0.1,0.1,0.3,0.1,0.4,0.2
			s0.1,0.2,0.2,0.2c0.1,0,0,0.2,0,0.3c0,0.1,0,0.2-0.1,0.3c0,0.1-0.1,0.2-0.2,0.3c-0.1,0.1-0.1,0.2-0.2,0.3
			c-0.1,0.1-0.1,0.2-0.2,0.2C7.3,25,7.1,25.2,7,25.3s-0.2,0.3-0.3,0.4c-0.1,0.1-0.2,0.2-0.2,0.3c0,0.1,0,0.1,0,0.2
			c0.1,0,0.2,0,0.3,0L6.9,26.4z M6.9,25.1C6.8,25,6.6,25,6.5,24.9c-0.1,0-0.2-0.1-0.3-0.1s-0.2,0-0.2,0c-0.1,0-0.1,0.1-0.2,0.2
			c-0.2,0.2-0.2,0.3,0,0.5c0,0,0.1,0.1,0.2,0.1s0.2,0,0.3,0c0.1,0,0.2-0.1,0.3-0.1c0.1,0,0.2-0.1,0.2-0.1L6.9,25.1z"/>
	</g>
	<g class="st23">
		<path class="st24" d="M22.4,21.6c-0.1,0.2-0.3,0.2-0.4,0.1s-0.1-0.2-0.1-0.3v-0.1c0.1-0.1,0.2-0.1,0.3-0.1s0.2,0,0.2,0
			s0.1,0,0.1-0.1l0.7-0.9l0.1,0.1l-0.1,0.2c0,0.1,0,0.1,0,0.2c0,0,0.1,0.1,0.2,0.2l2.7,2.1c0.1,0.1,0.2,0.2,0.2,0.2h0.1l0.2-0.1
			l0.1,0.1L26,24.2l-0.1-0.1l0.1-0.2c0-0.1,0-0.2,0-0.3c0-0.1-0.2-0.2-0.3-0.3l-2.4-1.9c-0.2-0.2-0.4-0.2-0.5-0.2c0,0-0.1,0-0.1,0.1
			L22.4,21.6z"/>
	</g>
	<g class="st23">
		<path class="st24" d="M26.4,21.4c-0.7-0.3-1.1-0.7-1.2-1.2c-0.1-0.3,0-0.5,0.1-0.7c0.1-0.1,0.2-0.3,0.3-0.4h0.1l-1.3-0.6
			c-0.2-0.1-0.3-0.1-0.3-0.1c-0.1,0-0.2,0.1-0.3,0.3h-0.1l0.1-0.8l4.4,1.9c0.2,0.1,0.3,0,0.3-0.1c0,0,0,0,0-0.1s0-0.1,0-0.1l0.1,0.1
			l-0.1,0.7h-0.4l0,0c0.1,0.3,0.1,0.6,0.1,0.8c-0.2,0.4-0.5,0.6-1.1,0.6C26.9,21.6,26.6,21.5,26.4,21.4z M26.3,20.9
			c0.5,0.2,0.9,0.3,1.2,0.2c0.2-0.1,0.3-0.2,0.4-0.4c0.1-0.2,0.1-0.3,0-0.5c0-0.1-0.1-0.2-0.2-0.3l-1.8-0.7c-0.1,0-0.2,0-0.4,0.2
			c0,0.1-0.1,0.1-0.1,0.2c-0.1,0.3,0,0.6,0.2,0.9C25.9,20.6,26.1,20.8,26.3,20.9z"/>
	</g>
	<g class="st23">
		<path class="st24" d="M26,16.5c0.1-0.4,0.3-0.6,0.7-0.7c0.2,0,0.3,0,0.5,0L27,17.3c0.2,0,0.3,0.1,0.5,0.1c0.5,0.1,0.9,0,1.1-0.2
			c0.1-0.1,0.2-0.3,0.2-0.5s0-0.4-0.2-0.6l0.1-0.1l0.1,0.1c0.3,0.3,0.4,0.6,0.3,0.9c0,0.2-0.1,0.4-0.3,0.5c-0.3,0.3-0.8,0.4-1.4,0.3
			s-1.1-0.3-1.3-0.6C26.1,17,26,16.6,26,16.5z M26.8,17.2l0.1-1c-0.2,0-0.4,0-0.5,0c-0.1,0.1-0.2,0.1-0.2,0.3c0,0.2,0,0.3,0.1,0.5
			C26.5,17.1,26.6,17.1,26.8,17.2z"/>
	</g>
	<g class="st23">
		<path class="st24" d="M28.8,12.4L28.8,12.4c0.1,0,0.2,0.1,0.3,0.1c0.1,0,0.1,0.1,0.2,0.1l0.1,0.1c0,0.1,0,0.1,0,0.2
			c0,0.1-0.1,0.1-0.2,0.1s-0.1,0.1-0.2,0.1s-0.1,0-0.2,0c0,0,0.1,0,0.1,0.1c0.1,0,0.2,0.1,0.2,0.1c0.1,0.1,0.2,0.1,0.2,0.2
			c0.1,0.1,0.1,0.2,0.1,0.3s0,0.1,0,0.2c0,0.1,0,0.1-0.1,0.2c0,0.1-0.1,0.1-0.2,0.2c-0.1,0-0.2,0.1-0.3,0.1c-0.2,0-0.3,0-0.5-0.1
			c-0.1-0.1-0.2-0.2-0.3-0.3c-0.1-0.1-0.1-0.2-0.2-0.3c0-0.1-0.1-0.3-0.2-0.4L27,13.5c-0.1,0-0.1,0-0.2,0s-0.2,0-0.2,0.1
			c-0.1,0-0.1,0.1-0.2,0.1c0,0.1-0.1,0.1-0.1,0.2c0,0.1,0,0.2,0.1,0.3s0.1,0.1,0.2,0.1c0,0,0.1,0.1,0.2,0.1c0,0.1,0,0.1,0,0.2
			c0,0,0,0.1-0.1,0.1h-0.1c-0.1,0-0.1,0-0.2-0.1s-0.1-0.2-0.2-0.3s-0.1-0.3-0.1-0.4c0-0.1,0-0.2,0-0.3s0.1-0.2,0.1-0.2
			c0.1-0.1,0.1-0.1,0.2-0.1s0.2-0.1,0.3-0.1c0.1,0,0.2,0,0.3,0c0.1,0,0.2,0,0.3,0c0.2,0,0.4,0,0.6-0.1c0.2,0,0.3,0,0.5-0.1
			c0.1,0,0.3,0,0.3-0.1c0.1,0,0.1-0.1,0.1-0.1c0-0.1-0.1-0.1-0.3-0.2L28.8,12.4z M27.9,13.2c0,0.2,0.1,0.3,0.1,0.4
			c0,0.1,0.1,0.2,0.2,0.3s0.1,0.1,0.2,0.1s0.2,0,0.3,0c0.3,0,0.4-0.1,0.4-0.3c0-0.1,0-0.1-0.1-0.2c-0.1-0.1-0.1-0.1-0.2-0.2
			c-0.1,0-0.2-0.1-0.3-0.1c-0.1,0-0.2-0.1-0.2-0.1L27.9,13.2z"/>
	</g>
	<g class="st23">
		<path class="st24" d="M23.5,12.1l4.2-1.4c0.2-0.1,0.4-0.1,0.4-0.1c0.1,0,0.1-0.1,0.2-0.2c0-0.1,0-0.1,0-0.2h0.1l0.4,1.1h-0.1
			c0,0,0,0-0.1-0.1s-0.3-0.2-0.5-0.1l-3.7,1.2c-0.1,0-0.2,0.1-0.3,0.1c-0.1,0.1-0.1,0.2,0,0.4H24L23.5,12.1z"/>
	</g>
	<g class="st23">
		<path class="st25" d="M5.9,12.1c-0.1,0.2-0.2,0.4-0.3,0.5c-0.2,0.2-0.5,0.3-0.9,0.3c-1.6,0-2.5,0.1-2.9,0.1s-0.6,0.1-0.7,0.3
			L1,13.4H0.8l0.3-1.2h0.2v0.2c0,0.1,0.1,0.2,0.2,0.2s0.1,0,0.3,0h0.9l0.2-1.3c-0.6-0.3-1-0.5-1-0.5c-0.1,0-0.2,0-0.3,0.2l-0.1,0.2
			H1.3L1.6,10h0.2v0.2c0,0.2,0.2,0.3,0.6,0.5l2.2,1.2c0.4,0.2,0.6,0.3,0.7,0.4c0.1,0,0.1,0,0.1,0c0-0.1,0-0.1,0-0.2
			c0-0.1,0-0.1,0-0.1c0-0.1,0.1-0.1,0.2-0.2h0.1C5.9,11.9,5.9,12,5.9,12.1z M5,12.5l-1.9-1.1l-0.3,1.1H5z"/>
	</g>
	<g class="st23">
		<path class="st25" d="M6.1,15.2l-4.4,0.1c-0.2,0-0.4,0-0.4,0c-0.1,0-0.2,0.1-0.2,0.2c0,0.1,0,0.1-0.1,0.2H0.8v-1.2h0.1v0.1
			c0,0.2,0.2,0.3,0.5,0.2l3.9,0.1c0.2,0,0.3,0,0.3,0c0.1,0,0.1-0.1,0.1-0.3h0.1L6.1,15.2z"/>
	</g>
	<g class="st23">
		<path class="st25" d="M4.2,17.1l-2.3,0.4c-0.2,0-0.4,0.1-0.4,0.1c-0.1,0-0.1,0.1-0.1,0.2V18H1.2l-0.3-1.1h0.2l0.1,0.2
			c0,0.1,0.1,0.1,0.1,0.1s0.1,0,0.3,0l1.7-0.3c0.2,0,0.3,0,0.3-0.1c0.1,0,0.1-0.2,0.1-0.4h0.1L4.2,17.1z M5.6,16.2
			c0.1,0,0.2,0,0.2,0c0.1,0.1,0.1,0.2,0.1,0.2c0,0.1,0,0.1-0.1,0.2c0,0.1-0.1,0.1-0.2,0.1s-0.2,0-0.2,0c-0.1,0-0.1-0.1-0.1-0.2
			s0-0.1,0.1-0.2C5.4,16.4,5.5,16.4,5.6,16.2z"/>
	</g>
	<g class="st23">
		<path class="st25" d="M5,19.9L4.8,20l-2.9-0.3l0.4,1c0.1,0.1,0.2,0.2,0.5,0.1H3l-0.1,0.1l-0.8,0.3l-0.7-1.9l0.2-0.1l2.9,0.4
			c-0.1-0.3-0.2-0.5-0.3-0.8c-0.1-0.1-0.2-0.2-0.5-0.2c0,0,0,0-0.1,0v-0.1l0.6-0.2L5,19.9z"/>
	</g>
	<g class="st23">
		<path class="st25" d="M6.4,22.1l-0.2,0.1l-2.9,0.3l0.6,0.9c0.1,0.1,0.2,0.1,0.5,0l0.1-0.1l0.1,0.1L3.9,24l-1.2-1.6l0.2-0.1l3-0.3
			c-0.2-0.2-0.3-0.5-0.5-0.7c-0.1-0.1-0.3-0.2-0.5-0.1c0,0,0,0-0.1,0L4.7,21l0.6-0.4L6.4,22.1z"/>
	</g>
	<g class="st23">
		<path class="st25" d="M6.9,26.4L6.9,26.4c-0.1,0.1-0.2,0.1-0.3,0.1c-0.1,0-0.1,0-0.2,0s-0.1,0-0.2-0.1c-0.1,0-0.1-0.1-0.1-0.2
			s0-0.1,0-0.2s0.1-0.1,0.1-0.2s0.1-0.1,0.1-0.2H6.2c-0.1,0-0.2,0-0.3,0.1c-0.1,0-0.2,0-0.3,0c-0.1,0-0.2-0.1-0.3-0.1l-0.1-0.1
			c0-0.1-0.1-0.1-0.1-0.2s0-0.2,0-0.2c0-0.1,0.1-0.2,0.2-0.3c0.1-0.1,0.3-0.2,0.4-0.2s0.3,0,0.5,0s0.3,0.1,0.4,0.1
			c0.2,0.1,0.3,0.1,0.4,0.2l0.4-0.5c0,0,0.1-0.1,0.1-0.2C7.6,24,7.6,24,7.6,23.9s0.1-0.1,0.1-0.2s0-0.1-0.1-0.2s-0.2-0.1-0.3-0.1
			c-0.1,0-0.2,0-0.2,0s-0.1,0-0.2,0.1c0-0.1,0-0.1,0-0.2v-0.1v-0.1C6.9,23,7,23,7.1,23s0.2,0,0.4,0.1c0.1,0.1,0.3,0.1,0.4,0.2
			s0.1,0.2,0.2,0.2c0.1,0,0,0.2,0,0.3c0,0.1,0,0.2-0.1,0.3c0,0.1-0.1,0.2-0.2,0.3c-0.1,0.1-0.1,0.2-0.2,0.3
			c-0.1,0.1-0.1,0.2-0.2,0.2C7.3,25,7.1,25.2,7,25.3s-0.2,0.3-0.3,0.4c-0.1,0.1-0.2,0.2-0.2,0.3c0,0.1,0,0.1,0,0.2
			c0.1,0,0.2,0,0.3,0L6.9,26.4z M6.9,25.1C6.8,25,6.6,25,6.5,24.9c-0.1,0-0.2-0.1-0.3-0.1s-0.2,0-0.2,0c-0.1,0-0.1,0.1-0.2,0.2
			c-0.2,0.2-0.2,0.3,0,0.5c0,0,0.1,0.1,0.2,0.1s0.2,0,0.3,0c0.1,0,0.2-0.1,0.3-0.1c0.1,0,0.2-0.1,0.2-0.1L6.9,25.1z"/>
	</g>
	<g class="st23">
		<path class="st25" d="M22.4,21.6c-0.1,0.2-0.3,0.2-0.4,0.1s-0.1-0.2-0.1-0.3v-0.1c0.1-0.1,0.2-0.1,0.3-0.1s0.2,0,0.2,0
			s0.1,0,0.1-0.1l0.7-0.9l0.1,0.1l-0.1,0.2c0,0.1,0,0.1,0,0.2c0,0,0.1,0.1,0.2,0.2l2.7,2.1c0.1,0.1,0.2,0.2,0.2,0.2h0.1l0.2-0.1
			l0.1,0.1L26,24.2l-0.1-0.1l0.1-0.2c0-0.1,0-0.2,0-0.3c0-0.1-0.2-0.2-0.3-0.3l-2.4-1.9c-0.2-0.2-0.4-0.2-0.5-0.2c0,0-0.1,0-0.1,0.1
			L22.4,21.6z"/>
	</g>
	<g class="st23">
		<path class="st25" d="M26.4,21.4c-0.7-0.3-1.1-0.7-1.2-1.2c-0.1-0.3,0-0.5,0.1-0.7c0.1-0.1,0.2-0.3,0.3-0.4h0.1l-1.3-0.6
			c-0.2-0.1-0.3-0.1-0.3-0.1c-0.1,0-0.2,0.1-0.3,0.3h-0.1l0.1-0.8l4.4,1.9c0.2,0.1,0.3,0,0.3-0.1c0,0,0,0,0-0.1s0-0.1,0-0.1l0.1,0.1
			l-0.1,0.7h-0.4l0,0c0.1,0.3,0.1,0.6,0.1,0.8c-0.2,0.4-0.5,0.6-1.1,0.6C26.9,21.6,26.6,21.5,26.4,21.4z M26.3,20.9
			c0.5,0.2,0.9,0.3,1.2,0.2c0.2-0.1,0.3-0.2,0.4-0.4c0.1-0.2,0.1-0.3,0-0.5c0-0.1-0.1-0.2-0.2-0.3l-1.8-0.7c-0.1,0-0.2,0-0.4,0.2
			c0,0.1-0.1,0.1-0.1,0.2c-0.1,0.3,0,0.6,0.2,0.9C25.9,20.6,26.1,20.8,26.3,20.9z"/>
	</g>
	<g class="st23">
		<path class="st25" d="M26,16.5c0.1-0.4,0.3-0.6,0.7-0.7c0.2,0,0.3,0,0.5,0L27,17.3c0.2,0,0.3,0.1,0.5,0.1c0.5,0.1,0.9,0,1.1-0.2
			c0.1-0.1,0.2-0.3,0.2-0.5s0-0.4-0.2-0.6l0.1-0.1l0.1,0.1c0.3,0.3,0.4,0.6,0.3,0.9c0,0.2-0.1,0.4-0.3,0.5c-0.3,0.3-0.8,0.4-1.4,0.3
			s-1.1-0.3-1.3-0.6C26.1,17,26,16.6,26,16.5z M26.8,17.2l0.1-1c-0.2,0-0.4,0-0.5,0c-0.1,0.1-0.2,0.1-0.2,0.3c0,0.2,0,0.3,0.1,0.5
			C26.5,17.1,26.6,17.1,26.8,17.2z"/>
	</g>
	<g class="st23">
		<path class="st25" d="M28.8,12.4L28.8,12.4c0.1,0,0.2,0.1,0.3,0.1c0.1,0,0.1,0.1,0.2,0.1l0.1,0.1c0,0.1,0,0.1,0,0.2
			c0,0.1-0.1,0.1-0.2,0.1s-0.1,0.1-0.2,0.1s-0.1,0-0.2,0c0,0,0.1,0,0.1,0.1c0.1,0,0.2,0.1,0.2,0.1c0.1,0.1,0.2,0.1,0.2,0.2
			c0.1,0.1,0.1,0.2,0.1,0.3s0,0.1,0,0.2c0,0.1,0,0.1-0.1,0.2c0,0.1-0.1,0.1-0.2,0.2c-0.1,0-0.2,0.1-0.3,0.1c-0.2,0-0.3,0-0.5-0.1
			c-0.1-0.1-0.2-0.2-0.3-0.3c-0.1-0.1-0.1-0.2-0.2-0.3c0-0.1-0.1-0.3-0.2-0.4L27,13.5c-0.1,0-0.1,0-0.2,0s-0.2,0-0.2,0.1
			c-0.1,0-0.1,0.1-0.2,0.1c0,0.1-0.1,0.1-0.1,0.2c0,0.1,0,0.2,0.1,0.3s0.1,0.1,0.2,0.1c0,0,0.1,0.1,0.2,0.1c0,0.1,0,0.1,0,0.2
			c0,0,0,0.1-0.1,0.1h-0.1c-0.1,0-0.1,0-0.2-0.1s-0.1-0.2-0.2-0.3s-0.1-0.3-0.1-0.4c0-0.1,0-0.2,0-0.3s0.1-0.2,0.1-0.2
			c0.1-0.1,0.1-0.1,0.2-0.1s0.2-0.1,0.3-0.1c0.1,0,0.2,0,0.3,0c0.1,0,0.2,0,0.3,0c0.2,0,0.4,0,0.6-0.1c0.2,0,0.3,0,0.5-0.1
			c0.1,0,0.3,0,0.3-0.1c0.1,0,0.1-0.1,0.1-0.1c0-0.1-0.1-0.1-0.3-0.2L28.8,12.4z M27.9,13.2c0,0.2,0.1,0.3,0.1,0.4
			c0,0.1,0.1,0.2,0.2,0.3s0.1,0.1,0.2,0.1s0.2,0,0.3,0c0.3,0,0.4-0.1,0.4-0.3c0-0.1,0-0.1-0.1-0.2c-0.1-0.1-0.1-0.1-0.2-0.2
			c-0.1,0-0.2-0.1-0.3-0.1c-0.1,0-0.2-0.1-0.2-0.1L27.9,13.2z"/>
	</g>
	<g class="st23">
		<path class="st25" d="M23.5,12.1l4.2-1.4c0.2-0.1,0.4-0.1,0.4-0.1c0.1,0,0.1-0.1,0.2-0.2c0-0.1,0-0.1,0-0.2h0.1l0.4,1.1h-0.1
			c0,0,0,0-0.1-0.1s-0.3-0.2-0.5-0.1l-3.7,1.2c-0.1,0-0.2,0.1-0.3,0.1c-0.1,0.1-0.1,0.2,0,0.4H24L23.5,12.1z"/>
	</g>
	<g class="st23">
		<path class="st0" d="M5.9,12.1c-0.1,0.2-0.2,0.4-0.3,0.5c-0.2,0.2-0.5,0.3-0.9,0.3c-1.6,0-2.5,0.1-2.9,0.1s-0.6,0.1-0.7,0.3
			L1,13.4H0.8l0.3-1.2h0.2v0.2c0,0.1,0.1,0.2,0.2,0.2s0.1,0,0.3,0h0.9l0.2-1.3c-0.6-0.3-1-0.5-1-0.5c-0.1,0-0.2,0-0.3,0.2l-0.1,0.2
			H1.3L1.6,10h0.2v0.2c0,0.2,0.2,0.3,0.6,0.5l2.2,1.2c0.4,0.2,0.6,0.3,0.7,0.4c0.1,0,0.1,0,0.1,0c0-0.1,0-0.1,0-0.2
			c0-0.1,0-0.1,0-0.1c0-0.1,0.1-0.1,0.2-0.2h0.1C5.9,11.9,5.9,12,5.9,12.1z M5,12.5l-1.9-1.1l-0.3,1.1H5z"/>
	</g>
	<g class="st23">
		<path class="st0" d="M6.1,15.2l-4.4,0.1c-0.2,0-0.4,0-0.4,0c-0.1,0-0.2,0.1-0.2,0.2c0,0.1,0,0.1-0.1,0.2H0.8v-1.2h0.1v0.1
			c0,0.2,0.2,0.3,0.5,0.2l3.9,0.1c0.2,0,0.3,0,0.3,0c0.1,0,0.1-0.1,0.1-0.3h0.1L6.1,15.2z"/>
	</g>
	<g class="st23">
		<path class="st0" d="M4.2,17.1l-2.3,0.4c-0.2,0-0.4,0.1-0.4,0.1c-0.1,0-0.1,0.1-0.1,0.2V18H1.2l-0.3-1.1h0.2l0.1,0.2
			c0,0.1,0.1,0.1,0.1,0.1s0.1,0,0.3,0l1.7-0.3c0.2,0,0.3,0,0.3-0.1c0.1,0,0.1-0.2,0.1-0.4h0.1L4.2,17.1z M5.6,16.2
			c0.1,0,0.2,0,0.2,0c0.1,0.1,0.1,0.2,0.1,0.2c0,0.1,0,0.1-0.1,0.2c0,0.1-0.1,0.1-0.2,0.1s-0.2,0-0.2,0c-0.1,0-0.1-0.1-0.1-0.2
			s0-0.1,0.1-0.2C5.4,16.4,5.5,16.4,5.6,16.2z"/>
	</g>
	<g class="st23">
		<path class="st0" d="M5,19.9L4.8,20l-2.9-0.3l0.4,1c0.1,0.1,0.2,0.2,0.5,0.1H3l-0.1,0.1l-0.8,0.3l-0.7-1.9l0.2-0.1l2.9,0.4
			c-0.1-0.3-0.2-0.5-0.3-0.8c-0.1-0.1-0.2-0.2-0.5-0.2c0,0,0,0-0.1,0v-0.1l0.6-0.2L5,19.9z"/>
	</g>
	<g class="st23">
		<path class="st0" d="M6.4,22.1l-0.2,0.1l-2.9,0.3l0.6,0.9c0.1,0.1,0.2,0.1,0.5,0l0.1-0.1l0.1,0.1L3.9,24l-1.2-1.6l0.2-0.1l3-0.3
			c-0.2-0.2-0.3-0.5-0.5-0.7c-0.1-0.1-0.3-0.2-0.5-0.1c0,0,0,0-0.1,0L4.7,21l0.6-0.4L6.4,22.1z"/>
	</g>
	<g class="st23">
		<path class="st0" d="M6.9,26.4L6.9,26.4c-0.1,0.1-0.2,0.1-0.3,0.1c-0.1,0-0.1,0-0.2,0s-0.1,0-0.2-0.1c-0.1,0-0.1-0.1-0.1-0.2
			s0-0.1,0-0.2s0.1-0.1,0.1-0.2s0.1-0.1,0.1-0.2H6.2c-0.1,0-0.2,0-0.3,0.1c-0.1,0-0.2,0-0.3,0c-0.1,0-0.2-0.1-0.3-0.1l-0.1-0.1
			c0-0.1-0.1-0.1-0.1-0.2s0-0.2,0-0.2c0-0.1,0.1-0.2,0.2-0.3c0.1-0.1,0.3-0.2,0.4-0.2s0.3,0,0.5,0s0.3,0.1,0.4,0.1
			c0.2,0.1,0.3,0.1,0.4,0.2l0.4-0.5c0,0,0.1-0.1,0.1-0.2C7.6,24,7.6,24,7.6,23.9s0.1-0.1,0.1-0.2s0-0.1-0.1-0.2s-0.2-0.1-0.3-0.1
			c-0.1,0-0.2,0-0.2,0s-0.1,0-0.2,0.1c0-0.1,0-0.1,0-0.2v-0.1v-0.1C6.9,23,7,23,7.1,23s0.2,0,0.4,0.1c0.1,0.1,0.3,0.1,0.4,0.2
			s0.1,0.2,0.2,0.2c0.1,0,0,0.2,0,0.3c0,0.1,0,0.2-0.1,0.3c0,0.1-0.1,0.2-0.2,0.3c-0.1,0.1-0.1,0.2-0.2,0.3
			c-0.1,0.1-0.1,0.2-0.2,0.2C7.3,25,7.1,25.2,7,25.3s-0.2,0.3-0.3,0.4c-0.1,0.1-0.2,0.2-0.2,0.3c0,0.1,0,0.1,0,0.2
			c0.1,0,0.2,0,0.3,0L6.9,26.4z M6.9,25.1C6.8,25,6.6,25,6.5,24.9c-0.1,0-0.2-0.1-0.3-0.1s-0.2,0-0.2,0c-0.1,0-0.1,0.1-0.2,0.2
			c-0.2,0.2-0.2,0.3,0,0.5c0,0,0.1,0.1,0.2,0.1s0.2,0,0.3,0c0.1,0,0.2-0.1,0.3-0.1c0.1,0,0.2-0.1,0.2-0.1L6.9,25.1z"/>
	</g>
	<g class="st23">
		<path class="st0" d="M22.4,21.6c-0.1,0.2-0.3,0.2-0.4,0.1s-0.1-0.2-0.1-0.3v-0.1c0.1-0.1,0.2-0.1,0.3-0.1s0.2,0,0.2,0
			s0.1,0,0.1-0.1l0.7-0.9l0.1,0.1l-0.1,0.2c0,0.1,0,0.1,0,0.2c0,0,0.1,0.1,0.2,0.2l2.7,2.1c0.1,0.1,0.2,0.2,0.2,0.2h0.1l0.2-0.1
			l0.1,0.1L26,24.2l-0.1-0.1l0.1-0.2c0-0.1,0-0.2,0-0.3c0-0.1-0.2-0.2-0.3-0.3l-2.4-1.9c-0.2-0.2-0.4-0.2-0.5-0.2c0,0-0.1,0-0.1,0.1
			L22.4,21.6z"/>
	</g>
	<g class="st23">
		<path class="st0" d="M26.4,21.4c-0.7-0.3-1.1-0.7-1.2-1.2c-0.1-0.3,0-0.5,0.1-0.7c0.1-0.1,0.2-0.3,0.3-0.4h0.1l-1.3-0.6
			c-0.2-0.1-0.3-0.1-0.3-0.1c-0.1,0-0.2,0.1-0.3,0.3h-0.1l0.1-0.8l4.4,1.9c0.2,0.1,0.3,0,0.3-0.1c0,0,0,0,0-0.1s0-0.1,0-0.1l0.1,0.1
			l-0.1,0.7h-0.4l0,0c0.1,0.3,0.1,0.6,0.1,0.8c-0.2,0.4-0.5,0.6-1.1,0.6C26.9,21.6,26.6,21.5,26.4,21.4z M26.3,20.9
			c0.5,0.2,0.9,0.3,1.2,0.2c0.2-0.1,0.3-0.2,0.4-0.4c0.1-0.2,0.1-0.3,0-0.5c0-0.1-0.1-0.2-0.2-0.3l-1.8-0.7c-0.1,0-0.2,0-0.4,0.2
			c0,0.1-0.1,0.1-0.1,0.2c-0.1,0.3,0,0.6,0.2,0.9C25.9,20.6,26.1,20.8,26.3,20.9z"/>
	</g>
	<g class="st23">
		<path class="st0" d="M26,16.5c0.1-0.4,0.3-0.6,0.7-0.7c0.2,0,0.3,0,0.5,0L27,17.3c0.2,0,0.3,0.1,0.5,0.1c0.5,0.1,0.9,0,1.1-0.2
			c0.1-0.1,0.2-0.3,0.2-0.5s0-0.4-0.2-0.6l0.1-0.1l0.1,0.1c0.3,0.3,0.4,0.6,0.3,0.9c0,0.2-0.1,0.4-0.3,0.5c-0.3,0.3-0.8,0.4-1.4,0.3
			s-1.1-0.3-1.3-0.6C26.1,17,26,16.6,26,16.5z M26.8,17.2l0.1-1c-0.2,0-0.4,0-0.5,0c-0.1,0.1-0.2,0.1-0.2,0.3c0,0.2,0,0.3,0.1,0.5
			C26.5,17.1,26.6,17.1,26.8,17.2z"/>
	</g>
	<g class="st23">
		<path class="st0" d="M28.8,12.4L28.8,12.4c0.1,0,0.2,0.1,0.3,0.1c0.1,0,0.1,0.1,0.2,0.1l0.1,0.1c0,0.1,0,0.1,0,0.2
			c0,0.1-0.1,0.1-0.2,0.1s-0.1,0.1-0.2,0.1s-0.1,0-0.2,0c0,0,0.1,0,0.1,0.1c0.1,0,0.2,0.1,0.2,0.1c0.1,0.1,0.2,0.1,0.2,0.2
			c0.1,0.1,0.1,0.2,0.1,0.3s0,0.1,0,0.2c0,0.1,0,0.1-0.1,0.2c0,0.1-0.1,0.1-0.2,0.2c-0.1,0-0.2,0.1-0.3,0.1c-0.2,0-0.3,0-0.5-0.1
			c-0.1-0.1-0.2-0.2-0.3-0.3c-0.1-0.1-0.1-0.2-0.2-0.3c0-0.1-0.1-0.3-0.2-0.4L27,13.5c-0.1,0-0.1,0-0.2,0s-0.2,0-0.2,0.1
			c-0.1,0-0.1,0.1-0.2,0.1c0,0.1-0.1,0.1-0.1,0.2c0,0.1,0,0.2,0.1,0.3s0.1,0.1,0.2,0.1c0,0,0.1,0.1,0.2,0.1c0,0.1,0,0.1,0,0.2
			c0,0,0,0.1-0.1,0.1h-0.1c-0.1,0-0.1,0-0.2-0.1s-0.1-0.2-0.2-0.3s-0.1-0.3-0.1-0.4c0-0.1,0-0.2,0-0.3s0.1-0.2,0.1-0.2
			c0.1-0.1,0.1-0.1,0.2-0.1s0.2-0.1,0.3-0.1c0.1,0,0.2,0,0.3,0c0.1,0,0.2,0,0.3,0c0.2,0,0.4,0,0.6-0.1c0.2,0,0.3,0,0.5-0.1
			c0.1,0,0.3,0,0.3-0.1c0.1,0,0.1-0.1,0.1-0.1c0-0.1-0.1-0.1-0.3-0.2L28.8,12.4z M27.9,13.2c0,0.2,0.1,0.3,0.1,0.4
			c0,0.1,0.1,0.2,0.2,0.3s0.1,0.1,0.2,0.1s0.2,0,0.3,0c0.3,0,0.4-0.1,0.4-0.3c0-0.1,0-0.1-0.1-0.2c-0.1-0.1-0.1-0.1-0.2-0.2
			c-0.1,0-0.2-0.1-0.3-0.1c-0.1,0-0.2-0.1-0.2-0.1L27.9,13.2z"/>
	</g>
	<g class="st23">
		<path class="st0" d="M23.5,12.1l4.2-1.4c0.2-0.1,0.4-0.1,0.4-0.1c0.1,0,0.1-0.1,0.2-0.2c0-0.1,0-0.1,0-0.2h0.1l0.4,1.1h-0.1
			c0,0,0,0-0.1-0.1s-0.3-0.2-0.5-0.1l-3.7,1.2c-0.1,0-0.2,0.1-0.3,0.1c-0.1,0.1-0.1,0.2,0,0.4H24L23.5,12.1z"/>
	</g>
	<g class="st23">
		<path class="st26" d="M5.9,12.1c-0.1,0.2-0.2,0.4-0.3,0.5c-0.2,0.2-0.5,0.3-0.9,0.3c-1.6,0-2.5,0.1-2.9,0.1s-0.6,0.1-0.7,0.3
			L1,13.4H0.8l0.3-1.2h0.2v0.2c0,0.1,0.1,0.2,0.2,0.2s0.1,0,0.3,0h0.9l0.2-1.3c-0.6-0.3-1-0.5-1-0.5c-0.1,0-0.2,0-0.3,0.2l-0.1,0.2
			H1.3L1.6,10h0.2v0.2c0,0.2,0.2,0.3,0.6,0.5l2.2,1.2c0.4,0.2,0.6,0.3,0.7,0.4c0.1,0,0.1,0,0.1,0c0-0.1,0-0.1,0-0.2
			c0-0.1,0-0.1,0-0.1c0-0.1,0.1-0.1,0.2-0.2h0.1C5.9,11.9,5.9,12,5.9,12.1z M5,12.5l-1.9-1.1l-0.3,1.1H5z"/>
	</g>
	<g class="st23">
		<path class="st26" d="M6.1,15.2l-4.4,0.1c-0.2,0-0.4,0-0.4,0c-0.1,0-0.2,0.1-0.2,0.2c0,0.1,0,0.1-0.1,0.2H0.8v-1.2h0.1v0.1
			c0,0.2,0.2,0.3,0.5,0.2l3.9,0.1c0.2,0,0.3,0,0.3,0c0.1,0,0.1-0.1,0.1-0.3h0.1L6.1,15.2z"/>
	</g>
	<g class="st23">
		<path class="st26" d="M4.2,17.1l-2.3,0.4c-0.2,0-0.4,0.1-0.4,0.1c-0.1,0-0.1,0.1-0.1,0.2V18H1.2l-0.3-1.1h0.2l0.1,0.2
			c0,0.1,0.1,0.1,0.1,0.1s0.1,0,0.3,0l1.7-0.3c0.2,0,0.3,0,0.3-0.1c0.1,0,0.1-0.2,0.1-0.4h0.1L4.2,17.1z M5.6,16.2
			c0.1,0,0.2,0,0.2,0c0.1,0.1,0.1,0.2,0.1,0.2c0,0.1,0,0.1-0.1,0.2c0,0.1-0.1,0.1-0.2,0.1s-0.2,0-0.2,0c-0.1,0-0.1-0.1-0.1-0.2
			s0-0.1,0.1-0.2C5.4,16.4,5.5,16.4,5.6,16.2z"/>
	</g>
	<g class="st23">
		<path class="st26" d="M5,19.9L4.8,20l-2.9-0.3l0.4,1c0.1,0.1,0.2,0.2,0.5,0.1H3l-0.1,0.1l-0.8,0.3l-0.7-1.9l0.2-0.1l2.9,0.4
			c-0.1-0.3-0.2-0.5-0.3-0.8c-0.1-0.1-0.2-0.2-0.5-0.2c0,0,0,0-0.1,0v-0.1l0.6-0.2L5,19.9z"/>
	</g>
	<g class="st23">
		<path class="st26" d="M6.4,22.1l-0.2,0.1l-2.9,0.3l0.6,0.9c0.1,0.1,0.2,0.1,0.5,0l0.1-0.1l0.1,0.1L3.9,24l-1.2-1.6l0.2-0.1l3-0.3
			c-0.2-0.2-0.3-0.5-0.5-0.7c-0.1-0.1-0.3-0.2-0.5-0.1c0,0,0,0-0.1,0L4.7,21l0.6-0.4L6.4,22.1z"/>
	</g>
	<g class="st23">
		<path class="st26" d="M6.9,26.4L6.9,26.4c-0.1,0.1-0.2,0.1-0.3,0.1c-0.1,0-0.1,0-0.2,0s-0.1,0-0.2-0.1c-0.1,0-0.1-0.1-0.1-0.2
			s0-0.1,0-0.2s0.1-0.1,0.1-0.2s0.1-0.1,0.1-0.2H6.2c-0.1,0-0.2,0-0.3,0.1c-0.1,0-0.2,0-0.3,0c-0.1,0-0.2-0.1-0.3-0.1l-0.1-0.1
			c0-0.1-0.1-0.1-0.1-0.2s0-0.2,0-0.2c0-0.1,0.1-0.2,0.2-0.3c0.1-0.1,0.3-0.2,0.4-0.2s0.3,0,0.5,0s0.3,0.1,0.4,0.1
			c0.2,0.1,0.3,0.1,0.4,0.2l0.4-0.5c0,0,0.1-0.1,0.1-0.2C7.6,24,7.6,24,7.6,23.9s0.1-0.1,0.1-0.2s0-0.1-0.1-0.2s-0.2-0.1-0.3-0.1
			c-0.1,0-0.2,0-0.2,0s-0.1,0-0.2,0.1c0-0.1,0-0.1,0-0.2v-0.1v-0.1C6.9,23,7,23,7.1,23s0.2,0,0.4,0.1c0.1,0.1,0.3,0.1,0.4,0.2
			s0.1,0.2,0.2,0.2c0.1,0,0,0.2,0,0.3c0,0.1,0,0.2-0.1,0.3c0,0.1-0.1,0.2-0.2,0.3c-0.1,0.1-0.1,0.2-0.2,0.3
			c-0.1,0.1-0.1,0.2-0.2,0.2C7.3,25,7.1,25.2,7,25.3s-0.2,0.3-0.3,0.4c-0.1,0.1-0.2,0.2-0.2,0.3c0,0.1,0,0.1,0,0.2
			c0.1,0,0.2,0,0.3,0L6.9,26.4z M6.9,25.1C6.8,25,6.6,25,6.5,24.9c-0.1,0-0.2-0.1-0.3-0.1s-0.2,0-0.2,0c-0.1,0-0.1,0.1-0.2,0.2
			c-0.2,0.2-0.2,0.3,0,0.5c0,0,0.1,0.1,0.2,0.1s0.2,0,0.3,0c0.1,0,0.2-0.1,0.3-0.1c0.1,0,0.2-0.1,0.2-0.1L6.9,25.1z"/>
	</g>
	<g class="st23">
		<path class="st26" d="M22.4,21.6c-0.1,0.2-0.3,0.2-0.4,0.1s-0.1-0.2-0.1-0.3v-0.1c0.1-0.1,0.2-0.1,0.3-0.1s0.2,0,0.2,0
			s0.1,0,0.1-0.1l0.7-0.9l0.1,0.1l-0.1,0.2c0,0.1,0,0.1,0,0.2c0,0,0.1,0.1,0.2,0.2l2.7,2.1c0.1,0.1,0.2,0.2,0.2,0.2h0.1l0.2-0.1
			l0.1,0.1L26,24.2l-0.1-0.1l0.1-0.2c0-0.1,0-0.2,0-0.3c0-0.1-0.2-0.2-0.3-0.3l-2.4-1.9c-0.2-0.2-0.4-0.2-0.5-0.2c0,0-0.1,0-0.1,0.1
			L22.4,21.6z"/>
	</g>
	<g class="st23">
		<path class="st26" d="M26.4,21.4c-0.7-0.3-1.1-0.7-1.2-1.2c-0.1-0.3,0-0.5,0.1-0.7c0.1-0.1,0.2-0.3,0.3-0.4h0.1l-1.3-0.6
			c-0.2-0.1-0.3-0.1-0.3-0.1c-0.1,0-0.2,0.1-0.3,0.3h-0.1l0.1-0.8l4.4,1.9c0.2,0.1,0.3,0,0.3-0.1c0,0,0,0,0-0.1s0-0.1,0-0.1l0.1,0.1
			l-0.1,0.7h-0.4l0,0c0.1,0.3,0.1,0.6,0.1,0.8c-0.2,0.4-0.5,0.6-1.1,0.6C26.9,21.6,26.6,21.5,26.4,21.4z M26.3,20.9
			c0.5,0.2,0.9,0.3,1.2,0.2c0.2-0.1,0.3-0.2,0.4-0.4c0.1-0.2,0.1-0.3,0-0.5c0-0.1-0.1-0.2-0.2-0.3l-1.8-0.7c-0.1,0-0.2,0-0.4,0.2
			c0,0.1-0.1,0.1-0.1,0.2c-0.1,0.3,0,0.6,0.2,0.9C25.9,20.6,26.1,20.8,26.3,20.9z"/>
	</g>
	<g class="st23">
		<path class="st26" d="M26,16.5c0.1-0.4,0.3-0.6,0.7-0.7c0.2,0,0.3,0,0.5,0L27,17.3c0.2,0,0.3,0.1,0.5,0.1c0.5,0.1,0.9,0,1.1-0.2
			c0.1-0.1,0.2-0.3,0.2-0.5s0-0.4-0.2-0.6l0.1-0.1l0.1,0.1c0.3,0.3,0.4,0.6,0.3,0.9c0,0.2-0.1,0.4-0.3,0.5c-0.3,0.3-0.8,0.4-1.4,0.3
			s-1.1-0.3-1.3-0.6C26.1,17,26,16.6,26,16.5z M26.8,17.2l0.1-1c-0.2,0-0.4,0-0.5,0c-0.1,0.1-0.2,0.1-0.2,0.3c0,0.2,0,0.3,0.1,0.5
			C26.5,17.1,26.6,17.1,26.8,17.2z"/>
	</g>
	<g class="st23">
		<path class="st26" d="M28.8,12.4L28.8,12.4c0.1,0,0.2,0.1,0.3,0.1c0.1,0,0.1,0.1,0.2,0.1l0.1,0.1c0,0.1,0,0.1,0,0.2
			c0,0.1-0.1,0.1-0.2,0.1s-0.1,0.1-0.2,0.1s-0.1,0-0.2,0c0,0,0.1,0,0.1,0.1c0.1,0,0.2,0.1,0.2,0.1c0.1,0.1,0.2,0.1,0.2,0.2
			c0.1,0.1,0.1,0.2,0.1,0.3s0,0.1,0,0.2c0,0.1,0,0.1-0.1,0.2c0,0.1-0.1,0.1-0.2,0.2c-0.1,0-0.2,0.1-0.3,0.1c-0.2,0-0.3,0-0.5-0.1
			c-0.1-0.1-0.2-0.2-0.3-0.3c-0.1-0.1-0.1-0.2-0.2-0.3c0-0.1-0.1-0.3-0.2-0.4L27,13.5c-0.1,0-0.1,0-0.2,0s-0.2,0-0.2,0.1
			c-0.1,0-0.1,0.1-0.2,0.1c0,0.1-0.1,0.1-0.1,0.2c0,0.1,0,0.2,0.1,0.3s0.1,0.1,0.2,0.1c0,0,0.1,0.1,0.2,0.1c0,0.1,0,0.1,0,0.2
			c0,0,0,0.1-0.1,0.1h-0.1c-0.1,0-0.1,0-0.2-0.1s-0.1-0.2-0.2-0.3s-0.1-0.3-0.1-0.4c0-0.1,0-0.2,0-0.3s0.1-0.2,0.1-0.2
			c0.1-0.1,0.1-0.1,0.2-0.1s0.2-0.1,0.3-0.1c0.1,0,0.2,0,0.3,0c0.1,0,0.2,0,0.3,0c0.2,0,0.4,0,0.6-0.1c0.2,0,0.3,0,0.5-0.1
			c0.1,0,0.3,0,0.3-0.1c0.1,0,0.1-0.1,0.1-0.1c0-0.1-0.1-0.1-0.3-0.2L28.8,12.4z M27.9,13.2c0,0.2,0.1,0.3,0.1,0.4
			c0,0.1,0.1,0.2,0.2,0.3s0.1,0.1,0.2,0.1s0.2,0,0.3,0c0.3,0,0.4-0.1,0.4-0.3c0-0.1,0-0.1-0.1-0.2c-0.1-0.1-0.1-0.1-0.2-0.2
			c-0.1,0-0.2-0.1-0.3-0.1c-0.1,0-0.2-0.1-0.2-0.1L27.9,13.2z"/>
	</g>
	<g class="st23">
		<path class="st26" d="M23.5,12.1l4.2-1.4c0.2-0.1,0.4-0.1,0.4-0.1c0.1,0,0.1-0.1,0.2-0.2c0-0.1,0-0.1,0-0.2h0.1l0.4,1.1h-0.1
			c0,0,0,0-0.1-0.1s-0.3-0.2-0.5-0.1l-3.7,1.2c-0.1,0-0.2,0.1-0.3,0.1c-0.1,0.1-0.1,0.2,0,0.4H24L23.5,12.1z"/>
	</g>
</g>
<g>
	<path class="st27" d="M48,3.7c0,2.5-2.2,4.4-4.4,5.2l1.9-4.1H34.9l1-2.9l0.6,0.9h9.9l0.3-0.6L48,3.5V3.7z M41.8,11
		c0,3.5-2.5,4.5-5.7,4.5c1.3-0.9,3.5-2.8,3.5-4.6V6.2l2.2,2V11z"/>
	<path class="st27" d="M55.9,10.7h-2.4V2l2.4,1.1V10.7z M62.7,9.8c0,0.6-0.2,1.4-0.5,2c-1.2,2.8-4.1,3.7-7,3.7
		c1.3-0.8,4.9-3.5,4.9-5.3V2l2.6,0.7V9.8z"/>
	<path class="st27" d="M81.5,7.6h-2.7v3c0,4.3-3.5,4.6-6.8,5.3c1.6-1.2,4.6-3.1,4.6-5.4V7.6h-4v4.2h-2.2V7.6h-3.5l1-2.8l0.6,0.9h1.9
		V2.4l2.2,1.3v2h4V1.9l2.3,0.9v2.8h2.7L81.5,7.6L81.5,7.6z M81.7,4.2l-2.4-1.8c0.4-0.1,0.8-0.2,1.2-0.2c0.7,0,1.7,0.2,1.7,1.1
		C82.2,3.6,81.9,3.9,81.7,4.2z M83,2.3l-2.5-1.9c0.4-0.1,0.8-0.2,1.3-0.2c0.8,0,1.7,0.3,1.7,1.2C83.5,1.7,83.3,2,83,2.3z"/>
	<path class="st27" d="M48,17.6c0,2.5-2.2,4.4-4.4,5.2l1.8-4.1H34.8l1-2.9l0.6,0.8h9.9l0.3-0.6l1.4,1.4C48,17.4,48,17.6,48,17.6z
		 M41.8,25c0,3.5-2.5,4.5-5.7,4.5c1.3-0.9,3.5-2.8,3.5-4.6v-4.6l2.2,2V25z"/>
	<path class="st27" d="M63.1,16.5c-0.7,2.3-2.3,4.8-4.2,6.3l1.5,0.8v5.6H58v-5.8c-1.2,0.7-2.5,1.1-3.9,1.1c-1,0-1.9-0.2-2.9-0.5
		c1.1-0.5,5.5-2.3,6.4-3.1c1.4-1.2,2.7-3.8,3.4-5.5L63.1,16.5z"/>
	<path class="st27" d="M81,22.5h-6.9l2.3,0.8c0.1,0.4,0.1,0.9,0.1,1.3c0,3.6-2.8,5.2-6.1,5.2c-0.1,0-0.2,0-0.3,0
		c1-0.6,3.5-2.4,3.8-3.6c0.3-1,0.2-2.7,0.2-3.8h-6.4l1-2.7l0.6,0.8H81V22.5z M79.3,18.2h-9.8l0.9-2.7l0.6,0.8h8.2v1.9H79.3z
		 M82.2,19l-2.4-1.8c0.4-0.1,0.8-0.2,1.2-0.2c0.7,0,1.7,0.2,1.7,1.1C82.7,18.5,82.5,18.9,82.2,19z M83,16.8l-2.5-1.9
		c0.4-0.1,0.8-0.2,1.3-0.2c0.7,0,1.7,0.3,1.7,1.2C83.5,16.1,83.3,16.5,83,16.8z"/>
	<path class="st27" d="M98.8,17.6c0,2.5-2.2,4.4-4.4,5.2l1.8-4.1H85.6l1-2.9l0.6,0.8h9.9l0.3-0.6l1.4,1.4
		C98.8,17.4,98.8,17.6,98.8,17.6z M92.6,25c0,3.5-2.5,4.5-5.7,4.5c1.3-0.9,3.5-2.8,3.5-4.6v-4.6l2.2,2V25z"/>
	<path class="st27" d="M106.7,25.2c-1,2-3.8,3.4-5.9,3.8c1.5-1.2,4-3.9,4-6.1c0-2,0-4,0-6l2.1,0.5c0.2,1.3,0.4,2.7,0.4,4
		C107.3,22.5,107.2,24.2,106.7,25.2z M116.2,24.8c-1.2,2.5-3.7,3.6-6.3,4l-1-1.7l0.8-0.3V15.3l2.4,1v9.5c1.6-0.7,3.1-1.6,4.6-2.5
		C116.6,23.6,116.4,24.2,116.2,24.8z"/>
</g>
</svg>
