<?xml version="1.0" encoding="UTF-8"?><svg id="Layer_1" xmlns="http://www.w3.org/2000/svg" xmlns:xlink="http://www.w3.org/1999/xlink" viewBox="0 0 480 480"><defs><style>.cls-1{filter:url(#outer-glow-1);}.cls-1,.cls-2,.cls-3{stroke-width:0px;}.cls-1,.cls-3{fill:#fff;}.cls-4{fill:#73ccd1;stroke:#000;stroke-miterlimit:10;stroke-width:10px;}.cls-5{font-family:Futura-Bold, Futura;font-size:82px;font-weight:700;letter-spacing:-.05em;}.cls-2{fill:#ecf3f7;}</style><filter id="outer-glow-1" filterUnits="userSpaceOnUse"><feOffset dx="0" dy="0"/><feGaussianBlur result="blur" stdDeviation="2"/><feFlood flood-color="#000" flood-opacity=".3"/><feComposite in2="blur" operator="in"/><feComposite in="SourceGraphic"/></filter></defs><circle class="cls-2" cx="240" cy="240" r="230"/><circle class="cls-1" cx="61.62" cy="61.62" r="57.62"/><text class="cls-5" transform="translate(33.4 95.6)"><tspan x="0" y="0">3</tspan></text><path class="cls-3" d="m167.93,270.32h-49.51c-2.27,0-4.19,1.62-4.19,3.54v89.05c0,1.92,1.92,3.54,4.19,3.54h49.51c1.23,0,2.17-.38,2.84-.95.05-.04.1-.08.14-.11.03-.02.05-.04.08-.07.68-.57,1.14-1.36,1.14-2.41v-89.05c0-1.92-1.92-3.54-4.19-3.54Z"/><path class="cls-3" d="m163.73,359.37h-41.12v-81.96h41.12v81.96Z"/><path class="cls-3" d="m167.93,371.46h-49.51c-5.07,0-9.2-3.83-9.2-8.54v-89.05c0-4.71,4.12-8.54,9.2-8.54h49.51c5.07,0,9.2,3.83,9.2,8.54v89.05c0,2.35-.95,4.48-2.69,6.04l-.42.36s-.09.07-.14.12c-1.63,1.33-3.68,2.03-5.95,2.03Z"/><rect class="cls-3" x="127.62" y="282.41" width="31.12" height="71.96"/><path class="cls-3" d="m253.97,225.8h-49.51c-2.27,0-4.19,1.62-4.19,3.54v133.57c0,1.92,1.92,3.54,4.19,3.54h49.51c1.23,0,2.17-.38,2.84-.95.05-.04.1-.08.14-.11.02-.02.05-.04.08-.07.68-.57,1.14-1.36,1.14-2.41v-133.57c0-1.92-1.92-3.54-4.19-3.54Z"/><path class="cls-3" d="m208.65,232.89h41.12v126.48h-41.12v-126.48Z"/><path class="cls-3" d="m253.97,371.46h-49.51c-5.07,0-9.2-3.83-9.2-8.54v-133.57c0-4.71,4.12-8.54,9.2-8.54h49.51c5.07,0,9.2,3.83,9.2,8.54v133.57c0,2.35-.95,4.48-2.69,6.04l-.42.36s-.1.08-.16.13c-1.63,1.32-3.67,2.02-5.94,2.02Z"/><path class="cls-3" d="m260.25,369.15l-.03.03s.02-.02.03-.03Z"/><rect class="cls-3" x="213.65" y="237.89" width="31.12" height="116.48"/><path class="cls-3" d="m365.18,183.04c-15.43-22.59-30.86-45.18-46.3-67.77-1.57-2.3-5.67-2.3-7.24,0-15.44,22.59-30.88,45.18-46.31,67.77-1.59,2.32.43,5.33,3.62,5.33h17.35v174.54c0,1.92,1.92,3.54,4.19,3.54h49.51c2.27,0,4.19-1.62,4.19-3.54v-174.54h17.35c1.79,0,2.97-.78,3.58-1.83.74-.96.93-2.21.04-3.51Z"/><path class="cls-3" d="m354.29,181.28h-14.29c-2.27,0-4.19,1.62-4.19,3.54v174.54h-41.12v-174.54c0-1.92-1.92-3.54-4.19-3.54h-14.28c13.02-19.05,26.03-38.09,39.05-57.14,13.01,19.05,26.02,38.09,39.03,57.14Z"/><path class="cls-3" d="m340.01,371.45h-49.51c-5.07,0-9.19-3.83-9.19-8.54v-169.54h-12.35c-3.51,0-6.66-1.83-8.22-4.79-1.43-2.71-1.25-5.84.47-8.36l46.31-67.77c1.67-2.44,4.57-3.9,7.75-3.9s6.08,1.46,7.75,3.9l46.3,67.77c1.97,2.88,1.95,6.34-.02,9.11-1.6,2.54-4.47,4.04-7.73,4.04h-12.35v169.54c0,4.71-4.12,8.54-9.2,8.54Z"/><path class="cls-4" d="m299.69,354.36h31.12v-169.54c0-4.71,4.12-8.54,9.19-8.54h4.81l-29.56-43.28-29.57,43.28h4.81c5.07,0,9.19,3.83,9.19,8.54v169.54Z"/><path class="cls-4" d="m167.93,270.32h-49.51c-2.27,0-4.19,1.62-4.19,3.54v89.05c0,1.92,1.92,3.54,4.19,3.54h49.51c1.23,0,2.17-.38,2.84-.95.05-.04.1-.08.14-.11.03-.02.05-.04.08-.07.68-.57,1.14-1.36,1.14-2.41v-89.05c0-1.92-1.92-3.54-4.19-3.54Zm-4.19,89.05h-41.12v-81.96h41.12v81.96Z"/><path class="cls-4" d="m253.97,225.8h-49.51c-2.27,0-4.19,1.62-4.19,3.54v133.57c0,1.92,1.92,3.54,4.19,3.54h49.51c1.23,0,2.17-.38,2.84-.95.05-.04.1-.08.14-.11.02-.02.05-.04.08-.07.68-.57,1.14-1.36,1.14-2.41v-133.57c0-1.92-1.92-3.54-4.19-3.54Zm-45.31,7.09h41.12v126.48h-41.12v-126.48Z"/><path class="cls-4" d="m365.18,183.04c-15.43-22.59-30.86-45.18-46.3-67.77-1.57-2.3-5.67-2.3-7.24,0-15.44,22.59-30.88,45.18-46.31,67.77-1.59,2.32.43,5.33,3.62,5.33h17.35v174.54c0,1.92,1.92,3.54,4.19,3.54h49.51c2.27,0,4.19-1.62,4.19-3.54v-174.54h17.35c1.79,0,2.97-.78,3.58-1.83.74-.96.93-2.21.04-3.51Zm-10.89-1.76h-14.29c-2.27,0-4.19,1.62-4.19,3.54v174.54h-41.12v-174.54c0-1.92-1.92-3.54-4.19-3.54h-14.28c13.02-19.05,26.03-38.09,39.05-57.14,13.01,19.05,26.02,38.09,39.03,57.14Z"/></svg>