<?xml version="1.0" encoding="UTF-8"?><svg id="Layer_1" xmlns="http://www.w3.org/2000/svg" xmlns:xlink="http://www.w3.org/1999/xlink" viewBox="0 0 480 480"><defs><style>.cls-1{filter:url(#outer-glow-3);}.cls-1,.cls-2,.cls-3{stroke-width:0px;}.cls-1,.cls-3{fill:#fff;}.cls-4,.cls-5,.cls-6,.cls-7{stroke-width:10px;}.cls-4,.cls-5,.cls-7{stroke:#000;stroke-miterlimit:10;}.cls-4,.cls-6{fill:#2b3e60;}.cls-5{fill:#73ccd1;}.cls-6{stroke:#2b3e60;stroke-linecap:round;stroke-linejoin:round;}.cls-7{fill:#f2d557;}.cls-8{font-family:Futura-Bold, Futura;font-size:82px;font-weight:700;letter-spacing:-.05em;}.cls-2{fill:#ecf3f7;}</style><filter id="outer-glow-3" filterUnits="userSpaceOnUse"><feOffset dx="0" dy="0"/><feGaussianBlur result="blur" stdDeviation="2"/><feFlood flood-color="#000" flood-opacity=".3"/><feComposite in2="blur" operator="in"/><feComposite in="SourceGraphic"/></filter></defs><circle class="cls-2" cx="240" cy="240" r="230"/><g id="NewGroupe1"><path class="cls-3" d="m277.29,253.16l-44.17,91.04c-3.13,3.16-7.28,4.9-11.68,4.9-2.13,0-4.23-.41-6.24-1.21-6.31-2.51-10.23-8.21-10.23-14.88v-62.5l-57.61-47.85c-3.68-3.06-5.79-7.52-5.79-12.25v-16.54c0-8.85,7.35-16.05,16.39-16.05h27.87c1.4-4.61,3.95-8.78,7.51-12.24,5.57-5.4,12.94-8.37,20.77-8.37s15.21,2.97,20.77,8.37c3.56,3.46,6.12,7.63,7.51,12.24h59.47c9.04,0,16.39,7.2,16.39,16.05v16.54c0,4.62-2.03,9.01-5.57,12.06"/><path class="cls-3" d="m221.34,362.69s.03.01.05.02c0,0,.02-.02.03-.03"/></g><g id="NewGroupe1-2"><g id="NewGroup13-4"><path class="cls-7" d="m171.4,161.28c6.06,0,10.98-4.93,10.98-10.98s-4.93-10.98-10.98-10.98-10.98,4.93-10.98,10.98,4.93,10.98,10.98,10.98h0Z"/><path class="cls-7" d="m281.07,154.82c0-4.89-3.98-8.88-8.88-8.88s-8.88,3.98-8.88,8.88,3.98,8.88,8.88,8.88,8.88-3.98,8.88-8.88h0Z"/><path class="cls-7" d="m214.12,167.4c-8.81,0-16.23,6.36-17.87,14.73h35.73c-1.63-8.37-9.05-14.73-17.87-14.73h0Z"/><path class="cls-5" d="m304.69,276.53c0,11.7-9.52,21.21-21.21,21.21s-21.21-9.52-21.21-21.21,9.52-21.21,21.21-21.21,21.21,9.52,21.21,21.21h0Zm-12.24-42.49l-8.28,8.05c-1.16,1.12-2.97,1.2-4.21.17l-8.91-7.35c-.73-.6-1.64-.92-2.56-.92-.49,0-.98.09-1.44.27-1.78.69-3.52,1.5-5.17,2.4-1.27.69-2.07,2.02-2.09,3.47l-.16,11.55c-.02,1.61-1.25,2.95-2.86,3.1l-11.49,1.1c-1.45.14-2.71,1.05-3.29,2.37-.76,1.73-1.42,3.53-1.97,5.36-.41,1.39-.04,2.9.98,3.94l8.05,8.28c1.12,1.15,1.2,2.97.17,4.21l-7.35,8.91c-.93,1.12-1.18,2.66-.65,4.01.69,1.78,1.5,3.52,2.4,5.17.69,1.27,2.02,2.07,3.47,2.09h0l11.55.16c1.61.02,2.95,1.25,3.1,2.86l1.1,11.49c.14,1.45,1.05,2.71,2.37,3.29,1.73.76,3.53,1.43,5.36,1.97.37.11.75.16,1.13.16,1.05,0,2.05-.41,2.81-1.14l8.28-8.05c1.16-1.12,2.97-1.2,4.21-.17l8.91,7.35c1.12.93,2.66,1.18,4.01.65,1.78-.69,3.52-1.5,5.17-2.4,1.27-.69,2.07-2.02,2.09-3.47l.16-11.55c.02-1.61,1.25-2.95,2.86-3.1l11.49-1.1c1.45-.14,2.71-1.05,3.29-2.37.76-1.73,1.42-3.53,1.97-5.36.41-1.39.04-2.9-.98-3.94l-8.05-8.28c-1.12-1.16-1.2-2.97-.17-4.21l7.35-8.91c.93-1.12,1.17-2.66.65-4.01-.69-1.78-1.5-3.52-2.4-5.17-.69-1.27-2.02-2.07-3.47-2.09l-11.55-.16c-1.61-.02-2.95-1.25-3.1-2.86l-1.1-11.49c-.14-1.45-1.05-2.71-2.37-3.29-1.74-.77-3.54-1.43-5.35-1.97-1.39-.41-2.9-.04-3.94.98h0Z"/><path class="cls-4" d="m298.37,276.53c0,8.21-6.68,14.89-14.89,14.89s-14.89-6.68-14.89-14.89,6.68-14.89,14.89-14.89,14.89,6.68,14.89,14.89h0Zm-36.11,0c0,11.7,9.52,21.21,21.21,21.21s21.21-9.52,21.21-21.21-9.52-21.21-21.21-21.21-21.21,9.52-21.21,21.21h0Z"/><path class="cls-4" d="m214.12,167.4c8.81,0,16.23,6.36,17.87,14.73h-35.73c1.63-8.37,9.05-14.73,17.87-14.73h0Zm87.63,67.63c1.32.58,2.23,1.84,2.37,3.29l1.1,11.49c.15,1.6,1.49,2.83,3.1,2.86l11.55.16c1.45.02,2.78.82,3.47,2.09.9,1.66,1.71,3.4,2.4,5.17.52,1.35.27,2.88-.65,4.01l-7.35,8.91c-1.03,1.24-.95,3.06.17,4.21l8.05,8.28c1.02,1.04,1.39,2.55.98,3.94-.54,1.83-1.21,3.63-1.97,5.36-.58,1.32-1.85,2.23-3.29,2.37l-11.49,1.1c-1.6.15-2.84,1.49-2.86,3.1l-.16,11.55c-.02,1.45-.82,2.78-2.09,3.47-1.66.9-3.4,1.71-5.17,2.4-1.35.52-2.88.27-4.01-.65l-8.91-7.35c-1.24-1.03-3.06-.95-4.21.17l-8.28,8.05c-.76.74-1.76,1.14-2.81,1.14-.38,0-.76-.06-1.13-.16-1.83-.54-3.63-1.21-5.36-1.97-1.32-.58-2.23-1.84-2.37-3.29l-1.1-11.49c-.15-1.6-1.49-2.83-3.1-2.86l-11.55-.16h0c-1.45-.02-2.78-.82-3.47-2.09-.9-1.66-1.71-3.4-2.4-5.17-.52-1.35-.27-2.88.65-4.01l7.35-8.91c1.03-1.24.95-3.06-.17-4.21l-8.05-8.28c-1.02-1.04-1.39-2.55-.98-3.94.54-1.83,1.21-3.63,1.97-5.36.58-1.32,1.85-2.23,3.29-2.37l11.49-1.1c1.6-.15,2.84-1.49,2.86-3.1l.16-11.55c.02-1.45.82-2.78,2.09-3.47,1.66-.9,3.4-1.71,5.17-2.4.47-.18.96-.27,1.44-.27.92,0,1.83.32,2.56.92l8.91,7.35c1.24,1.03,3.06.95,4.21-.17l8.28-8.05c1.04-1.02,2.56-1.39,3.94-.98,1.81.54,3.61,1.2,5.35,1.97h0Zm-155.18-41.51v16.89c0,3.35,1.47,6.52,4.03,8.69l57.58,48.8c1.14.97,1.79,2.38,1.79,3.87v63.81c0,4.73,2.72,8.78,7.11,10.56,1.43.58,2.91.87,4.36.87,2.99,0,5.87-1.2,8.09-3.49l17.1-17.61c1.22-1.25,1.19-3.25-.07-4.47-1.25-1.22-3.25-1.19-4.47.07l-17.1,17.61c-1.49,1.54-3.56,1.97-5.55,1.17-1.98-.8-3.17-2.56-3.17-4.7v-63.81c0-3.35-1.47-6.52-4.03-8.69l-57.58-48.8c-1.14-.97-1.79-2.38-1.79-3.87v-16.89c0-2.8,2.28-5.07,5.07-5.07h34.04c.25.06.5.1.76.1h42.72c.26,0,.51-.03.76-.1h65.64c2.8,0,5.07,2.28,5.07,5.07v16.89c0,1.49-.65,2.9-1.79,3.87-.05.04-.1.08-.14.13l-13.39,12.84c-1.31.49-2.54,1.25-3.58,2.27l-6.25,6.08-6.72-5.55c-2.89-2.38-6.84-3.02-10.32-1.67-2.03.79-4.01,1.71-5.9,2.74-3.27,1.78-5.34,5.2-5.39,8.94l-.12,8.71-8.68.83c-3.72.36-6.96,2.7-8.47,6.1-.87,1.97-1.63,4.03-2.24,6.11-1.06,3.58-.1,7.46,2.51,10.15l6.08,6.25-5.55,6.72c-2.38,2.89-3.02,6.84-1.67,10.32.79,2.03,1.71,4.01,2.74,5.9,1.78,3.27,5.2,5.34,8.94,5.39l8.71.12.83,8.68c.36,3.72,2.7,6.96,6.1,8.47,1.97.87,4.03,1.63,6.11,2.24.95.28,1.94.43,2.93.43,2.71,0,5.27-1.04,7.22-2.93l6.25-6.08,6.72,5.55c2.89,2.38,6.84,3.02,10.32,1.67,2.03-.79,4.01-1.71,5.9-2.74,3.27-1.78,5.34-5.2,5.39-8.94l.12-8.71,8.68-.83c3.72-.36,6.96-2.7,8.47-6.1.87-1.97,1.63-4.03,2.24-6.11,1.06-3.58.1-7.47-2.51-10.15l-6.08-6.25,5.55-6.72c2.38-2.89,3.02-6.84,1.67-10.31-.79-2.03-1.71-4.01-2.74-5.9-1.78-3.27-5.2-5.34-8.94-5.39l-8.72-.12-.83-8.68c-.36-3.72-2.7-6.96-6.11-8.47-1.31-.58-2.65-1.1-4.01-1.56l9.03-8.66c2.51-2.17,3.95-5.3,3.95-8.62v-16.89c0-6.28-5.11-11.39-11.39-11.39h-63.48c-.74-5.27-3.17-10.14-7.02-13.95-4.62-4.58-10.75-7.1-17.26-7.1s-12.63,2.52-17.26,7.1c-3.85,3.81-6.27,8.67-7.02,13.95h-31.89c-6.28,0-11.39,5.11-11.39,11.39h0Z"/><path class="cls-4" d="m171.4,139.32c6.06,0,10.98,4.93,10.98,10.98s-4.93,10.98-10.98,10.98-10.98-4.93-10.98-10.98,4.93-10.98,10.98-10.98h0Zm0,28.28c9.54,0,17.3-7.76,17.3-17.3s-7.76-17.3-17.3-17.3-17.3,7.76-17.3,17.3,7.76,17.3,17.3,17.3h0Z"/><path class="cls-4" d="m263.32,154.82c0-4.89,3.98-8.88,8.88-8.88s8.88,3.98,8.88,8.88-3.98,8.88-8.88,8.88-8.88-3.98-8.88-8.88h0Zm24.07,0c0-8.38-6.82-15.2-15.2-15.2s-15.2,6.82-15.2,15.2,6.82,15.2,15.2,15.2,15.2-6.82,15.2-15.2h0Z"/></g></g><circle class="cls-1" cx="61.62" cy="61.62" r="57.62"/><text class="cls-8" transform="translate(33.4 95.6)"><tspan x="0" y="0">2</tspan></text><path class="cls-6" d="m394.73,172.02s-.06-.07-.08-.11c3.65-2.01,6.13-5.89,6.13-10.35,0-6.51-5.3-11.81-11.81-11.81s-11.81,5.3-11.81,11.81,5.3,11.81,11.81,11.81c1.35,0,2.65-.24,3.86-.66.01.05.01.1.03.15,9.55,21.15,14.4,43.74,14.4,67.14,0,90.05-73.26,163.31-163.31,163.31s-163.31-73.26-163.31-163.31c0-23.39,4.84-45.96,14.38-67.1,1.05.31,2.15.48,3.29.48,6.51,0,11.81-5.3,11.81-11.81s-5.3-11.81-11.81-11.81-11.81,5.3-11.81,11.81c0,4.64,2.7,8.66,6.61,10.58-9.63,21.38-14.52,44.21-14.52,67.85,0,91.18,74.18,165.35,165.35,165.35s165.35-74.18,165.35-165.35c0-23.69-4.9-46.56-14.57-67.98h0Zm-15.52-10.46c0-5.39,4.38-9.76,9.76-9.76s9.76,4.38,9.76,9.76-4.38,9.76-9.76,9.76-9.76-4.38-9.76-9.76h0Zm-290.66,0c0-5.39,4.38-9.76,9.76-9.76s9.76,4.38,9.76,9.76-4.38,9.76-9.76,9.76-9.76-4.38-9.76-9.76h0Z"/><path class="cls-6" d="m118.93,133.22c.18.14.41.22.63.22.07,0,.15,0,.22-.02l8.66-1.89c.55-.12.9-.66.78-1.22-.12-.55-.67-.9-1.22-.78l-5.39,1.18c30.95-34.34,75.13-54.02,121.34-54.02s90.5,19.73,121.46,54.14l-5.96-1.3c-.55-.12-1.1.23-1.22.78-.12.55.23,1.1.78,1.22l8.66,1.89c.07.02.15.02.22.02.23,0,.45-.08.63-.22.24-.19.38-.48.39-.78l.15-8.86c0-.56-.44-1.03-1-1.04-.53.03-1.03.44-1.04,1l-.1,5.91c-31.34-34.83-76.12-54.81-122.96-54.81s-91.94,20.11-123.3,55.17c-.05.05-.07.12-.11.18l-.11-6.46c-.01-.57-.49-1.01-1.04-1-.56,0-1.01.47-1,1.04l.15,8.86c0,.31.15.59.39.78h0Zm1.71-2.08l-.08.02v-.12s.05.07.08.1h0Z"/></svg>