<?xml version="1.0" encoding="UTF-8"?><svg id="Layer_1" xmlns="http://www.w3.org/2000/svg" xmlns:xlink="http://www.w3.org/1999/xlink" viewBox="0 0 480 480"><defs><style>.cls-1{filter:url(#outer-glow-2);}.cls-1,.cls-2,.cls-3,.cls-4,.cls-5{stroke-width:0px;}.cls-1,.cls-5{fill:#fff;}.cls-6{fill:#73ccd1;stroke:#000;stroke-miterlimit:10;stroke-width:10px;}.cls-7{font-family:Futura-Bold, Futura;font-size:82px;font-weight:700;letter-spacing:-.05em;}.cls-2{fill:#282f39;}.cls-3{fill:#231f20;}.cls-4{fill:#ecf3f7;}</style><filter id="outer-glow-2" filterUnits="userSpaceOnUse"><feOffset dx="0" dy="0"/><feGaussianBlur result="blur" stdDeviation="2"/><feFlood flood-color="#000" flood-opacity=".3"/><feComposite in2="blur" operator="in"/><feComposite in="SourceGraphic"/></filter></defs><circle class="cls-4" cx="240" cy="240" r="230"/><path class="cls-5" d="m332.39,370.95h-172.16c-4.63,0-8.4-3.77-8.4-8.4V117.45c0-4.63,3.77-8.4,8.4-8.4h130.63l.19.03c.31.02.6.05.89.1.27.04.55.11.84.19.25.07.5.15.75.24.24.09.48.2.71.31.17.08.35.18.54.29.25.14.47.28.68.44.16.12.3.23.43.34.27.22.48.41.67.61l41.69,41.69c.28.27.48.52.61.67.12.14.23.27.33.41.17.24.32.47.46.72.1.17.19.33.27.49.13.26.24.51.34.78.07.19.12.36.18.54.13.43.22.86.28,1.3.03.2.05.38.06.57.02.17.03.35.03.52v38.92c15.61-2.02,33.38-2.22,52.93-.59,3.36.28,6.21,2.53,7.28,5.72h0c1.06,3.2.12,6.71-2.4,8.94-9.36,8.29-34.97,33.15-40.99,48.58-3.62,9.26-9.27,17.31-16.81,23.98v77.7c0,4.63-3.77,8.4-8.4,8.4Z"/><path class="cls-5" d="m168.63,354.14h155.36v-58.2c-18.26,8.94-39.48,11.48-55.45,11.88-12.11,15.87-18.15,27.16-18.22,27.27-1.45,2.76-4.3,4.48-7.43,4.48-1.36,0-2.71-.34-3.92-.97-1.98-1.05-3.44-2.8-4.11-4.95-.66-2.14-.45-4.42.6-6.4.73-1.38,7.32-13.64,20.17-30.43-1.7-17.09-.8-47.23,20.95-70.05,11.53-12.09,27.46-20.66,47.4-25.49v-33.58h-33.45c-4.63,0-8.4-3.77-8.4-8.4v-33.45h-113.51v228.29Z"/><path class="cls-6" d="m347.66,218.67c.77,0,1.55.11,2.31.32,2.16.61,3.95,2.03,5.04,3.99,2.25,4.05.8,9.18-3.25,11.43-17.53,9.77-43.02,27.12-68.47,55.56,38.53-4.47,53.2-21.29,58.65-35.23,5.2-13.31,19.67-29.71,31.2-41.38-1.58-.03-3.14-.04-4.68-.04-12.43,0-23.87.97-34,2.88-.33.08-.67.15-1.02.19-19.37,3.8-34.41,11.2-44.69,21.98-11.08,11.62-15.28,25.97-16.48,38.54,21.24-23.4,45.19-42.6,71.33-57.17,1.27-.71,2.66-1.07,4.08-1.07Z"/><polygon class="cls-5" points="298.94 150.9 312.1 150.9 298.94 137.74 298.94 150.9"/><path class="cls-5" d="m291.17,109.09h.05s-.03,0-.05,0Z"/><path class="cls-5" d="m290.75,109.06s.1,0,.14,0c-.05,0-.1,0-.14,0Z"/><path class="cls-2" d="m396.74,204.76c-.49-1.49-1.83-2.54-3.39-2.67-21.52-1.79-40.55-1.35-57.04,1.31v-44.1s-.01-.09-.01-.14c0-.13-.02-.25-.04-.37-.03-.2-.07-.4-.13-.6-.03-.09-.05-.17-.08-.26-.05-.13-.1-.24-.16-.36-.04-.08-.08-.15-.12-.23-.07-.11-.13-.23-.21-.34-.05-.06-.1-.12-.15-.18-.1-.12-.19-.24-.31-.35l-41.73-41.73c-.1-.11-.22-.2-.33-.3-.07-.06-.13-.11-.2-.17-.1-.07-.21-.14-.32-.2-.09-.05-.17-.1-.26-.14-.11-.05-.22-.1-.33-.15-.11-.04-.23-.07-.35-.11-.13-.04-.26-.07-.39-.09-.18-.03-.35-.05-.53-.05-.04,0-.07-.01-.11-.01h-130.32c-2.16,0-3.91,1.75-3.91,3.91v245.09c0,2.16,1.75,3.91,3.91,3.91h172.16c2.16,0,3.91-1.75,3.91-3.91v-79.77c7.25-6.01,13.27-13.69,17.12-23.55,7.63-19.54,41.85-50,42.2-50.3,1.17-1.04,1.61-2.68,1.12-4.16Zm-102.29-77.85l28.48,28.48h-28.48v-28.48Zm34.03,231.73h-164.34V121.37h122.48v37.93c0,2.16,1.75,3.91,3.91,3.91h37.94v41.65c-20.75,4.47-37.02,12.82-48.64,25.01-21.07,22.1-21.47,51.56-19.54,68.26-13.4,17.29-20.24,30.04-20.86,31.21-1.01,1.91-.28,4.28,1.63,5.29.58.31,1.21.45,1.82.45,1.4,0,2.76-.76,3.46-2.09.15-.28,6.77-12.62,19.94-29.62,17.5-.25,42.63-3.03,62.18-15.01v70.27Zm17.65-102.25c-11.85,30.32-48.09,37.68-73.39,38.97,17.16-20.65,42.73-45.85,76.84-64.85,1.89-1.05,2.57-3.44,1.51-5.32-1.05-1.89-3.44-2.57-5.32-1.51-34.83,19.41-60.78,44.65-78.32,65.6-.6-15.56,2.13-37.28,18.05-53.98,11.02-11.56,26.82-19.34,47.26-23.32.24-.02.48-.07.71-.13,10.47-1.99,22.14-2.99,35-2.99,4.91,0,10,.15,15.26.44-10.81,10.31-31.42,31.3-37.59,47.11Z"/><path class="cls-3" d="m332.39,370.95h-172.16c-4.63,0-8.4-3.77-8.4-8.4V117.45c0-4.63,3.77-8.4,8.4-8.4h130.63l.19.03c.31.02.6.05.89.1.27.04.55.11.84.19.25.07.5.15.75.24.24.09.48.2.71.31.17.08.35.18.54.29.25.14.47.28.68.44.16.12.3.23.43.34.27.22.48.41.67.61l41.69,41.69c.28.27.48.52.61.67.12.14.23.27.33.41.17.24.32.47.46.72.1.17.19.33.27.49.13.26.24.51.34.78.07.19.12.36.18.54.13.43.22.86.28,1.3.03.2.05.38.06.57.02.17.03.35.03.52v38.92c15.61-2.02,33.38-2.22,52.93-.59,3.36.28,6.21,2.53,7.28,5.72h0c1.06,3.2.12,6.71-2.4,8.94-9.36,8.29-34.97,33.15-40.99,48.58-3.62,9.26-9.27,17.31-16.81,23.98v77.7c0,4.63-3.77,8.4-8.4,8.4Zm-163.76-16.8h155.36v-58.2c-18.26,8.94-39.48,11.48-55.45,11.88-12.11,15.87-18.15,27.16-18.22,27.27-1.45,2.76-4.3,4.48-7.43,4.48-1.36,0-2.71-.34-3.92-.97-1.98-1.05-3.44-2.8-4.11-4.95-.66-2.14-.45-4.42.6-6.4.73-1.38,7.32-13.64,20.17-30.43-1.7-17.09-.8-47.23,20.95-70.05,11.53-12.09,27.46-20.66,47.4-25.49v-33.58h-33.45c-4.63,0-8.4-3.77-8.4-8.4v-33.45h-113.51v228.29Zm179.04-135.48c.77,0,1.55.11,2.31.32,2.16.61,3.95,2.03,5.04,3.99,2.25,4.05.8,9.18-3.25,11.43-17.53,9.77-43.02,27.12-68.47,55.56,38.53-4.47,53.2-21.29,58.65-35.23,5.2-13.31,19.67-29.71,31.2-41.38-1.58-.03-3.14-.04-4.68-.04-12.43,0-23.87.97-34,2.88-.33.08-.67.15-1.02.19-19.37,3.8-34.41,11.2-44.69,21.98-11.08,11.62-15.28,25.97-16.48,38.54,21.24-23.4,45.19-42.6,71.33-57.17,1.27-.71,2.66-1.07,4.08-1.07Zm-48.72-67.77h13.16l-13.16-13.16v13.16Zm-7.77-41.81h.05s-.03,0-.05,0Zm-.42-.03s.1,0,.14,0c-.05,0-.1,0-.14,0Z"/><path class="cls-2" d="m240.75,184.85c7.24,9.48,15.97,14.63,25.23,14.88.23,0,.47,0,.7,0,10.05,0,20.51-5.78,29.52-16.35,1.4-1.64,1.21-4.12-.44-5.52-1.65-1.4-4.12-1.21-5.52.44-7.66,8.98-16.22,13.81-24.06,13.59-6.92-.19-13.38-4.16-19.22-11.8-3.39-4.44-6.93-6.67-10.83-6.81-6.28-.26-10.95,4.99-15.44,10.04-3.05,3.42-6.5,7.32-8.93,7.25-1.42-.03-2.99-1.61-4.05-2.92-5.5-6.81-10.8-9.65-15.74-8.42-7.68,1.91-10.01,12.76-10.25,14-.41,2.12.97,4.18,3.09,4.59,2.12.42,4.18-.97,4.59-3.09.57-2.92,2.49-7.41,4.46-7.9,1.26-.31,3.96,1.03,7.76,5.74,3.06,3.78,6.4,5.75,9.95,5.83.09,0,.17,0,.25,0,5.92,0,10.39-5.02,14.71-9.87,3.14-3.53,6.68-7.53,9.3-7.42,1.74.07,3.63,2.07,4.9,3.74Z"/><path class="cls-3" d="m266.68,204.22c-.27,0-.55,0-.82-.01-10.67-.29-20.59-6.04-28.68-16.64-.71-.93-1.24-1.46-1.59-1.75-1.49.97-4.13,3.93-5.62,5.61l-.07.08c-4.75,5.33-10.12,11.37-18.06,11.37-.13,0-.25,0-.38,0-4.91-.12-9.4-2.64-13.32-7.5-1.34-1.66-2.39-2.68-3.12-3.29-.47.96-.96,2.26-1.2,3.5-.43,2.2-1.69,4.11-3.56,5.36-1.86,1.25-4.1,1.7-6.3,1.27-2.2-.43-4.1-1.69-5.35-3.55s-1.71-4.1-1.28-6.3c.48-2.48,3.41-14.97,13.58-17.49,6.78-1.69,13.61,1.66,20.31,9.96.33.41.6.7.82.92,1.46-1.08,3.87-3.78,5.26-5.34l.05-.06c4.96-5.57,10.58-11.91,18.98-11.54,5.23.2,10.02,3.08,14.21,8.57,4.98,6.51,10.28,9.89,15.78,10.04,6.47.15,13.76-4.1,20.52-12.02,3-3.52,8.32-3.94,11.84-.94,1.71,1.46,2.75,3.49,2.93,5.73.18,2.24-.53,4.41-1.98,6.12-9.86,11.56-21.56,17.92-32.94,17.92Zm-72.98-13.02h0Z"/><circle class="cls-1" cx="61.62" cy="61.62" r="57.62"/><text class="cls-7" transform="translate(33.4 95.6)"><tspan x="0" y="0">1</tspan></text></svg>