<?xml version="1.0" encoding="UTF-8"?><svg id="Layer_1" xmlns="http://www.w3.org/2000/svg" viewBox="0 0 1024 380"><defs><style>.cls-1{letter-spacing:-.04em;}.cls-2{letter-spacing:.02em;}.cls-3{letter-spacing:-.02em;}.cls-4{letter-spacing:-.13em;}.cls-5{letter-spacing:.06em;}.cls-6{letter-spacing:-.02em;}.cls-7{letter-spacing:-.07em;}.cls-8{letter-spacing:-.06em;}.cls-9{font-family:KozGoPr6N-Medium-83pv-RKSJ-H, 'Kozuka Gothic Pr6N';font-size:82px;font-weight:500;}.cls-9,.cls-10{fill:#fff;}.cls-11{letter-spacing:-.1em;}.cls-12{letter-spacing:.07em;}.cls-13{letter-spacing:.05em;}.cls-14{letter-spacing:0em;}.cls-10{stroke-width:0px;}</style></defs><text class="cls-9" transform="translate(325.26 130.08)"><tspan x="0" y="0">STEP 2:</tspan><tspan class="cls-13" x="-2.46" y="96">セ</tspan><tspan class="cls-12" x="83.81" y="96">ー</tspan><tspan class="cls-2" x="171.72" y="96">ル</tspan><tspan class="cls-6" x="255.52" y="96">ス</tspan><tspan class="cls-11" x="336.05" y="96">フ</tspan><tspan class="cls-7" x="410.02" y="96">ァ</tspan><tspan class="cls-5" x="486.45" y="96">ネ</tspan><tspan class="cls-14" x="573.53" y="96">ル</tspan><tspan class="cls-1" x="-3.28" y="192">を</tspan><tspan x="75.44" y="192">構</tspan><tspan class="cls-3" x="157.44" y="192">築</tspan><tspan class="cls-4" x="237.8" y="192">す</tspan><tspan class="cls-8" x="309.14" y="192">る</tspan></text><g id="NewGroupe5"><g id="NewGroup13-0"><path class="cls-10" d="m201.5,227.73c0,8.48-6.9,15.38-15.38,15.38s-15.38-6.9-15.38-15.38,6.9-15.38,15.38-15.38,15.38,6.9,15.38,15.38h0Zm-37.29,0c0,12.08,9.83,21.91,21.91,21.91s21.91-9.83,21.91-21.91-9.83-21.91-21.91-21.91-21.91,9.83-21.91,21.91h0Z"/><path class="cls-10" d="m114.47,115.01c9.1,0,16.77,6.57,18.45,15.21h-36.91c1.69-8.64,9.35-15.21,18.45-15.21h0Zm92.96,73.25l1.14,11.87c.16,1.66,1.54,2.93,3.2,2.95l11.93.17c1.5.02,2.87.85,3.59,2.16.93,1.71,1.77,3.51,2.48,5.34.54,1.39.28,2.98-.67,4.14l-7.59,9.2c-1.06,1.28-.98,3.16.18,4.35l8.32,8.55c1.05,1.08,1.44,2.64,1.01,4.07-.56,1.89-1.24,3.75-2.03,5.53-.6,1.36-1.91,2.3-3.4,2.45l-11.87,1.14c-1.66.16-2.93,1.54-2.95,3.2l-.17,11.93c-.02,1.5-.85,2.87-2.16,3.59-1.71.93-3.51,1.76-5.34,2.48-1.39.54-2.98.28-4.14-.67l-9.2-7.59c-1.28-1.06-3.16-.98-4.35.18l-8.55,8.32c-.78.76-1.82,1.18-2.9,1.18-.4,0-.79-.06-1.17-.17-1.89-.56-3.75-1.24-5.53-2.03-1.36-.6-2.3-1.91-2.45-3.4l-1.14-11.87c-.16-1.66-1.54-2.93-3.2-2.95l-11.92-.17h0c-1.5-.02-2.87-.85-3.59-2.16-.93-1.71-1.77-3.51-2.48-5.34-.54-1.39-.28-2.98.67-4.14l7.59-9.2c1.06-1.28.98-3.16-.18-4.35l-8.32-8.55c-1.05-1.08-1.44-2.64-1.01-4.07.56-1.89,1.24-3.75,2.03-5.53.6-1.36,1.91-2.3,3.4-2.45l11.87-1.14c1.66-.16,2.93-1.54,2.95-3.2l.17-11.93c.02-1.5.85-2.87,2.16-3.59,1.71-.93,3.51-1.77,5.34-2.48.48-.19.99-.28,1.49-.28.95,0,1.89.33,2.65.95l9.2,7.59c1.28,1.06,3.16.98,4.35-.18l8.55-8.32c1.08-1.05,2.64-1.44,4.07-1.01,1.87.55,3.73,1.24,5.53,2.03,1.36.6,2.3,1.91,2.45,3.4h0Zm-162.73-46.28v17.44c0,3.46,1.52,6.73,4.16,8.98l59.48,50.4c1.18,1,1.85,2.46,1.85,4v65.91c0,4.89,2.81,9.07,7.34,10.9,1.48.6,3.01.89,4.51.89,3.09,0,6.07-1.24,8.36-3.6l17.67-18.19c1.26-1.29,1.23-3.36-.07-4.61-1.29-1.26-3.36-1.23-4.61.07l-17.67,18.19c-1.54,1.59-3.68,2.04-5.73,1.21-2.05-.83-3.27-2.65-3.27-4.86v-65.91c0-3.46-1.52-6.73-4.16-8.98l-59.48-50.4c-1.18-1-1.85-2.46-1.85-4v-17.44c0-2.89,2.35-5.24,5.24-5.24h35.16c.25.06.52.1.78.1h44.13c.27,0,.53-.04.78-.1h67.79c2.89,0,5.24,2.35,5.24,5.24v17.44c0,1.54-.68,3-1.85,4-.05.04-.1.09-.15.13l-13.83,13.27c-1.36.51-2.62,1.3-3.69,2.34l-6.45,6.28-6.94-5.73c-2.98-2.46-7.06-3.12-10.65-1.72-2.09.81-4.15,1.77-6.1,2.83-3.38,1.84-5.51,5.37-5.57,9.23l-.13,9-8.96.86c-3.84.37-7.19,2.79-8.74,6.31-.9,2.04-1.68,4.16-2.32,6.31-1.1,3.69-.11,7.71,2.59,10.48l6.28,6.45-5.73,6.94c-2.46,2.98-3.12,7.06-1.72,10.65.81,2.09,1.77,4.15,2.83,6.1,1.84,3.38,5.37,5.51,9.23,5.57l9,.13.86,8.96c.37,3.84,2.79,7.19,6.31,8.74,2.04.9,4.16,1.68,6.31,2.32.98.29,2,.44,3.03.44,2.8,0,5.44-1.08,7.45-3.03l6.45-6.28,6.94,5.73c2.98,2.46,7.06,3.12,10.65,1.72,2.09-.81,4.15-1.77,6.1-2.83,3.38-1.84,5.51-5.37,5.57-9.23l.13-9,8.96-.86c3.84-.37,7.19-2.79,8.74-6.31.9-2.04,1.68-4.16,2.32-6.31,1.1-3.69.11-7.71-2.59-10.48l-6.28-6.45,5.73-6.94c2.46-2.98,3.12-7.06,1.72-10.65-.81-2.09-1.77-4.15-2.83-6.1-1.84-3.38-5.37-5.52-9.23-5.57l-9-.13-.86-8.96c-.37-3.84-2.79-7.19-6.31-8.74-1.36-.6-2.74-1.13-4.14-1.62l9.32-8.94c2.59-2.24,4.08-5.48,4.08-8.9v-17.44c0-6.49-5.28-11.77-11.77-11.77h-65.57c-.77-5.44-3.27-10.47-7.25-14.4-4.77-4.73-11.1-7.33-17.82-7.33s-13.05,2.6-17.82,7.33c-3.97,3.93-6.48,8.96-7.25,14.4h-32.94c-6.49,0-11.77,5.28-11.77,11.77h0Z"/><path class="cls-10" d="m70.34,86.01c6.25,0,11.34,5.09,11.34,11.34s-5.09,11.34-11.34,11.34-11.34-5.09-11.34-11.34,5.09-11.34,11.34-11.34h0Zm0,29.21c9.85,0,17.87-8.02,17.87-17.87s-8.02-17.87-17.87-17.87-17.87,8.02-17.87,17.87,8.02,17.87,17.87,17.87h0Z"/><path class="cls-10" d="m165.29,102.02c0-5.06,4.11-9.17,9.17-9.17s9.17,4.11,9.17,9.17-4.11,9.17-9.17,9.17-9.17-4.11-9.17-9.17h0Zm24.86,0c0-8.65-7.04-15.69-15.69-15.69s-15.69,7.04-15.69,15.69,7.04,15.69,15.69,15.69,15.69-7.04,15.69-15.69h0Z"/></g></g></svg>