<?xml version="1.0" encoding="UTF-8"?><svg id="Layer_1" xmlns="http://www.w3.org/2000/svg" viewBox="0 0 1024 380"><defs><style>.cls-1{letter-spacing:.04em;}.cls-2{letter-spacing:-.04em;}.cls-3{letter-spacing:-.08em;}.cls-4{letter-spacing:0em;}.cls-5{letter-spacing:-.06em;}.cls-6{font-family:KozGoPr6N-Medium-83pv-RKSJ-H, 'Kozuka Gothic Pr6N';font-size:82px;font-weight:500;}.cls-6,.cls-7{fill:#fff;}.cls-8{letter-spacing:-.03em;}.cls-9{letter-spacing:.05em;}.cls-10{letter-spacing:.01em;}.cls-11{letter-spacing:-.04em;}.cls-7{stroke-width:0px;}.cls-12{letter-spacing:0em;}</style></defs><text class="cls-6" transform="translate(325.26 130.08)"><tspan x="0" y="0">STEP 3:</tspan><tspan class="cls-8" x="-2.46" y="96">ビ</tspan><tspan class="cls-4" x="77.48" y="96">ジ</tspan><tspan class="cls-11" x="159.06" y="96">ネ</tspan><tspan class="cls-12" x="238.19" y="96">ス</tspan><tspan class="cls-1" x="320.59" y="96">の</tspan><tspan class="cls-9" x="406.27" y="96">成</tspan><tspan class="cls-10" x="492.77" y="96">長</tspan><tspan class="cls-2" x="575.99" y="96">を</tspan><tspan x="0" y="192">見</tspan><tspan class="cls-3" x="82" y="192">守</tspan><tspan class="cls-5" x="157.44" y="192">る</tspan></text><path class="cls-7" d="m45.96,258.24h40.83v-68.94h-40.83v68.94Zm5.94-63h28.95v57.06h-28.95v-57.06Z"/><polygon class="cls-7" points="182.81 84.22 181.87 100.42 187.8 100.76 189.32 74.54 156.92 73.28 156.69 79.22 178.56 80.06 118.23 135.99 93.55 119.7 44.4 158.94 48.1 163.58 93.89 127.04 118.84 143.51 182.81 84.22"/><path class="cls-7" d="m235.84,300.63l2.17-2.03-23.42-25.04-1.96,1.83-12.66-13.76c6.63-7.25,10.39-16.82,10.39-26.69,0-.49,0-.99-.03-1.42-.31-8.65-3.5-17.01-9-23.69v-85.84h-40.82v72.82c-6.16,1.66-11.78,4.77-16.44,9.07v-47.58h-40.84v99.95h35.69c7.44,10.18,19.24,16.23,31.92,16.23,9.1,0,17.79-3.1,24.8-8.76l12.65,13.75-2.38,2.22,23.42,25.04,4.34-4.06,2.19-2.01-.02-.02Zm-69.4-170.71h28.95v74.07c-.23-.18-.47-.36-.71-.54-.14-.11-.29-.22-.43-.33-.52-.38-1.04-.75-1.57-1.1-.05-.03-.1-.06-.15-.09-.48-.32-.98-.63-1.47-.92-.17-.1-.34-.2-.52-.3-.39-.22-.78-.44-1.18-.65-.19-.1-.37-.2-.56-.29-.43-.22-.87-.43-1.31-.64-.14-.07-.28-.14-.42-.2-.58-.26-1.16-.51-1.75-.74-.13-.05-.26-.09-.38-.14-.47-.18-.94-.35-1.41-.51-.2-.07-.4-.13-.6-.2-.42-.14-.85-.27-1.28-.39-.2-.06-.4-.11-.6-.17-.51-.14-1.03-.26-1.55-.38-.11-.02-.21-.05-.32-.07-.62-.13-1.25-.25-1.88-.36-.17-.03-.35-.05-.53-.08-.46-.07-.93-.13-1.4-.19-.22-.03-.43-.05-.65-.07-.45-.04-.91-.08-1.36-.11-.2-.01-.4-.03-.6-.04-.64-.03-1.29-.05-1.94-.05-.7,0-1.4.02-2.1.06-.23.01-.47.04-.7.05-.47.03-.93.07-1.4.12-.06,0-.13,0-.19.02v-65.75Zm-57.27,122.39v-88.07h28.96v48.5c-.06.08-.11.17-.16.25-.13.2-.26.4-.39.6-.14.22-.29.45-.43.68-.13.2-.25.41-.37.61-.13.23-.27.45-.4.68-.12.21-.23.42-.35.63-.12.23-.25.46-.37.69-.11.21-.22.43-.32.64-.12.23-.23.47-.34.7-.1.22-.2.43-.3.65-.11.24-.21.48-.31.72-.09.22-.19.44-.27.66-.1.24-.19.48-.28.73-.08.22-.17.45-.25.67-.09.25-.17.49-.25.74-.07.22-.15.45-.22.67-.08.25-.15.51-.23.76-.07.23-.13.45-.19.68-.07.26-.13.51-.2.77-.06.23-.12.45-.17.68-.06.26-.12.53-.17.79-.05.22-.1.45-.14.67-.05.27-.1.55-.14.82-.04.22-.08.44-.11.66-.04.28-.08.57-.12.85-.03.21-.06.43-.08.64-.03.3-.06.6-.09.9-.02.2-.04.41-.06.61-.03.33-.04.66-.06,1,0,.17-.02.35-.03.52-.02.51-.03,1.02-.03,1.53,0,.2,0,.41.01.6.01.87.06,1.73.13,2.59.02.26.05.51.07.77.06.62.14,1.24.23,1.85.04.27.08.54.12.81.12.7.25,1.4.41,2.09.03.14.06.29.09.43.19.82.42,1.64.67,2.45.07.23.15.47.23.7.19.59.4,1.17.61,1.75.1.27.21.54.31.8.24.59.5,1.18.77,1.76.09.2.18.4.27.6.03.06.05.12.08.18h-26.14Zm33.74,1.31c-3.63-5.4-5.59-11.7-5.66-18.22v-.19c-.01-.08-.01-.17-.01-.26,0-7.07,2.17-13.83,6.27-19.54,4.97-6.91,12.27-11.66,20.56-13.35,2.23-.46,4.51-.69,6.77-.69,1.82,0,3.61.15,5.38.43.73.12,1.46.27,2.18.44,1.81.42,3.57.99,5.27,1.69.84.35,1.67.72,2.47,1.14.05.03.11.05.16.08.25.13.5.28.75.42.27.15.54.29.8.44,3.07,1.81,5.86,4.11,8.25,6.85,5.06,5.79,8,13.21,8.28,20.93.02.39.02.77.02,1.15,0,9.36-3.76,18.05-10.58,24.47-6.25,5.88-14.41,9.12-23,9.12-11.23,0-21.67-5.57-27.93-14.91Z"/><path class="cls-7" d="m189.03,214.78c-2.14,0-3.88,1.74-3.88,3.89,0,.75.22,1.44.59,2.03l-10.23,11.97c-.49-.21-1.03-.34-1.6-.34-1.23,0-2.32.56-3.06,1.43l-6.6-2.83c.01-.12.04-.24.04-.36,0-2.15-1.75-3.89-3.89-3.89s-3.89,1.75-3.89,3.89c0,.71.21,1.37.54,1.95l-5.84,6.49c-.39-.15-.81-.24-1.25-.24-1.88,0-3.41,1.53-3.41,3.41s1.53,3.41,3.41,3.41,3.41-1.53,3.41-3.41c0-.57-.15-1.1-.4-1.57l5.84-6.49c.49.22,1.02.35,1.59.35,1.17,0,2.21-.53,2.92-1.35l6.6,2.83c-.01.14-.04.28-.04.42,0,2.23,1.81,4.04,4.04,4.04s4.04-1.81,4.04-4.04c0-.79-.24-1.53-.64-2.16l10.23-11.97c.46.19.97.3,1.5.3,2.14,0,3.88-1.74,3.88-3.88s-1.74-3.89-3.88-3.89Zm-39.24,27.4s.02-.07.04-.1l.22.2c-.09.06-.26.03-.26-.1Z"/></svg>