<?xml version="1.0" encoding="UTF-8"?><svg id="Layer_1" xmlns="http://www.w3.org/2000/svg" viewBox="0 0 1024 380"><defs><style>.cls-1{letter-spacing:-.02em;}.cls-2{letter-spacing:.21em;}.cls-3{letter-spacing:.21em;}.cls-4{letter-spacing:-.04em;}.cls-5{letter-spacing:.22em;}.cls-6{letter-spacing:-.28em;}.cls-7{letter-spacing:-.06em;}.cls-8{letter-spacing:.11em;}.cls-9{letter-spacing:-.06em;}.cls-10{letter-spacing:-.14em;}.cls-11{font-family:KozGoPr6N-Medium-83pv-RKSJ-H, 'Kozuka Gothic Pr6N';font-size:82px;font-weight:500;}.cls-11,.cls-12{fill:#fff;}.cls-13{letter-spacing:-.16em;}.cls-14{letter-spacing:-.11em;}.cls-15{letter-spacing:.17em;}.cls-12{stroke-width:0px;}.cls-16{letter-spacing:-.07em;}</style></defs><path class="cls-12" d="m239.4,94.57h-92.26c-11.92,0-21.63,9.7-21.63,21.63v62.81c0,11.92,9.7,21.63,21.63,21.63h6.27l11.85,28.25c.45,1.07,1.45,1.8,2.6,1.9.09,0,.18.01.27.01,1.05,0,2.04-.53,2.62-1.43l18.54-28.74h50.11c11.92,0,21.63-9.7,21.63-21.63v-62.81c0-11.93-9.7-21.63-21.63-21.63Zm15.4,84.44c0,8.49-6.91,15.4-15.4,15.4h-51.8c-1.06,0-2.04.54-2.62,1.43l-16.26,25.2-10.36-24.71c-.49-1.16-1.62-1.91-2.87-1.91h-8.34c-8.49,0-15.4-6.91-15.4-15.4v-62.81c0-8.49,6.91-15.4,15.4-15.4h92.26c8.49,0,15.4,6.91,15.4,15.4v62.81Z"/><path class="cls-12" d="m234.59,118.27h-85.05c-1.72,0-3.11,1.39-3.11,3.11s1.39,3.11,3.11,3.11h85.05c1.72,0,3.11-1.39,3.11-3.11s-1.39-3.11-3.11-3.11Z"/><path class="cls-12" d="m234.59,143.79h-85.05c-1.72,0-3.11,1.39-3.11,3.11s1.39,3.11,3.11,3.11h85.05c1.72,0,3.11-1.39,3.11-3.11s-1.39-3.11-3.11-3.11Z"/><path class="cls-12" d="m234.59,169.3h-85.05c-1.72,0-3.11,1.39-3.11,3.11s1.39,3.11,3.11,3.11h85.05c1.72,0,3.11-1.39,3.11-3.11s-1.39-3.11-3.11-3.11Z"/><path class="cls-12" d="m96.34,216.1c13.07,0,23.7-10.63,23.7-23.7v-6.03c0-13.07-10.63-23.7-23.7-23.7s-23.7,10.63-23.7,23.7v6.03c0,13.07,10.63,23.7,23.7,23.7Zm-17.47-29.73c0-9.63,7.84-17.47,17.47-17.47s17.47,7.84,17.47,17.47v6.03c0,9.63-7.84,17.47-17.47,17.47s-17.47-7.84-17.47-17.47v-6.03Z"/><path class="cls-12" d="m175.75,235.81h-34.42c-5.7-8.25-15.73-12.31-23.36-14.27-10.92-2.81-32.34-2.81-43.26,0-17.59,4.51-27.68,14.85-27.68,28.35v29.24h-6.51c-1.72,0-3.11,1.39-3.11,3.11s1.39,3.11,3.11,3.11h24.29c.21.04.42.07.64.07h36.68c.22,0,.43-.02.64-.07h60.1c1.38,0,2.59-.91,2.99-2.23l12.88-43.33c.28-.94.1-1.96-.49-2.75-.59-.79-1.51-1.25-2.5-1.25Zm-122.49,14.09c0-14.29,14.41-20.12,23-22.32,9.95-2.56,30.21-2.56,40.16,0,5.3,1.36,11.9,3.84,16.68,8.23h-16.47c-1.38,0-2.59.91-2.99,2.23l-10.77,36.25c-3.6-6.78-10.72-11.31-18.82-11.31h-8.19v-8.29c0-1.72-1.39-3.11-3.11-3.11s-3.11,1.39-3.11,3.11v11.41c0,1.72,1.39,3.11,3.11,3.11h11.3c6.47,0,12.05,4.09,14.16,9.93h-44.94v-29.24Zm107.29,29.24h-52.63l11.03-37.1h52.63l-11.03,37.1Z"/><text class="cls-11" transform="translate(325.26 130.08)"><tspan x="0" y="0">STEP 1:</tspan><tspan class="cls-8" x="-4.1" y="96">シン</tspan><tspan class="cls-15" x="178.61" y="96">プ</tspan><tspan class="cls-2" x="274.88" y="96">ル</tspan><tspan class="cls-5" x="374.43" y="96">明</tspan><tspan class="cls-3" x="474.8" y="96">瞭</tspan><tspan class="cls-1" x="574.36" y="96">な</tspan><tspan x="654.71" y="96"></tspan><tspan class="cls-13" x="-4.92" y="192">メ</tspan><tspan class="cls-10" x="63.96" y="192">ッ</tspan><tspan class="cls-4" x="134.48" y="192">セ</tspan><tspan class="cls-16" x="213.2" y="192">ージ</tspan><tspan class="cls-9" x="365.72" y="192">を</tspan><tspan class="cls-14" x="442.81" y="192">つ</tspan><tspan class="cls-6" x="515.79" y="192">く</tspan><tspan class="cls-7" x="574.83" y="192">る</tspan></text></svg>